<svg width="50" height="51" viewBox="0 0 50 51" fill="none" xmlns="http://www.w3.org/2000/svg">
<g clip-path="url(#clip0_105_1308)">
<path d="M50 25.501C50 22.3818 49.4499 19.3938 48.445 16.6315L25 15.5227L1.55498 16.6314C0.550098 19.3938 0 22.3818 0 25.501C0 28.6201 0.550098 31.6081 1.55498 34.3705L25 35.4792L48.445 34.3706C49.4499 31.6081 50 28.6201 50 25.501Z" fill="#F0F0F0"/>
<path d="M25 51.001C35.7491 51.001 44.9127 44.0809 48.445 34.3705H1.55498C5.0873 44.0809 14.2509 51.001 25 51.001Z" fill="#0052B4"/>
<path d="M1.55498 16.6315H48.4451C44.9127 6.92104 35.7491 0.000976562 25 0.000976562C14.2509 0.000976562 5.0873 6.92104 1.55498 16.6315V16.6315Z" fill="#D80027"/>
<path d="M31.5218 17.7402H27.1739L27.8986 12.1967L30.7971 9.97925L33.6956 12.1967V16.6315L31.5218 17.7402Z" fill="#338AF3"/>
<path d="M18.4782 17.7402H22.8261L22.1014 12.1967L19.2028 9.97925L16.3044 12.1967V16.6315L18.4782 17.7402Z" fill="#338AF3"/>
<path d="M27.8986 17.7402H22.1014V12.1967L25 9.97925L27.8986 12.1967V17.7402Z" fill="#0052B4"/>
<path d="M16.3044 16.6315V28.8271C16.3044 31.731 17.6796 34.3135 19.8007 35.9324L21.3225 35.5441L23.2428 37.5145C23.8106 37.6339 24.3982 37.6967 25.0001 37.6967C25.5987 37.6967 26.1834 37.6347 26.7482 37.5165L28.9403 35.6548L30.1993 35.9289C32.3195 34.31 33.6957 31.7302 33.6957 28.8271V16.6315H16.3044Z" fill="#F0F0F0"/>
<path d="M16.3044 16.6315H19.7826V20.1793H16.3044V16.6315Z" fill="#D80027"/>
<path d="M23.2608 16.6315H26.7391V20.1793H23.2608V16.6315Z" fill="#D80027"/>
<path d="M30.2174 16.6315H33.6956V20.1793H30.2174V16.6315Z" fill="#D80027"/>
<path d="M19.7826 20.1793H23.2608V23.727H19.7826V20.1793Z" fill="#D80027"/>
<path d="M26.7392 20.1793H30.2174V23.727H26.7392V20.1793Z" fill="#D80027"/>
<path d="M16.3044 23.726H19.7826V27.2737H16.3044V23.726Z" fill="#D80027"/>
<path d="M19.7826 27.2739H23.2608V30.8217H19.7826V27.2739Z" fill="#D80027"/>
<path d="M23.2608 23.726H26.7391V27.2737H23.2608V23.726Z" fill="#D80027"/>
<path d="M30.2174 23.726H33.6956V27.2737H30.2174V23.726Z" fill="#D80027"/>
<path d="M26.7392 27.2739H30.2174V30.8217H26.7392V27.2739Z" fill="#D80027"/>
<path d="M23.2608 30.8216H26.7391V34.3694H23.2608V30.8216Z" fill="#D80027"/>
<path d="M19.7826 30.8219H16.5288C16.8272 32.1407 17.414 33.3475 18.2185 34.3697H19.7826V30.8219Z" fill="#D80027"/>
<path d="M30.2174 34.3698H31.7815C32.5861 33.3476 33.1727 32.1408 33.4711 30.822H30.2174V34.3698Z" fill="#D80027"/>
<path d="M19.7826 34.3698V35.9178C20.7942 36.6943 21.9765 37.251 23.2608 37.5182V34.3698H19.7826Z" fill="#D80027"/>
<path d="M26.7392 34.3698V37.5182C28.0236 37.2512 29.2058 36.6943 30.2174 35.9178V34.3698H26.7392Z" fill="#D80027"/>
</g>
<defs>
<clipPath id="clip0_105_1308">
<rect width="50" height="51" fill="white" transform="translate(0 0.000976562)"/>
</clipPath>
</defs>
</svg>
