<svg width="50" height="51" viewBox="0 0 50 51" fill="none" xmlns="http://www.w3.org/2000/svg">
<g clip-path="url(#clip0_105_2422)">
<path d="M22.8261 27.7174C22.8261 27.7174 7.33691 7.46522 7.32227 7.46881C11.8463 2.85421 18.0964 0 25 0C38.807 0 50 11.4168 50 25.5L22.8261 27.7174Z" fill="#D80027"/>
<path d="M22.8261 25.5C22.8261 25.5 7.33691 43.5348 7.32227 43.5312C11.8463 48.1458 18.0964 51 25 51C38.807 51 50 39.5832 50 25.5H22.8261Z" fill="#0052B4"/>
<path d="M7.32231 7.46875C-2.44077 17.4271 -2.44077 33.5729 7.32231 43.5313C11.3568 39.4162 15.237 35.4584 25 25.5L7.32231 7.46875Z" fill="#F0F0F0"/>
<path d="M2.74036 25.5C2.72668 25.6831 2.71741 25.8676 2.71741 26.0542C2.71741 30.0342 5.88069 33.2608 9.78264 33.2608C13.6846 33.2608 16.8479 30.0342 16.8479 26.0542C16.8479 25.8676 16.8386 25.683 16.8249 25.5H2.74036Z" fill="#FFDA44"/>
<path d="M9.78269 22.1739C10.9833 22.1739 11.9566 21.1812 11.9566 19.9565C11.9566 18.7319 10.9833 17.7391 9.78269 17.7391C8.58206 17.7391 7.60876 18.7319 7.60876 19.9565C7.60876 21.1812 8.58206 22.1739 9.78269 22.1739Z" fill="#FFDA44"/>
<path d="M4.89136 19.4022V26.6088C4.89136 30.4278 9.78267 31.5979 9.78267 31.5979C9.78267 31.5979 14.674 30.4278 14.674 26.6088V19.4022H4.89136Z" fill="#D80027"/>
<path d="M9.78501 29.2772C8.87759 28.9441 7.06519 28.0928 7.06519 26.6086V21.6195H12.5V26.6086C12.5 28.0977 10.6878 28.9469 9.78501 29.2772V29.2772Z" fill="#338AF3"/>
<path d="M10.8695 24.3913V23.2826L9.78257 22.7283L8.69556 23.2826V24.3913L8.1521 24.9457V27.1631H11.413V24.9457L10.8695 24.3913Z" fill="#F3F3F3"/>
</g>
<defs>
<clipPath id="clip0_105_2422">
<rect width="50" height="51" fill="white"/>
</clipPath>
</defs>
</svg>
