<svg width="50" height="52" viewBox="0 0 50 52" fill="none" xmlns="http://www.w3.org/2000/svg">
<g clip-path="url(#clip0_105_1197)">
<path d="M25 51.9893C38.8071 51.9893 50 40.5725 50 26.4893C50 12.406 38.8071 0.989258 25 0.989258C11.1929 0.989258 0 12.406 0 26.4893C0 40.5725 11.1929 51.9893 25 51.9893Z" fill="#F0F0F0"/>
<path d="M46.9603 14.2936C43.7299 8.25438 38.1749 3.69536 31.5218 1.86633L30.4349 14.2936H46.9603Z" fill="#0052B4"/>
<path d="M3.03979 14.2936H19.5652L18.4783 1.86633C11.8252 3.69536 6.27036 8.25448 3.03979 14.2936V14.2936Z" fill="#0052B4"/>
<path d="M30.4348 26.4893V38.6849H46.9602C48.8982 35.062 50 30.9069 50 26.4893H30.4348Z" fill="#6DA544"/>
<path d="M19.5652 26.4893H0C0 30.9069 1.10186 35.062 3.03975 38.6849H19.5651V26.4893H19.5652Z" fill="#6DA544"/>
<path d="M3.03979 38.6849C6.27036 44.7242 11.8252 49.2832 18.4783 51.1122L19.5652 40.2439L3.03979 38.6849Z" fill="#FFDA44"/>
<path d="M31.5218 51.1122C38.1749 49.2832 43.7299 44.7242 46.9603 38.6849L30.4349 40.2437L31.5218 51.1122Z" fill="#FFDA44"/>
<path d="M30.4348 40.2437L46.9603 38.6849H30.4348V40.2437Z" fill="#FFDA44"/>
<path d="M19.5653 38.6849H3.03979L19.5653 40.2437V38.6849Z" fill="#FFDA44"/>
<path d="M25 0.989258C22.7435 0.989258 20.5578 1.29605 18.4783 1.86771V51.1109C20.5578 51.6825 22.7435 51.9893 25 51.9893C27.2566 51.9893 29.4423 51.6825 31.5218 51.1108V1.86771C29.4423 1.29605 27.2566 0.989258 25 0.989258V0.989258Z" fill="#D80027"/>
<path d="M13.4471 6.53271L14.1215 8.65011H16.3044L14.5386 9.95878L15.2131 12.0762L13.4471 10.7676L11.6812 12.0762L12.3559 9.95878L10.5901 8.65011H12.7728L13.4471 6.53271Z" fill="#FFDA44"/>
</g>
<defs>
<clipPath id="clip0_105_1197">
<rect width="50" height="51" fill="white" transform="translate(0 0.989258)"/>
</clipPath>
</defs>
</svg>
