<svg width="50" height="51" viewBox="0 0 50 51" fill="none" xmlns="http://www.w3.org/2000/svg">
<g clip-path="url(#clip0_105_1280)">
<path d="M50 25.5C50 39.5832 38.807 51 25 51C11.193 51 0 39.5832 0 25.5C0 25.5061 25 0.00278906 25 0C38.807 0 50 11.4168 50 25.5Z" fill="#0052B4"/>
<path d="M24.9331 25.5H25C25 25.4771 25 25.4548 25 25.4318C24.9777 25.4546 24.9555 25.4773 24.9331 25.5Z" fill="#F0F0F0"/>
<path d="M25 13.3043C25 8.81742 25 5.87745 25 0H24.9958C11.1905 0.00239063 0 11.4181 0 25.5H13.0435V18.0083L20.3883 25.5H24.9332C24.9555 25.4773 24.9777 25.4546 25.0001 25.4318C25.0001 23.7138 25.0001 22.1809 25.0001 20.7962L17.6551 13.3043H25Z" fill="#F0F0F0"/>
<path d="M12.6479 3.32605C8.73779 5.59704 5.48711 8.91264 3.26074 12.9009V25.5H9.78252V9.97846V9.97826H24.9999C24.9999 7.88019 24.9999 5.88143 24.9999 3.32605H12.6479Z" fill="#D80027"/>
<path d="M25 22.3642L16.1177 13.3044H13.0435V13.3046L24.9998 25.5H25C25 25.5 25 23.3378 25 22.3642V22.3642Z" fill="#D80027"/>
<path d="M33.6957 25.5L34.1584 26.9519H35.6549L34.4442 27.8492L34.9067 29.3012L33.6957 28.4038L32.4848 29.3012L32.9473 27.8492L31.7366 26.9519H33.2332L33.6957 25.5Z" fill="#F0F0F0"/>
<path d="M27.5469 28.0979L28.8804 28.7909L29.9388 27.7114L29.7046 29.2193L31.0382 29.9124L29.5599 30.1511L29.3258 31.6591L28.6462 30.2988L27.168 30.5376L28.2265 29.4582L27.5469 28.0979Z" fill="#F0F0F0"/>
<path d="M25 34.3695L26.4234 33.8978L26.4236 32.3713L27.3031 33.6062L28.7267 33.1343L27.8469 34.3695L28.7267 35.6048L27.3031 35.133L26.4236 36.368V34.8415L25 34.3695Z" fill="#F0F0F0"/>
<path d="M27.5469 40.6412L28.2263 39.2809L27.168 38.2016L28.6463 38.4403L29.3258 37.0801L29.5599 38.588L31.0382 38.8266L29.7046 39.5198L29.9388 41.0278L28.8804 39.948L27.5469 40.6412Z" fill="#F0F0F0"/>
<path d="M33.6955 43.2391L33.233 41.7871H31.7363L32.9472 40.8898L32.4847 39.4379L33.6955 40.3352L34.9065 39.4379L34.444 40.8898L35.6548 41.7871H34.1582L33.6955 43.2391Z" fill="#F0F0F0"/>
<path d="M39.8443 40.6412L38.5107 39.9483L37.4525 41.0278L37.6866 39.5198L36.353 38.8268L37.8313 38.588L38.0655 37.0801L38.7449 38.4403L40.2232 38.2016L39.1647 39.281L39.8443 40.6412Z" fill="#F0F0F0"/>
<path d="M42.3912 34.3695L40.9677 34.8415V36.368L40.088 35.1329L38.6646 35.6048L39.5443 34.3695L38.6646 33.1343L40.088 33.6062L40.9677 32.3713V33.8978L42.3912 34.3695Z" fill="#F0F0F0"/>
<path d="M39.8443 28.098L39.165 29.4582L40.2232 30.5377L38.7449 30.2988L38.0655 31.6592L37.8313 30.1511L36.353 29.9123L37.6866 29.2193L37.4525 27.7115L38.5108 28.7909L39.8443 28.098Z" fill="#F0F0F0"/>
</g>
<defs>
<clipPath id="clip0_105_1280">
<rect width="50" height="51" fill="white"/>
</clipPath>
</defs>
</svg>
