<svg width="50" height="51" viewBox="0 0 50 51" fill="none" xmlns="http://www.w3.org/2000/svg">
<g clip-path="url(#clip0_105_1651)">
<path d="M25 51C38.8071 51 50 39.5833 50 25.5C50 11.4167 38.8071 0 25 0C11.1929 0 0 11.4167 0 25.5C0 39.5833 11.1929 51 25 51Z" fill="#F0F0F0"/>
<path d="M25.0001 51C31.3396 51 37.127 48.5918 41.5339 44.625H8.46631C12.8732 48.5918 18.6605 51 25.0001 51Z" fill="#D80027"/>
<path d="M0.787598 31.875C1.3584 34.1367 2.22617 36.2767 3.34531 38.25H46.6546C47.7737 36.2767 48.6415 34.1367 49.2123 31.875L25 29.9348L0.787598 31.875Z" fill="#0052B4"/>
<path d="M49.2123 19.125C48.6415 16.8633 47.7737 14.7233 46.6546 12.75L24.9999 12.1957C24.9999 7.74184 24.9999 3.53265 24.9999 0C23.1428 0 21.3328 0.206689 19.5911 0.598453C19.5577 0.606023 3.26074 13.718 3.26074 25.5C3.67744 25.5739 24.9999 27.7174 24.9999 27.7174C24.9999 27.7174 24.9999 22.8604 24.9999 19.125H49.2123Z" fill="#0052B4"/>
<path d="M25 15.9098V3.15976H17.0825L19.592 0.600098C9.29014 2.91761 1.37461 11.7155 0.163086 22.5897C0.0566406 23.5449 0 24.5156 0 25.5H12.6631V20.4176L17.6951 25.5H26.639L17.0824 15.9098H25Z" fill="#F0F0F0"/>
<path d="M25.0114 25.5001L15.6093 15.9099H12.6631V15.91L22.0651 25.5001H9.51084V12.7501H46.6547C45.2936 10.3502 43.5594 8.19825 41.5339 6.3751H9.51084V5.48608C6.98857 7.51981 4.86045 10.0387 3.26084 12.9049V25.5001H0C0 27.7014 0.273437 29.8376 0.787598 31.8751H49.2124C49.7266 29.8375 50 27.7014 50 25.5001H25.0114Z" fill="#D80027"/>
</g>
<defs>
<clipPath id="clip0_105_1651">
<rect width="50" height="51" fill="white"/>
</clipPath>
</defs>
</svg>
