<svg width="50" height="51" viewBox="0 0 50 51" fill="none" xmlns="http://www.w3.org/2000/svg">
<g clip-path="url(#clip0_105_2736)">
<path d="M43.6321 42.5001C47.5914 37.9886 50 32.0317 50 25.5001C50 18.9685 47.5913 13.0116 43.632 8.5001L25 6.65234L6.36797 8.5001C2.40869 13.0116 0 18.9685 0 25.5001C0 32.0317 2.40859 37.9886 6.36787 42.5001L25 44.3479L43.6321 42.5001Z" fill="#FFDA44"/>
<path d="M6.36816 8.49997H43.6323C39.0547 3.28372 32.4038 0 25.0002 0C17.5966 0 10.9457 3.28372 6.36816 8.49997Z" fill="black"/>
<path d="M0 25.5001L25 27.7175L50 25.5001C50 22.5194 49.497 19.6588 48.5754 17H1.42461C0.503027 19.6588 0 22.5194 0 25.5001H0Z" fill="#D80027"/>
<path d="M1.42461 34H48.5756C49.497 31.3412 50 28.4807 50 25.5H0C0 28.4807 0.503027 31.3412 1.42461 34V34Z" fill="black"/>
<path d="M43.6319 42.5H6.36768C10.9452 47.7163 17.5961 51.0001 24.9998 51.0001C32.4035 51.0001 39.0544 47.7163 43.6319 42.5Z" fill="#D80027"/>
<path d="M33.3425 25.5C33.3425 30.1998 29.6078 34.0092 25.0001 34.0092C20.3924 34.0092 16.6577 30.1998 16.6577 25.5C16.6577 20.8001 20.3924 16.9907 25.0001 16.9907C29.6078 16.9907 33.3425 20.8001 33.3425 25.5Z" fill="#F0F0F0"/>
<path d="M28.056 25.934L24.9998 24.5832C24.9998 24.5832 25.7148 22.1623 25.7529 21.9967C25.7808 21.8757 25.7956 21.7495 25.7956 21.6198C25.7956 21.1605 25.6131 20.7447 25.318 20.4439L26.0865 19.66C25.5948 19.1584 24.9154 18.8481 24.165 18.8481C23.4146 18.8481 22.7353 19.1583 22.2436 19.66L23.0121 20.4439C22.717 20.7448 22.5346 21.1606 22.5346 21.6198C22.5346 21.7877 22.5595 21.9496 22.6049 22.1025L21.4478 23.2827H23.5509C23.5509 23.2827 22.6813 24.6148 22.2066 25.7088C21.7319 26.8028 22.2132 28.1382 23.3103 28.6357L23.9446 28.9232L24.9998 29.9349V31.0435L23.9129 32.1522H26.0868V29.9348L27.0787 28.923H29.1303C29.1401 28.9022 29.1505 28.8819 29.1599 28.8606C29.6473 27.7417 29.1531 26.4312 28.056 25.934Z" fill="black"/>
</g>
<defs>
<clipPath id="clip0_105_2736">
<rect width="50" height="51" fill="white"/>
</clipPath>
</defs>
</svg>
