<svg width="50" height="51" viewBox="0 0 50 51" fill="none" xmlns="http://www.w3.org/2000/svg">
<g clip-path="url(#clip0_105_760)">
<path d="M25 51C38.8071 51 50 39.5833 50 25.5C50 11.4167 38.8071 0 25 0C11.1929 0 0 11.4167 0 25.5C0 39.5833 11.1929 51 25 51Z" fill="#F0F0F0"/>
<path d="M42.4939 7.28583C37.9849 2.7795 31.8112 0 25 0C22.8261 0 16.4654 2.7795 11.9565 7.28583H42.4939Z" fill="#F0F0F0"/>
<path d="M25 21.857H49.7449C49.3842 19.2846 48.6476 16.8362 47.5928 14.5713H23.9131L25 21.857Z" fill="#F0F0F0"/>
<path d="M2.40713 36.4284H47.5925C48.6474 34.1636 49.384 31.715 49.7447 29.1426H0.254883C0.615723 31.7151 1.35215 34.1637 2.40713 36.4284V36.4284Z" fill="#F0F0F0"/>
<path d="M7.50586 43.7144C12.0149 48.2207 18.1886 51.0002 24.9998 51.0002C31.811 51.0002 37.9847 48.2207 42.4938 43.7144H7.50586Z" fill="#F0F0F0"/>
<path d="M24.9998 0C12.4055 0 1.98809 9.49985 0.254883 21.8572H24.9998V0Z" fill="#F0F0F0"/>
<path d="M12.5 19.5502L11.4131 17.3329V12.8981L14.1305 10.6807L16.8479 12.8981V16.2241L17.9348 15.1155V17.3329L15.7608 19.5502H12.5Z" fill="#F0F0F0"/>
<path d="M6.65361 12.75L6.94141 13.6535H7.87266L7.11924 14.212L7.40713 15.1153L6.65361 14.5569L5.9001 15.1153L6.18799 14.212L5.43457 13.6535H6.36582L6.65361 12.75Z" fill="#F0F0F0"/>
<path d="M8.82744 10.5327L9.11523 11.4362H10.0466L9.29307 11.9947L9.58086 12.898L8.82744 12.3397L8.07402 12.898L8.36191 11.9947L7.6084 11.4362H8.53955L8.82744 10.5327Z" fill="#F0F0F0"/>
<path d="M11.0013 8.31543L11.2891 9.21889H12.2202L11.4669 9.7774L11.7546 10.6808L11.0013 10.1224L10.2478 10.6808L10.5355 9.7774L9.78223 9.21889H10.7134L11.0013 8.31543Z" fill="#F0F0F0"/>
<path d="M21.6066 12.75L21.3188 13.6535H20.3877L21.141 14.212L20.8532 15.1153L21.6066 14.5569L22.3602 15.1153L22.0724 14.212L22.8257 13.6535H21.8945L21.6066 12.75Z" fill="#F0F0F0"/>
<path d="M19.4328 10.5327L19.145 11.4362H18.2139L18.9672 11.9947L18.6794 12.898L19.4328 12.3397L20.1863 12.898L19.8984 11.9947L20.6519 11.4362H19.7207L19.4328 10.5327Z" fill="#F0F0F0"/>
<path d="M17.2591 8.31543L16.9712 9.21889H16.04L16.7934 9.7774L16.5056 10.6808L17.2591 10.1224L18.0125 10.6808L17.7247 9.7774L18.478 9.21889H17.5469L17.2591 8.31543Z" fill="#F0F0F0"/>
<path d="M14.1302 7.20654L13.8423 8.11H12.9111L13.6645 8.66841L13.3767 9.57177L14.1302 9.01346L14.8836 9.57177L14.5958 8.66841L15.3491 8.11H14.418L14.1302 7.20654Z" fill="#F0F0F0"/>
</g>
<defs>
<clipPath id="clip0_105_760">
<rect width="50" height="51" fill="white"/>
</clipPath>
</defs>
</svg>
