<svg width="50" height="51" viewBox="0 0 50 51" fill="none" xmlns="http://www.w3.org/2000/svg">
<g clip-path="url(#clip0_105_1551)">
<path d="M1.55498 34.3704C5.0873 44.0807 14.2509 51.0009 25 51.0009C35.7491 51.0009 44.9127 44.0807 48.445 34.3704L25 32.1531L1.55498 34.3704Z" fill="#FFDA44"/>
<path d="M25 0.000976562C14.2509 0.000976562 5.0873 6.92104 1.55498 16.6315L25 18.8488L48.445 16.6314C44.9127 6.92104 35.7491 0.000976562 25 0.000976562Z" fill="black"/>
<path d="M1.55498 16.6315C0.550098 19.3939 0 22.3818 0 25.501C0 28.6202 0.550098 31.608 1.55498 34.3705H48.4451C49.45 31.608 50 28.6202 50 25.501C50 22.3818 49.45 19.3939 48.445 16.6315H1.55498Z" fill="#D80027"/>
</g>
<defs>
<clipPath id="clip0_105_1551">
<rect width="50" height="51" fill="white" transform="translate(0 0.000976562)"/>
</clipPath>
</defs>
</svg>
