<svg width="50" height="51" viewBox="0 0 50 51" fill="none" xmlns="http://www.w3.org/2000/svg">
<g clip-path="url(#clip0_105_1753)">
<path d="M25 51C38.8071 51 50 39.5833 50 25.5C50 11.4167 38.8071 0 25 0C11.1929 0 0 11.4167 0 25.5C0 39.5833 11.1929 51 25 51Z" fill="#338AF3"/>
<path d="M39.1306 25.7773H10.8696C10.8696 27.7674 12.5689 29.3806 14.5198 29.3806H14.4022C14.4022 31.3707 15.9838 32.9839 17.9349 32.9839C17.9349 34.974 19.5164 36.5872 21.4675 36.5872H28.5327C30.4838 36.5872 32.0653 34.974 32.0653 32.9839C34.0164 32.9839 35.5979 31.3707 35.5979 29.3806H35.4804C37.4311 29.3806 39.1306 27.7674 39.1306 25.7773V25.7773Z" fill="#FFDA44"/>
<path d="M34.7825 21.0654C34.7825 26.5762 30.4026 31.0437 24.9999 31.0437C19.5971 31.0437 15.2173 26.5762 15.2173 21.0654" fill="#338AF3"/>
<path d="M32.4722 21.0652L29.4189 22.5302L31.0448 25.5463L27.7294 24.8994L27.3093 28.3156L25 25.8029L22.6906 28.3156L22.2706 24.8994L18.9552 25.5461L20.581 22.5301L17.5278 21.0652L20.5811 19.6004L18.9552 16.5843L22.2705 17.2311L22.6907 13.8149L25 16.3276L27.3094 13.8149L27.7294 17.2311L31.0449 16.5843L29.419 19.6005L32.4722 21.0652Z" fill="#FFDA44"/>
</g>
<defs>
<clipPath id="clip0_105_1753">
<rect width="50" height="51" fill="white"/>
</clipPath>
</defs>
</svg>
