<svg width="50" height="51" viewBox="0 0 50 51" fill="none" xmlns="http://www.w3.org/2000/svg">
<g clip-path="url(#clip0_105_907)">
<path d="M25 51C38.8071 51 50 39.5833 50 25.5C50 11.4167 38.8071 0 25 0C11.1929 0 0 11.4167 0 25.5C0 39.5833 11.1929 51 25 51Z" fill="#FFDA44"/>
<path d="M15.2174 16.6305H48.4449C44.9127 6.92006 35.749 0 25 0C18.0963 0 11.8469 2.8547 7.32312 7.46961L15.2174 16.6305Z" fill="#338AF3"/>
<path d="M15.2174 34.3696H48.4449C44.9127 44.08 35.749 51.0001 25 51.0001C18.0963 51.0001 11.8469 48.1454 7.32312 43.5305L15.2174 34.3696Z" fill="#338AF3"/>
<path d="M7.32231 7.46875C-2.44077 17.4271 -2.44077 33.5729 7.32231 43.5313C11.3568 39.4162 15.237 35.4584 25 25.5L7.32231 7.46875Z" fill="black"/>
</g>
<defs>
<clipPath id="clip0_105_907">
<rect width="50" height="51" fill="white"/>
</clipPath>
</defs>
</svg>
