<svg width="50" height="51" viewBox="0 0 50 51" fill="none" xmlns="http://www.w3.org/2000/svg">
<g clip-path="url(#clip0_105_795)">
<path d="M25.0001 0C38.8071 0 50.0001 11.4168 50.0001 25.5C50.0001 39.5832 38.8071 51 25.0001 51C25.0001 49.8913 21.7393 25.5 21.7393 25.5L25.0001 0Z" fill="#F0F0F0"/>
<path d="M25 51C11.193 51 0 39.5832 0 25.5C0 11.4168 11.193 0 25 0" fill="#496E2D"/>
<path d="M30.3717 20.6089L28.3205 23.4921L24.9985 22.3932L27.053 25.2739L25.0021 28.1571L28.3228 27.0543L30.3772 29.9349L30.3751 26.3728L33.6959 25.2699L30.374 24.1712L30.3717 20.6089Z" fill="#D80027"/>
<path d="M27.0741 32.7065C23.1722 32.7065 20.0089 29.48 20.0089 25.5C20.0089 21.52 23.1722 18.2934 27.0741 18.2934C28.2907 18.2934 29.4355 18.6072 30.435 19.1597C28.867 17.5957 26.7229 16.6304 24.3567 16.6304C19.5542 16.6304 15.6611 20.6014 15.6611 25.4999C15.6611 30.3984 19.5543 34.3694 24.3567 34.3694C26.7229 34.3694 28.8671 33.4041 30.435 31.8401C29.4355 32.3928 28.2907 32.7065 27.0741 32.7065Z" fill="#D80027"/>
</g>
<defs>
<clipPath id="clip0_105_795">
<rect width="50" height="51" fill="white"/>
</clipPath>
</defs>
</svg>
