<svg width="50" height="51" viewBox="0 0 50 51" fill="none" xmlns="http://www.w3.org/2000/svg">
<g clip-path="url(#clip0_105_1055)">
<path d="M25 51C38.8071 51 50 39.5833 50 25.5C50 11.4167 38.8071 0 25 0C11.1929 0 0 11.4167 0 25.5C0 39.5833 11.1929 51 25 51Z" fill="#F0F0F0"/>
<path d="M45.833 28.5516C43.7497 28.5516 43.7497 26.6086 41.6663 26.6086C39.583 26.6086 39.583 28.5516 37.4998 28.5516C35.4166 28.5516 35.4165 26.6086 33.3333 26.6086C31.25 26.6086 31.2499 28.5516 29.1666 28.5516C27.0832 28.5516 27.0831 26.6086 24.9996 26.6086C22.9163 26.6086 22.9163 28.5516 20.8331 28.5516C18.75 28.5516 18.75 26.6086 16.6667 26.6086C14.5833 26.6086 14.5833 28.5516 12.4998 28.5516C10.4163 28.5516 10.4163 26.6086 8.33276 26.6086C6.24976 26.6086 6.24976 28.5516 4.16646 28.5516C2.09438 28.5516 2.08237 26.6301 0.0324707 26.6095C0.0901855 27.7759 0.226709 28.9211 0.433154 30.041C2.0937 30.2897 2.23911 31.9515 4.16665 31.9515C6.24995 31.9515 6.24995 30.0087 8.33296 30.0087C10.4165 30.0087 10.4165 31.9515 12.5 31.9515C14.5834 31.9515 14.5834 30.0087 16.6669 30.0087C18.7502 30.0087 18.7502 31.9515 20.8333 31.9515C22.9166 31.9515 22.9166 30.0087 24.9998 30.0087C27.0833 30.0087 27.0833 31.9515 29.1667 31.9515C31.2502 31.9515 31.2502 30.0087 33.3334 30.0087C35.4167 30.0087 35.4167 31.9515 37.5 31.9515C39.5833 31.9515 39.5833 30.0087 41.6665 30.0087C43.75 30.0087 43.75 31.9515 45.8332 31.9515C47.7608 31.9515 47.9062 30.2898 49.5668 30.041C49.7734 28.921 49.9097 27.776 49.9677 26.6095C47.9173 26.6302 47.9051 28.5516 45.833 28.5516V28.5516Z" fill="#0052B4"/>
<path d="M41.6663 33.2607C39.583 33.2607 39.583 35.2037 37.4998 35.2037C35.4166 35.2037 35.4165 33.2607 33.3333 33.2607C31.25 33.2607 31.2499 35.2037 29.1666 35.2037C27.0831 35.2037 27.0831 33.2607 24.9996 33.2607C22.9163 33.2607 22.9163 35.2037 20.8331 35.2037C18.75 35.2037 18.75 33.2607 16.6667 33.2607C14.5833 33.2607 14.5833 35.2037 12.4998 35.2037C10.4163 35.2037 10.4163 33.2607 8.33276 33.2607C6.24976 33.2607 6.24976 35.2037 4.16646 35.2037C2.63179 35.2037 2.22661 34.1501 1.28687 33.595C1.85601 35.3301 2.60356 36.9815 3.5064 38.5279C3.7019 38.576 3.91929 38.6037 4.16636 38.6037C6.24966 38.6037 6.24966 36.6609 8.33267 36.6609C10.4162 36.6609 10.4162 38.6037 12.4997 38.6037C14.5832 38.6037 14.5832 36.6609 16.6667 36.6609C18.75 36.6609 18.75 38.6037 20.833 38.6037C22.9163 38.6037 22.9163 36.6609 24.9995 36.6609C27.083 36.6609 27.083 38.6037 29.1665 38.6037C31.25 38.6037 31.25 36.6609 33.3332 36.6609C35.4165 36.6609 35.4165 38.6037 37.4997 38.6037C39.5829 38.6037 39.583 36.6609 41.6662 36.6609C43.7497 36.6609 43.7497 38.6037 45.8329 38.6037C46.0801 38.6037 46.2977 38.576 46.4933 38.5278C47.3962 36.9816 48.1437 35.3301 48.7127 33.5951C47.773 34.1502 47.3677 35.2038 45.8329 35.2038C43.7498 35.2037 43.7498 33.2607 41.6663 33.2607V33.2607Z" fill="#0052B4"/>
<path d="M49.4183 20.0156C47.8955 20.338 47.7013 21.8995 45.833 21.8995C43.7497 21.8995 43.7497 19.9565 41.6663 19.9565C39.583 19.9565 39.583 21.8995 37.4998 21.8995C35.4166 21.8995 35.4165 19.9565 33.3333 19.9565C31.25 19.9565 31.25 21.8995 29.1666 21.8995C27.0832 21.8995 27.0831 19.9565 24.9996 19.9565C23.8739 19.9565 23.3563 20.5237 22.7898 21.0453V24.4452C23.3563 23.9238 23.8738 23.3567 24.9996 23.3567C27.0831 23.3567 27.0831 25.2995 29.1666 25.2995C31.25 25.2995 31.25 23.3567 33.3333 23.3567C35.4166 23.3567 35.4166 25.2995 37.4998 25.2995C39.583 25.2995 39.5831 23.3567 41.6663 23.3567C43.7498 23.3567 43.7498 25.2995 45.833 25.2995C47.7606 25.2995 47.906 23.6378 49.5667 23.389C49.6731 23.389 49.792 23.3879 49.9138 23.3864C49.8215 22.2396 49.6545 21.1144 49.4183 20.0156V20.0156Z" fill="#0052B4"/>
<path d="M47.592 14.5704C47.1603 14.9402 46.6613 15.2474 45.833 15.2474C43.7497 15.2474 43.7497 13.3044 41.6663 13.3044C39.583 13.3044 39.583 15.2474 37.4998 15.2474C35.4166 15.2474 35.4165 13.3044 33.3333 13.3044C31.25 13.3044 31.25 15.2474 29.1666 15.2474C27.0832 15.2474 27.0831 13.3044 24.9996 13.3044C23.8739 13.3044 23.3563 13.8716 22.7898 14.3932V17.7931C23.3563 17.2717 23.8738 16.7046 24.9996 16.7046C27.0831 16.7046 27.0831 18.6474 29.1666 18.6474C31.2499 18.6474 31.2499 16.7046 33.3332 16.7046C35.4165 16.7046 35.4165 18.6474 37.4997 18.6474C39.5829 18.6474 39.5829 16.7046 41.6662 16.7046C43.7497 16.7046 43.7497 18.6474 45.8329 18.6474C47.3111 18.6474 47.7416 17.6707 48.6108 17.1027C48.3146 16.2364 47.9745 15.3913 47.592 14.5704V14.5704Z" fill="#0052B4"/>
<path d="M41.8443 6.65728C41.7865 6.65409 41.7276 6.6521 41.6664 6.6521C39.5831 6.6521 39.5831 8.59508 37.4999 8.59508C35.4166 8.59508 35.4166 6.6521 33.3333 6.6521C31.25 6.6521 31.25 8.59508 29.1666 8.59508C27.0831 8.59508 27.0831 6.6521 24.9996 6.6521C23.8739 6.6521 23.3563 7.21928 22.7898 7.74083V11.1408C23.3563 10.6193 23.8738 10.0523 24.9996 10.0523C27.0831 10.0523 27.0831 11.995 29.1666 11.995C31.25 11.995 31.25 10.0523 33.3333 10.0523C35.4166 10.0523 35.4166 11.995 37.4998 11.995C39.583 11.995 39.5831 10.0523 41.6663 10.0523C43.7498 10.0523 43.7498 11.995 45.833 11.995C45.9613 11.995 46.0811 11.9873 46.1946 11.9734C44.9845 10.0048 43.5193 8.21607 41.8443 6.65728V6.65728Z" fill="#0052B4"/>
<path d="M31.3898 0.842143C30.818 1.36688 30.3012 1.94322 29.1665 1.94322C27.083 1.94322 27.083 0.000443359 24.9996 0.000244141H24.9992C23.9219 0.00034375 23.4018 0.520006 22.8623 1.02194V4.422C23.4017 3.92007 23.922 3.40031 24.9996 3.40031C27.0831 3.40031 27.0831 5.34309 29.1666 5.34309C31.25 5.34309 31.25 3.40031 33.3333 3.40031C35.4166 3.40031 35.4166 5.34309 37.4998 5.34309C38.3739 5.34309 38.881 5.00083 39.3294 4.60379C36.9528 2.90495 34.2733 1.6174 31.3898 0.842143V0.842143Z" fill="#0052B4"/>
<path d="M29.1665 48.5083C27.083 48.5083 27.083 46.5653 24.9995 46.5653C22.9162 46.5653 22.9162 48.5083 20.833 48.5083C18.75 48.5083 18.75 46.5653 16.6667 46.5653C15.0709 46.5653 14.6965 47.7042 13.6731 48.2379C16.4954 49.7036 19.6269 50.6378 22.9414 50.9134C23.454 50.4357 23.9747 49.9654 24.9995 49.9654C26.0246 49.9654 26.5453 50.4357 27.058 50.9135C30.3725 50.638 33.5042 49.7037 36.3266 48.238C35.303 47.7044 34.9288 46.5652 33.3332 46.5652C31.25 46.5653 31.25 48.5083 29.1665 48.5083V48.5083Z" fill="#0052B4"/>
<path d="M37.4997 41.8561C35.4164 41.8561 35.4164 39.9131 33.3332 39.9131C31.2499 39.9131 31.2499 41.8561 29.1665 41.8561C27.083 41.8561 27.083 39.9131 24.9995 39.9131C22.9162 39.9131 22.9162 41.8561 20.833 41.8561C18.75 41.8561 18.75 39.9131 16.6667 39.9131C14.5832 39.9131 14.5832 41.8561 12.4997 41.8561C10.4162 41.8561 10.4162 39.9131 8.33267 39.9131C6.83452 39.9131 6.41382 40.9181 5.52075 41.4824C6.08052 42.1914 6.67563 42.8702 7.30542 43.5137C7.58755 43.3907 7.9186 43.3131 8.33257 43.3131C10.4161 43.3131 10.4161 45.2559 12.4996 45.2559C14.5831 45.2559 14.5831 43.3131 16.6666 43.3131C18.7499 43.3131 18.7499 45.2559 20.8329 45.2559C22.9162 45.2559 22.9162 43.3131 24.9994 43.3131C27.0829 43.3131 27.0829 45.2559 29.1664 45.2559C31.2499 45.2559 31.2499 43.3131 33.3331 43.3131C35.4163 43.3131 35.4164 45.2559 37.4996 45.2559C39.5828 45.2559 39.5829 43.3131 41.6661 43.3131C42.0805 43.3131 42.4116 43.3907 42.6939 43.5139C43.3238 42.8703 43.9189 42.1915 44.4787 41.4825C43.5855 40.9183 43.1648 39.9132 41.6662 39.9132C39.5829 39.9131 39.5829 41.8561 37.4997 41.8561V41.8561Z" fill="#0052B4"/>
<path d="M24.9331 25.5001H25C25 25.4772 25 25.4549 25 25.4319C24.9777 25.4547 24.9555 25.4774 24.9331 25.5001Z" fill="#F0F0F0"/>
<path d="M25 13.3042V20.7961L16.3044 12.1956L25 13.3042Z" fill="#0052B4"/>
<path d="M13.0436 25.5H20.3883L13.0435 15.5217L11.9565 23.2826L13.0436 25.5Z" fill="#0052B4"/>
<path d="M25 13.3043C25 8.81742 25 5.87745 25 0H24.9958C11.1906 0.00239063 0 11.4181 0 25.5H13.0436V18.0083L20.3883 25.5H24.9332C24.9555 25.4773 24.9777 25.4546 25.0001 25.4318C25.0001 23.7138 25.0001 22.1809 25.0001 20.7962L17.6551 13.3043H25Z" fill="#F0F0F0"/>
<path d="M12.6479 3.32617C8.73779 5.59717 5.48721 8.91276 3.26074 12.901V25.5001H9.78252V9.97858V9.97839H24.9999C24.9999 7.88031 24.9999 5.88155 24.9999 3.32617H12.6479Z" fill="#D80027"/>
<path d="M25 22.3642L16.1177 13.3044H13.0435V13.3046L24.9998 25.5H25C25 25.5 25 23.3378 25 22.3642V22.3642Z" fill="#D80027"/>
<path d="M32.6086 13.3044H42.3913L37.5 18.2936L32.6086 13.3044Z" fill="#6DA544"/>
<path d="M36.4131 17.1848H38.587V23.2826H36.4131V17.1848Z" fill="#A2001D"/>
<path d="M36.4131 33.261H38.587V39.3588H36.4131V33.261Z" fill="#A2001D"/>
<path d="M44.0217 29.9347C44.0217 28.0978 42.5618 26.6086 40.7609 26.6086C39.9255 26.6086 39.164 26.9294 38.587 27.4562V25.4999H39.6739V23.2825H38.587V22.1738H36.413V23.2825H35.3261V25.4999H36.413V27.4562C35.836 26.9294 35.0745 26.6086 34.2391 26.6086C32.4382 26.6086 30.9783 28.0978 30.9783 29.9347C30.9783 30.9195 31.3983 31.8041 32.0652 32.4132V34.3695H42.9347V32.4132C43.6017 31.8041 44.0217 30.9195 44.0217 29.9347V29.9347Z" fill="#FFDA44"/>
<path d="M40.7609 28.8262C40.4181 28.8262 40.178 28.9798 40.0369 29.1085L38.587 30.4324H36.4132L34.9633 29.1085C34.8222 28.9798 34.5821 28.8262 34.2393 28.8262C33.6399 28.8262 33.1523 29.3235 33.1523 29.9348C33.1523 30.3654 33.38 30.6375 33.5156 30.7615L34.2394 31.4225V32.1522H40.7611V31.4225L41.4849 30.7615C41.6205 30.6376 41.8481 30.3654 41.8481 29.9348C41.8479 29.3235 41.3604 28.8262 40.7609 28.8262V28.8262Z" fill="#D80027"/>
</g>
<defs>
<clipPath id="clip0_105_1055">
<rect width="50" height="51" fill="white"/>
</clipPath>
</defs>
</svg>
