<svg width="50" height="51" viewBox="0 0 50 51" fill="none" xmlns="http://www.w3.org/2000/svg">
<g clip-path="url(#clip0_105_2752)">
<path d="M25 51C38.8071 51 50 39.5833 50 25.5C50 11.4167 38.8071 0 25 0C11.1929 0 0 11.4167 0 25.5C0 39.5833 11.1929 51 25 51Z" fill="#F0F0F0"/>
<path d="M5.16807 9.9751C3.2043 12.5812 1.72354 15.5849 0.861328 18.848H13.867L5.16807 9.9751Z" fill="#0052B4"/>
<path d="M49.1393 18.8479C48.2771 15.5849 46.7962 12.5812 44.8325 9.9751L36.1338 18.8479H49.1393Z" fill="#0052B4"/>
<path d="M0.861328 32.1523C1.72363 35.4153 3.20439 38.4191 5.16807 41.0251L13.8667 32.1523H0.861328Z" fill="#0052B4"/>
<path d="M40.2203 5.27139C37.6653 3.26835 34.7206 1.75797 31.5215 0.878418V14.1441L40.2203 5.27139Z" fill="#0052B4"/>
<path d="M9.7793 45.7286C12.3343 47.7316 15.2791 49.242 18.4781 50.1215V36.856L9.7793 45.7286Z" fill="#0052B4"/>
<path d="M18.478 0.878418C15.279 1.75797 12.3342 3.26835 9.7793 5.27129L18.478 14.144V0.878418Z" fill="#0052B4"/>
<path d="M31.5215 50.1215C34.7205 49.242 37.6653 47.7316 40.2202 45.7287L31.5215 36.856V50.1215Z" fill="#0052B4"/>
<path d="M36.1338 32.1523L44.8325 41.0251C46.7962 38.4192 48.2771 35.4153 49.1393 32.1523H36.1338Z" fill="#0052B4"/>
<path d="M49.7884 22.1739H28.261H28.2609V0.215854C27.1935 0.0741094 26.1052 0 25 0C23.8946 0 22.8065 0.0741094 21.7392 0.215854V22.1737V22.1738H0.211621C0.0726563 23.2627 0 24.3727 0 25.5C0 26.6275 0.0726563 27.7373 0.211621 28.8261H21.739H21.7391V50.7841C22.8065 50.9259 23.8946 51 25 51C26.1052 51 27.1935 50.926 28.2608 50.7841V28.8263V28.8262H49.7884C49.9273 27.7373 50 26.6275 50 25.5C50 24.3727 49.9273 23.2627 49.7884 22.1739V22.1739Z" fill="#D80027"/>
<path d="M31.5215 32.1524L42.6773 43.5314C43.1904 43.0083 43.6799 42.4613 44.1469 41.8943L34.5959 32.1523H31.5215V32.1524Z" fill="#D80027"/>
<path d="M18.4782 32.1523H18.478L7.32227 43.5312C7.83516 44.0546 8.37139 44.5538 8.92725 45.0301L18.4782 35.2879V32.1523Z" fill="#D80027"/>
<path d="M18.4779 18.848V18.8478L7.32207 7.46875C6.80898 7.9919 6.31953 8.53885 5.85254 9.10583L15.4036 18.8479H18.4779V18.848Z" fill="#D80027"/>
<path d="M31.5215 18.8482L42.6774 7.46904C42.1646 6.94569 41.6283 6.44645 41.0725 5.97021L31.5215 15.7123V18.8482Z" fill="#D80027"/>
</g>
<defs>
<clipPath id="clip0_105_2752">
<rect width="50" height="51" fill="white"/>
</clipPath>
</defs>
</svg>
