<svg width="50" height="51" viewBox="0 0 50 51" fill="none" xmlns="http://www.w3.org/2000/svg">
<g clip-path="url(#clip0_105_1852)">
<path d="M50 25.4999C50 39.5831 38.807 50.9999 25 50.9999C11.193 50.9999 0 39.5831 0 25.4999C1.08691 25.4999 25 22.1738 25 22.1738L50 25.4999Z" fill="#D80027"/>
<path d="M0 25.5C0 11.4168 11.193 0 25 0C38.807 0 50 11.4168 50 25.5" fill="#0052B4"/>
<path d="M18.4783 17.7389C18.4783 15.902 17.0183 14.4128 15.2174 14.4128C14.382 14.4128 13.6206 14.7336 13.0435 15.2604V13.3041H14.1304V11.0867H13.0435V9.97803H10.8696V11.0867H9.78267V13.3041H10.8696V15.2604C10.2925 14.7336 9.5311 14.4128 8.69565 14.4128C6.89478 14.4128 5.43481 15.902 5.43481 17.7389C5.43481 18.7237 5.85483 19.6083 6.52173 20.2174V22.1737H17.3913V20.2174C18.0583 19.6083 18.4783 18.7237 18.4783 17.7389V17.7389Z" fill="#FFDA44"/>
</g>
<defs>
<clipPath id="clip0_105_1852">
<rect width="50" height="51" fill="white"/>
</clipPath>
</defs>
</svg>
