<svg width="50" height="51" viewBox="0 0 50 51" fill="none" xmlns="http://www.w3.org/2000/svg">
<g clip-path="url(#clip0_105_2285)">
<path d="M33.6955 1.58598C30.9871 0.5611 28.0579 1.32577e-08 24.9999 1.32577e-08C21.9419 -9.95961e-05 19.0126 0.5611 16.3043 1.58598L14.1304 25.4999L16.3043 49.4138C19.0125 50.439 21.9418 51 24.9999 51C28.0578 51 30.9872 50.439 33.6955 49.4138L35.8693 25.5L33.6955 1.58598Z" fill="#FFDA44"/>
<path d="M49.9999 25.5C49.9999 14.536 43.2156 5.18895 33.6956 1.58607V49.4141C43.2156 45.8108 49.9999 36.4642 49.9999 25.5Z" fill="#D80027"/>
<path d="M0 25.4999C0 36.4642 6.78438 45.8109 16.3042 49.414L16.3043 1.58618C6.78437 5.18905 0 14.5358 0 25.4999H0Z" fill="#0052B4"/>
</g>
<defs>
<clipPath id="clip0_105_2285">
<rect width="50" height="51" fill="white"/>
</clipPath>
</defs>
</svg>
