<svg width="50" height="51" viewBox="0 0 50 51" fill="none" xmlns="http://www.w3.org/2000/svg">
<g clip-path="url(#clip0_105_1903)">
<path d="M25 51C38.8071 51 50 39.5833 50 25.5C50 11.4167 38.8071 0 25 0C11.1929 0 0 11.4167 0 25.5C0 39.5833 11.1929 51 25 51Z" fill="#D80027"/>
<path d="M8.69556 13.3042H41.3042V37.6955H8.69556V13.3042Z" fill="#6DA544"/>
<path d="M29.026 32.7065C25.1241 32.7065 21.9608 29.48 21.9608 25.5C21.9608 21.52 25.1241 18.2934 29.026 18.2934C30.2426 18.2934 31.3875 18.6072 32.3869 19.1597C30.819 17.5957 28.675 16.6304 26.3086 16.6304C21.5063 16.6304 17.613 20.6014 17.613 25.4999C17.613 30.3984 21.5063 34.3694 26.3086 34.3694C28.675 34.3694 30.8191 33.4041 32.3869 31.8401C31.3875 32.3928 30.2426 32.7065 29.026 32.7065Z" fill="#F0F0F0"/>
</g>
<defs>
<clipPath id="clip0_105_1903">
<rect width="50" height="51" fill="white"/>
</clipPath>
</defs>
</svg>
