<svg width="51" height="51" viewBox="0 0 51 51" fill="none" xmlns="http://www.w3.org/2000/svg">
<g clip-path="url(#clip0_105_2075)">
<path d="M50.9883 25.5C50.9883 39.5832 39.7953 51 25.9883 51C12.1812 51 0.988281 39.5832 0.988281 25.5C0.988281 25.5061 25.9883 0.00278906 25.9883 0C39.7953 0 50.9883 11.4168 50.9883 25.5Z" fill="#0052B4"/>
<path d="M25.9214 25.5001H25.9883C25.9883 25.4772 25.9883 25.4549 25.9883 25.4319C25.966 25.4547 25.9438 25.4774 25.9214 25.5001Z" fill="#F0F0F0"/>
<path d="M25.9883 13.3043C25.9883 8.81742 25.9883 5.87745 25.9883 0H25.9841C12.1789 0.00239063 0.988281 11.4181 0.988281 25.5H14.0317V18.0083L21.3767 25.5H25.9215C25.9437 25.4773 25.9661 25.4546 25.9884 25.4318C25.9884 23.7138 25.9884 22.1809 25.9884 20.7962L18.6434 13.3043H25.9883Z" fill="#F0F0F0"/>
<path d="M13.6361 3.32617C9.72607 5.59717 6.47549 8.91276 4.24902 12.901V25.5001H10.7708V9.97858V9.97839H25.9882C25.9882 7.88031 25.9882 5.88155 25.9882 3.32617H13.6361Z" fill="#D80027"/>
<path d="M25.9882 22.3642L17.1061 13.3044C17.1061 13.3044 14.0317 13.3046 14.0317 13.3044V13.3046L25.9881 25.5H25.9882C25.9882 25.5 25.9882 23.3378 25.9882 22.3642Z" fill="#D80027"/>
<path d="M44.282 18.9219L44.8216 20.6158H46.5678L45.1551 21.6627L45.6947 23.3566L44.282 22.3098L42.8692 23.3566L43.4089 21.6627L41.9961 20.6158H43.7423L44.282 18.9219Z" fill="#D80027"/>
<path d="M38.04 31.1174L38.8495 33.6585H41.4688L39.3496 35.2287L40.1592 37.7696L38.04 36.1993L35.9209 37.7696L36.7305 35.2287L34.6113 33.6585H37.2306L38.04 31.1174Z" fill="#D80027"/>
<path d="M38.2758 11.1609L38.9504 13.2785H41.1332L39.3671 14.5869L40.0417 16.7043L38.2758 15.3956L36.51 16.7043L37.1845 14.5869L35.4187 13.2785H37.6013L38.2758 11.1609Z" fill="#D80027"/>
<path d="M32.2695 18.8479L33.0789 21.3889H35.6982L33.5791 22.9592L34.3887 25.5001L32.2695 23.9298L30.1504 25.5001L30.96 22.9592L28.8408 21.3889H31.4601L32.2695 18.8479Z" fill="#D80027"/>
</g>
<defs>
<clipPath id="clip0_105_2075">
<rect width="50" height="51" fill="white" transform="translate(0.988281)"/>
</clipPath>
</defs>
</svg>
