<svg width="50" height="51" viewBox="0 0 50 51" fill="none" xmlns="http://www.w3.org/2000/svg">
<g clip-path="url(#clip0_105_1365)">
<path d="M25 51C38.8071 51 50 39.5833 50 25.5C50 11.4167 38.8071 0 25 0C11.1929 0 0 11.4167 0 25.5C0 39.5833 11.1929 51 25 51Z" fill="#F0F0F0"/>
<path d="M19.5653 22.1739H49.7883C48.1904 9.66231 37.7018 0 25 0C23.1333 0 21.3152 0.210475 19.5652 0.606123V22.1739H19.5653Z" fill="#D80027"/>
<path d="M13.0435 22.1738V3.10054C6.17895 6.92096 1.2647 13.9286 0.21167 22.1739H13.0435V22.1738Z" fill="#D80027"/>
<path d="M13.0434 28.826H0.21167C1.2647 37.0714 6.17895 44.079 13.0435 47.8994L13.0434 28.826Z" fill="#D80027"/>
<path d="M19.5652 28.8262V50.3939C21.3152 50.7895 23.1333 51 25 51C37.7018 51 48.1904 41.3377 49.7883 28.826H19.5652V28.8262Z" fill="#D80027"/>
</g>
<defs>
<clipPath id="clip0_105_1365">
<rect width="50" height="51" fill="white"/>
</clipPath>
</defs>
</svg>
