<svg width="50" height="51" viewBox="0 0 50 51" fill="none" xmlns="http://www.w3.org/2000/svg">
<g clip-path="url(#clip0_105_1920)">
<path d="M25 51C38.8071 51 50 39.5833 50 25.5C50 11.4167 38.8071 0 25 0C11.1929 0 0 11.4167 0 25.5C0 39.5833 11.1929 51 25 51Z" fill="#F0F0F0"/>
<path d="M49.7861 22.1737C49.0965 16.7962 46.7283 11.5999 42.678 7.46863C38.6277 3.33733 33.5333 0.921703 28.2612 0.218262L28.2613 22.1737H49.7861Z" fill="#0052B4"/>
<path d="M21.7393 0.218262C16.4672 0.921703 11.3728 3.33723 7.32246 7.46853C3.27227 11.5999 0.904004 16.7963 0.214355 22.1739L21.7394 22.1738L21.7393 0.218262Z" fill="#0052B4"/>
<path d="M0.214355 28.8262C0.904004 34.2037 3.27227 39.4001 7.32246 43.5313C11.3728 47.6625 16.4671 50.078 21.7394 50.7818L21.7393 28.8264L0.214355 28.8262Z" fill="#0052B4"/>
<path d="M28.2612 50.7815C33.5333 50.078 38.6276 47.6625 42.6779 43.5312C46.7282 39.3999 49.0964 34.2037 49.786 28.8262H28.2612V50.7815Z" fill="#0052B4"/>
<path d="M33.5339 16.1804C33.5339 15.8413 33.8041 15.5657 34.1366 15.5657H35.428C37.4694 15.5657 39.1303 13.8718 39.1303 11.7896C39.1303 9.70749 37.4695 8.01343 35.428 8.01343H34.2017C33.8014 7.70674 33.2644 7.51758 32.672 7.51758C31.4363 7.51758 30.4347 8.33487 30.4347 9.34312C30.4347 10.3416 31.4172 11.1516 32.6363 11.1674L32.6357 11.1746H35.428C35.7605 11.1746 36.0308 11.4504 36.0308 11.7894C36.0308 12.1285 35.7605 12.4041 35.428 12.4041H34.1366C32.0952 12.4041 30.4346 14.0981 30.4346 16.1802C30.4346 18.2623 32.0951 19.9564 34.1366 19.9564H39.1302V16.795H34.1366C33.8041 16.7951 33.5339 16.5195 33.5339 16.1804V16.1804Z" fill="#F0F0F0"/>
<path d="M13.9688 16.1804C13.9688 15.8413 14.2391 15.5657 14.5716 15.5657H15.863C17.9044 15.5657 19.5652 13.8718 19.5652 11.7896C19.5652 9.70749 17.9045 8.01343 15.863 8.01343H14.6366C14.2363 7.70674 13.6993 7.51758 13.1069 7.51758C11.8713 7.51758 10.8696 8.33487 10.8696 9.34312C10.8696 10.3416 11.8521 11.1516 13.0713 11.1674L13.0707 11.1746H15.8631C16.1956 11.1746 16.4658 11.4504 16.4658 11.7894C16.4658 12.1285 16.1956 12.4041 15.8631 12.4041H14.5717C12.5303 12.4041 10.8696 14.0981 10.8696 16.1802C10.8696 18.2623 12.5302 19.9564 14.5717 19.9564H19.5651V16.795H14.5716C14.2391 16.7951 13.9688 16.5195 13.9688 16.1804V16.1804Z" fill="#F0F0F0"/>
<path d="M33.534 39.7063C33.534 39.3672 33.8042 39.0916 34.1367 39.0916H35.4281C37.4695 39.0916 39.1304 37.3976 39.1304 35.3155C39.1304 33.2334 37.4696 31.5393 35.4281 31.5393H34.2018C33.8015 31.2326 33.2645 31.0435 32.6721 31.0435C31.4363 31.0435 30.4347 31.8609 30.4347 32.869C30.4347 33.8675 31.4172 34.6775 32.6363 34.6932L32.6357 34.7005H35.428C35.7605 34.7005 36.0308 34.9762 36.0308 35.3153C36.0308 35.6544 35.7605 35.93 35.428 35.93H34.1366C32.0952 35.93 30.4346 37.624 30.4346 39.7061C30.4346 41.7882 32.0951 43.4823 34.1366 43.4823H39.1303V40.321H34.1367C33.8042 40.3211 33.534 40.0453 33.534 39.7063V39.7063Z" fill="#F0F0F0"/>
<path d="M13.9689 39.7063C13.9689 39.3672 14.2392 39.0916 14.5717 39.0916H15.8631C17.9045 39.0916 19.5653 37.3976 19.5653 35.3155C19.5653 33.2334 17.9046 31.5393 15.8631 31.5393H14.6367C14.2364 31.2326 13.6994 31.0435 13.107 31.0435C11.8713 31.0435 10.8696 31.8609 10.8696 32.869C10.8696 33.8675 11.8521 34.6775 13.0713 34.6932L13.0707 34.7005H15.8631C16.1956 34.7005 16.4658 34.9762 16.4658 35.3153C16.4658 35.6544 16.1956 35.93 15.8631 35.93H14.5717C12.5303 35.93 10.8696 37.624 10.8696 39.7061C10.8696 41.7882 12.5302 43.4823 14.5717 43.4823H19.5652V40.321H14.5717C14.2392 40.3211 13.9689 40.0453 13.9689 39.7063Z" fill="#F0F0F0"/>
</g>
<defs>
<clipPath id="clip0_105_1920">
<rect width="50" height="51" fill="white"/>
</clipPath>
</defs>
</svg>
