<svg width="50" height="51" viewBox="0 0 50 51" fill="none" xmlns="http://www.w3.org/2000/svg">
<g clip-path="url(#clip0_105_997)">
<path d="M50 25.501C50 22.3818 49.45 19.3938 48.445 16.6315L25 15.5227L1.55498 16.6314C0.55 19.3938 0 22.3818 0 25.501C0 28.6201 0.55 31.6081 1.55498 34.3705L25 35.4792L48.445 34.3706C49.45 31.6081 50 28.6201 50 25.501Z" fill="#FFDA44"/>
<path d="M25 51.0011C35.7491 51.0011 44.9127 44.081 48.445 34.3706H1.55498C5.0873 44.081 14.2509 51.0011 25 51.0011Z" fill="#6DA544"/>
<path d="M1.55498 16.6315H48.4451C44.9127 6.92104 35.7491 0.000976562 25 0.000976562C14.2509 0.000976562 5.0873 6.92104 1.55498 16.6315V16.6315Z" fill="#D80027"/>
</g>
<defs>
<clipPath id="clip0_105_997">
<rect width="50" height="51" fill="white" transform="translate(0 0.000976562)"/>
</clipPath>
</defs>
</svg>
