<svg width="51" height="51" viewBox="0 0 51 51" fill="none" xmlns="http://www.w3.org/2000/svg">
<g clip-path="url(#clip0_105_2061)">
<path d="M25.9883 51C39.7954 51 50.9883 39.5833 50.9883 25.5C50.9883 11.4167 39.7954 0 25.9883 0C12.1812 0 0.988281 11.4167 0.988281 25.5C0.988281 39.5833 12.1812 51 25.9883 51Z" fill="#F0F0F0"/>
<path d="M50.8415 28.2718L50.8409 28.271L50.8408 28.2718H50.8415Z" fill="#0052B4"/>
<path d="M50.8408 28.2717C50.8408 28.2715 50.8409 28.2713 50.8409 28.2709L23.4244 0.132568C22.1876 0.261164 20.9773 0.481699 19.8005 0.7874C8.98613 3.59589 0.988281 25.5 0.988281 25.5C0.988281 25.5 35.9881 49.3898 39.981 46.6335C40.7799 46.0821 41.5459 45.4847 42.2752 44.8452L26.0269 28.2717H50.8408Z" fill="#0052B4"/>
<path d="M44.4665 25.5L20.1528 0.700195C9.16094 3.38138 0.988281 13.4664 0.988281 25.5C0.988281 39.5832 12.1812 51 25.9883 51C31.2255 51 36.0856 49.3563 40.1024 46.5486L19.4665 25.5H44.4665Z" fill="#D80027"/>
<path d="M24.7649 37.6517L21.7116 36.1869L23.3375 33.1708L20.0221 33.8178L19.602 30.4014L17.2927 32.914L14.9834 30.4014L14.5632 33.8178L11.2479 33.1707L12.8738 36.1869L9.82043 37.6517L12.8738 39.1165L11.2479 42.1327L14.5634 41.4858L14.9833 44.902L17.2927 42.3894L19.602 44.902L20.0221 41.4858L23.3374 42.1328L21.7115 39.1167L24.7649 37.6517Z" fill="#F0F0F0"/>
<path d="M22.7274 14.1429L20.5067 13.0776L21.6892 10.8839L19.2778 11.3545L18.9722 8.86963L17.2927 10.6972L15.6131 8.86963L15.3074 11.3545L12.896 10.8839L14.0786 13.0776L11.8578 14.1429L17.2927 15.2518L22.7274 14.1429Z" fill="#F0F0F0"/>
<path d="M23.8144 14.1431C23.8144 17.817 20.8945 20.7953 17.2927 20.7953C13.6908 20.7953 10.7709 17.817 10.7709 14.1431" fill="#F0F0F0"/>
</g>
<defs>
<clipPath id="clip0_105_2061">
<rect width="50" height="51" fill="white" transform="translate(0.988281)"/>
</clipPath>
</defs>
</svg>
