<svg width="50" height="51" viewBox="0 0 50 51" fill="none" xmlns="http://www.w3.org/2000/svg">
<g clip-path="url(#clip0_105_2364)">
<path d="M25 51C38.8071 51 50 39.5833 50 25.5C50 11.4167 38.8071 0 25 0C11.1929 0 0 11.4167 0 25.5C0 39.5833 11.1929 51 25 51Z" fill="#F0F0F0"/>
<path d="M40.2203 5.27133C36.0047 1.96619 30.7279 0 25 0C19.272 0 13.9951 1.96629 9.77954 5.27133L25 20.796L40.2203 5.27133Z" fill="#0052B4"/>
<path d="M5.16787 9.97534C1.92773 14.2752 0 19.6576 0 25.5001C0 31.3425 1.92773 36.725 5.16797 41.025L20.3884 25.5001L5.16787 9.97534Z" fill="#0052B4"/>
<path d="M9.77954 45.7287C13.9952 49.0338 19.272 51 25 51C30.7279 51 36.0047 49.0337 40.2204 45.7287L25 30.204L9.77954 45.7287Z" fill="#0052B4"/>
<path d="M44.8321 41.0248C48.0725 36.7249 50.0001 31.3425 50.0001 25.5001C50.0001 19.6576 48.0725 14.2752 44.8321 9.97534L29.6118 25.5001L44.8321 41.0248Z" fill="#0052B4"/>
</g>
<defs>
<clipPath id="clip0_105_2364">
<rect width="50" height="51" fill="white"/>
</clipPath>
</defs>
</svg>
