<svg width="50" height="51" viewBox="0 0 50 51" fill="none" xmlns="http://www.w3.org/2000/svg">
<g clip-path="url(#clip0_105_2469)">
<path d="M25 51C38.8071 51 50 39.5833 50 25.5C50 11.4167 38.8071 0 25 0C11.1929 0 0 11.4167 0 25.5C0 39.5833 11.1929 51 25 51Z" fill="#F0F0F0"/>
<path d="M7.32231 43.5313C-2.44077 33.5729 -2.44077 17.4272 7.32231 7.46875C7.32163 7.46985 21.7392 25.5 21.7392 25.5L7.32231 43.5313Z" fill="black"/>
<path d="M21.7393 25.5L3.31582 12.8011C2.74463 13.8139 2.24092 14.8709 1.80811 15.965L11.1352 25.5001L1.8084 35.0358C2.24082 36.1291 2.74404 37.1854 3.31484 38.1975L21.7393 25.5Z" fill="#FFDA44"/>
<path d="M49.7886 22.174H21.7387L7.32227 7.46912C5.76875 9.0537 4.41904 10.8458 3.31592 12.8012L15.7416 25.5L3.31494 38.1972C4.41807 40.1531 5.76836 41.9458 7.32227 43.5308L21.7387 28.8261H49.7886C49.9275 27.7373 50.0002 26.6273 50.0002 25.5C50.0002 24.3727 49.9275 23.2627 49.7886 22.174V22.174Z" fill="#6DA544"/>
<path d="M9.7793 45.7283C13.995 49.0335 19.2721 50.9999 25.0002 50.9999C36.5509 50.9999 46.2702 43.0091 49.139 32.1521H23.0894L9.7793 45.7283Z" fill="#0052B4"/>
<path d="M49.139 18.8478C46.2702 7.99076 36.5509 0 25.0002 0C19.2721 0 13.995 1.96639 9.7793 5.27163L23.0893 18.8478H49.139Z" fill="#D80027"/>
</g>
<defs>
<clipPath id="clip0_105_2469">
<rect width="50" height="51" fill="white"/>
</clipPath>
</defs>
</svg>
