<svg width="50" height="51" viewBox="0 0 50 51" fill="none" xmlns="http://www.w3.org/2000/svg">
<g clip-path="url(#clip0_105_1480)">
<path d="M50 25.501C50 39.5841 38.807 51.001 25 51.001C11.193 51.001 0 39.5841 0 25.501C0 25.5071 25 0.00376563 25 0.000976562C38.807 0.000976562 50 11.4178 50 25.501Z" fill="#0052B4"/>
<path d="M24.9331 25.501H25C25 25.4781 25 25.4557 25 25.4327C24.9777 25.4555 24.9555 25.4783 24.9331 25.501Z" fill="#F0F0F0"/>
<path d="M25 13.3053C25 8.8184 25 5.87843 25 0.000976562H24.9958C11.1906 0.00336719 0 11.4191 0 25.501H13.0435V18.0093L20.3884 25.501H24.9332L25.0001 25.4327C25.0001 23.7148 25.0001 22.1819 25.0001 20.7972L17.6551 13.3053H25Z" fill="#F0F0F0"/>
<path d="M12.6479 3.32703C8.73788 5.59802 5.4873 8.91362 3.26083 12.9019V25.501H9.78261V9.97944V9.97924H25C25 7.88117 25 5.88241 25 3.32703H12.6479Z" fill="#D80027"/>
<path d="M25 22.3652L16.1179 13.3054H13.0435V13.3056L24.9998 25.501H25C25 25.501 25 23.3388 25 22.3652Z" fill="#D80027"/>
<path d="M40.2174 29.9358V31.0444H31.5218V29.9358H28.2608V34.3705H30.4348V35.4793H41.3044V34.3705H43.4782V29.9358H40.2174Z" fill="#FFDA44"/>
<path d="M28.2608 13.3053V25.501C28.2608 31.4416 35.8695 33.2618 35.8695 33.2618C35.8695 33.2618 43.4782 31.4416 43.4782 25.501V13.3053H28.2608Z" fill="#338AF3"/>
<path d="M35.8691 22.402C33.9671 22.402 33.9671 24.1759 32.065 24.1759C30.163 24.1759 30.163 22.402 28.2609 22.402V25.5063C30.163 25.5063 30.163 27.2802 32.065 27.2802C33.9671 27.2802 33.9671 25.5063 35.8691 25.5063C37.7714 25.5063 37.7714 27.2802 39.6737 27.2802C41.5761 27.2802 41.576 25.5063 43.4783 25.5063V22.402C41.5761 22.402 41.5761 24.1759 39.6737 24.1759C37.7714 24.1759 37.7714 22.402 35.8691 22.402V22.402Z" fill="#F3F3F3"/>
<path d="M35.8691 16.1879C33.9671 16.1879 33.9671 17.9618 32.065 17.9618C30.163 17.9618 30.163 16.1879 28.2609 16.1879V19.2922C30.163 19.2922 30.163 21.0661 32.065 21.0661C33.9671 21.0661 33.9671 19.2922 35.8691 19.2922C37.7714 19.2922 37.7714 21.0661 39.6737 21.0661C41.5761 21.0661 41.576 19.2922 43.4783 19.2922V16.1879C41.5761 16.1879 41.5761 17.9618 39.6737 17.9618C37.7714 17.9618 37.7714 16.1879 35.8691 16.1879Z" fill="#F3F3F3"/>
</g>
<defs>
<clipPath id="clip0_105_1480">
<rect width="50" height="51" fill="white" transform="translate(0 0.000976562)"/>
</clipPath>
</defs>
</svg>
