<svg width="51" height="51" viewBox="0 0 51 51" fill="none" xmlns="http://www.w3.org/2000/svg">
<g clip-path="url(#clip0_105_2576)">
<path d="M25.5781 51C39.3852 51 50.5781 39.5833 50.5781 25.5C50.5781 11.4167 39.3852 0 25.5781 0C11.771 0 0.578125 11.4167 0.578125 25.5C0.578125 39.5833 11.771 51 25.5781 51Z" fill="#F0F0F0"/>
<path d="M25.5778 0C14.8287 0 5.66514 6.92006 2.13281 16.6305H49.0229C45.4905 6.92006 36.327 0 25.5778 0V0Z" fill="#D80027"/>
<path d="M25.5778 51.0001C36.327 51.0001 45.4905 44.08 49.0229 34.3696H2.13281C5.66514 44.08 14.8287 51.0001 25.5778 51.0001Z" fill="black"/>
<path d="M15.5162 19.4021L16.8651 23.6367H21.2307L17.6989 26.2542L19.0479 30.489L15.5162 27.8718L11.9845 30.489L13.3335 26.2542L9.80176 23.6367H14.1673L15.5162 19.4021Z" fill="#6DA544"/>
<path d="M35.6412 19.4021L36.9901 23.6367H41.3558L37.8239 26.2542L39.1729 30.489L35.6412 27.8718L32.1095 30.489L33.4585 26.2542L29.9268 23.6367H34.2923L35.6412 19.4021Z" fill="#6DA544"/>
</g>
<defs>
<clipPath id="clip0_105_2576">
<rect width="50" height="51" fill="white" transform="translate(0.578125)"/>
</clipPath>
</defs>
</svg>
