<svg width="50" height="51" viewBox="0 0 50 51" fill="none" xmlns="http://www.w3.org/2000/svg">
<g clip-path="url(#clip0_105_1244)">
<path d="M25 51C38.8071 51 50 39.5833 50 25.5C50 11.4167 38.8071 0 25 0C11.1929 0 0 11.4167 0 25.5C0 39.5833 11.1929 51 25 51Z" fill="#D80027"/>
<path d="M13.6816 15.5192L15.8398 22.2926H22.8223L17.1777 26.4862L19.3359 33.2596L13.6816 29.076L8.02734 33.2596L10.1953 26.4862L4.54102 22.2926H11.5234L13.6816 15.5192Z" fill="#FFDA44"/>
<path d="M29.6387 39.4951L27.9883 37.4233L25.5469 38.3895L26.9629 36.1483L25.3125 34.0664L27.8418 34.7537L29.2676 32.5125L29.4043 35.182L31.9434 35.8693L29.4922 36.8256L29.6387 39.4951Z" fill="#FFDA44"/>
<path d="M32.9199 33.419L33.7012 30.869L31.5625 29.325L34.1797 29.2852L34.9512 26.7352L35.8008 29.2652L38.418 29.2354L36.3184 30.8291L37.1582 33.3592L35.0195 31.8152L32.9199 33.419Z" fill="#FFDA44"/>
<path d="M37.3438 18.7166L36.1914 21.1172L38.0664 22.9799L35.4785 22.6014L34.3262 24.992L33.877 22.3623L31.2793 21.9838L33.6035 20.7387L33.1543 18.0991L35.0293 19.9618L37.3438 18.7166Z" fill="#FFDA44"/>
<path d="M29.707 11.4451L29.5117 14.1047L31.9434 15.1108L29.3945 15.7483L29.209 18.4178L27.832 16.1467L25.2832 16.7842L26.9727 14.7422L25.5859 12.4811L28.0176 13.4871L29.707 11.4451Z" fill="#FFDA44"/>
</g>
<defs>
<clipPath id="clip0_105_1244">
<rect width="50" height="51" fill="white"/>
</clipPath>
</defs>
</svg>
