<svg width="50" height="51" viewBox="0 0 50 51" fill="none" xmlns="http://www.w3.org/2000/svg">
<g clip-path="url(#clip0_105_976)">
<path d="M50 25.5C50 39.5832 38.807 51 25 51C11.193 51 0 39.5832 0 25.5C0 25.5061 25 0.00278906 25 0C38.807 0 50 11.4168 50 25.5Z" fill="#D80027"/>
<path d="M25 12.1956V20.7961L16.3044 12.1956H25Z" fill="#0052B4"/>
<path d="M13.0435 25.5H20.3883L13.0435 15.5217L11.9565 23.2826L13.0435 25.5Z" fill="#0052B4"/>
<path d="M24.9331 25.5001H25C25 25.4772 25 25.4549 25 25.4319C24.9777 25.4547 24.9555 25.4774 24.9331 25.5001Z" fill="#F0F0F0"/>
<path d="M25 13.3043C25 8.81742 25 5.87745 25 0H24.9958C11.1905 0.00239063 0 11.4181 0 25.5H13.0435V18.0083L20.3883 25.5H24.9332C24.9555 25.4773 24.9777 25.4546 25.0001 25.4318C25.0001 23.7138 25.0001 22.1809 25.0001 20.7962L17.6551 13.3043H25Z" fill="#F0F0F0"/>
<path d="M12.648 3.32617C8.73792 5.59717 5.48723 8.91276 3.26086 12.901V26.6088H9.78264V9.97858V9.97839H26.0869C26.0869 7.88031 26.0869 5.88155 26.0869 3.32617H12.648Z" fill="#D80027"/>
<path d="M25.9938 23.3778L16.1177 13.3044H13.0435V13.3046L25.9936 26.5137H25.9937C25.9938 26.5138 25.9938 24.3516 25.9938 23.3778V23.3778Z" fill="#D80027"/>
<path d="M28.2609 13.3044V25.5C28.2609 31.4407 43.4782 31.4407 43.4782 25.5V13.3044H28.2609Z" fill="#F3F3F3"/>
<path d="M28.2609 25.5001V25.5C28.2609 31.4407 35.8696 33.261 35.8696 33.261C35.8696 33.261 43.4782 31.4407 43.4782 25.5V25.5001H28.2609Z" fill="#6DA544"/>
<path d="M35.8695 20.6218L32.3369 22.174V25.5001L35.8695 27.7175L39.4021 25.5001V22.174L35.8695 20.6218Z" fill="#A2001D"/>
<path d="M32.3369 18.8479H39.4021V22.174H32.3369V18.8479Z" fill="#338AF3"/>
</g>
<defs>
<clipPath id="clip0_105_976">
<rect width="50" height="51" fill="white"/>
</clipPath>
</defs>
</svg>
