<svg width="50" height="51" viewBox="0 0 50 51" fill="none" xmlns="http://www.w3.org/2000/svg">
<g clip-path="url(#clip0_105_2881)">
<path d="M25 51C38.8071 51 50 39.5833 50 25.5C50 11.4167 38.8071 0 25 0C11.1929 0 0 11.4167 0 25.5C0 39.5833 11.1929 51 25 51Z" fill="#496E2D"/>
<path d="M34.7826 25.5H25V51C27.9223 51 30.7267 50.4869 33.3333 49.5471L34.7826 25.5Z" fill="#D80027"/>
<path d="M41.6665 44.5048C46.7806 39.8357 49.9999 33.0517 49.9999 25.5H40.2173L41.6665 44.5048Z" fill="#FF9811"/>
<path d="M33.3335 25.5V49.5471C36.4387 48.4274 39.2623 46.7003 41.6669 44.5049V25.5H33.3335Z" fill="black"/>
<path d="M46.1956 16.6305H39.6738C39.6738 15.4059 38.7005 14.4131 37.4999 14.4131C36.2993 14.4131 35.326 15.4059 35.326 16.6305H28.8042C28.8042 17.8552 29.85 18.8479 31.0505 18.8479H30.9781C30.9781 20.0726 31.9513 21.0653 33.1521 21.0653C33.1521 22.29 34.1252 23.2827 35.326 23.2827H39.6738C40.8744 23.2827 41.8478 22.29 41.8478 21.0653C43.0483 21.0653 44.0217 20.0726 44.0217 18.8479H43.9493C45.1499 18.8478 46.1956 17.8551 46.1956 16.6305V16.6305Z" fill="#FF9811"/>
</g>
<defs>
<clipPath id="clip0_105_2881">
<rect width="50" height="51" fill="white"/>
</clipPath>
</defs>
</svg>
