<svg width="50" height="51" viewBox="0 0 50 51" fill="none" xmlns="http://www.w3.org/2000/svg">
<g clip-path="url(#clip0_105_2262)">
<path d="M25 51C38.8071 51 50 39.5833 50 25.5C50 11.4167 38.8071 0 25 0C11.1929 0 0 11.4167 0 25.5C0 39.5833 11.1929 51 25 51Z" fill="#F0F0F0"/>
<path d="M49.9996 25.5C49.9996 11.4168 38.8066 0 24.9996 0C20.109 0 15.5471 1.43388 11.6937 3.90977L17.1735 6.28455L9.78223 9.48779L17.1735 12.6909L9.78223 15.894L17.1735 19.0969L9.78223 22.2995L17.1735 25.5018L9.78223 28.7048L17.1735 31.9077L9.78223 35.1102L17.1735 38.3131L9.78223 41.5161L17.1735 44.7186L11.6962 47.0921C15.549 49.5668 20.11 51 24.9996 51C38.8066 51 49.9996 39.5832 49.9996 25.5Z" fill="#751A46"/>
</g>
<defs>
<clipPath id="clip0_105_2262">
<rect width="50" height="51" fill="white"/>
</clipPath>
</defs>
</svg>
