<svg width="50" height="51" viewBox="0 0 50 51" fill="none" xmlns="http://www.w3.org/2000/svg">
<g clip-path="url(#clip0_105_1704)">
<path d="M25 51C38.8071 51 50 39.5833 50 25.5C50 11.4167 38.8071 0 25 0C11.1929 0 0 11.4167 0 25.5C0 39.5833 11.1929 51 25 51Z" fill="#F0F0F0"/>
<path d="M25.0002 0C14.2511 0 5.0875 6.92006 1.55518 16.6305H48.4453C44.9129 6.92006 35.7493 0 25.0002 0V0Z" fill="#A2001D"/>
<path d="M25.0002 51.0001C35.7493 51.0001 44.9129 44.08 48.4452 34.3696H1.55518C5.0875 44.08 14.2511 51.0001 25.0002 51.0001Z" fill="black"/>
<path d="M19.022 23.8368C19.0083 23.8368 18.9949 23.8377 18.9812 23.8379V23.8368H14.2022C14.4445 22.8819 15.2939 22.1737 16.3046 22.1737V18.8477C13.3078 18.8477 10.8698 21.3345 10.8698 24.3911V27.1075V27.1629H18.9812H19.022C19.3217 27.1629 19.5654 27.4117 19.5654 27.7173V28.8259H8.6958V32.152H22.8263V27.7172C22.8263 25.5776 21.1196 23.8368 19.022 23.8368V23.8368Z" fill="#496E2D"/>
<path d="M27.1739 28.8259V18.8477H23.9131V32.1521H29.3479V28.8259H27.1739Z" fill="#496E2D"/>
<path d="M38.0437 28.826V18.8477H34.7829V28.826H33.6959V25.5H30.4351V32.1522H40.2177V28.826H38.0437Z" fill="#496E2D"/>
</g>
<defs>
<clipPath id="clip0_105_1704">
<rect width="50" height="51" fill="white"/>
</clipPath>
</defs>
</svg>
