<svg width="50" height="51" viewBox="0 0 50 51" fill="none" xmlns="http://www.w3.org/2000/svg">
<g clip-path="url(#clip0_105_2387)">
<path d="M25 51C38.8071 51 50 39.5833 50 25.5C50 11.4167 38.8071 0 25 0C11.1929 0 0 11.4167 0 25.5C0 39.5833 11.1929 51 25 51Z" fill="#F0F0F0"/>
<path d="M41.8758 6.68747C37.4285 2.53456 31.5046 0 24.9999 0C23.9351 0 22.8857 0.0684316 21.8559 0.200215L9.78252 14.4131L0.791016 31.888C1.37187 34.1851 2.25996 36.356 3.40576 38.3544L24.9999 25.5L41.8758 6.68747Z" fill="#FFDA44"/>
<path d="M45.8138 39.6284L10.8364 46.5134C14.8627 49.3424 19.7414 51 25.0002 51C33.6839 51 41.3322 46.4834 45.8138 39.6284V39.6284Z" fill="#6DA544"/>
<path d="M41.8792 6.69092L3.41992 38.3792C4.42588 40.1291 5.63027 41.7459 7.00205 43.1971L49.9998 25.5001C49.9998 18.0534 46.8698 11.3528 41.8792 6.69092V6.69092Z" fill="#D80027"/>
<path d="M0 25.5C0 27.706 0.274805 29.8465 0.791113 31.888L21.856 0.200195C9.53301 1.77741 0 12.503 0 25.5Z" fill="#0052B4"/>
</g>
<defs>
<clipPath id="clip0_105_2387">
<rect width="50" height="51" fill="white"/>
</clipPath>
</defs>
</svg>
