<svg width="51" height="51" viewBox="0 0 51 51" fill="none" xmlns="http://www.w3.org/2000/svg">
<g clip-path="url(#clip0_105_2539)">
<path d="M3.05879 14.413C1.46953 17.7654 0.578125 21.5264 0.578125 25.4999C0.578125 29.4734 1.46953 33.2344 3.05879 36.5868L25.5781 38.8042L48.0975 36.5868C49.6867 33.2344 50.5781 29.4734 50.5781 25.4999C50.5781 21.5264 49.6867 17.7654 48.0975 14.413L25.5781 12.1956L3.05879 14.413Z" fill="#F0F0F0"/>
<path d="M3.05957 36.5869C7.10312 45.1166 15.6665 51 25.578 51C35.4896 51 44.0529 45.1166 48.0965 36.5869H3.05957Z" fill="black"/>
<path d="M3.05957 14.4131H48.0965C44.0529 5.88343 35.4896 0 25.578 0C15.6665 0 7.10312 5.88343 3.05957 14.4131Z" fill="#D80027"/>
<path d="M7.90044 7.46875C-1.86265 17.4271 -1.86265 33.5729 7.90044 43.5313C11.9349 39.4162 15.8151 35.4584 25.5782 25.5L7.90044 7.46875Z" fill="#496E2D"/>
</g>
<defs>
<clipPath id="clip0_105_2539">
<rect width="50" height="51" fill="white" transform="translate(0.578125)"/>
</clipPath>
</defs>
</svg>
