<svg width="50" height="51" viewBox="0 0 50 51" fill="none" xmlns="http://www.w3.org/2000/svg">
<g clip-path="url(#clip0_105_2254)">
<path d="M25 51C38.8071 51 50 39.5833 50 25.5C50 11.4167 38.8071 0 25 0C11.1929 0 0 11.4167 0 25.5C0 39.5833 11.1929 51 25 51Z" fill="#F0F0F0"/>
<path d="M25.0001 0C16.8212 0 9.55996 4.00659 4.99902 10.2H45.0012C40.4402 4.00659 33.179 0 25.0001 0Z" fill="#D80027"/>
<path d="M25.0001 51C33.179 51 40.4402 46.9934 45.0012 40.8H4.99902C9.55996 46.9934 16.8212 51 25.0001 51Z" fill="#D80027"/>
<path d="M0 25.5C0 27.2467 0.172656 28.9522 0.500684 30.6H49.4995C49.8275 28.9522 50 27.2467 50 25.5C50 23.7534 49.8273 22.0479 49.4994 20.4H0.500684C0.172656 22.0479 0 23.7534 0 25.5H0Z" fill="#D80027"/>
<path d="M7.32231 7.46869C-2.44077 17.427 -2.44077 33.5728 7.32231 43.5313C11.3568 39.4161 15.237 35.4583 25 25.5L7.32231 7.46869Z" fill="#0052B4"/>
<path d="M10.1181 18.8478L11.7367 23.9295H16.9756L12.7375 27.0703L14.3561 32.1522L10.1181 29.0114L5.87988 32.1522L7.49883 27.0703L3.26074 23.9295H8.49922L10.1181 18.8478Z" fill="#F0F0F0"/>
</g>
<defs>
<clipPath id="clip0_105_2254">
<rect width="50" height="51" fill="white"/>
</clipPath>
</defs>
</svg>
