<svg width="50" height="51" viewBox="0 0 50 51" fill="none" xmlns="http://www.w3.org/2000/svg">
<g clip-path="url(#clip0_105_1985)">
<path d="M24.9999 51C28.0579 51 30.9873 50.439 33.6955 49.4139L34.7825 25.5L33.6956 1.58608C30.9873 0.5611 28.0579 0 24.9999 0C21.9419 0 19.0125 0.5611 16.3043 1.58608L15.2173 25.5L16.3042 49.4139C19.0125 50.439 21.9419 51 24.9999 51Z" fill="#0052B4"/>
<path d="M0 25.5001C0 36.4642 6.78437 45.811 16.3044 49.414V1.58618C6.78437 5.18915 0 14.536 0 25.5001Z" fill="#A2001D"/>
<path d="M33.6956 1.58618V49.4141C43.2156 45.8111 49.9999 36.4642 49.9999 25.5001C49.9999 14.536 43.2156 5.18915 33.6956 1.58618V1.58618Z" fill="#A2001D"/>
<path d="M11.9565 25.5H14.1305V34.3695H11.9565V25.5Z" fill="#FFDA44"/>
<path d="M3.26074 25.5H5.43467V34.3695H3.26074V25.5Z" fill="#FFDA44"/>
<path d="M8.69541 31.0437C9.89604 31.0437 10.8693 30.0509 10.8693 28.8263C10.8693 27.6017 9.89604 26.6089 8.69541 26.6089C7.49478 26.6089 6.52148 27.6017 6.52148 28.8263C6.52148 30.0509 7.49478 31.0437 8.69541 31.0437Z" fill="#FFDA44"/>
<path d="M8.69556 22.1738C9.29584 22.1738 9.78247 21.6775 9.78247 21.0652C9.78247 20.4529 9.29584 19.9565 8.69556 19.9565C8.09527 19.9565 7.60864 20.4529 7.60864 21.0652C7.60864 21.6775 8.09527 22.1738 8.69556 22.1738Z" fill="#FFDA44"/>
<path d="M6.52173 32.1523H10.8696V34.3697H6.52173V32.1523Z" fill="#FFDA44"/>
<path d="M6.52173 23.2827H10.8696V25.5001H6.52173V23.2827Z" fill="#FFDA44"/>
<path d="M8.69541 13.3044L9.46533 15.721H11.9563L9.94121 17.2145L10.7105 19.631L8.69541 18.1375L6.68037 19.631L7.44971 17.2145L5.43457 15.721H7.92559L8.69541 13.3044Z" fill="#FFDA44"/>
</g>
<defs>
<clipPath id="clip0_105_1985">
<rect width="50" height="51" fill="white"/>
</clipPath>
</defs>
</svg>
