<svg width="50" height="51" viewBox="0 0 50 51" fill="none" xmlns="http://www.w3.org/2000/svg">
<g clip-path="url(#clip0_105_853)">
<path d="M50 25.5002C50 22.3811 49.45 19.3931 48.445 16.6307L25 15.522L1.55498 16.6306C0.550098 19.3931 0 22.3811 0 25.5002C0 28.6194 0.550098 31.6074 1.55498 34.3698L25 35.4785L48.445 34.3699C49.45 31.6074 50 28.6194 50 25.5002Z" fill="#0052B4"/>
<path d="M25.0002 51.0001C35.7493 51.0001 44.9129 44.08 48.4452 34.3696H1.55518C5.0875 44.08 14.2511 51.0001 25.0002 51.0001Z" fill="#FF9811"/>
<path d="M1.55518 16.6305H48.4453C44.9129 6.92006 35.7493 0 25.0002 0C14.2511 0 5.0875 6.92006 1.55518 16.6305V16.6305Z" fill="#D80027"/>
</g>
<defs>
<clipPath id="clip0_105_853">
<rect width="50" height="51" fill="white"/>
</clipPath>
</defs>
</svg>
