<svg width="50" height="51" viewBox="0 0 50 51" fill="none" xmlns="http://www.w3.org/2000/svg">
<g clip-path="url(#clip0_105_1457)">
<path d="M0 25.5C0 28.6192 0.550098 31.607 1.55498 34.3695L25 35.4783L48.445 34.3696C49.45 31.607 50 28.6192 50 25.5C50 22.3808 49.45 19.3929 48.445 16.6305L25 15.5217L1.55498 16.6304C0.550098 19.3929 0 22.3808 0 25.5H0Z" fill="black"/>
<path d="M25 0C14.2508 0 5.08726 6.92006 1.55493 16.6305H48.4451C44.9126 6.92006 35.7491 0 25 0V0Z" fill="#0052B4"/>
<path d="M48.445 34.3695H1.55493C5.08726 44.0798 14.2508 51 25 51C35.7491 51 44.9126 44.0798 48.445 34.3695Z" fill="#F0F0F0"/>
</g>
<defs>
<clipPath id="clip0_105_1457">
<rect width="50" height="51" fill="white"/>
</clipPath>
</defs>
</svg>
