<svg width="50" height="51" viewBox="0 0 50 51" fill="none" xmlns="http://www.w3.org/2000/svg">
<g clip-path="url(#clip0_105_2844)">
<path d="M47.5193 36.587C49.1087 33.2346 50 29.4736 50 25.5001C50 21.5266 49.1087 17.7657 47.5193 14.4132L25 12.1958L2.48066 14.4132C0.891309 17.7657 0 21.5266 0 25.5001C0 29.4736 0.891309 33.2346 2.48066 36.587L25 38.8045L47.5193 36.587Z" fill="#0052B4"/>
<path d="M24.9998 51C34.9112 51 43.4754 45.1166 47.5191 36.5869H2.48047C6.52422 45.1166 15.0883 51 24.9998 51Z" fill="#D80027"/>
<path d="M43.2978 30.5055L41.9773 31.558L42.5504 33.1638L41.161 32.2082L39.8405 33.2605L40.3022 31.6175L38.9131 30.6616L40.5878 30.602L41.0499 28.959L41.6231 30.5651L43.2978 30.5055Z" fill="#F0F0F0"/>
<path d="M39.9163 24.5321L39.0285 25.9817L40.1058 27.2907L38.4797 26.8778L37.5916 28.327L37.4745 26.622L35.8486 26.2083L37.4025 25.5679L37.2857 23.8628L38.3628 25.1724L39.9163 24.5321Z" fill="#F0F0F0"/>
<path d="M34.7359 20.0981L34.3877 21.7701L35.8389 22.6247L34.1724 22.8039L33.8239 24.4754L33.1423 22.9141L31.4756 23.0925L32.7211 21.9488L32.0396 20.3875L33.4907 21.242L34.7359 20.0981Z" fill="#F0F0F0"/>
<path d="M28.3813 17.7393L28.6147 19.4319L30.2648 19.7286L28.7588 20.4782L28.9921 22.1708L27.828 20.9412L26.3216 21.6905L27.1085 20.1811L25.9443 18.9517L27.5947 19.2484L28.3813 17.7393Z" fill="#F0F0F0"/>
<path d="M21.6188 17.7393L22.4057 19.2484L24.0557 18.9515L22.8919 20.1814L23.6783 21.6907L22.1723 20.9412L21.008 22.1705L21.2415 20.4782L19.7354 19.729L21.3856 19.4319L21.6188 17.7393Z" fill="#F0F0F0"/>
<path d="M15.2643 20.0981L16.5098 21.242L17.9606 20.3875L17.2793 21.9494L18.5245 23.0929L16.858 22.9141L16.1762 24.4754L15.8282 22.8036L14.1616 22.6251L15.6128 21.7703L15.2643 20.0981Z" fill="#F0F0F0"/>
<path d="M10.084 24.5323L11.638 25.1725L12.7147 23.8633L12.5982 25.5687L14.1518 26.2091L12.5259 26.6224L12.4088 28.3272L11.5211 26.878L9.89502 27.2912L10.9722 25.9819L10.084 24.5323Z" fill="#F0F0F0"/>
<path d="M6.70264 30.5058L8.37764 30.5654L8.95049 28.9595L9.41289 30.6026L11.0874 30.6623L9.69814 31.6181L10.1599 33.2611L8.83955 32.2088L7.4502 33.1644L8.02334 31.5583L6.70264 30.5058Z" fill="#F0F0F0"/>
<path d="M47.5191 14.4131C43.4754 5.88343 34.9112 0 24.9998 0C15.0883 0 6.52422 5.88343 2.48047 14.4131H47.5191Z" fill="#FFDA44"/>
</g>
<defs>
<clipPath id="clip0_105_2844">
<rect width="50" height="51" fill="white"/>
</clipPath>
</defs>
</svg>
