<svg width="50" height="51" viewBox="0 0 50 51" fill="none" xmlns="http://www.w3.org/2000/svg">
<g clip-path="url(#clip0_105_1725)">
<path d="M25 51C38.8071 51 50 39.5833 50 25.5C50 11.4167 38.8071 0 25 0C11.1929 0 0 11.4167 0 25.5C0 39.5833 11.1929 51 25 51Z" fill="#F0F0F0"/>
<path d="M50.0002 25.4999C50.0002 14.5358 43.2158 5.18891 33.6958 1.58594V49.4139C43.2158 45.8108 50.0002 36.464 50.0002 25.4999V25.4999Z" fill="#D80027"/>
<path d="M0 25.4999C0 36.464 6.78437 45.8108 16.3044 49.4138V1.58594C6.78437 5.18891 0 14.5358 0 25.4999Z" fill="#6DA544"/>
</g>
<defs>
<clipPath id="clip0_105_1725">
<rect width="50" height="51" fill="white"/>
</clipPath>
</defs>
</svg>
