<svg width="51" height="51" viewBox="0 0 51 51" fill="none" xmlns="http://www.w3.org/2000/svg">
<g clip-path="url(#clip0_105_2097)">
<path d="M3.46895 14.413C1.87969 17.7654 0.988281 21.5264 0.988281 25.4999C0.988281 29.4734 1.87969 33.2344 3.46895 36.5868L25.9883 38.8042L48.5076 36.5868C50.0969 33.2344 50.9883 29.4734 50.9883 25.4999C50.9883 21.5264 50.0969 17.7654 48.5076 14.413L25.9883 12.1956L3.46895 14.413Z" fill="#F0F0F0"/>
<path d="M3.46973 36.5869C7.51328 45.1166 16.0767 51 25.9882 51C35.8997 51 44.4631 45.1166 48.5066 36.5869H3.46973Z" fill="#6DA544"/>
<path d="M3.46973 14.4131H48.5066C44.4631 5.88343 35.8996 0 25.9882 0C16.0768 0 7.51328 5.88343 3.46973 14.4131Z" fill="#FF9811"/>
<path d="M25.9881 34.3694C30.7905 34.3694 34.6837 30.3984 34.6837 25.4999C34.6837 20.6014 30.7905 16.6304 25.9881 16.6304C21.1856 16.6304 17.2925 20.6014 17.2925 25.4999C17.2925 30.3984 21.1856 34.3694 25.9881 34.3694Z" fill="#FF9811"/>
</g>
<defs>
<clipPath id="clip0_105_2097">
<rect width="50" height="51" fill="white" transform="translate(0.988281)"/>
</clipPath>
</defs>
</svg>
