<svg width="50" height="51" viewBox="0 0 50 51" fill="none" xmlns="http://www.w3.org/2000/svg">
<g clip-path="url(#clip0_105_2498)">
<path d="M25 51C38.8071 51 50 39.5833 50 25.5C50 11.4167 38.8071 0 25 0C11.1929 0 0 11.4167 0 25.5C0 39.5833 11.1929 51 25 51Z" fill="#F0F0F0"/>
<path d="M48.0498 15.6141C44.2638 6.44094 35.37 0 25.0001 0C18.0964 0 11.8471 2.8547 7.32324 7.46961L13.584 15.6141H48.0498Z" fill="black"/>
<path d="M13.655 35.2937L7.32324 43.5305C11.8471 48.1454 18.0964 51.0001 25.0001 51.0001C35.405 51.0001 44.3241 44.5161 48.0884 35.2937H13.655Z" fill="#496E2D"/>
<path d="M5.43457 18.7555V32.1522H49.1387C49.6994 30.0314 49.9998 27.8017 49.9998 25.5C49.9998 23.165 49.6914 20.9039 49.1149 18.7555H5.43457Z" fill="#A2001D"/>
<path d="M7.32231 7.46875C-2.44077 17.4271 -2.44077 33.5729 7.32231 43.5313C11.3568 39.4162 15.237 35.4584 25 25.5L7.32231 7.46875Z" fill="#0052B4"/>
<path d="M8.14287 19.16L11.1941 23.5031L16.1871 21.8849L13.0806 26.1874L16.1318 30.5306L11.1604 28.8465L8.05371 33.1489L8.08789 27.8055L3.11621 26.1212L8.10879 24.5032L8.14287 19.16Z" fill="#FFDA44"/>
</g>
<defs>
<clipPath id="clip0_105_2498">
<rect width="50" height="51" fill="white"/>
</clipPath>
</defs>
</svg>
