<svg width="50" height="51" viewBox="0 0 50 51" fill="none" xmlns="http://www.w3.org/2000/svg">
<g clip-path="url(#clip0_105_2191)">
<path d="M25 51C38.8071 51 50 39.5833 50 25.5C50 11.4167 38.8071 0 25 0C11.1929 0 0 11.4167 0 25.5C0 39.5833 11.1929 51 25 51Z" fill="#F0F0F0"/>
<path d="M15.2175 16.6305H48.445C44.9128 6.92006 35.7491 0 25.0001 0C18.0964 0 11.8471 2.8547 7.32324 7.46961L15.2175 16.6305Z" fill="black"/>
<path d="M15.2175 34.3695H48.445C44.9128 44.0799 35.7491 51 25.0001 51C18.0964 51 11.8471 48.1453 7.32324 43.5304L15.2175 34.3695Z" fill="#6DA544"/>
<path d="M7.32231 7.46875C-2.44077 17.4271 -2.44077 33.5729 7.32231 43.5313C11.3568 39.4162 15.237 35.4584 25 25.5L7.32231 7.46875Z" fill="#D80027"/>
</g>
<defs>
<clipPath id="clip0_105_2191">
<rect width="50" height="51" fill="white"/>
</clipPath>
</defs>
</svg>
