<svg width="50" height="51" viewBox="0 0 50 51" fill="none" xmlns="http://www.w3.org/2000/svg">
<g clip-path="url(#clip0_105_1566)">
<path d="M25 51C38.8071 51 50 39.5833 50 25.5C50 11.4167 38.8071 0 25 0C11.1929 0 0 11.4167 0 25.5C0 39.5833 11.1929 51 25 51Z" fill="#F0F0F0"/>
<path d="M25 18.8478H49.1388C48.5119 16.4757 47.5592 14.2403 46.3307 12.1956H25V18.8478Z" fill="#338AF3"/>
<path d="M9.43789 45.4567H40.5622C42.8437 43.6031 44.8004 41.3518 46.3307 38.8044H3.66943C5.1998 41.3517 7.15645 43.6031 9.43789 45.4567V45.4567Z" fill="#338AF3"/>
<path d="M8.6957 6.16968C6.73027 7.89601 5.03115 9.92894 3.66943 12.1956H8.6957V6.16968Z" fill="#338AF3"/>
<path d="M25 25.5001C25 22.9027 25 20.7289 25 18.8479H15.2174V25.5001H8.69561V18.8479H0.86123C0.300781 20.969 0 23.1984 0 25.5001C0 27.8018 0.300781 30.0312 0.86123 32.1523H49.1389C49.6992 30.0312 50 27.8018 50 25.5001H25Z" fill="#338AF3"/>
<path d="M24.9999 0C21.5283 0 18.2222 0.722467 15.2173 2.02685V12.1957H24.9999C24.9999 9.87358 24.9999 7.89862 24.9999 5.54346H40.5621C36.2915 2.07427 30.8836 0 24.9999 0V0Z" fill="#338AF3"/>
</g>
<defs>
<clipPath id="clip0_105_1566">
<rect width="50" height="51" fill="white"/>
</clipPath>
</defs>
</svg>
