<svg width="50" height="51" viewBox="0 0 50 51" fill="none" xmlns="http://www.w3.org/2000/svg">
<g clip-path="url(#clip0_105_1302)">
<path d="M25 51C38.8071 51 50 39.5833 50 25.5C50 11.4167 38.8071 0 25 0C11.1929 0 0 11.4167 0 25.5C0 39.5833 11.1929 51 25 51Z" fill="#F0F0F0"/>
<path d="M48.445 16.6305H1.55498C0.550098 19.393 0 22.3808 0 25.5C0 28.6192 0.550098 31.6071 1.55498 34.3695H48.4451C49.45 31.6071 50 28.6192 50 25.5C50 22.3808 49.45 19.393 48.445 16.6305Z" fill="#D80027"/>
<path d="M25 0C17.4227 0 10.6334 3.43891 6.04871 8.86952H43.9511C39.3666 3.43891 32.5772 0 25 0V0Z" fill="#0052B4"/>
<path d="M43.9512 42.1305H6.04871C10.6334 47.5611 17.4227 51 25 51C32.5772 51 39.3666 47.5611 43.9512 42.1305Z" fill="#0052B4"/>
</g>
<defs>
<clipPath id="clip0_105_1302">
<rect width="50" height="51" fill="white"/>
</clipPath>
</defs>
</svg>
