<svg width="50" height="51" viewBox="0 0 50 51" fill="none" xmlns="http://www.w3.org/2000/svg">
<g clip-path="url(#clip0_105_1932)">
<path d="M25 51C38.8071 51 50 39.5833 50 25.5C50 11.4167 38.8071 0 25 0C11.1929 0 0 11.4167 0 25.5C0 39.5833 11.1929 51 25 51Z" fill="#496E2D"/>
<path d="M24.9998 29.4598C20.8371 29.4598 17.3596 26.4757 16.5063 22.4908C16.3753 23.1034 16.3042 23.7386 16.3042 24.3915C16.3042 29.2902 20.1973 33.261 24.9998 33.261C29.8023 33.261 33.6954 29.2901 33.6954 24.3915C33.6954 23.7386 33.6243 23.1034 33.4933 22.4907C32.64 26.4758 29.1625 29.4598 24.9998 29.4598Z" fill="#FFDA44"/>
<path d="M24.9999 17.7393L25.8093 20.2802H28.4287L26.3097 21.8505L27.119 24.3915L24.9999 22.821L22.8809 24.3915L23.6903 21.8505L21.5713 20.2802H24.1905L24.9999 17.7393Z" fill="#FFDA44"/>
</g>
<defs>
<clipPath id="clip0_105_1932">
<rect width="50" height="51" fill="white"/>
</clipPath>
</defs>
</svg>
