<svg width="51" height="51" viewBox="0 0 51 51" fill="none" xmlns="http://www.w3.org/2000/svg">
<g clip-path="url(#clip0_105_2131)">
<path d="M25.9883 51C39.7954 51 50.9883 39.5833 50.9883 25.5C50.9883 11.4167 39.7954 0 25.9883 0C12.1812 0 0.988281 11.4167 0.988281 25.5C0.988281 39.5833 12.1812 51 25.9883 51Z" fill="#F0F0F0"/>
<path d="M25.9884 0C18.4111 0 11.6218 3.43891 7.03711 8.86952H44.9396C40.355 3.43891 33.5656 0 25.9884 0V0Z" fill="#0052B4"/>
<path d="M44.9396 42.1304H7.03711C11.6218 47.561 18.4111 50.9999 25.9884 50.9999C33.5656 50.9999 40.355 47.561 44.9396 42.1304Z" fill="#0052B4"/>
<path d="M47.3189 12.1956H4.65762C2.33057 16.0689 0.988281 20.6243 0.988281 25.4999C0.988281 30.3755 2.33057 34.931 4.65762 38.8042H47.3189C49.646 34.931 50.9883 30.3755 50.9883 25.4999C50.9883 20.6243 49.646 16.0689 47.3189 12.1956Z" fill="#D80027"/>
<path d="M16.3686 35.3118C21.6813 35.3118 25.9881 30.9189 25.9881 25.4999C25.9881 20.0809 21.6813 15.688 16.3686 15.688C11.0558 15.688 6.74902 20.0809 6.74902 25.4999C6.74902 30.9189 11.0558 35.3118 16.3686 35.3118Z" fill="#F0F0F0"/>
<path d="M16.3688 15.688L18.5271 22.4635H25.523L19.8612 26.6513L22.0364 33.447L16.3688 29.2393L10.7099 33.4392L12.8765 26.6513L7.21973 22.4635H14.2104L16.3688 15.688Z" fill="#D80027"/>
</g>
<defs>
<clipPath id="clip0_105_2131">
<rect width="50" height="51" fill="white" transform="translate(0.988281)"/>
</clipPath>
</defs>
</svg>
