<svg width="50" height="51" viewBox="0 0 50 51" fill="none" xmlns="http://www.w3.org/2000/svg">
<g clip-path="url(#clip0_105_2607)">
<path d="M25 51.001C38.8071 51.001 50 39.5842 50 25.501C50 11.4177 38.8071 0.000976562 25 0.000976562C11.1929 0.000976562 0 11.4177 0 25.501C0 39.5842 11.1929 51.001 25 51.001Z" fill="#F0F0F0"/>
<path d="M48.445 16.6313H1.55498C0.55 19.3938 0 22.3817 0 25.5009C0 28.62 0.55 31.6079 1.55498 34.3704H48.4451C49.45 31.6079 50 28.62 50 25.5009C50 22.3817 49.45 19.3938 48.445 16.6313Z" fill="#0052B4"/>
<path d="M25.0001 0.000976562C17.4229 0.000976562 10.6335 3.43989 6.04883 8.87049H43.9513C39.3667 3.43989 32.5773 0.000976562 25.0001 0.000976562V0.000976562Z" fill="#D80027"/>
<path d="M43.9514 42.1313H6.04883C10.6335 47.562 17.4229 51.0009 25.0001 51.0009C32.5773 51.0009 39.3667 47.562 43.9514 42.1313Z" fill="#D80027"/>
</g>
<defs>
<clipPath id="clip0_105_2607">
<rect width="50" height="51" fill="white" transform="translate(0 0.000976562)"/>
</clipPath>
</defs>
</svg>
