<svg width="50" height="51" viewBox="0 0 50 51" fill="none" xmlns="http://www.w3.org/2000/svg">
<g clip-path="url(#clip0_105_1817)">
<path d="M25 51C38.8071 51 50 39.5833 50 25.5C50 11.4167 38.8071 0 25 0C11.1929 0 0 11.4167 0 25.5C0 39.5833 11.1929 51 25 51Z" fill="#F0F0F0"/>
<path d="M25 0C15.0885 0 6.5244 5.88343 2.48065 14.4131H47.5192C43.4756 5.88343 34.9114 0 25 0V0Z" fill="#D80027"/>
<path d="M25 51C34.9114 51 43.4756 45.1166 47.5193 36.5869H2.48065C6.5244 45.1166 15.0885 51 25 51Z" fill="#D80027"/>
<path d="M31.5218 29.9349L25 17.7393L18.4782 29.9349H23.3695V33.261H26.6305V29.9349H31.5218Z" fill="#6DA544"/>
</g>
<defs>
<clipPath id="clip0_105_1817">
<rect width="50" height="51" fill="white"/>
</clipPath>
</defs>
</svg>
