<svg width="50" height="51" viewBox="0 0 50 51" fill="none" xmlns="http://www.w3.org/2000/svg">
<g clip-path="url(#clip0_105_1579)">
<path d="M25 51C38.8071 51 50 39.5833 50 25.5C50 11.4167 38.8071 0 25 0C11.1929 0 0 11.4167 0 25.5C0 39.5833 11.1929 51 25 51Z" fill="#FFDA44"/>
<path d="M10.9097 4.43481C14.9219 1.63718 19.7732 0 25.0002 0C30.2271 0 35.0785 1.63718 39.0907 4.43481L25.0002 5.54346L10.9097 4.43481Z" fill="#A2001D"/>
<path d="M25.0001 25.5L23.4046 23.8726L22.981 24.6466L25.0001 25.5Z" fill="#0052B4"/>
<path d="M7.32231 7.46875C-2.44077 17.4271 -2.44077 33.5729 7.32231 43.5313C11.3568 39.4162 15.237 35.4584 25 25.5L7.32231 7.46875Z" fill="#496E2D"/>
<path d="M42.6777 7.46875C52.4408 17.4271 52.4408 33.5729 42.6777 43.5313C38.6433 39.4162 34.7631 35.4584 25 25.5L42.6777 7.46875Z" fill="#496E2D"/>
<path d="M24.9998 34.3694C29.8023 34.3694 33.6954 30.3984 33.6954 25.4999C33.6954 20.6014 29.8023 16.6304 24.9998 16.6304C20.1974 16.6304 16.3042 20.6014 16.3042 25.4999C16.3042 30.3984 20.1974 34.3694 24.9998 34.3694Z" fill="#A2001D"/>
<path d="M25 16.6304L26.9491 22.7493H33.2575L28.1542 26.5317L30.1033 32.6509L25 28.8692L19.8965 32.6509L21.846 26.5317L16.7427 22.7493H23.0507L25 16.6304Z" fill="#FFDA44"/>
<path d="M25.0001 0C24.9973 0 24.9945 0.000199219 24.9917 0.000199219H25.0084C25.0057 0.000199219 25.0029 0 25.0001 0V0Z" fill="#FFDA44"/>
<path d="M25.0085 0H24.9918C18.0921 0.00229102 11.8459 2.8554 7.32373 7.46752H42.6766C38.1543 2.8554 31.9081 0.00229102 25.0085 0Z" fill="#A2001D"/>
<path d="M7.32373 43.5325C11.8478 48.1463 18.0972 50.9999 25 50.9999C31.9028 50.9999 38.1522 48.1463 42.6763 43.5325H7.32373Z" fill="#A2001D"/>
<path d="M25 2.77173L25.4048 4.04215H26.7144L25.6549 4.82737L26.0597 6.09779L25 5.31266L23.9405 6.09779L24.3453 4.82737L23.2856 4.04215H24.5952L25 2.77173Z" fill="#FFDA44"/>
<path d="M18.9375 2.77173L19.3423 4.04215H20.6519L19.5924 4.82737L19.9972 6.09779L18.9375 5.31266L17.8781 6.09779L18.2828 4.82737L17.2231 4.04215H18.5327L18.9375 2.77173Z" fill="#FFDA44"/>
<path d="M31.062 2.77173L31.4668 4.04215H32.7764L31.7169 4.82737L32.1217 6.09779L31.062 5.31266L30.0025 6.09779L30.4073 4.82737L29.3477 4.04215H30.6572L31.062 2.77173Z" fill="#FFDA44"/>
<path d="M25 44.9021L25.4048 46.1725H26.7144L25.6549 46.9577L26.0597 48.2282L25 47.4429L23.9405 48.2282L24.3453 46.9577L23.2856 46.1725H24.5952L25 44.9021Z" fill="#FFDA44"/>
<path d="M18.9375 44.9021L19.3423 46.1725H20.6519L19.5924 46.9577L19.9972 48.2282L18.9375 47.4429L17.8781 48.2282L18.2828 46.9577L17.2231 46.1725H18.5327L18.9375 44.9021Z" fill="#FFDA44"/>
<path d="M31.062 44.9021L31.4668 46.1725H32.7764L31.7169 46.9577L32.1217 48.2282L31.062 47.4429L30.0025 48.2282L30.4073 46.9577L29.3477 46.1725H30.6572L31.062 44.9021Z" fill="#FFDA44"/>
<path d="M7.61742 25.0787C8.25951 26.1136 7.95775 27.4833 6.9432 28.1383C5.92875 28.7934 4.58578 28.4856 3.94359 27.4507C2.78099 25.5773 3.45512 22.5176 3.45512 22.5176C3.45512 22.5176 6.45472 23.2052 7.61742 25.0787V25.0787Z" fill="#FFDA44"/>
<path d="M6.36182 28.3106C6.9621 28.3106 7.44873 27.8142 7.44873 27.2019C7.44873 26.5896 6.9621 26.0933 6.36182 26.0933C5.76153 26.0933 5.2749 26.5896 5.2749 27.2019C5.2749 27.8142 5.76153 28.3106 6.36182 28.3106Z" fill="#A2001D"/>
</g>
<defs>
<clipPath id="clip0_105_1579">
<rect width="50" height="51" fill="white"/>
</clipPath>
</defs>
</svg>
