<svg width="50" height="51" viewBox="0 0 50 51" fill="none" xmlns="http://www.w3.org/2000/svg">
<g clip-path="url(#clip0_105_2637)">
<path d="M25 51C38.8071 51 50 39.5833 50 25.5C50 11.4167 38.8071 0 25 0C11.1929 0 0 11.4167 0 25.5C0 39.5833 11.1929 51 25 51Z" fill="#FFDA44"/>
<path d="M40.2174 12.1957C39.9932 13.2949 39.8913 14.4656 39.8913 15.6326C39.8913 22.3596 43.8229 28.1819 49.4571 30.8029C49.8119 29.092 50 27.3185 50 25.5C50 11.4168 38.807 0 25 0C11.193 0 0 11.4168 0 25.5C0 39.5832 11.193 51 25 51C33.5627 51 41.1189 46.608 45.6246 39.9131H14.1305V36.587H47.5193C47.861 35.8662 48.1697 35.1263 48.4451 34.3696H14.1305L40.2174 12.1957Z" fill="#0052B4"/>
<path d="M18.3664 13.3044L18.9061 14.9984H20.6521L19.2396 16.0454L19.7792 17.7393L18.3664 16.6925L16.9538 17.7393L17.4934 16.0454L16.0806 14.9984H17.8268L18.3664 13.3044Z" fill="#F0F0F0"/>
<path d="M11.2731 25.5L11.9478 27.6176H14.1304L12.3645 28.926L13.0391 31.0435L11.2731 29.7348L9.50732 31.0435L10.1818 28.926L8.41602 27.6176H10.5986L11.2731 25.5Z" fill="#F0F0F0"/>
<path d="M11.2731 7.76099L11.9478 9.87858H14.1304L12.3645 11.187L13.0391 13.3044L11.2731 11.9958L9.50732 13.3044L10.1818 11.187L8.41602 9.87858H10.5986L11.2731 7.76099Z" fill="#F0F0F0"/>
<path d="M5.83857 17.7393L6.51318 19.8569H8.6957L6.92988 21.1652L7.60449 23.2827L5.83857 21.9741L4.07275 23.2827L4.74727 21.1652L2.98145 19.8569H5.16396L5.83857 17.7393Z" fill="#F0F0F0"/>
</g>
<defs>
<clipPath id="clip0_105_2637">
<rect width="50" height="51" fill="white"/>
</clipPath>
</defs>
</svg>
