<svg width="50" height="51" viewBox="0 0 50 51" fill="none" xmlns="http://www.w3.org/2000/svg">
<g clip-path="url(#clip0_105_947)">
<path d="M25 51C38.8071 51 50 39.5833 50 25.5C50 11.4167 38.8071 0 25 0C11.1929 0 0 11.4167 0 25.5C0 39.5833 11.1929 51 25 51Z" fill="#FCFCFC"/>
<path d="M10.3258 23.6523L7.6084 18.6238L10.3258 13.6741L13.0432 18.6238L10.3258 23.6523Z" fill="#A2001D"/>
<path d="M4.89121 23.6523L2.17383 18.6238L4.89121 13.6741L7.60859 18.6238L4.89121 23.6523Z" fill="#A2001D"/>
<path d="M10.3258 37.3262L7.6084 32.2976L10.3258 27.3479L13.0432 32.2976L10.3258 37.3262Z" fill="#A2001D"/>
<path d="M4.89121 37.3262L2.17383 32.2976L4.89121 27.3479L7.60859 32.2976L4.89121 37.3262Z" fill="#A2001D"/>
<path d="M13.0432 4.94989L12.2738 3.54858C10.8939 4.38251 9.59971 5.34803 8.40723 6.42819L10.3258 9.97837L13.0432 4.94989Z" fill="#A2001D"/>
<path d="M10.3261 41.0217L8.38721 44.5535C9.57861 45.635 10.872 46.602 12.2513 47.4377L13.0436 45.9715L10.3261 41.0217Z" fill="#A2001D"/>
<path d="M15.2173 32.1521V48.9724C18.2221 50.277 21.528 50.9999 24.9999 50.9999C35.749 50.9999 44.9126 44.0798 48.4449 34.3694L15.2173 32.1521Z" fill="#6DA544"/>
<path d="M48.4449 34.3695C49.4499 31.6071 49.9999 28.6192 49.9999 25.5C49.9999 11.4168 38.8069 0 24.9999 0C21.5283 0 18.2221 0.722467 15.2173 2.02685V34.3696H48.4449V34.3695Z" fill="#A2001D"/>
</g>
<defs>
<clipPath id="clip0_105_947">
<rect width="50" height="51" fill="white"/>
</clipPath>
</defs>
</svg>
