<svg width="50" height="51" viewBox="0 0 50 51" fill="none" xmlns="http://www.w3.org/2000/svg">
<g clip-path="url(#clip0_105_1106)">
<path d="M25.0002 50.9964C38.8053 50.9964 49.9966 39.5814 49.9966 25.5002C49.9966 11.419 38.8053 0.00390625 25.0002 0.00390625C11.1951 0.00390625 0.00390625 11.419 0.00390625 25.5002C0.00390625 39.5814 11.1951 50.9964 25.0002 50.9964Z" fill="#F0F0F0"/>
<path d="M3.35259 12.752C2.22435 14.745 1.3921 16.8287 0.837891 18.9511L42.6413 43.5692C44.1663 42.0183 45.5194 40.2411 46.6474 38.2482L3.35259 12.752Z" fill="black"/>
<path d="M37.4983 3.41956C27.4965 -2.47037 15.1642 -0.507326 7.35864 7.43091L49.1621 32.0488C51.9993 21.185 47.4998 9.30959 37.4983 3.41956V3.41956Z" fill="#FFDA44"/>
<path d="M12.502 47.5804C22.5036 53.4703 34.8361 51.5073 42.6415 43.5691L0.837954 18.9509C-1.99912 29.8151 2.5002 41.6904 12.502 47.5804Z" fill="#FFDA44"/>
<path d="M32.0643 22.7287C32.0643 26.708 28.9015 29.9342 25.0001 29.9342C21.0986 29.9342 17.9359 26.7081 17.9359 22.7287C17.9359 21.4879 18.2434 20.3203 18.785 19.301C17.2521 20.9001 16.3057 23.0868 16.3057 25.4999C16.3057 30.3977 20.1982 34.3683 25.0001 34.3683C29.8019 34.3683 33.6945 30.3978 33.6945 25.4999C33.6945 23.0868 32.7482 20.9001 31.2152 19.301C31.7568 20.3205 32.0643 21.4879 32.0643 22.7287V22.7287Z" fill="#D80027"/>
<path d="M23.3701 14.4148H26.6305V31.0428H23.3701V14.4148Z" fill="#D80027"/>
<path d="M30.4341 17.7402H19.5662C19.5662 18.5055 20.2198 19.1259 20.97 19.1259H20.9247C20.9247 19.8912 21.533 20.5116 22.2832 20.5116C22.2832 21.2769 22.8915 21.8973 23.6417 21.8973H26.3587C27.109 21.8973 27.7172 21.2769 27.7172 20.5116C28.4675 20.5116 29.0757 19.8912 29.0757 19.1259H29.0305C29.7805 19.1258 30.4341 18.5056 30.4341 17.7402Z" fill="#D80027"/>
<path d="M17.3927 32.1514H32.6079V35.477H17.3927V32.1514Z" fill="#D80027"/>
<path d="M28.2606 33.26H34.7814V36.5856H28.2606V33.26Z" fill="#D80027"/>
<path d="M15.2191 33.26H21.7399V36.5856H15.2191V33.26Z" fill="#D80027"/>
</g>
<defs>
<clipPath id="clip0_105_1106">
<rect width="50" height="51" fill="white"/>
</clipPath>
</defs>
</svg>
