<svg width="50" height="51" viewBox="0 0 50 51" fill="none" xmlns="http://www.w3.org/2000/svg">
<g clip-path="url(#clip0_105_1845)">
<path d="M2.48066 14.4132C0.891406 17.7657 0 21.5266 0 25.5001C0 29.4736 0.891406 33.2346 2.48066 36.587L25 38.8045L47.5193 36.587C49.1086 33.2346 50 29.4736 50 25.5001C50 21.5266 49.1086 17.7657 47.5193 14.4132L25 12.1958L2.48066 14.4132Z" fill="black"/>
<path d="M2.48157 36.5869C6.52512 45.1166 15.0885 51 25 51C34.9115 51 43.4749 45.1166 47.5185 36.5869H2.48157Z" fill="#496E2D"/>
<path d="M2.48157 14.4131H47.5185C43.4749 5.88343 34.9115 0 25 0C15.0885 0 6.52512 5.88343 2.48157 14.4131Z" fill="#D80027"/>
<path d="M30.8189 20.8369L32.8701 23.7201L36.1921 22.6214L34.1376 25.5021L36.1886 28.3852L32.8679 27.2823L30.8134 30.163L30.8155 26.6009L27.4946 25.498L30.8167 24.3993L30.8189 20.8369Z" fill="#F0F0F0"/>
<path d="M25.2208 32.7065C21.3189 32.7065 18.1556 29.48 18.1556 25.5C18.1556 21.52 21.3189 18.2934 25.2208 18.2934C26.4375 18.2934 27.5823 18.6072 28.5817 19.1597C27.0137 17.5957 24.8696 16.6304 22.5035 16.6304C17.7009 16.6304 13.8079 20.6014 13.8079 25.4999C13.8079 30.3984 17.701 34.3694 22.5035 34.3694C24.8697 34.3694 27.0138 33.4041 28.5817 31.8401C27.5822 32.3928 26.4375 32.7065 25.2208 32.7065Z" fill="#F0F0F0"/>
</g>
<defs>
<clipPath id="clip0_105_1845">
<rect width="50" height="51" fill="white"/>
</clipPath>
</defs>
</svg>
