<svg width="50" height="51" viewBox="0 0 50 51" fill="none" xmlns="http://www.w3.org/2000/svg">
<g clip-path="url(#clip0_105_2769)">
<path d="M25 51C38.8071 51 50 39.5833 50 25.5C50 11.4167 38.8071 0 25 0C11.1929 0 0 11.4167 0 25.5C0 39.5833 11.1929 51 25 51Z" fill="#338AF3"/>
<path d="M24.9271 16.6304C20.1244 16.6304 16.2314 20.6014 16.2314 25.4999C16.2314 30.3984 20.1245 34.3694 24.9271 34.3694C29.7294 34.3694 33.6227 30.3984 33.6227 25.4999C33.6227 20.6014 29.7293 16.6304 24.9271 16.6304ZM22.7531 25.4999C22.7531 24.2753 23.7264 23.2825 24.9271 23.2825C26.1276 23.2825 27.101 24.2753 27.101 25.4999C27.101 26.7246 26.1276 27.7173 24.9271 27.7173C23.7264 27.7173 22.7531 26.7246 22.7531 25.4999V25.4999ZM27.181 21.7069C26.8436 21.4978 26.4758 21.3354 26.0863 21.2258V18.9547C27.0669 19.1342 27.971 19.5365 28.747 20.1096L27.181 21.7069ZM23.9125 21.1878C23.5046 21.2873 23.1192 21.4454 22.7651 21.6529L21.1919 20.0482C21.9872 19.4802 22.9118 19.0878 23.9125 18.9282V21.1878ZM22.765 29.3469C23.1191 29.5543 23.5045 29.7125 23.9124 29.8119V32.0714C22.9116 31.9119 21.9872 31.5194 21.1919 30.9514L22.765 29.3469ZM26.0864 29.774C26.4758 29.6644 26.8438 29.5021 27.181 29.293L28.7469 30.8902C27.9709 31.4633 27.0669 31.8657 26.0863 32.0452V29.7741H26.0864V29.774ZM28.6985 27.7052C28.89 27.3653 29.0397 26.9975 29.1379 26.6086H31.3568C31.1936 27.601 30.8152 28.5183 30.2719 29.3097L28.6985 27.7052ZM29.1379 24.3912C29.0397 24.0023 28.89 23.6348 28.6985 23.2947L30.2718 21.69C30.8151 22.4816 31.1936 23.3988 31.3567 24.3911H29.1378V24.3912H29.1379ZM19.6424 21.6037L21.2083 23.2009C20.9906 23.5665 20.8233 23.9665 20.7161 24.3912H18.4972C18.6664 23.3627 19.0667 22.4146 19.6424 21.6037ZM18.4972 26.6085H20.7161C20.8232 27.0333 20.9905 27.4333 21.2083 27.7989L19.6424 29.3961C19.0667 28.5852 18.6664 27.6372 18.4972 26.6085Z" fill="#F0F0F0"/>
<path d="M39.0576 25.5001C39.0576 21.5576 37.5051 17.9855 34.9904 15.3833L32.6847 17.7352C34.6093 19.7353 35.7968 22.4762 35.7968 25.5001C35.7968 31.6233 30.9303 36.587 24.9272 36.587C18.924 36.587 14.0577 31.6233 14.0577 25.5001C14.0577 22.4384 15.2742 19.6667 17.2413 17.6605L14.9355 15.3086C12.3784 17.9169 10.7969 21.5201 10.7969 25.5001C10.7969 32.0958 15.1403 37.6567 21.0689 39.3692C20.4189 40.6287 20.518 42.2144 21.4465 43.3962C22.666 42.3994 23.9286 41.3672 24.9997 40.4918C26.0708 41.3673 27.3335 42.3994 28.5529 43.3962C29.4906 42.2026 29.5829 40.5968 28.9113 39.3313C34.7751 37.5767 39.0576 32.0489 39.0576 25.5001V25.5001Z" fill="#F0F0F0"/>
</g>
<defs>
<clipPath id="clip0_105_2769">
<rect width="50" height="51" fill="white"/>
</clipPath>
</defs>
</svg>
