<svg width="50" height="51" viewBox="0 0 50 51" fill="none" xmlns="http://www.w3.org/2000/svg">
<g clip-path="url(#clip0_105_1887)">
<path d="M0 25.5002C0 28.6194 0.550098 31.6073 1.55498 34.3698L25 35.4785L48.445 34.3699C49.45 31.6073 50 28.6194 50 25.5002C50 22.3811 49.45 19.3932 48.445 16.6307L25 15.522L1.55498 16.6306C0.550098 19.3932 0 22.3811 0 25.5002H0Z" fill="#D80027"/>
<path d="M24.9997 0C14.2506 0 5.08701 6.92006 1.55469 16.6305H48.4448C44.9124 6.92006 35.7488 0 24.9997 0V0Z" fill="black"/>
<path d="M48.4447 34.3696H1.55469C5.08701 44.0799 14.2506 51.0001 24.9997 51.0001C35.7488 51.0001 44.9124 44.0799 48.4447 34.3696Z" fill="#496E2D"/>
<path d="M32.4717 12.1957L29.4186 10.7308L31.0444 7.71475L27.729 8.36171L27.3089 4.94531L24.9995 7.45796L22.6902 4.94531L22.27 8.36171L18.9547 7.71475L20.5806 10.7308L17.5273 12.1957H32.4717Z" fill="#D80027"/>
</g>
<defs>
<clipPath id="clip0_105_1887">
<rect width="50" height="51" fill="white"/>
</clipPath>
</defs>
</svg>
