<svg width="50" height="51" viewBox="0 0 50 51" fill="none" xmlns="http://www.w3.org/2000/svg">
<g clip-path="url(#clip0_105_2860)">
<path d="M25 50.999C38.8071 50.999 50 39.5823 50 25.499C50 11.4158 38.8071 -0.000976562 25 -0.000976562C11.1929 -0.000976562 0 11.4158 0 25.499C0 39.5823 11.1929 50.999 25 50.999Z" fill="#FCFCFC"/>
<path d="M29.246 17.8137C29.246 15.4219 27.345 13.4829 25 13.4829C22.655 13.4829 20.754 15.4219 20.754 17.8137H11.4131C11.4131 20.1686 13.4242 22.0778 15.7329 22.0778H15.5938C15.5938 24.4329 17.4653 26.3422 19.7744 26.3422C19.7744 28.4273 21.2426 30.1599 23.1815 30.5303L23.1707 30.5552H26.8294L26.8186 30.5303C28.7576 30.1597 30.2257 28.4272 30.2257 26.3422C32.5347 26.3422 34.4063 24.4329 34.4063 22.0778H34.267C36.5757 22.0778 38.5869 20.1686 38.5869 17.8137H29.246Z" fill="#FFDA44"/>
<path d="M23.1336 30.1133L20.501 36.1758C21.89 36.7517 23.4083 37.0719 25.0002 37.0719C26.5921 37.0719 28.1104 36.7518 29.4993 36.1758L26.8668 30.1133H23.1336Z" fill="#FFDA44"/>
<path d="M19.5654 19.9434V27.4032C19.5654 31.6464 25.0002 32.9467 25.0002 32.9467C25.0002 32.9467 30.435 31.6464 30.435 27.4032V19.9434H19.5654Z" fill="#F0F0F0"/>
<path d="M6.0626 25.6787L9.00195 34.0642L11.9107 25.6787H14.1307L9.88984 36.7656H8.11396L3.84277 25.6787H6.0626Z" fill="#338AF3"/>
<path d="M40.2178 36.7656V25.6787H42.3304V36.7656H40.2178Z" fill="#338AF3"/>
<path d="M21.7393 22.3525V31.3925C22.4864 31.9534 23.2903 32.3392 23.9132 32.5862V22.3525H21.7393Z" fill="#D80027"/>
<path d="M28.2608 22.3525V31.3925C27.5137 31.9534 26.7098 32.3392 26.0869 32.5862V22.3525H28.2608Z" fill="#D80027"/>
<path d="M19.5654 19.9434H30.435V23.4612H19.5654V19.9434Z" fill="#0052B4"/>
</g>
<defs>
<clipPath id="clip0_105_2860">
<rect width="50" height="51" fill="white" transform="translate(0 -0.000976562)"/>
</clipPath>
</defs>
</svg>
