<svg width="50" height="51" viewBox="0 0 50 51" fill="none" xmlns="http://www.w3.org/2000/svg">
<g clip-path="url(#clip0_105_2030)">
<path d="M48.445 34.3695C49.45 31.6072 50 28.6192 50 25.5C50 22.3808 49.45 19.3929 48.445 16.6305L25 14.4131L1.55498 16.6305C0.550098 19.3929 0 22.3808 0 25.5C0 28.6192 0.550098 31.6072 1.55498 34.3695L25 36.5869L48.445 34.3695Z" fill="#6DA544"/>
<path d="M48.4452 16.6305C44.9129 6.92006 35.7493 0 25.0002 0C14.2511 0 5.0875 6.92006 1.55518 16.6305H48.4452Z" fill="#FFDA44"/>
<path d="M25.0002 51.0001C35.7493 51.0001 44.9129 44.08 48.4452 34.3696H1.55518C5.0875 44.08 14.2511 51.0001 25.0002 51.0001Z" fill="#D80027"/>
<path d="M42.1434 21.5741H29.047L24.9999 8.86963L20.9528 21.5741H7.85645L18.4517 29.4259L14.4046 42.1306L24.9999 34.3696L35.5952 42.1305L31.5482 29.4258L42.1434 21.5741Z" fill="#F0F0F0"/>
</g>
<defs>
<clipPath id="clip0_105_2030">
<rect width="50" height="51" fill="white"/>
</clipPath>
</defs>
</svg>
