<svg width="50" height="51" viewBox="0 0 50 51" fill="none" xmlns="http://www.w3.org/2000/svg">
<g clip-path="url(#clip0_105_1178)">
<path d="M50 25.5C50 39.5832 38.807 51 25 51C11.193 51 0 39.5832 0 25.5C0 25.5061 25 0.00278906 25 0C38.807 0 50 11.4168 50 25.5Z" fill="#0052B4"/>
<path d="M24.9331 25.5H25C25 25.4771 25 25.4548 25 25.4318C24.9777 25.4546 24.9555 25.4773 24.9331 25.5Z" fill="#F0F0F0"/>
<path d="M25 13.3043C25 8.81742 25 5.87745 25 0H24.9958C11.1905 0.00239063 0 11.4181 0 25.5H13.0435V18.0083L20.3883 25.5H24.9332C24.9555 25.4773 24.9777 25.4546 25.0001 25.4318C25.0001 23.7138 25.0001 22.1809 25.0001 20.7962L17.6551 13.3043H25Z" fill="#F0F0F0"/>
<path d="M35.8696 18.8479C38.2708 18.8479 40.2174 16.8624 40.2174 14.4131C40.2174 11.9638 38.2708 9.97827 35.8696 9.97827C33.4683 9.97827 31.5217 11.9638 31.5217 14.4131C31.5217 16.8624 33.4683 18.8479 35.8696 18.8479Z" fill="#6DA544"/>
<path d="M12.6479 3.32605C8.73779 5.59704 5.48711 8.91264 3.26074 12.9009V25.5H9.78252V9.97846V9.97826H24.9999C24.9999 7.88019 24.9999 5.88143 24.9999 3.32605H12.6479Z" fill="#D80027"/>
<path d="M25 22.3642L16.1177 13.3044H13.0435V13.3046L24.9998 25.5H25C25 25.5 25 23.3378 25 22.3642V22.3642Z" fill="#D80027"/>
<path d="M28.2607 13.3043H43.4781V19.9565H28.2607V13.3043Z" fill="#D80027"/>
<path d="M28.2607 29.9348V34.3696H30.5482C31.9198 35.7406 33.7973 36.587 35.8694 36.587C37.9416 36.587 39.819 35.7406 41.1906 34.3696H41.3042H43.4781V29.9348H28.2607Z" fill="#FFDA44"/>
<path d="M28.2607 18.8478V25.5C28.2607 31.4406 35.8694 33.2609 35.8694 33.2609C35.8694 33.2609 43.4781 31.4406 43.4781 25.5V18.8478H28.2607Z" fill="#338AF3"/>
<path d="M35.8692 22.401C33.9671 22.401 33.9671 24.1749 32.0651 24.1749C30.163 24.1749 30.163 22.401 28.261 22.401V25.5053C30.163 25.5053 30.163 27.2793 32.0651 27.2793C33.9671 27.2793 33.9671 25.5053 35.8692 25.5053C37.7714 25.5053 37.7714 27.2793 39.6738 27.2793C41.5761 27.2793 41.576 25.5053 43.4784 25.5053V22.401C41.5761 22.401 41.5761 24.1749 39.6738 24.1749C37.7714 24.1749 37.7714 22.401 35.8692 22.401V22.401Z" fill="#F3F3F3"/>
<path d="M35.8692 16.1869C33.9671 16.1869 33.9671 17.9608 32.0651 17.9608C30.163 17.9608 30.163 16.1869 28.261 16.1869V19.2912C30.163 19.2912 30.163 21.0652 32.0651 21.0652C33.9671 21.0652 33.9671 19.2912 35.8692 19.2912C37.7714 19.2912 37.7714 21.0652 39.6738 21.0652C41.5761 21.0652 41.576 19.2912 43.4784 19.2912V16.1869C41.5761 16.1869 41.5761 17.9608 39.6738 17.9608C37.7714 17.9608 37.7714 16.1869 35.8692 16.1869Z" fill="#F3F3F3"/>
</g>
<defs>
<clipPath id="clip0_105_1178">
<rect width="50" height="51" fill="white"/>
</clipPath>
</defs>
</svg>
