<svg width="50" height="51" viewBox="0 0 50 51" fill="none" xmlns="http://www.w3.org/2000/svg">
<g clip-path="url(#clip0_105_2340)">
<path d="M25 51.001C38.8071 51.001 50 39.5842 50 25.501C50 11.4177 38.8071 0.000976562 25 0.000976562C11.1929 0.000976562 0 11.4177 0 25.501C0 39.5842 11.1929 51.001 25 51.001Z" fill="#F0F0F0"/>
<path d="M49.7884 22.1749H28.261H28.2609V0.21683C27.1935 0.0750859 26.1052 0.000976562 25 0.000976562C23.8948 0.000976562 22.8065 0.0750859 21.7392 0.21683V22.1747V22.1748H0.211621C0.0726563 23.2637 0 24.3737 0 25.501C0 26.6283 0.0726563 27.7383 0.211621 28.827H21.739H21.7391V50.7851C22.8065 50.9269 23.8948 51.001 25 51.001C26.1052 51.001 27.1935 50.927 28.2608 50.7851V28.8273V28.8271H49.7884C49.9273 27.7383 50 26.6283 50 25.501C50 24.3737 49.9273 23.2636 49.7884 22.1749V22.1749Z" fill="#D80027"/>
<path d="M36.9566 8.87048C34.9306 8.87048 33.2283 10.2838 32.7457 12.1965L36.9566 13.3052L41.1674 12.1965C40.6848 10.2839 38.9825 8.87048 36.9566 8.87048V8.87048Z" fill="black"/>
<path d="M32.6086 18.8488L38.0434 19.9574V17.6004C39.5712 17.1991 40.7738 15.9722 41.167 14.414L36.9565 13.3053H31.5217L32.6086 16.6314V18.8488Z" fill="black"/>
<path d="M41.1673 12.1967H31.5217V14.4141V16.6315H32.6086V14.4141H41.167C41.2565 14.0597 41.3043 13.6882 41.3043 13.3054C41.3043 12.9225 41.2568 12.551 41.1673 12.1967V12.1967Z" fill="#ACABB1"/>
<path d="M14.1305 8.87048C12.1045 8.87048 10.4023 10.2838 9.91968 12.1965L14.1305 13.3052L18.3414 12.1965C17.8587 10.2839 16.1565 8.87048 14.1305 8.87048Z" fill="black"/>
<path d="M9.78257 18.8488L15.2173 19.9574V17.6004C16.7452 17.1991 17.9477 15.9722 18.341 14.414L14.1304 13.3053H8.69556L9.78247 16.6314V18.8488H9.78257Z" fill="black"/>
<path d="M18.3413 12.1967H8.69556V14.4141V16.6315H9.78247V14.4141H18.3409C18.4303 14.0597 18.4782 13.6882 18.4782 13.3054C18.4782 12.9225 18.4307 12.551 18.3413 12.1967Z" fill="#ACABB1"/>
<path d="M36.9566 31.0444C34.9306 31.0444 33.2283 32.4578 32.7457 34.3705L36.9566 35.4791L41.1674 34.3705C40.6848 32.4578 38.9825 31.0444 36.9566 31.0444V31.0444Z" fill="black"/>
<path d="M32.6086 41.0227L38.0434 42.1314V39.7743C39.5712 39.3731 40.7738 38.1462 41.167 36.5879L36.9565 35.4792H31.5217L32.6086 38.8053V41.0227Z" fill="black"/>
<path d="M41.1673 34.3705H31.5217V36.5879V38.8053H32.6086V36.5879H41.167C41.2565 36.2336 41.3043 35.862 41.3043 35.4792C41.3043 35.0964 41.2568 34.7249 41.1673 34.3705V34.3705Z" fill="#ACABB1"/>
<path d="M14.1305 31.0444C12.1045 31.0444 10.4023 32.4578 9.91968 34.3705L14.1305 35.4791L18.3414 34.3705C17.8587 32.4578 16.1565 31.0444 14.1305 31.0444Z" fill="black"/>
<path d="M9.78257 41.0227L15.2173 42.1314V39.7743C16.7452 39.3731 17.9477 38.1462 18.341 36.5879L14.1304 35.4792H8.69556L9.78247 38.8053V41.0227H9.78257Z" fill="black"/>
<path d="M18.3413 34.3705H8.69556V36.5879V38.8053H9.78247V36.5879H18.3409C18.4303 36.2336 18.4782 35.862 18.4782 35.4792C18.4782 35.0964 18.4307 34.7249 18.3413 34.3705Z" fill="#ACABB1"/>
</g>
<defs>
<clipPath id="clip0_105_2340">
<rect width="50" height="51" fill="white" transform="translate(0 0.000976562)"/>
</clipPath>
</defs>
</svg>
