<svg width="50" height="51" viewBox="0 0 50 51" fill="none" xmlns="http://www.w3.org/2000/svg">
<g clip-path="url(#clip0_105_1828)">
<path d="M25 51C38.8071 51 50 39.5833 50 25.5C50 11.4167 38.8071 0 25 0C11.1929 0 0 11.4167 0 25.5C0 39.5833 11.1929 51 25 51Z" fill="#F0F0F0"/>
<path d="M5.71448 9.27304H44.2856C42.861 7.51344 41.2086 5.95306 39.3757 4.63672H10.6243C8.79143 5.95286 7.13918 7.51334 5.71448 9.27304V9.27304Z" fill="#F0F0F0"/>
<path d="M0 25.5002C0 26.2819 0.0364258 27.0546 0.103906 27.8184H49.8961C49.9636 27.0546 50 26.2819 50 25.5002C50 24.7186 49.9636 23.9458 49.8961 23.1821H0.103906C0.0364258 23.9458 0 24.7186 0 25.5002H0Z" fill="#F0F0F0"/>
<path d="M2.72617 37.0908H47.2738C48.01 35.622 48.6103 34.071 49.0586 32.4546H0.941406C1.38955 34.071 1.99014 35.6221 2.72617 37.0908V37.0908Z" fill="#F0F0F0"/>
<path d="M10.6243 46.3639H39.3756C41.2085 45.0475 42.8609 43.4871 44.2855 41.7275H5.71448C7.13918 43.4869 8.79143 45.0475 10.6243 46.3639V46.3639Z" fill="#F0F0F0"/>
<path d="M0.941284 18.5455H49.0587C48.6104 16.929 48.0099 15.3779 47.2738 13.9092H2.72615C1.99011 15.3779 1.38953 16.929 0.941284 18.5455V18.5455Z" fill="#F0F0F0"/>
<path d="M11.9565 4.63632H39.3757C35.3093 1.71597 30.3513 0 25 0C21.7392 0 16.0229 1.71597 11.9565 4.63632Z" fill="#D80027"/>
<path d="M23.9131 13.9093H47.2738C46.4425 12.2505 45.4384 10.6967 44.2855 9.27295H23.9131V13.9093Z" fill="#D80027"/>
<path d="M23.9131 23.1817H49.8961C49.7555 21.5898 49.4729 20.0395 49.0587 18.5454H23.9131V23.1817Z" fill="#D80027"/>
<path d="M0.941382 32.4547H49.0586C49.4728 30.9607 49.7554 29.4103 49.8961 27.8184H0.103882C0.244507 29.4103 0.527124 30.9606 0.941382 32.4547V32.4547Z" fill="#D80027"/>
<path d="M5.71448 41.7271H44.2856C45.4384 40.3032 46.4425 38.7495 47.2739 37.0908H2.7262C3.55754 38.7496 4.56165 40.3034 5.71448 41.7271V41.7271Z" fill="#D80027"/>
<path d="M25 51.0001C30.3512 51.0001 35.3092 49.2841 39.3756 46.3638H10.6243C14.6907 49.2841 19.6487 51.0001 25 51.0001Z" fill="#D80027"/>
<path d="M0.941284 18.5455C0.527026 20.0396 0.244507 21.5898 0.103882 23.1818H25V0C13.5566 0 3.90925 7.84245 0.941284 18.5455V18.5455Z" fill="#0052B4"/>
<path d="M14.8816 6.65234L16.5003 11.7339H21.7391L17.501 14.8748L19.1196 19.9567L14.8816 16.816L10.6434 19.9567L12.2624 14.8748L8.02429 11.7339H13.2629L14.8816 6.65234Z" fill="#F0F0F0"/>
</g>
<defs>
<clipPath id="clip0_105_1828">
<rect width="50" height="51" fill="white"/>
</clipPath>
</defs>
</svg>
