<svg width="50" height="51" viewBox="0 0 50 51" fill="none" xmlns="http://www.w3.org/2000/svg">
<g clip-path="url(#clip0_105_1782)">
<path d="M25 51C38.8071 51 50 39.5833 50 25.5C50 11.4167 38.8071 0 25 0C11.1929 0 0 11.4167 0 25.5C0 39.5833 11.1929 51 25 51Z" fill="#0052B4"/>
<path d="M10.9815 15.522L11.5212 17.2161H13.2673L11.8547 18.2629L12.3942 19.9568L10.9815 18.91L9.56875 19.9568L10.1085 18.2629L8.6958 17.2161H10.4418L10.9815 15.522Z" fill="#F0F0F0"/>
<path d="M16.4165 13.8589L16.9562 15.5529H18.7022L17.2896 16.5997L17.8292 18.2936L16.4165 17.2468L15.0038 18.2936L15.5435 16.5997L14.1309 15.5529H15.877L16.4165 13.8589Z" fill="#F0F0F0"/>
<path d="M21.8511 12.1958L22.3907 13.8899H24.1368L22.7242 14.9368L23.2638 16.6306L21.8511 15.5837L20.4384 16.6306L20.978 14.9368L19.5654 13.8899H21.3115L21.8511 12.1958Z" fill="#F0F0F0"/>
<path d="M39.0187 15.522L38.479 17.2161H36.7329L38.1456 18.2629L37.606 19.9568L39.0187 18.91L40.4314 19.9568L39.8917 18.2629L41.3044 17.2161H39.5583L39.0187 15.522Z" fill="#F0F0F0"/>
<path d="M33.5841 13.8589L33.0444 15.5529H31.2983L32.711 16.5997L32.1714 18.2936L33.5841 17.2468L34.9968 18.2936L34.4571 16.5997L35.8697 15.5529H34.1236L33.5841 13.8589Z" fill="#F0F0F0"/>
<path d="M28.1495 12.1958L27.6099 13.8899H25.8638L27.2764 14.9368L26.7368 16.6306L28.1495 15.5837L29.5622 16.6306L29.0226 14.9368L30.4352 13.8899H28.6891L28.1495 12.1958Z" fill="#F0F0F0"/>
<path d="M29.3477 26.6089L24.9998 21.0654L22.8259 22.1741V24.3915L19.565 26.6089H17.3911V29.4736C20.5774 30.7896 22.8259 33.974 22.8259 37.6959H24.9998V35.4785L27.1737 33.2611L29.3477 35.4785L31.5216 33.2611V31.0437L33.6955 27.7176L29.3477 26.6089Z" fill="#FFDA44"/>
</g>
<defs>
<clipPath id="clip0_105_1782">
<rect width="50" height="51" fill="white"/>
</clipPath>
</defs>
</svg>
