<svg width="50" height="51" viewBox="0 0 50 51" fill="none" xmlns="http://www.w3.org/2000/svg">
<g clip-path="url(#clip0_105_2397)">
<path d="M25 51C38.8071 51 50 39.5833 50 25.5C50 11.4167 38.8071 0 25 0C11.1929 0 0 11.4167 0 25.5C0 39.5833 11.1929 51 25 51Z" fill="#F0F0F0"/>
<path d="M0 25.5001C0 11.4168 11.193 0 25 0C38.807 0 50 11.4168 50 25.5001" fill="#D80027"/>
<path d="M15.217 13.3042C15.217 9.58899 17.7769 6.48536 21.1952 5.72385C20.6698 5.60691 20.1248 5.54346 19.5647 5.54346C15.3625 5.54346 11.9561 9.01803 11.9561 13.3043C11.9561 17.5906 15.3625 21.0652 19.5647 21.0652C20.1246 21.0652 20.6697 21.0017 21.1952 20.8847C17.7769 20.1232 15.217 17.0196 15.217 13.3042V13.3042Z" fill="#F0F0F0"/>
<path d="M24.9996 6.09778L25.5393 7.79164H27.2855L25.8727 8.83863L26.4123 10.5325L24.9996 9.48569L23.5869 10.5325L24.1266 8.83863L22.7139 7.79164H24.46L24.9996 6.09778Z" fill="#F0F0F0"/>
<path d="M20.7635 9.42383L21.303 11.1178H23.0492L21.6365 12.1647L22.1762 13.8585L20.7635 12.8117L19.3506 13.8585L19.8903 12.1647L18.4775 11.1178H20.2237L20.7635 9.42383Z" fill="#F0F0F0"/>
<path d="M29.2359 9.42383L29.7757 11.1178H31.5218L30.109 12.1647L30.6487 13.8585L29.2359 12.8117L27.8232 13.8585L28.3629 12.1647L26.9502 11.1178H28.6963L29.2359 9.42383Z" fill="#F0F0F0"/>
<path d="M27.6051 14.413L28.1447 16.1069H29.8908L28.4781 17.1538L29.0178 18.8477L27.6051 17.8009L26.1924 18.8477L26.732 17.1538L25.3193 16.1069H27.0653L27.6051 14.413Z" fill="#F0F0F0"/>
<path d="M22.3942 14.413L22.9338 16.1069H24.6801L23.2673 17.1538L23.807 18.8477L22.3942 17.8009L20.9814 18.8477L21.5211 17.1538L20.1084 16.1069H21.8546L22.3942 14.413Z" fill="#F0F0F0"/>
</g>
<defs>
<clipPath id="clip0_105_2397">
<rect width="50" height="51" fill="white"/>
</clipPath>
</defs>
</svg>
