<svg width="50" height="51" viewBox="0 0 50 51" fill="none" xmlns="http://www.w3.org/2000/svg">
<g clip-path="url(#clip0_105_2281)">
<path d="M13.5518 48.1755L31.9175 32.556L47.2308 13.823C44.8499 9.11663 41.0747 5.26385 36.4625 2.83229L18.0823 18.4441L2.77673 37.1918C5.16042 41.8964 8.93766 45.747 13.5518 48.1755V48.1755Z" fill="#FFDA44"/>
<path d="M42.6783 43.532C50.5656 35.4869 52.0797 23.4046 47.2238 13.8076L13.5367 48.1684C22.9455 53.1214 34.791 51.5769 42.6783 43.532Z" fill="#D80027"/>
<path d="M7.32134 7.46788C-0.565946 15.5129 -2.08001 27.5953 2.77575 37.1922L36.4629 2.83147C27.0541 -2.1216 15.2086 -0.57706 7.32134 7.46788V7.46788Z" fill="#6DA544"/>
</g>
<defs>
<clipPath id="clip0_105_2281">
<rect width="50" height="51" fill="white"/>
</clipPath>
</defs>
</svg>
