<svg width="50" height="51" viewBox="0 0 50 51" fill="none" xmlns="http://www.w3.org/2000/svg">
<g clip-path="url(#clip0_105_1519)">
<path d="M25 51C38.8071 51 50 39.5833 50 25.5C50 11.4167 38.8071 0 25 0C11.1929 0 0 11.4167 0 25.5C0 39.5833 11.1929 51 25 51Z" fill="#F0F0F0"/>
<path d="M3.03955 13.3043H46.96C42.7199 5.37781 34.4759 0 24.9998 0C15.5237 0 7.27969 5.37781 3.03955 13.3043V13.3043Z" fill="#D80027"/>
<path d="M24.9998 50.9999C34.4759 50.9999 42.7199 45.6221 46.9601 37.6956H3.03955C7.27969 45.6221 15.5237 50.9999 24.9998 50.9999Z" fill="#D80027"/>
<path d="M33.6954 25.5C33.6954 30.3986 29.8022 33.2609 24.9998 33.2609C20.1974 33.2609 16.3042 30.3986 16.3042 25.5C16.3042 20.6014 20.1974 16.6305 24.9998 16.6305C29.8022 16.6305 33.6954 20.6014 33.6954 25.5Z" fill="#FFDA44"/>
<path d="M33.6954 25.5C33.6954 30.3986 29.8022 34.3695 24.9998 34.3695C20.1974 34.3695 16.3042 30.3986 16.3042 25.5" fill="#0052B4"/>
<path d="M19.5654 23.2826H21.7394V27.7174H19.5654V23.2826Z" fill="#D80027"/>
<path d="M28.2612 23.2826H30.4352V27.7174H28.2612V23.2826Z" fill="#D80027"/>
<path d="M23.9131 19.9565H26.087V27.7174H23.9131V19.9565Z" fill="#D80027"/>
</g>
<defs>
<clipPath id="clip0_105_1519">
<rect width="50" height="51" fill="white"/>
</clipPath>
</defs>
</svg>
