<svg width="51" height="51" viewBox="0 0 51 51" fill="none" xmlns="http://www.w3.org/2000/svg">
<g clip-path="url(#clip0_105_2108)">
<path d="M50.9883 25.5C50.9883 39.5832 39.7953 51 25.9883 51C12.1812 51 0.988281 39.5832 0.988281 25.5C0.988281 25.5061 25.9883 0.00278906 25.9883 0C39.7953 0 50.9883 11.4168 50.9883 25.5Z" fill="#FFDA44"/>
<path d="M25.9881 12.1956V20.7961L17.2925 12.1956H25.9881Z" fill="#0052B4"/>
<path d="M14.0317 25.5H21.3766L14.0317 15.5217L12.9448 23.2826L14.0317 25.5Z" fill="#0052B4"/>
<path d="M25.9214 25.5001H25.9883C25.9883 25.4772 25.9883 25.4549 25.9883 25.4319C25.966 25.4547 25.9438 25.4774 25.9214 25.5001Z" fill="#F0F0F0"/>
<path d="M25.9883 13.3043C25.9883 8.81742 25.9883 5.87745 25.9883 0H25.9841C12.1788 0.00239063 0.988281 11.4181 0.988281 25.5H14.0317V18.0083L21.3766 25.5H25.9215C25.9437 25.4773 25.966 25.4546 25.9884 25.4318C25.9884 23.7138 25.9884 22.1809 25.9884 20.7962L18.6434 13.3043H25.9883Z" fill="#F0F0F0"/>
<path d="M25.9883 22.3642L17.106 13.3044H14.0317V13.3046L25.9881 25.5H25.9883C25.9883 25.5 25.9883 23.3378 25.9883 22.3642V22.3642Z" fill="#D80027"/>
<path d="M13.6361 3.32617C12.6724 3.88598 11.749 4.50983 10.8709 5.19086H11.8967L9.18555 7.20038L10.2209 10.4513L7.50977 8.44221L7.22129 8.65607C6.09561 9.95996 5.09756 11.3812 4.24902 12.901V25.5001H10.7708V9.97858V9.97839H25.9882C25.9882 7.88031 25.9882 5.88155 25.9882 3.32617H13.6361Z" fill="#D80027"/>
<path d="M11.6679 4.59717C11.3982 4.78971 11.1324 4.98764 10.8706 5.19074L9.18555 7.20026L7.50977 8.44199L7.21885 8.65754C6.60498 9.36876 6.0293 10.115 5.49512 10.8933C6.104 11.1947 6.7875 11.3641 7.50977 11.3641C10.0611 11.3641 12.1293 9.2546 12.1293 6.65221C12.1295 5.9153 11.9635 5.21833 11.6679 4.59717V4.59717Z" fill="#0052B4"/>
<path d="M7.21875 8.65748L7.50967 8.44192L10.2208 10.4511L9.18535 7.20019L11.8963 5.19067H10.8703C9.54277 6.22054 8.31943 7.38238 7.21875 8.65748V8.65748Z" fill="#FFDA44"/>
<path d="M18.2679 4.43481L18.8075 6.12867H20.5536L19.141 7.17567L19.6804 8.86952L18.2679 7.82263L16.8553 8.86952L17.3945 7.17567L15.9819 6.12867H17.7281L18.2679 4.43481Z" fill="#FFDA44"/>
<path d="M7.50996 15.5217L8.04961 17.2156H9.7957L8.3832 18.2627L8.92256 19.9565L7.50996 18.9095L6.09727 19.9565L6.63662 18.2627L5.22412 17.2156H6.97021L7.50996 15.5217Z" fill="#FFDA44"/>
</g>
<defs>
<clipPath id="clip0_105_2108">
<rect width="50" height="51" fill="white" transform="translate(0.988281)"/>
</clipPath>
</defs>
</svg>
