<svg width="50" height="51" viewBox="0 0 50 51" fill="none" xmlns="http://www.w3.org/2000/svg">
<g clip-path="url(#clip0_105_1856)">
<path d="M48.445 34.3695C49.45 31.6072 50 28.6192 50 25.5C50 22.3808 49.45 19.3929 48.445 16.6305L25 14.4131L1.55498 16.6305C0.55 19.3929 0 22.3808 0 25.5C0 28.6192 0.55 31.6072 1.55498 34.3695L25 36.5869L48.445 34.3695Z" fill="#6DA544"/>
<path d="M48.445 16.6305C44.9126 6.92006 35.7491 0 25 0C14.2508 0 5.08726 6.92006 1.55493 16.6305H48.445Z" fill="#FFDA44"/>
<path d="M25 51.0001C35.7491 51.0001 44.9126 44.08 48.445 34.3696H1.55493C5.08726 44.08 14.2508 51.0001 25 51.0001Z" fill="#D80027"/>
</g>
<defs>
<clipPath id="clip0_105_1856">
<rect width="50" height="51" fill="white"/>
</clipPath>
</defs>
</svg>
