<svg width="50" height="51" viewBox="0 0 50 51" fill="none" xmlns="http://www.w3.org/2000/svg">
<g clip-path="url(#clip0_105_1624)">
<path d="M25 0C22.7435 0 20.5576 0.306797 18.4782 0.878455L16.3044 25.5L18.4783 50.1215C20.5576 50.6932 22.7435 51 25 51C38.807 51 50 39.5832 50 25.5C50 11.4168 38.807 0 25 0Z" fill="#FFDA44"/>
<path d="M16.3044 25.5L18.4783 50.1215C20.5576 50.6932 22.7435 51 25 51C38.807 51 50 39.5832 50 25.5H16.3044Z" fill="#6DA544"/>
<path d="M0 25.5C0 35.1656 5.27246 43.5747 13.0435 47.8995V3.10059C5.27246 7.42543 0 15.8344 0 25.5Z" fill="#D80027"/>
<path d="M0 25.5C0 37.2817 7.83408 47.1954 18.4782 50.1215V0.878418C7.83408 3.80454 0 13.7183 0 25.5Z" fill="#D80027"/>
<path d="M9.44686 18.8479L11.0655 23.9296H16.3044L12.0663 27.0705L13.6849 32.1523L9.44686 29.0115L5.20868 32.1523L6.82762 27.0705L2.58954 23.9296H7.82811L9.44686 18.8479Z" fill="black"/>
</g>
<defs>
<clipPath id="clip0_105_1624">
<rect width="50" height="51" fill="white"/>
</clipPath>
</defs>
</svg>
