<svg width="50" height="51" viewBox="0 0 50 51" fill="none" xmlns="http://www.w3.org/2000/svg">
<g clip-path="url(#clip0_105_1574)">
<path d="M0 25.5C0 11.4168 11.193 0 25 0C38.807 0 50 11.4168 50 25.5C48.9131 25.5 25 28.8261 25 28.8261L0 25.5Z" fill="#F0F0F0"/>
<path d="M50 25.5C50 39.5832 38.807 51 25 51C11.193 51 0 39.5832 0 25.5" fill="#D80027"/>
<path d="M17.3911 37.6958C23.9945 37.6958 29.3477 32.2356 29.3477 25.5001C29.3477 18.7646 23.9945 13.3044 17.3911 13.3044C10.7877 13.3044 5.43457 18.7646 5.43457 25.5001C5.43457 32.2356 10.7877 37.6958 17.3911 37.6958Z" fill="#F0F0F0"/>
<path d="M5.43457 25.5001C5.43457 18.7648 10.7877 13.3044 17.3911 13.3044C23.9946 13.3044 29.3477 18.7647 29.3477 25.5001" fill="#D80027"/>
</g>
<defs>
<clipPath id="clip0_105_1574">
<rect width="50" height="51" fill="white"/>
</clipPath>
</defs>
</svg>
