<svg width="50" height="51" viewBox="0 0 50 51" fill="none" xmlns="http://www.w3.org/2000/svg">
<g clip-path="url(#clip0_105_2747)">
<path d="M25 50.999C38.8071 50.999 50 39.5823 50 25.499C50 11.4158 38.8071 -0.000976562 25 -0.000976562C11.1929 -0.000976562 0 11.4158 0 25.499C0 39.5823 11.1929 50.999 25 50.999Z" fill="#F0F0F0"/>
<path d="M14.1304 34.3687L16.3043 49.4133C19.0125 50.4383 21.9419 50.9991 24.9999 50.9991C35.7489 50.9991 44.9126 44.0791 48.4448 34.3687H14.1304Z" fill="black"/>
<path d="M14.1304 16.6295L16.3043 1.5849C19.0125 0.559824 21.9419 -0.000976562 24.9999 -0.000976562C35.7489 -0.000976562 44.9126 6.91909 48.4448 16.6295H14.1304Z" fill="#6DA544"/>
<path d="M0 25.4989C0 36.463 6.78447 45.8098 16.3044 49.4128V1.58496C6.78447 5.18793 0 14.5348 0 25.4989Z" fill="#A2001D"/>
</g>
<defs>
<clipPath id="clip0_105_2747">
<rect width="50" height="51" fill="white" transform="translate(0 -0.000976562)"/>
</clipPath>
</defs>
</svg>
