<svg width="50" height="51" viewBox="0 0 50 51" fill="none" xmlns="http://www.w3.org/2000/svg">
<g clip-path="url(#clip0_105_2021)">
<path d="M25 51C38.8071 51 50 39.5833 50 25.5C50 11.4167 38.8071 0 25 0C11.1929 0 0 11.4167 0 25.5C0 39.5833 11.1929 51 25 51Z" fill="#F0F0F0"/>
<path d="M13.5129 35.4783L7.32324 43.5304C11.8471 48.1453 18.0964 51 25.0001 51C35.3351 51 44.2036 44.6022 48.0109 35.4783H13.5129Z" fill="#FFDA44"/>
<path d="M48.0498 15.6141C44.2638 6.44094 35.37 0 25.0001 0C18.0964 0 11.8471 2.8547 7.32324 7.46961L13.584 15.6141H48.0498Z" fill="#496E2D"/>
<path d="M5.43457 18.7554V32.152H49.1387C49.6994 30.0313 49.9998 27.8016 49.9998 25.4999C49.9998 23.1649 49.6914 20.9037 49.1149 18.7554H5.43457Z" fill="black"/>
<path d="M7.32231 7.46875C-2.44077 17.4271 -2.44077 33.5729 7.32231 43.5313C11.3568 39.4162 15.237 35.4584 25 25.5L7.32231 7.46875Z" fill="#A2001D"/>
<path d="M10.1181 18.8479L11.7367 23.9296H16.9756L12.7375 27.0705L14.3561 32.1523L10.1181 29.0115L5.87988 32.1523L7.49883 27.0705L3.26074 23.9296H8.49922L10.1181 18.8479Z" fill="#FFDA44"/>
<path d="M5.38135 25.5H14.8563V29.9348H5.38135V25.5Z" fill="#F0F0F0"/>
<path d="M16.6502 20.416L15.113 18.8479L10.1181 23.9427L5.12314 18.8479L3.58594 20.416L8.58525 25.5062L3.58594 30.6056L5.12314 32.1523L10.1181 27.0667L15.113 32.1523L16.6502 30.6056L11.6509 25.5062L16.6502 20.416Z" fill="black"/>
</g>
<defs>
<clipPath id="clip0_105_2021">
<rect width="50" height="51" fill="white"/>
</clipPath>
</defs>
</svg>
