<svg width="50" height="51" viewBox="0 0 50 51" fill="none" xmlns="http://www.w3.org/2000/svg">
<g clip-path="url(#clip0_105_2407)">
<path d="M10.9092 46.5652C14.9215 49.3627 19.7728 51 24.9997 51C30.2267 51 35.078 49.3627 39.0902 46.5652L24.9997 44.3478L10.9092 46.5652Z" fill="#D80027"/>
<path d="M39.0902 4.43481C35.078 1.63728 30.2267 0 24.9997 0C19.7728 0 14.9213 1.63728 10.9092 4.43481L24.9997 6.65221L39.0902 4.43481Z" fill="#D80027"/>
<path d="M10.9092 46.5652C14.9215 49.3627 19.7728 51 24.9997 51C30.2267 51 35.078 49.3627 39.0902 46.5652L24.9997 44.3478L10.9092 46.5652Z" fill="#D80027"/>
<path d="M39.0902 4.43481C35.078 1.63728 30.2267 0 24.9997 0C19.7728 0 14.9213 1.63728 10.9092 4.43481L24.9997 6.65221L39.0902 4.43481Z" fill="#D80027"/>
<path d="M49.9365 23.8369C49.3442 15.9668 44.6561 8.31518 39.0907 4.43469H10.9097C4.74404 8.73393 0.561719 15.7751 0.0527344 23.8369L25.0002 25.5L49.9365 23.8369Z" fill="#0052B4"/>
<path d="M0.0527344 27.1631C0.561719 35.225 4.74394 42.2661 10.9096 46.5653H39.0906C45.2565 42.2662 49.4386 35.225 49.9476 27.1631L25.0002 25.5L0.0527344 27.1631Z" fill="#0052B4"/>
<path d="M49.9363 23.8368H26.6305V3.32605H23.3696V23.8368H0.0526367C0.0179687 24.3867 0 24.9412 0 25.5C0 26.0587 0.0178711 26.6131 0.0525391 27.163H23.3696V47.6739H26.6305V27.163H49.9476C49.9821 26.6131 50 26.0587 50 25.5C50 24.9453 49.978 24.3905 49.9363 23.8368Z" fill="#D80027"/>
<path d="M9.78223 25.5L24.9995 15.744L40.217 25.5L24.9995 35.256L9.78223 25.5Z" fill="#F0F0F0"/>
<path d="M16.3047 29.9348H35.8698L31.5221 23.2826L29.3481 25.5L27.1742 24.3913L25.0003 27.7174H20.6524L18.4785 25.5L16.3047 29.9348Z" fill="#6DA544"/>
<path d="M25.0005 18.8478L25.5401 20.5416H27.2861L25.8735 21.5886L26.4132 23.2826L25.0005 22.2357L23.5878 23.2826L24.1274 21.5886L22.7148 20.5416H24.4608L25.0005 18.8478Z" fill="#FFDA44"/>
<path d="M24.9997 12.9565L5.43457 25.5L24.9997 38.0434L44.565 25.5L24.9997 12.9565ZM11.5623 25.5L24.9997 16.885L38.4373 25.5L24.9997 34.1149L11.5623 25.5Z" fill="#D80027"/>
</g>
<defs>
<clipPath id="clip0_105_2407">
<rect width="50" height="51" fill="white"/>
</clipPath>
</defs>
</svg>
