<svg width="50" height="51" viewBox="0 0 50 51" fill="none" xmlns="http://www.w3.org/2000/svg">
<g clip-path="url(#clip0_105_2332)">
<path d="M25 51C38.8071 51 50 39.5833 50 25.5C50 11.4167 38.8071 0 25 0C11.1929 0 0 11.4167 0 25.5C0 39.5833 11.1929 51 25 51Z" fill="#FFDA44"/>
<path d="M15.2174 16.6305H48.4449C44.9127 6.92006 35.749 0 25 0C18.0963 0 11.8469 2.8547 7.32312 7.46961L15.2174 16.6305Z" fill="#6DA544"/>
<path d="M15.2174 34.3695H48.4449C44.9127 44.0799 35.749 51 25 51C18.0963 51 11.8469 48.1453 7.32312 43.5304L15.2174 34.3695Z" fill="#6DA544"/>
<path d="M7.32231 7.46875C-2.44077 17.4271 -2.44077 33.5729 7.32231 43.5313C11.3568 39.4162 15.237 35.4584 25 25.5L7.32231 7.46875Z" fill="#D80027"/>
<path d="M31.7455 21.0652L32.8247 24.4531H36.3171L33.4917 26.5469L34.5709 29.9348L31.7455 27.8409L28.9201 29.9348L29.9992 26.5469L27.174 24.4531H30.6663L31.7455 21.0652Z" fill="black"/>
<path d="M42.6151 21.0652L43.6942 24.4531H47.1866L44.3613 26.5469L45.4404 29.9348L42.6151 27.8409L39.7896 29.9348L40.8688 26.5469L38.0435 24.4531H41.5358L42.6151 21.0652Z" fill="black"/>
</g>
<defs>
<clipPath id="clip0_105_2332">
<rect width="50" height="51" fill="white"/>
</clipPath>
</defs>
</svg>
