<svg width="50" height="51" viewBox="0 0 50 51" fill="none" xmlns="http://www.w3.org/2000/svg">
<g clip-path="url(#clip0_105_1880)">
<path d="M35.8695 2.53028C32.5828 0.909234 28.8956 0 25 0C21.1044 0 17.4172 0.909234 14.1305 2.53028L11.9565 25.5L14.1305 48.4697C17.4172 50.0908 21.1044 51 25 51C28.8956 51 32.5828 50.0908 35.8695 48.4697L38.0435 25.5L35.8695 2.53028Z" fill="#FFDA44"/>
<path d="M14.1305 2.53125C5.76807 6.65578 0 15.3904 0 25.5001C0 35.6097 5.76807 44.3444 14.1305 48.4689V2.53125Z" fill="#0052B4"/>
<path d="M35.8696 2.53125V48.4689C44.2319 44.3444 50.0001 35.6097 50.0001 25.5001C50.0001 15.3904 44.2319 6.65578 35.8696 2.53125Z" fill="#0052B4"/>
<path d="M32.065 27.7173L33.6954 29.9347V21.0651L32.065 23.2825H27.1737V18.2933L29.3477 16.6304H20.652L22.8259 18.2933V23.2825H17.9346L16.3042 21.0651V29.9347L17.9346 27.7173H22.8259V32.7064L20.652 34.3694H29.3477L27.1737 32.7064V27.7173H32.065Z" fill="#D80027"/>
<path d="M31.5216 24.3912H26.0867V18.8477H23.9129V24.3912H18.478V26.6085H23.9129V32.1521H26.0867V26.6085H31.5216V24.3912Z" fill="#F0F0F0"/>
</g>
<defs>
<clipPath id="clip0_105_1880">
<rect width="50" height="51" fill="white"/>
</clipPath>
</defs>
</svg>
