<svg width="50" height="51" viewBox="0 0 50 51" fill="none" xmlns="http://www.w3.org/2000/svg">
<g clip-path="url(#clip0_105_1354)">
<path d="M25 51C38.8071 51 50 39.5833 50 25.5C50 11.4167 38.8071 0 25 0C11.1929 0 0 11.4167 0 25.5C0 39.5833 11.1929 51 25 51Z" fill="#F0F0F0"/>
<path d="M22.8261 25.5C22.8261 25.5 7.33691 43.5348 7.32227 43.5312C11.8463 48.1458 18.0964 51 25 51C38.807 51 50 39.5832 50 25.5H22.8261Z" fill="#D80027"/>
<path d="M7.32231 7.4687C-2.44077 17.4271 -2.44077 33.5728 7.32231 43.5313C11.3568 39.4161 15.237 35.4583 25 25.5L7.32231 7.4687Z" fill="#0052B4"/>
</g>
<defs>
<clipPath id="clip0_105_1354">
<rect width="50" height="51" fill="white"/>
</clipPath>
</defs>
</svg>
