<svg width="50" height="52" viewBox="0 0 50 52" fill="none" xmlns="http://www.w3.org/2000/svg">
<g clip-path="url(#clip0_105_1461)">
<path d="M0 26.4893C0 29.6086 0.550098 32.5965 1.55508 35.3591L25 37.5762L48.4449 35.359C49.45 32.5965 50 29.6085 50 26.4893C50 23.4128 49.4657 20.4637 48.4869 17.7331L25 15.4023L1.51309 17.7332C0.534277 20.4637 0 23.4128 0 26.4893H0Z" fill="#FFDA44"/>
<path d="M25 51.9892C35.7491 51.9892 44.9126 45.0692 48.445 35.3588H1.55493C5.08726 45.0692 14.2508 51.9892 25 51.9892Z" fill="#D80027"/>
<path d="M25 0.989258C14.2508 0.989258 5.08726 7.90932 1.55493 17.6197H48.4451C44.9126 7.90932 35.7491 0.989258 25 0.989258V0.989258Z" fill="#6DA544"/>
<path d="M25 38.6849C31.6034 38.6849 36.9565 33.2247 36.9565 26.4893C36.9565 19.7538 31.6034 14.2936 25 14.2936C18.3966 14.2936 13.0435 19.7538 13.0435 26.4893C13.0435 33.2247 18.3966 38.6849 25 38.6849Z" fill="#0052B4"/>
<path d="M24.9975 17.0454L27.1559 23.821H34.1517L28.4898 28.0087L30.6652 34.8045L24.9975 30.5969L19.3385 34.7967L21.5051 28.0087L15.8484 23.821H22.8391L24.9975 17.0454Z" fill="#FFDA44"/>
<path d="M33.6059 28.1757L26.7586 25.9062L30.9904 19.9655L29.2318 18.662L24.9998 24.6031L20.7683 18.6621L19.0095 19.9654L23.2411 25.9066L16.3942 28.1756L17.0658 30.2846L23.9131 28.0154V35.3588H26.0869V28.0153L32.9339 30.2846L33.6059 28.1757Z" fill="#FFDA44"/>
</g>
<defs>
<clipPath id="clip0_105_1461">
<rect width="50" height="51" fill="white" transform="translate(0 0.989258)"/>
</clipPath>
</defs>
</svg>
