<svg width="50" height="51" viewBox="0 0 50 51" fill="none" xmlns="http://www.w3.org/2000/svg">
<g clip-path="url(#clip0_105_2355)">
<path d="M25 51C38.8071 51 50 39.5833 50 25.5C50 11.4167 38.8071 0 25 0C11.1929 0 0 11.4167 0 25.5C0 39.5833 11.1929 51 25 51Z" fill="#6DA544"/>
<path d="M14.1306 30.4891C14.1306 32.326 15.5906 33.8152 17.3915 33.8152H27.1741C27.1741 35.346 28.3907 36.5869 29.8915 36.5869H33.1523C34.6531 36.5869 35.8697 35.346 35.8697 33.8152V30.4891H14.1306Z" fill="#F0F0F0"/>
<path d="M36.1415 14.4131V22.174C36.1415 23.3967 35.1663 24.3914 33.9675 24.3914V27.7174C36.9643 27.7174 39.4023 25.2306 39.4023 22.174V14.4131H36.1415Z" fill="#F0F0F0"/>
<path d="M12.7718 22.174C12.7718 23.3967 11.7966 24.3914 10.5979 24.3914V27.7174C13.5947 27.7174 16.0327 25.2306 16.0327 22.174V14.4131H12.7718V22.174Z" fill="#F0F0F0"/>
<path d="M31.25 14.4131H34.5108V22.174H31.25V14.4131Z" fill="#F0F0F0"/>
<path d="M26.3587 18.8478C26.3587 19.1535 26.1148 19.4021 25.8152 19.4021C25.5156 19.4021 25.2718 19.1534 25.2718 18.8478V14.413H22.0109V18.8478C22.0109 19.1535 21.7671 19.4021 21.4675 19.4021C21.1679 19.4021 20.924 19.1534 20.924 18.8478V14.413H17.6631V18.8478C17.6631 20.9875 19.3697 22.7283 21.4675 22.7283C22.2754 22.7283 23.0246 22.4693 23.6414 22.0294C24.2581 22.4692 25.0074 22.7283 25.8153 22.7283C25.978 22.7283 26.138 22.7166 26.2953 22.6962C26.0643 23.6673 25.2068 24.3912 24.1849 24.3912V27.7173C27.1816 27.7173 29.6196 25.2304 29.6196 22.1738V18.8478V14.413H26.3588V18.8478H26.3587Z" fill="#F0F0F0"/>
<path d="M17.6631 24.3914H22.5544V27.7174H17.6631V24.3914Z" fill="#F0F0F0"/>
</g>
<defs>
<clipPath id="clip0_105_2355">
<rect width="50" height="51" fill="white"/>
</clipPath>
</defs>
</svg>
