<svg width="50" height="51" viewBox="0 0 50 51" fill="none" xmlns="http://www.w3.org/2000/svg">
<g clip-path="url(#clip0_105_1669)">
<path d="M25 51C38.8071 51 50 39.5833 50 25.5C50 11.4167 38.8071 0 25 0C11.1929 0 0 11.4167 0 25.5C0 39.5833 11.1929 51 25 51Z" fill="#D80027"/>
<path d="M27.581 19.291C27.0128 21.7015 26.0034 21.2418 25.508 23.344C22.5897 22.6283 20.7924 19.635 21.4941 16.6582C22.1955 13.6815 25.1303 11.8483 28.0487 12.564C27.0578 16.7682 28.0893 17.1352 27.581 19.291Z" fill="#F0F0F0"/>
<path d="M20.0086 21.0772C22.0805 22.3731 21.3399 23.2105 23.1467 24.3408C21.5776 26.9507 18.2314 27.769 15.6726 26.1685C13.1139 24.5681 12.3115 21.1548 13.8806 18.5449C17.4945 20.8053 18.1551 19.918 20.0086 21.0772V21.0772Z" fill="#F0F0F0"/>
<path d="M19.3341 28.9755C21.1828 27.366 21.7345 28.3432 23.3467 26.9397C25.2954 29.2683 25.0243 32.7673 22.7415 34.755C20.4585 36.7428 17.028 36.4659 15.0796 34.1376C18.3036 31.3303 17.6805 30.415 19.3341 28.9755Z" fill="#F0F0F0"/>
<path d="M26.4896 32.0706C25.5599 29.7799 26.6415 29.5464 25.8311 27.549C28.6044 26.3783 31.7833 27.7224 32.9312 30.5512C34.0789 33.38 32.7609 36.6224 29.9876 37.7932C28.3668 33.798 27.321 34.1196 26.4896 32.0706Z" fill="#F0F0F0"/>
<path d="M31.5869 26.0852C29.1638 26.2792 29.2801 25.1575 27.1673 25.3267C26.9326 22.2748 29.1684 19.6061 32.1607 19.3666C35.1528 19.1276 37.7691 21.4079 38.0036 24.4601C33.7774 24.7981 33.754 25.912 31.5869 26.0852Z" fill="#F0F0F0"/>
</g>
<defs>
<clipPath id="clip0_105_1669">
<rect width="50" height="51" fill="white"/>
</clipPath>
</defs>
</svg>
