<svg width="51" height="51" viewBox="0 0 51 51" fill="none" xmlns="http://www.w3.org/2000/svg">
<g clip-path="url(#clip0_105_2531)">
<path d="M37.5348 3.10152C33.9829 1.12487 29.9093 0.000976562 25.5782 0.000976562C21.2472 0.000976562 17.1735 1.12487 13.6217 3.10152L11.4478 25.501L13.6217 47.9004C17.1735 49.8771 21.2472 51.001 25.5782 51.001C29.9093 51.001 33.9829 49.8771 37.5348 47.9004L39.7087 25.501L37.5348 3.10152Z" fill="#FFDA44"/>
<path d="M13.6216 47.9001V3.10132C5.85049 7.42636 0.578125 15.8353 0.578125 25.5009C0.578125 35.1665 5.85049 43.5754 13.6216 47.9001Z" fill="#338AF3"/>
<path d="M50.5781 25.5009C50.5781 15.8353 45.3058 7.42636 37.5347 3.10132V47.9001C45.3058 43.5754 50.5781 35.1665 50.5781 25.5009V25.5009Z" fill="#6DA544"/>
<path d="M20.1434 32.1531L15.7954 25.5008L20.1433 18.8486L24.4913 25.5008L20.1434 32.1531Z" fill="#6DA544"/>
<path d="M31.0129 32.1531L26.665 25.5008L31.0129 18.8486L35.3607 25.5008L31.0129 32.1531Z" fill="#6DA544"/>
<path d="M25.5781 41.0226L21.2302 34.3704L25.5781 27.7183L29.9259 34.3704L25.5781 41.0226Z" fill="#6DA544"/>
</g>
<defs>
<clipPath id="clip0_105_2531">
<rect width="50" height="51" fill="white" transform="translate(0.578125 0.000976562)"/>
</clipPath>
</defs>
</svg>
