<svg width="50" height="51" viewBox="0 0 50 51" fill="none" xmlns="http://www.w3.org/2000/svg">
<g clip-path="url(#clip0_105_2393)">
<path d="M48.445 34.3685C49.45 31.6061 50 28.6182 50 25.499C50 22.3799 49.45 19.392 48.445 16.6295L25 14.4121L1.55498 16.6295C0.55 19.392 0 22.3799 0 25.499C0 28.6182 0.55 31.6061 1.55498 34.3685L25 36.586L48.445 34.3685Z" fill="#F0F0F0"/>
<path d="M24.9998 50.999C35.7488 50.999 44.9125 44.0789 48.4447 34.3685H1.55469C5.08711 44.0789 14.2506 50.999 24.9998 50.999Z" fill="#338AF3"/>
<path d="M24.9998 -0.000976562C14.2506 -0.000976562 5.08711 6.91909 1.55469 16.6295H48.4448C44.9125 6.91909 35.7488 -0.000976562 24.9998 -0.000976562Z" fill="#6DA544"/>
</g>
<defs>
<clipPath id="clip0_105_2393">
<rect width="50" height="51" fill="white" transform="translate(0 -0.000976562)"/>
</clipPath>
</defs>
</svg>
