<svg width="50" height="51" viewBox="0 0 50 51" fill="none" xmlns="http://www.w3.org/2000/svg">
<g clip-path="url(#clip0_105_2887)">
<path d="M25 51C38.8071 51 50 39.5833 50 25.5C50 11.4167 38.8071 0 25 0C11.1929 0 0 11.4167 0 25.5C0 39.5833 11.1929 51 25 51Z" fill="#F0F0F0"/>
<path d="M47.6072 14.603C46.3371 11.8664 44.6036 9.39774 42.5099 7.30146L25.0001 5.54346L7.49033 7.30156C7.43447 7.35744 7.37998 7.41462 7.32471 7.4711L14.3169 14.6031L25.0001 14.9359L47.6072 14.603Z" fill="#FFDA44"/>
<path d="M7.32422 43.5292C7.41621 43.623 7.50801 43.717 7.60137 43.8094L24.9999 45.4565L42.3982 43.8094C44.5136 41.7176 46.2683 39.2488 47.5562 36.5078L15.2172 35.4783C12.4347 38.3165 9.22529 41.5899 7.32422 43.5292V43.5292Z" fill="#FFDA44"/>
<path d="M49.7516 21.9046L20.6523 21.0652L25.0002 25.5C23.7124 26.8135 21.7899 28.7745 20.6523 29.9348L49.7363 29.2063C49.9092 27.9961 50.0002 26.759 50.0002 25.5C50.0002 24.2794 49.9143 23.0795 49.7516 21.9046V21.9046Z" fill="black"/>
<path d="M25 0C18.1809 0 12.0006 2.78607 7.49023 7.30157H42.5098C37.9994 2.78607 31.8191 0 25 0Z" fill="#6DA544"/>
<path d="M21.4753 21.9046H49.7516C49.3948 19.3268 48.6608 16.873 47.6073 14.603H14.3169L21.4753 21.9046Z" fill="#D80027"/>
<path d="M14.208 36.5078H47.5564C48.6223 34.2395 49.368 31.7854 49.7362 29.2062H21.3664C18.5942 32.0338 16.2448 34.4303 14.208 36.5078Z" fill="#D80027"/>
<path d="M24.9999 51C31.7631 51 37.8979 48.2596 42.3982 43.8093H7.60156C12.102 48.2596 18.2367 51 24.9999 51Z" fill="#6DA544"/>
<path d="M8.92725 5.96997C8.37148 6.4463 7.83525 6.94565 7.32227 7.46869L25 25.5L7.32227 43.5313C7.83516 44.0544 8.37148 44.5537 8.92725 45.03L28.0743 25.5L8.92725 5.96997Z" fill="black"/>
<path d="M10.0511 18.8478L11.6697 23.9295H16.9085L12.6704 27.0703L14.2892 32.1522L10.0511 29.0114L5.81289 32.1522L7.43184 27.0703L3.19385 23.9295H8.43232L10.0511 18.8478Z" fill="#D80027"/>
<path d="M14.504 25.9158L10.2854 24.3914C10.2854 24.3914 9.97373 21.4087 9.95488 21.3076C9.81172 20.5384 9.14893 19.9565 8.35303 19.9565C7.45264 19.9565 6.72256 20.7011 6.72256 21.6196C6.72256 21.7719 6.74434 21.9186 6.78193 22.0589L5.59912 23.2734H7.70225C7.70225 25.5 6.07334 25.5 6.07334 27.7174L6.97695 29.9348H12.4117L13.3176 27.7174H13.3172C13.4079 27.5046 13.463 27.2852 13.4857 27.066C14.2666 26.7438 14.504 25.9158 14.504 25.9158V25.9158Z" fill="#FFDA44"/>
</g>
<defs>
<clipPath id="clip0_105_2887">
<rect width="50" height="51" fill="white"/>
</clipPath>
</defs>
</svg>
