<svg width="50" height="51" viewBox="0 0 50 51" fill="none" xmlns="http://www.w3.org/2000/svg">
<g clip-path="url(#clip0_105_2212)">
<path d="M25 51C38.8071 51 50 39.5833 50 25.5C50 11.4167 38.8071 0 25 0C11.1929 0 0 11.4167 0 25.5C0 39.5833 11.1929 51 25 51Z" fill="#F0F0F0"/>
<path d="M25 0C15.0885 0 6.52446 5.88343 2.48071 14.4131H47.5193C43.4756 5.88343 34.9115 0 25 0V0Z" fill="#D80027"/>
<path d="M25 51C34.9115 51 43.4756 45.1166 47.5194 36.5869H2.48071C6.52446 45.1166 15.0885 51 25 51Z" fill="#0052B4"/>
<path d="M31.1487 18.1196L28.8429 20.4715C29.8264 21.4747 30.4348 22.8605 30.4348 24.3913C30.4348 27.4529 28.0015 29.9348 25.0001 29.9348C21.9986 29.9348 19.5653 27.4528 19.5653 24.3913C19.5653 22.8605 20.1737 21.4747 21.1572 20.4715L18.8514 18.1196C17.2777 19.7245 16.3044 21.9419 16.3044 24.3913C16.3044 29.2899 20.1976 33.2609 25.0001 33.2609C29.8025 33.2609 33.6957 29.2898 33.6957 24.3913C33.6956 21.9419 32.7223 19.7245 31.1487 18.1196V18.1196Z" fill="#6DA544"/>
<path d="M25 21.0652L25.8095 23.6062H28.4287L26.3097 25.1765L27.1191 27.7174L25 26.1471L22.8809 27.7174L23.6903 25.1765L21.5713 23.6062H24.1905L25 21.0652Z" fill="#FFDA44"/>
</g>
<defs>
<clipPath id="clip0_105_2212">
<rect width="50" height="51" fill="white"/>
</clipPath>
</defs>
</svg>
