<svg width="50" height="52" viewBox="0 0 50 52" fill="none" xmlns="http://www.w3.org/2000/svg">
<g clip-path="url(#clip0_105_1298)">
<path d="M25 51.9893C38.8071 51.9893 50 40.5725 50 26.4893C50 12.406 38.8071 0.989258 25 0.989258C11.1929 0.989258 0 12.406 0 26.4893C0 40.5725 11.1929 51.9893 25 51.9893Z" fill="#FCFCFC"/>
<path d="M33.7047 22.5878C33.7047 17.1946 29.4184 12.8226 24.131 12.8226C20.2292 12.8226 16.875 15.2043 15.3836 18.6193L14.2029 22.9857L15.2898 24.0943L13.1158 28.5291L15.2898 29.6378L14.2029 30.7464V31.8551L15.2898 32.9637V35.1812L16.3767 36.2898L19.6375 35.1812C19.6375 35.1812 19.6375 36.2898 20.7244 37.3986C21.8114 38.5072 22.8985 40.7247 22.8985 40.7247C22.8985 40.7247 26.1593 41.8334 28.3332 38.5073C30.5072 35.1813 32.6811 34.0725 32.6811 34.0725L30.5858 29.7979C32.502 28.0126 33.7047 25.4439 33.7047 22.5878V22.5878Z" fill="black"/>
<path d="M34.4849 26.3221C38.9018 25.5622 39.6375 16.7402 39.6375 16.7402H33.5506C36.7028 24.501 33.4035 25.0231 33.4035 25.0231C32.9565 24.6839 16.9606 16.9546 16.4536 16.7581C16.3314 16.9248 15.8817 17.3628 15.335 18.7265C14.7882 20.0901 14.6541 21.3169 14.6541 21.3169C14.9101 21.4872 31.8977 27.5375 32.3467 27.5879C33.2378 28.1822 34.3343 29.9593 33.7215 35.2285L39.5803 33.5443C39.5805 33.5443 37.5921 28.1491 34.4849 26.3221V26.3221Z" fill="#ACABB1"/>
</g>
<defs>
<clipPath id="clip0_105_1298">
<rect width="50" height="51" fill="white" transform="translate(0 0.989258)"/>
</clipPath>
</defs>
</svg>
