<svg width="51" height="51" viewBox="0 0 51 51" fill="none" xmlns="http://www.w3.org/2000/svg">
<g clip-path="url(#clip0_105_2103)">
<path d="M25.9883 51C39.7954 51 50.9883 39.5833 50.9883 25.5C50.9883 11.4167 39.7954 0 25.9883 0C12.1812 0 0.988281 11.4167 0.988281 25.5C0.988281 39.5833 12.1812 51 25.9883 51Z" fill="#F0F0F0"/>
<path d="M0.988281 25.5C0.988281 36.4642 7.77266 45.811 17.2927 49.414V1.58618C7.77266 5.18905 0.988281 14.536 0.988281 25.5V25.5Z" fill="#6DA544"/>
<path d="M50.9885 25.5C50.9885 14.536 44.2041 5.18905 34.6841 1.58618V49.4141C44.2041 45.811 50.9885 36.4642 50.9885 25.5V25.5Z" fill="#6DA544"/>
</g>
<defs>
<clipPath id="clip0_105_2103">
<rect width="50" height="51" fill="white" transform="translate(0.988281)"/>
</clipPath>
</defs>
</svg>
