<svg width="50" height="51" viewBox="0 0 50 51" fill="none" xmlns="http://www.w3.org/2000/svg">
<g clip-path="url(#clip0_105_2661)">
<path d="M25 50.999C38.8071 50.999 50 39.5823 50 25.499C50 11.4158 38.8071 -0.000976562 25 -0.000976562C11.1929 -0.000976562 0 11.4158 0 25.499C0 39.5823 11.1929 50.999 25 50.999Z" fill="#D80027"/>
<path d="M25 37.6946C31.6034 37.6946 36.9565 32.2344 36.9565 25.4989C36.9565 18.7634 31.6034 13.3032 25 13.3032C18.3966 13.3032 13.0435 18.7634 13.0435 25.4989C13.0435 32.2344 18.3966 37.6946 25 37.6946Z" fill="#F0F0F0"/>
<path d="M26.473 20.8359L28.5242 23.7191L31.8462 22.6204L29.7918 25.5011L31.8427 28.3842L28.5218 27.2814L26.4675 30.1621L26.4696 26.5999L23.1488 25.4971L26.4709 24.3984L26.473 20.8359Z" fill="#D80027"/>
<path d="M27.7174 32.7056C23.8155 32.7056 20.6522 29.479 20.6522 25.499C20.6522 21.519 23.8155 18.2925 27.7174 18.2925C28.934 18.2925 30.0789 18.6062 31.0783 19.1587C29.5104 17.5947 27.3664 16.6294 25 16.6294C20.1977 16.6294 16.3044 20.6004 16.3044 25.4989C16.3044 30.3974 20.1977 34.3684 25 34.3684C27.3664 34.3684 29.5105 33.4031 31.0783 31.8391C30.0789 32.3918 28.934 32.7056 27.7174 32.7056Z" fill="#D80027"/>
</g>
<defs>
<clipPath id="clip0_105_2661">
<rect width="50" height="51" fill="white" transform="translate(0 -0.000976562)"/>
</clipPath>
</defs>
</svg>
