<svg width="50" height="51" viewBox="0 0 50 51" fill="none" xmlns="http://www.w3.org/2000/svg">
<g clip-path="url(#clip0_105_2645)">
<path d="M25 50.999C38.8071 50.999 50 39.5823 50 25.499C50 11.4158 38.8071 -0.000976562 25 -0.000976562C11.1929 -0.000976562 0 11.4158 0 25.499C0 39.5823 11.1929 50.999 25 50.999Z" fill="#F0F0F0"/>
<path d="M16.3045 13.3034V9.97729H13.0436V13.3034H9.78271V16.6295H13.0436V19.9556H16.3045V16.6295H19.5653V13.3034H16.3045Z" fill="#D80027"/>
<path d="M25 -0.000976562V25.499C11.193 25.4991 5.70557 25.499 0 25.4991C0 39.5822 11.193 50.999 25 50.999C38.807 50.999 50 39.5822 50 25.499C50 11.4159 38.807 -0.000976562 25 -0.000976562Z" fill="#D80027"/>
</g>
<defs>
<clipPath id="clip0_105_2645">
<rect width="50" height="51" fill="white" transform="translate(0 -0.000976562)"/>
</clipPath>
</defs>
</svg>
