<svg width="50" height="51" viewBox="0 0 50 51" fill="none" xmlns="http://www.w3.org/2000/svg">
<g clip-path="url(#clip0_105_1452)">
<path d="M22.8261 23.2826C22.8261 23.2826 7.33691 43.5349 7.32227 43.5312C11.8463 48.1458 18.0964 51 25 51C38.807 51 50 39.5832 50 25.5L22.8261 23.2826Z" fill="#338AF3"/>
<path d="M22.8261 25.5C22.8261 25.5 7.33691 7.46522 7.32227 7.46881C11.8463 2.85421 18.0964 0 25 0C38.807 0 50 11.4168 50 25.5H22.8261Z" fill="#6DA544"/>
<path d="M7.32231 7.46875C-2.44077 17.4271 -2.44077 33.5729 7.32231 43.5313C7.32163 43.5354 50 25.5 50 25.5L7.32231 7.46875Z" fill="#D80027"/>
<path d="M13.0435 14.9674C8.24868 14.9674 4.3479 18.9463 4.3479 23.8369V27.163C4.3479 32.0537 8.24878 36.0325 13.0435 36.0325C17.8382 36.0325 21.7391 32.0536 21.7391 27.163V23.8369C21.7392 18.9463 17.8383 14.9674 13.0435 14.9674ZM18.4783 27.1631C18.4783 29.6406 16.8765 31.7432 14.6739 32.4513V28.8262L16.9809 26.473L14.6751 24.1211L14.6739 23.2841V22.174H11.4131V25.5L9.10767 27.8515L11.4131 30.203V32.4514C9.2105 31.7433 7.60874 29.6407 7.60874 27.1632V23.8371C7.60874 20.7804 10.0468 18.2937 13.0435 18.2937C16.0402 18.2937 18.4783 20.7805 18.4783 23.8371V27.1631Z" fill="#FFDA44"/>
</g>
<defs>
<clipPath id="clip0_105_1452">
<rect width="50" height="51" fill="white"/>
</clipPath>
</defs>
</svg>
