<svg width="50" height="52" viewBox="0 0 50 52" fill="none" xmlns="http://www.w3.org/2000/svg">
<g clip-path="url(#clip0_105_1538)">
<path d="M25 51.9893C38.8071 51.9893 50 40.5725 50 26.4893C50 12.406 38.8071 0.989258 25 0.989258C11.1929 0.989258 0 12.406 0 26.4893C0 40.5725 11.1929 51.9893 25 51.9893Z" fill="#F0F0F0"/>
<path d="M25 0.989258C14.6645 0.989258 5.79458 7.38677 1.98706 16.511H48.0129C44.2054 7.38677 35.3354 0.989258 25 0.989258Z" fill="#A2001D"/>
<path d="M25 51.9893C35.3354 51.9893 44.2054 45.5917 48.0128 36.4675H1.98706C5.79458 45.5917 14.6645 51.9893 25 51.9893Z" fill="#496E2D"/>
<path d="M49.1388 19.837H0.86123C0.300781 21.958 0 24.1876 0 26.4892C0 28.7909 0.300781 31.0205 0.86123 33.1415H49.1389C49.6992 31.0205 50 28.7909 50 26.4892C50 24.1876 49.6992 21.958 49.1388 19.837V19.837Z" fill="#0052B4"/>
</g>
<defs>
<clipPath id="clip0_105_1538">
<rect width="50" height="51" fill="white" transform="translate(0 0.989258)"/>
</clipPath>
</defs>
</svg>
