<svg width="50" height="51" viewBox="0 0 50 51" fill="none" xmlns="http://www.w3.org/2000/svg">
<g clip-path="url(#clip0_105_2218)">
<path d="M25 51C38.8071 51 50 39.5833 50 25.5C50 11.4167 38.8071 0 25 0C11.1929 0 0 11.4167 0 25.5C0 39.5833 11.1929 51 25 51Z" fill="#F0F0F0"/>
<path d="M49.9999 25.5C49.9999 14.536 43.2156 5.18905 33.6956 1.58618V49.4141C43.2156 45.811 49.9999 36.4642 49.9999 25.5V25.5Z" fill="#D80027"/>
<path d="M0 25.5C0 36.4642 6.78437 45.811 16.3044 49.414V1.58618C6.78437 5.18905 0 14.536 0 25.5V25.5Z" fill="#D80027"/>
</g>
<defs>
<clipPath id="clip0_105_2218">
<rect width="50" height="51" fill="white"/>
</clipPath>
</defs>
</svg>
