<svg width="50" height="52" viewBox="0 0 50 52" fill="none" xmlns="http://www.w3.org/2000/svg">
<g clip-path="url(#clip0_105_2667)">
<path d="M25 51.5811C38.8071 51.5811 50 40.1643 50 26.0811C50 11.9978 38.8071 0.581055 25 0.581055C11.1929 0.581055 0 11.9978 0 26.0811C0 40.1643 11.1929 51.5811 25 51.5811Z" fill="#D80027"/>
<path d="M23.9763 21.418L26.0276 24.3012L29.3496 23.2025L27.2951 26.0832L29.346 28.9663L26.0252 27.8634L23.9709 30.7441L23.973 27.182L20.6521 26.0791L23.9742 24.9804L23.9763 21.418Z" fill="#F0F0F0"/>
<path d="M18.3783 33.2876C14.4764 33.2876 11.3131 30.061 11.3131 26.081C11.3131 22.1011 14.4764 18.8745 18.3783 18.8745C19.5949 18.8745 20.7396 19.1884 21.7391 19.7407C20.1712 18.1766 18.027 17.2114 15.6609 17.2114C10.8584 17.2114 6.96533 21.1825 6.96533 26.0809C6.96533 30.9794 10.8585 34.9505 15.6609 34.9505C18.0271 34.9505 20.1713 33.9851 21.7391 32.4212C20.7396 32.9737 19.5949 33.2876 18.3783 33.2876V33.2876Z" fill="#F0F0F0"/>
</g>
<defs>
<clipPath id="clip0_105_2667">
<rect width="50" height="51" fill="white" transform="translate(0 0.581055)"/>
</clipPath>
</defs>
</svg>
