<svg width="50" height="52" viewBox="0 0 50 52" fill="none" xmlns="http://www.w3.org/2000/svg">
<g clip-path="url(#clip0_105_1377)">
<path d="M25 51.9893C38.8071 51.9893 50 40.5725 50 26.4893C50 12.406 38.8071 0.989258 25 0.989258C11.1929 0.989258 0 12.406 0 26.4893C0 40.5725 11.1929 51.9893 25 51.9893Z" fill="#F0F0F0"/>
<path d="M29.8912 51.4999C39.7743 49.5001 47.5596 41.5591 49.5201 31.4784H29.8912V51.4999Z" fill="#496E2D"/>
<path d="M0.479736 31.4784C2.44019 41.5591 10.2255 49.5001 20.1086 51.4999V31.4784H0.479736Z" fill="#496E2D"/>
<path d="M49.5201 21.5001C47.5596 11.4195 39.7743 3.4784 29.8912 1.47864V21.5001H49.5201Z" fill="#496E2D"/>
<path d="M20.1086 1.47864C10.2255 3.4784 2.44019 11.4195 0.479736 21.5001H20.1086V1.47864Z" fill="#496E2D"/>
<path d="M23.3695 31.4784H20.1086V51.4999C21.1728 51.7151 22.2614 51.861 23.3695 51.9338V31.4784Z" fill="#FFDA44"/>
<path d="M23.3695 21.5001V1.04474C22.2614 1.11745 21.1727 1.26338 20.1086 1.47864V21.5001H23.3695Z" fill="#FFDA44"/>
<path d="M26.6304 1.04474C26.0912 1.00918 25.5479 0.989258 25 0.989258C24.452 0.989258 23.9088 1.00918 23.3695 1.04474V21.5002H26.6303V1.04474H26.6304Z" fill="black"/>
<path d="M23.3695 51.9338C23.9088 51.9693 24.452 51.9893 25 51.9893C25.5479 51.9893 26.0912 51.9693 26.6304 51.9338V31.4784H23.3696V51.9338H23.3695Z" fill="black"/>
<path d="M20.1087 24.8262V21.5001H0.479834C0.268701 22.5857 0.125732 23.6959 0.0544434 24.8262H20.1087Z" fill="#FFDA44"/>
<path d="M29.8914 24.8262H49.9458C49.8745 23.6959 49.7314 22.5857 49.5204 21.5001H29.8915V24.8262H29.8914Z" fill="#FFDA44"/>
<path d="M29.8914 28.1523H49.9458C49.9805 27.6024 50 27.0482 50 26.4892C50 25.9303 49.9805 25.3761 49.9457 24.8262H29.8914V28.1523Z" fill="black"/>
<path d="M0.0543945 24.8262C0.0196289 25.3761 0 25.9303 0 26.4892C0 27.0482 0.0196289 27.6024 0.0543945 28.1523H20.1088V24.8263H0.0543945V24.8262Z" fill="black"/>
<path d="M25 38.6849C31.6034 38.6849 36.9565 33.2247 36.9565 26.4893C36.9565 19.7538 31.6034 14.2936 25 14.2936C18.3966 14.2936 13.0435 19.7538 13.0435 26.4893C13.0435 33.2247 18.3966 38.6849 25 38.6849Z" fill="#D80027"/>
<path d="M27.724 27.8499C26.8346 26.0357 25.6786 24.1969 25.6786 24.1969C25.6786 24.1969 25.7073 23.3597 25.7073 22.8609C25.7073 22.1094 25.1101 21.5002 24.3734 21.5002C23.6754 21.5002 23.1035 22.0472 23.0452 22.7435C22.4964 22.7801 22.0621 23.2445 22.0621 23.8134C22.0621 24.2271 22.2919 24.5856 22.6282 24.7648C22.7954 24.366 23.1228 24.0546 23.5277 23.9127C23.5937 23.9677 23.6646 24.0169 23.7403 24.0587L23.9112 24.1422C23.9112 24.1422 23.2775 25.9641 23.2775 26.9429C23.2775 29.6945 25.0562 30.5431 25.0562 30.5431V30.5714L24.1668 31.4785H25.9454V29.6642L26.8348 30.5713C26.8426 30.5543 28.5194 29.4726 27.724 27.8499V27.8499Z" fill="#496E2D"/>
<path d="M25 16.511L25.4047 17.7814H26.7143L25.6548 18.5666L26.0596 19.837L25 19.0519L23.9405 19.837L24.3452 18.5666L23.2858 17.7814H24.5953L25 16.511Z" fill="#496E2D"/>
<path d="M19.25 18.4167L20.3094 19.2019L21.3689 18.4166L20.9642 19.6872L22.0238 20.4722L20.7141 20.4723L20.3094 21.7428L19.9047 20.4723L18.5951 20.4722L19.6546 19.687L19.25 18.4167Z" fill="#496E2D"/>
<path d="M15.6962 23.4059H17.0056L17.4104 22.1354L17.8151 23.4059L19.1248 23.4058L18.0653 24.1911L18.4701 25.4615L17.4104 24.6763L16.351 25.4614L16.7555 24.191L15.6962 23.4059Z" fill="#496E2D"/>
<path d="M15.6962 29.5727L16.7555 28.7876L16.3509 27.5171L17.4104 28.3023L18.47 27.5171L18.0653 28.7875L19.1249 29.5728L17.8151 29.5729L17.4104 30.8432L17.0056 29.5727H15.6962Z" fill="#496E2D"/>
<path d="M19.25 34.5618L19.6545 33.2916L18.595 32.5064H19.9046L20.3094 31.2358L20.7141 32.5063H22.0238L20.9642 33.2916L21.3689 34.5619L20.3093 33.7767L19.25 34.5618Z" fill="#496E2D"/>
<path d="M25 36.4675L24.5953 35.1973H23.2858L24.3452 34.412L23.9405 33.1416L25 33.9266L26.0595 33.1415L25.6548 34.412L26.7143 35.1972L25.4047 35.1973L25 36.4675Z" fill="#496E2D"/>
<path d="M30.75 34.5618L29.6906 33.7767L28.6312 34.562L29.0358 33.2916L27.9762 32.5064L29.2859 32.5063L29.6905 31.2358L30.0953 32.5064H31.4049L30.3454 33.2916L30.75 34.5618Z" fill="#496E2D"/>
<path d="M34.3038 29.5727H32.9944L32.5896 30.8432L32.1849 29.5729H30.8751L31.9347 28.7875L31.5299 27.5172L32.5896 28.3023L33.6489 27.5172L33.2445 28.7876L34.3038 29.5727Z" fill="#496E2D"/>
<path d="M34.3038 23.4058L33.2445 24.191L33.649 25.4614L32.5896 24.6763L31.53 25.4616L31.9347 24.1911L30.8751 23.4059L32.1849 23.4057L32.5895 22.1355L32.9944 23.4058H34.3038Z" fill="#496E2D"/>
<path d="M30.75 18.4167L30.3454 19.687L31.4049 20.4723H30.0953L29.6906 21.7428L29.2859 20.4724L27.9762 20.4725L29.0358 19.687L28.6311 18.4168L29.6906 19.2018L30.75 18.4167Z" fill="#496E2D"/>
</g>
<defs>
<clipPath id="clip0_105_1377">
<rect width="50" height="51" fill="white" transform="translate(0 0.989258)"/>
</clipPath>
</defs>
</svg>
