<svg width="50" height="51" viewBox="0 0 50 51" fill="none" xmlns="http://www.w3.org/2000/svg">
<g clip-path="url(#clip0_105_1026)">
<path d="M0 25.5C0 11.4168 11.193 0 25 0C38.807 0 50 11.4168 50 25.5H0Z" fill="#F0F0F0"/>
<path d="M18.478 24.106L17.1113 25.5H18.478V24.106Z" fill="#0052B4"/>
<path d="M31.522 24.1062V25.5001H32.8886L31.522 24.1062Z" fill="#0052B4"/>
<path d="M0.721289 19.4023C0.251074 21.3563 0 23.3982 0 25.5H7.88838L13.8665 19.4023H0.721289Z" fill="#0052B4"/>
<path d="M36.1333 19.4023L42.1114 25.5H50C50 23.3982 49.7488 21.3563 49.2787 19.4023H36.1333Z" fill="#0052B4"/>
<path d="M34.5963 19.4023H31.522L37.5001 25.5H40.5745L34.5963 19.4023Z" fill="#D80027"/>
<path d="M18.4783 22.5379V19.4023H18.4781L12.5 25.5H15.5744L18.4783 22.5379Z" fill="#D80027"/>
<path d="M11.711 3.89893C10.6806 4.55993 9.70078 5.29525 8.77881 6.0978H13.8667L11.711 3.89893Z" fill="#0052B4"/>
<path d="M41.221 6.0978C40.299 5.29515 39.3193 4.55983 38.289 3.89893L36.1333 6.0978H41.221Z" fill="#0052B4"/>
<path d="M28.2609 16.0761H48.2365C47.2914 13.6537 45.9924 11.4146 44.4052 9.42384H28.261H28.2609V0.215854C27.1936 0.0741094 26.1053 0 25.0001 0C23.8947 0 22.8066 0.0741094 21.7393 0.215854V9.42374V9.42384H5.59502C4.00781 11.4146 2.70879 13.6537 1.76367 16.0761H21.7391H21.7392V25.5H28.2609V16.0762V16.0761Z" fill="#D80027"/>
<path d="M18.4784 6.09774V6.09764L14.7096 2.25342C14.0128 2.57486 13.3337 2.92897 12.6729 3.31177L15.4042 6.09774H18.4784Z" fill="#D80027"/>
<path d="M31.522 6.09788L35.2909 2.25366C34.574 1.92306 33.839 1.62662 33.088 1.36475L31.522 2.96218V6.09788Z" fill="#D80027"/>
<path d="M50 25.5C50 39.5832 38.807 51 25 51C11.193 51 0 39.5832 0 25.5H50Z" fill="#F0F0F0"/>
<path d="M45.8332 28.7523C43.7499 28.7523 43.7499 26.8093 41.6665 26.8093C39.5832 26.8093 39.5832 28.7523 37.5 28.7523C35.4168 28.7523 35.4167 26.8093 33.3335 26.8093C31.2502 26.8093 31.2502 28.7523 29.1668 28.7523C27.0834 28.7523 27.0833 26.8093 24.9998 26.8093C22.9165 26.8093 22.9165 28.7523 20.8333 28.7523C18.7503 28.7523 18.7503 26.8093 16.667 26.8093C14.5835 26.8093 14.5835 28.7523 12.5 28.7523C10.4165 28.7523 10.4165 26.8093 8.33301 26.8093C6.25 26.8093 6.25 28.7523 4.1667 28.7523C2.09463 28.7523 2.08262 26.8307 0.0327148 26.8102C0.0904297 27.9766 0.226953 29.1218 0.433398 30.2416C2.09395 30.4905 2.23936 32.1523 4.1668 32.1523C6.2501 32.1523 6.2501 30.2095 8.33311 30.2095C10.4166 30.2095 10.4166 32.1523 12.5001 32.1523C14.5836 32.1523 14.5836 30.2095 16.6671 30.2095C18.7504 30.2095 18.7504 32.1523 20.8334 32.1523C22.9167 32.1523 22.9167 30.2095 24.9999 30.2095C27.0834 30.2095 27.0834 32.1523 29.1669 32.1523C31.2504 32.1523 31.2504 30.2095 33.3336 30.2095C35.4169 30.2095 35.4169 32.1523 37.5001 32.1523C39.5833 32.1523 39.5834 30.2095 41.6666 30.2095C43.7501 30.2095 43.7501 32.1523 45.8333 32.1523C47.7609 32.1523 47.9063 30.4906 49.567 30.2417C49.7735 29.1218 49.9099 27.9767 49.9679 26.8103C47.9176 26.8309 47.9054 28.7523 45.8332 28.7523V28.7523Z" fill="#0052B4"/>
<path d="M41.6665 33.4614C39.5832 33.4614 39.5832 35.4044 37.5 35.4044C35.4168 35.4044 35.4167 33.4614 33.3335 33.4614C31.2502 33.4614 31.2502 35.4044 29.1668 35.4044C27.0833 35.4044 27.0833 33.4614 24.9998 33.4614C22.9165 33.4614 22.9165 35.4044 20.8333 35.4044C18.7503 35.4044 18.7503 33.4614 16.667 33.4614C14.5835 33.4614 14.5835 35.4044 12.5 35.4044C10.4165 35.4044 10.4165 33.4614 8.33301 33.4614C6.25 33.4614 6.25 35.4044 4.1667 35.4044C2.67813 35.4044 2.25293 34.4127 1.37158 33.8461C1.9583 35.5752 2.72158 37.2201 3.64082 38.7577C3.80068 38.7877 3.97471 38.8044 4.1667 38.8044C6.25 38.8044 6.25 36.8616 8.33301 36.8616C10.4165 36.8616 10.4165 38.8044 12.5 38.8044C14.5835 38.8044 14.5835 36.8616 16.667 36.8616C18.7503 36.8616 18.7503 38.8044 20.8333 38.8044C22.9166 38.8044 22.9166 36.8616 24.9998 36.8616C27.0833 36.8616 27.0833 38.8044 29.1668 38.8044C31.2503 38.8044 31.2503 36.8616 33.3335 36.8616C35.4168 36.8616 35.4168 38.8044 37.5 38.8044C39.5832 38.8044 39.5833 36.8616 41.6665 36.8616C43.75 36.8616 43.75 38.8044 45.8332 38.8044C46.0253 38.8044 46.1994 38.7877 46.3593 38.7576C47.2785 37.2201 48.0418 35.5752 48.6287 33.8462C47.7473 34.4125 47.3221 35.4044 45.8332 35.4044C43.75 35.4044 43.75 33.4614 41.6665 33.4614Z" fill="#0052B4"/>
<path d="M49.9863 24.6987C49.9885 24.7696 49.9909 24.8404 49.9925 24.9115C49.9909 24.8405 49.9884 24.7696 49.9863 24.6987Z" fill="#F0F0F0"/>
<path d="M0.00732422 24.9115C0.00898438 24.8405 0.0113281 24.7697 0.0134766 24.6987C0.0114258 24.7697 0.00888672 24.8406 0.00732422 24.9115V24.9115Z" fill="#F0F0F0"/>
<path d="M0 25.4999C0 25.3031 0.00292969 25.1072 0.00732422 24.9114C0.00283203 25.1072 0 25.3031 0 25.4999Z" fill="#F0F0F0"/>
<path d="M0 25.5C0 25.9645 0.0128906 26.426 0.037207 26.8843C2.08242 26.9077 2.096 28.8261 4.1666 28.8261C6.2499 28.8261 6.2499 26.8833 8.33291 26.8833C10.4164 26.8833 10.4164 28.8261 12.4999 28.8261C14.5834 28.8261 14.5834 26.8833 16.6669 26.8833C18.7502 26.8833 18.7502 28.8261 20.8332 28.8261C22.9165 28.8261 22.9165 26.8833 24.9997 26.8833C27.0832 26.8833 27.0832 28.8261 29.1667 28.8261C31.2502 28.8261 31.2502 26.8833 33.3334 26.8833C35.4167 26.8833 35.4167 28.8261 37.4999 28.8261C39.5831 28.8261 39.5832 26.8833 41.6664 26.8833C43.7499 26.8833 43.7499 28.8261 45.8331 28.8261C47.9039 28.8261 47.9175 26.9077 49.9631 26.8843C49.9871 26.4259 50 25.9645 50 25.5H0Z" fill="#F0F0F0"/>
<path d="M49.9927 24.9114C49.9971 25.107 50 25.303 50 25.4999C50 25.3031 49.9972 25.1072 49.9927 24.9114Z" fill="#F0F0F0"/>
<path d="M41.6663 40.1135C39.583 40.1135 39.583 42.0565 37.4998 42.0565C35.4166 42.0565 35.4165 40.1135 33.3333 40.1135C31.25 40.1135 31.25 42.0565 29.1666 42.0565C27.0831 42.0565 27.0831 40.1135 24.9996 40.1135C22.9163 40.1135 22.9163 42.0565 20.8331 42.0565C18.7501 42.0565 18.7501 40.1135 16.6668 40.1135C14.5833 40.1135 14.5833 42.0565 12.4998 42.0565C10.4163 42.0565 10.4163 40.1135 8.33281 40.1135C6.89395 40.1135 6.44873 41.0403 5.62451 41.6137C7.81094 44.3456 10.5424 46.6052 13.6483 48.223L25 47.6397L36.3516 48.2229C39.4574 46.605 42.1889 44.3457 44.3753 41.6138C43.5507 41.0405 43.1055 40.1135 41.6663 40.1135V40.1135Z" fill="#0052B4"/>
<path d="M38.8656 40.7218L31.2606 42.2055L30.2972 34.3697L25.0001 40.1326L19.7032 34.3696L18.7394 42.2054L11.1348 40.7217L14.8642 47.6398L13.6462 48.2241C17.0532 49.9989 20.9119 51.0001 25.0001 51.0001C29.0883 51.0001 32.947 49.9989 36.354 48.2243L35.1365 47.6401L38.8656 40.7218Z" fill="#FFDA44"/>
</g>
<defs>
<clipPath id="clip0_105_1026">
<rect width="50" height="51" fill="white"/>
</clipPath>
</defs>
</svg>
