<svg width="50" height="51" viewBox="0 0 50 51" fill="none" xmlns="http://www.w3.org/2000/svg">
<g clip-path="url(#clip0_105_2041)">
<path d="M25 51C38.8071 51 50 39.5833 50 25.5C50 11.4167 38.8071 0 25 0C11.1929 0 0 11.4167 0 25.5C0 39.5833 11.1929 51 25 51Z" fill="#0052B4"/>
<path d="M35.7286 27.279C35.8206 26.6996 35.8691 26.1054 35.8691 25.5C35.8691 26.1054 35.8206 26.6996 35.7286 27.279L40.217 25.5L35.7286 23.7211L33.2633 22.744L29.2579 21.1565L27.7016 17.0711C30.326 17.9485 32.4028 20.0669 33.2632 22.7439L35.7285 23.721C34.9835 19.0298 31.3428 15.3161 26.7437 14.5563L24.9996 9.97827L23.2555 14.5564C18.6563 15.3164 15.0156 19.0299 14.2706 23.7211L9.78223 25.5L14.2707 27.279C15.0157 31.9702 18.6563 35.6837 23.2556 36.4436L24.9996 41.0217L26.7437 36.4436C31.3429 35.6837 34.9836 31.9701 35.7286 27.279V27.279ZM27.5785 22.8696L24.9996 25.5H34.2149L27.5784 28.1305L24.9996 25.5V34.8997L22.4207 28.1304L24.9996 25.5H15.7843L22.4207 22.8696L24.9996 25.5V16.1004L27.5785 22.8696ZM22.2976 17.0712L20.7411 21.1566L16.7359 22.7441C17.5962 20.0669 19.673 17.9487 22.2976 17.0712ZM16.736 28.2561L20.7411 29.8436L22.2976 33.9288C19.673 33.0513 17.5964 30.9331 16.736 28.2561ZM27.7017 33.9288L29.258 29.8436L33.2632 28.2561C32.4028 30.9331 30.3262 33.0513 27.7017 33.9288Z" fill="#F0F0F0"/>
<path d="M34.2153 25.5H25L27.5789 28.1305L34.2153 25.5Z" fill="#0052B4"/>
<path d="M15.7842 25.5H24.9995L22.4206 22.8696L15.7842 25.5Z" fill="#0052B4"/>
<path d="M24.9998 34.8997V25.5L22.4209 28.1305L24.9998 34.8997Z" fill="#0052B4"/>
<path d="M25 25.5L27.5789 22.8696L25 16.1003V25.5Z" fill="#0052B4"/>
<path d="M23.9131 3.32617H26.087V7.76098H23.9131V3.32617Z" fill="#F0F0F0"/>
<path d="M3.26074 24.3914H7.60859V26.6088H3.26074V24.3914Z" fill="#F0F0F0"/>
<path d="M23.9131 43.2393H26.087V47.6741H23.9131V43.2393Z" fill="#F0F0F0"/>
<path d="M42.3916 24.3914H46.7395V26.6088H42.3916V24.3914Z" fill="#F0F0F0"/>
</g>
<defs>
<clipPath id="clip0_105_2041">
<rect width="50" height="51" fill="white"/>
</clipPath>
</defs>
</svg>
