<svg width="51" height="51" viewBox="0 0 51 51" fill="none" xmlns="http://www.w3.org/2000/svg">
<g clip-path="url(#clip0_105_2566)">
<path d="M25.5781 50.999C39.3852 50.999 50.5781 39.5823 50.5781 25.499C50.5781 11.4158 39.3852 -0.000976562 25.5781 -0.000976562C11.771 -0.000976562 0.578125 11.4158 0.578125 25.499C0.578125 39.5823 11.771 50.999 25.5781 50.999Z" fill="#FFDA44"/>
<path d="M20.1432 22.173H50.3662C48.7683 9.66133 38.2797 -0.000976562 25.5778 -0.000976562C23.7112 -0.000976562 21.893 0.209498 20.1431 0.605146V22.173H20.1432Z" fill="#0052B4"/>
<path d="M13.6214 22.1729V3.09961C6.75674 6.92003 1.84258 13.9276 0.789551 22.173H13.6214V22.1729Z" fill="#0052B4"/>
<path d="M13.6213 28.8252H0.789551C1.84258 37.0706 6.75674 44.0782 13.6214 47.8985L13.6213 28.8252Z" fill="#0052B4"/>
<path d="M20.1431 28.8253V50.393C21.893 50.7887 23.7112 50.9991 25.5778 50.9991C38.2797 50.9991 48.7683 41.3368 50.3662 28.8252H20.1431V28.8253Z" fill="#0052B4"/>
</g>
<defs>
<clipPath id="clip0_105_2566">
<rect width="50" height="51" fill="white" transform="translate(0.578125 -0.000976562)"/>
</clipPath>
</defs>
</svg>
