<svg width="50" height="51" viewBox="0 0 50 51" fill="none" xmlns="http://www.w3.org/2000/svg">
<g clip-path="url(#clip0_105_881)">
<path d="M48.445 34.3695C49.45 31.6072 50 28.6192 50 25.5C50 22.3808 49.45 19.3931 48.445 16.6305L25 14.4131L1.55498 16.6305C0.550098 19.3931 0 22.3808 0 25.5C0 28.6192 0.550098 31.6072 1.55498 34.3695L25 36.5869L48.445 34.3695Z" fill="#F0F0F0"/>
<path d="M24.9998 51.0001C35.7488 51.0001 44.9125 44.08 48.4447 34.3696H1.55469C5.08711 44.08 14.2506 51.0001 24.9998 51.0001Z" fill="#D80027"/>
<path d="M24.9998 0C14.2506 0 5.08711 6.92006 1.55469 16.6305H48.4448C44.9125 6.92006 35.7488 0 24.9998 0Z" fill="#D80027"/>
</g>
<defs>
<clipPath id="clip0_105_881">
<rect width="50" height="51" fill="white"/>
</clipPath>
</defs>
</svg>
