<svg width="50" height="51" viewBox="0 0 50 51" fill="none" xmlns="http://www.w3.org/2000/svg">
<g clip-path="url(#clip0_105_1407)">
<path d="M25 51C38.8071 51 50 39.5833 50 25.5C50 11.4167 38.8071 0 25 0C11.1929 0 0 11.4167 0 25.5C0 39.5833 11.1929 51 25 51Z" fill="#F0F0F0"/>
<path d="M0.861206 32.1522C3.1696 40.8882 9.91345 47.7671 18.4783 50.1216V32.1522H0.861206Z" fill="#D80027"/>
<path d="M18.4782 0.878448C9.91345 3.23292 3.16951 10.1117 0.861206 18.8478H18.4783V0.878448H18.4782Z" fill="#0052B4"/>
<path d="M49.1388 18.8478C46.8305 10.1117 40.0865 3.23292 31.5218 0.878448V18.8479H49.1388V18.8478Z" fill="#D80027"/>
<path d="M31.5218 50.1215C40.0865 47.767 46.8305 40.8883 49.1389 32.1521H31.5218V50.1215Z" fill="#0052B4"/>
<path d="M31.5218 25.5C31.5218 29.174 28.6019 32.1522 25 32.1522C21.3981 32.1522 18.4782 29.174 18.4782 25.5C18.4782 21.826 25 18.8478 25 18.8478C25 18.8478 31.5218 21.826 31.5218 25.5Z" fill="#496E2D"/>
<path d="M18.4782 25.5C18.4782 21.826 21.3981 18.8478 25 18.8478C28.6019 18.8478 31.5218 21.826 31.5218 25.5" fill="#0052B4"/>
<path d="M21.3315 22.174V26.3315C21.3315 28.3981 22.9739 30.0734 25 30.0734C27.0261 30.0734 28.6685 28.3981 28.6685 26.3315V22.174H21.3315Z" fill="#D80027"/>
</g>
<defs>
<clipPath id="clip0_105_1407">
<rect width="50" height="51" fill="white"/>
</clipPath>
</defs>
</svg>
