<svg width="51" height="51" viewBox="0 0 51 51" fill="none" xmlns="http://www.w3.org/2000/svg">
<g clip-path="url(#clip0_105_1123)">
<path d="M0.988281 25.501C0.988281 11.4178 12.1812 0.000976562 25.9883 0.000976562C39.7953 0.000976562 50.9883 11.4178 50.9883 25.501C49.9014 25.501 25.9883 28.827 25.9883 28.827L0.988281 25.501Z" fill="#D80027"/>
<path d="M50.9883 25.501C50.9883 39.5841 39.7953 51.001 25.9883 51.001C12.1812 51.001 0.988281 39.5841 0.988281 25.501" fill="#6DA544"/>
<path d="M25.9882 16.6313L27.8766 22.5599H33.9886L29.044 26.2241L30.9325 32.1531L25.9882 28.4889L21.0437 32.1531L22.9325 26.2241L17.9879 22.5599H24.0996L25.9882 16.6313Z" fill="#FFDA44"/>
</g>
<defs>
<clipPath id="clip0_105_1123">
<rect width="50" height="51" fill="white" transform="translate(0.988281 0.000976562)"/>
</clipPath>
</defs>
</svg>
