<svg width="50" height="51" viewBox="0 0 50 51" fill="none" xmlns="http://www.w3.org/2000/svg">
<g clip-path="url(#clip0_105_2268)">
<path d="M25 51C38.8071 51 50 39.5833 50 25.5C50 11.4167 38.8071 0 25 0C11.1929 0 0 11.4167 0 25.5C0 39.5833 11.1929 51 25 51Z" fill="#FFDA44"/>
<path d="M28.802 50.7069C32.868 50.0741 36.6107 48.4409 39.784 46.0633L25 25.5L28.802 50.7069Z" fill="#D80027"/>
<path d="M21.1979 0.293152C17.132 0.925871 13.3893 2.55907 10.2158 4.93664L25 25.5L21.1979 0.293152Z" fill="#D80027"/>
<path d="M10.2158 46.0633C13.3891 48.4408 17.1318 50.074 21.1978 50.707L25 25.5L10.2158 46.0633Z" fill="#D80027"/>
<path d="M4.83979 10.4201C2.50874 13.657 0.907764 17.4746 0.287354 21.6219L25 25.5L4.83979 10.4201Z" fill="#D80027"/>
<path d="M0.287354 29.378C0.907666 33.5253 2.50884 37.343 4.83989 40.5797L25 25.5L0.287354 29.378Z" fill="#D80027"/>
<path d="M49.7126 21.6219C49.0922 17.4747 47.4911 13.657 45.1601 10.4202L25 25.5L49.7126 21.6219Z" fill="#D80027"/>
<path d="M39.784 4.93654C36.6106 2.55897 32.868 0.925871 28.802 0.293152L25 25.5L39.784 4.93654Z" fill="#D80027"/>
<path d="M45.1603 40.5798C47.4912 37.343 49.0923 33.5252 49.7128 29.3781L25 25.5L45.1603 40.5798Z" fill="#D80027"/>
<path d="M24.9999 34.3695C29.8024 34.3695 33.6955 30.3985 33.6955 25.5C33.6955 20.6015 29.8024 16.6305 24.9999 16.6305C20.1975 16.6305 16.3043 20.6015 16.3043 25.5C16.3043 30.3985 20.1975 34.3695 24.9999 34.3695Z" fill="#D80027"/>
<path d="M25 32.1522C28.6019 32.1522 31.5218 29.1739 31.5218 25.5C31.5218 21.8261 28.6019 18.8478 25 18.8478C21.3982 18.8478 18.4783 21.8261 18.4783 25.5C18.4783 29.1739 21.3982 32.1522 25 32.1522Z" fill="#FFDA44"/>
</g>
<defs>
<clipPath id="clip0_105_2268">
<rect width="50" height="51" fill="white"/>
</clipPath>
</defs>
</svg>
