<svg width="50" height="51" viewBox="0 0 50 51" fill="none" xmlns="http://www.w3.org/2000/svg">
<g clip-path="url(#clip0_105_2160)">
<path d="M25 51C38.8071 51 50 39.5833 50 25.5C50 11.4167 38.8071 0 25 0C11.1929 0 0 11.4167 0 25.5C0 39.5833 11.1929 51 25 51Z" fill="#F0F0F0"/>
<path d="M0 25.5C0 35.1656 5.27246 43.5747 13.0435 47.8995V3.10059C5.27246 7.42543 0 15.8344 0 25.5Z" fill="#D80027"/>
<path d="M48.4451 34.3695C49.45 31.6071 50 28.6192 50 25.5C50 22.3808 49.45 19.3929 48.4451 16.6305H1.55508C0.550098 19.3929 0 22.3808 0 25.5C0 28.6192 0.550098 31.6071 1.55508 34.3695L25 36.5869L48.4451 34.3695Z" fill="#D80027"/>
<path d="M25.0001 51C35.7493 51 44.9128 44.0799 48.4452 34.3695H1.55518C5.0874 44.0799 14.2511 51 25.0001 51V51Z" fill="#6DA544"/>
<path d="M0 25.5C0 37.2817 7.83408 47.1954 18.4782 50.1215V0.878418C7.83408 3.80454 0 13.7183 0 25.5Z" fill="#D80027"/>
<path d="M15.2946 11.2214L12.9888 8.86951L11.4517 10.4376L9.9146 8.86951L7.60884 11.2214L9.14604 12.7893L7.60864 14.3574L9.9144 16.7093L11.4516 15.1412L12.9888 16.7093L15.2946 14.3574L13.7574 12.7893L15.2946 11.2214Z" fill="#F0F0F0"/>
</g>
<defs>
<clipPath id="clip0_105_2160">
<rect width="50" height="51" fill="white"/>
</clipPath>
</defs>
</svg>
