<svg width="50" height="51" viewBox="0 0 50 51" fill="none" xmlns="http://www.w3.org/2000/svg">
<g clip-path="url(#clip0_105_893)">
<path d="M25 51C38.8071 51 50 39.5833 50 25.5C50 11.4167 38.8071 0 25 0C11.1929 0 0 11.4167 0 25.5C0 39.5833 11.1929 51 25 51Z" fill="#F0F0F0"/>
<path d="M0 25.5C0 35.1656 5.27246 43.5747 13.0435 47.8995V3.10059C5.27246 7.42543 0 15.8344 0 25.5Z" fill="#D80027"/>
<path d="M0 25.5C0 37.2817 7.83408 47.1954 18.4782 50.1215V0.878418C7.83408 3.80454 0 13.7183 0 25.5Z" fill="#0052B4"/>
<path d="M8.96729 8.86963V13.0272C8.96729 15.0938 10.6097 16.7691 12.6357 16.7691C14.6618 16.7691 16.3042 15.0938 16.3042 13.0272V8.86963H8.96729Z" fill="#D80027"/>
<path d="M12.6359 14.5515C11.8118 14.5515 11.1414 13.8677 11.1414 13.0271V11.0869H14.1305V13.0271C14.1305 13.8677 13.46 14.5515 12.6359 14.5515Z" fill="#F0F0F0"/>
<path d="M27.1739 26.6085H20.6521C20.6521 25.3839 19.6788 24.3911 18.4782 24.3911C17.2776 24.3911 16.3042 25.3839 16.3042 26.6085H9.78247C9.78247 27.8332 10.8283 28.8259 12.0288 28.8259H11.9564C11.9564 30.0506 12.9295 31.0433 14.1303 31.0433C14.1303 32.268 15.1035 33.2607 16.3042 33.2607H20.6521C21.8527 33.2607 22.826 32.268 22.826 31.0433C24.0266 31.0433 25 30.0506 25 28.8259H24.9276C26.1281 28.8259 27.1739 27.8332 27.1739 26.6085V26.6085Z" fill="#FFDA44"/>
<path d="M28.0673 23.06L27.4966 23.992L28.1889 24.8335L27.1436 24.5681L26.5728 25.4997L26.4975 24.4035L25.4521 24.1377L26.4513 23.7261L26.3761 22.6299L27.0686 23.4718L28.0673 23.06Z" fill="#FFDA44"/>
<path d="M24.7368 20.21L24.513 21.2848L25.4459 21.8342L24.3745 21.9495L24.1505 23.0241L23.7123 22.0203L22.6409 22.135L23.4416 21.3997L23.0035 20.396L23.9363 20.9454L24.7368 20.21Z" fill="#FFDA44"/>
<path d="M20.6519 18.6934L20.8018 19.7816L21.8626 19.9723L20.8945 20.4541L21.0444 21.5423L20.2961 20.7518L19.3278 21.2335L19.8335 20.2632L19.0852 19.4729L20.1462 19.6636L20.6519 18.6934Z" fill="#FFDA44"/>
<path d="M16.3045 18.6934L16.8104 19.6636L17.8712 19.4728L17.1229 20.2634L17.6286 21.2336L16.6604 20.7518L15.912 21.5421L16.062 20.4541L15.0938 19.9724L16.1546 19.7816L16.3045 18.6934Z" fill="#FFDA44"/>
<path d="M12.2194 20.21L13.02 20.9454L13.9528 20.396L13.5149 21.4001L14.3152 22.1351L13.244 22.0203L12.8056 23.0241L12.582 21.9493L11.5105 21.8346L12.4433 21.2849L12.2194 20.21Z" fill="#FFDA44"/>
<path d="M8.88921 23.0599L9.88833 23.4717L10.5804 22.6299L10.5056 23.7263L11.5043 24.138L10.4589 24.4035L10.3835 25.4996L9.81313 24.568L8.76782 24.8336L9.4603 23.9919L8.88921 23.0599Z" fill="#FFDA44"/>
</g>
<defs>
<clipPath id="clip0_105_893">
<rect width="50" height="51" fill="white"/>
</clipPath>
</defs>
</svg>
