<svg width="50" height="51" viewBox="0 0 50 51" fill="none" xmlns="http://www.w3.org/2000/svg">
<g clip-path="url(#clip0_105_1358)">
<path d="M47.2242 13.8074C46.069 11.5245 44.5549 9.3817 42.6787 7.46801C40.8024 5.55421 38.7016 4.00977 36.4635 2.83159L18.8513 19.2279L2.77637 37.1923C3.93154 39.4753 5.4457 41.6182 7.32188 43.5319C9.19805 45.4456 11.2989 46.99 13.537 48.1683L31.1492 31.7719L47.2242 13.8074Z" fill="#FFDA44"/>
<path d="M7.32158 43.532C8.37031 44.6017 9.48936 45.5557 10.6631 46.3958L45.4857 10.8764C44.6624 9.67924 43.7271 8.53781 42.6783 7.46811C41.6295 6.3984 40.5105 5.44444 39.3368 4.60454L4.51416 40.1236C5.3375 41.3207 6.27275 42.4623 7.32158 43.532V43.532Z" fill="#D80027"/>
<path d="M7.32169 7.46798C-0.565711 15.5131 -2.07987 27.5955 2.77618 37.1924L36.4633 2.83166C27.0545 -2.12141 15.209 -0.576769 7.32169 7.46798V7.46798Z" fill="#338AF3"/>
<path d="M42.6786 43.532C50.5659 35.4869 52.08 23.4045 47.2242 13.8076L13.5371 48.1684C22.9458 53.1215 34.7914 51.5771 42.6786 43.532V43.532Z" fill="#338AF3"/>
<path d="M13.3228 7.76007L14.6718 11.9952H19.0374L15.5056 14.6125L16.8546 18.8475L13.3228 16.2301L9.79072 18.8475L11.1399 14.6125L7.60791 11.9952H11.9735L13.3228 7.76007Z" fill="#FFDA44"/>
</g>
<defs>
<clipPath id="clip0_105_1358">
<rect width="50" height="51" fill="white"/>
</clipPath>
</defs>
</svg>
