<svg width="50" height="51" viewBox="0 0 50 51" fill="none" xmlns="http://www.w3.org/2000/svg">
<g clip-path="url(#clip0_105_1659)">
<path d="M25 51C38.8071 51 50 39.5833 50 25.5C50 11.4167 38.8071 0 25 0C11.1929 0 0 11.4167 0 25.5C0 39.5833 11.1929 51 25 51Z" fill="#F0F0F0"/>
<path d="M24.9998 51C34.9112 51 43.4754 45.1166 47.5191 36.5869H2.48047C6.52422 45.1166 15.0883 51 24.9998 51Z" fill="#338AF3"/>
<path d="M24.9998 0C15.0883 0 6.52422 5.88343 2.48047 14.4131H47.519C43.4754 5.88343 34.9112 0 24.9998 0V0Z" fill="#338AF3"/>
<path d="M15.3853 16.6304L16.1946 19.1713H18.8139L16.6949 20.7415L17.5044 23.2825L15.3853 21.7121L13.2661 23.2825L14.0756 20.7415L11.9565 19.1713H14.5758L15.3853 16.6304Z" fill="#338AF3"/>
<path d="M15.3853 27.7173L16.1946 30.2583H18.8139L16.6949 31.8286L17.5044 34.3694L15.3853 32.7991L13.2661 34.3694L14.0756 31.8286L11.9565 30.2583H14.5758L15.3853 27.7173Z" fill="#338AF3"/>
<path d="M34.6147 16.6304L35.4242 19.1713H38.0435L35.9244 20.7415L36.7339 23.2825L34.6147 21.7121L32.4956 23.2825L33.3051 20.7415L31.186 19.1713H33.8054L34.6147 16.6304Z" fill="#338AF3"/>
<path d="M34.6147 27.7173L35.4242 30.2583H38.0435L35.9244 31.8286L36.7339 34.3694L34.6147 32.7991L32.4956 34.3694L33.3051 31.8286L31.186 30.2583H33.8054L34.6147 27.7173Z" fill="#338AF3"/>
<path d="M25 22.1738L25.8095 24.7149H28.4287L26.3097 26.2851L27.1191 28.8259L25 27.2556L22.8809 28.8259L23.6903 26.2851L21.5713 24.7149H24.1905L25 22.1738Z" fill="#338AF3"/>
</g>
<defs>
<clipPath id="clip0_105_1659">
<rect width="50" height="51" fill="white"/>
</clipPath>
</defs>
</svg>
