<svg width="50" height="51" viewBox="0 0 50 51" fill="none" xmlns="http://www.w3.org/2000/svg">
<g clip-path="url(#clip0_105_1235)">
<path d="M25 0.000976562C21.942 0.000976562 19.0126 0.562076 16.3044 1.58706L15.2174 25.501L16.3043 49.4149C19.0126 50.44 21.942 51.001 25 51.001C28.058 51.001 30.9874 50.44 33.6956 49.4149L34.7826 25.501L33.6957 1.58706C30.9874 0.562076 28.058 0.000976563 25 0.000976563V0.000976562Z" fill="#FFDA44"/>
<path d="M50 25.501C50 14.5369 43.2156 5.19001 33.6956 1.58704V49.415C43.2156 45.8119 50 36.4651 50 25.501V25.501Z" fill="#D80027"/>
<path d="M16.3044 49.4149V1.58704C6.78437 5.19001 0 14.5369 0 25.501C0 36.4651 6.78437 45.8119 16.3044 49.4149Z" fill="#0052B4"/>
</g>
<defs>
<clipPath id="clip0_105_1235">
<rect width="50" height="51" fill="white" transform="translate(0 0.000976562)"/>
</clipPath>
</defs>
</svg>
