<svg width="50" height="51" viewBox="0 0 50 51" fill="none" xmlns="http://www.w3.org/2000/svg">
<g clip-path="url(#clip0_105_1433)">
<path d="M25 51C38.8071 51 50 39.5833 50 25.5C50 11.4167 38.8071 0 25 0C11.1929 0 0 11.4167 0 25.5C0 39.5833 11.1929 51 25 51Z" fill="#F0F0F0"/>
<path d="M24.9998 0C15.0883 0 6.52422 5.88343 2.48047 14.4131H47.519C43.4754 5.88343 34.9112 0 24.9998 0V0Z" fill="#0052B4"/>
<path d="M24.9998 51C34.9112 51 43.4754 45.1166 47.5191 36.5869H2.48047C6.52422 45.1166 15.0883 51 24.9998 51Z" fill="#0052B4"/>
<path d="M19.9795 26.6087L25 17.7391L30.0205 26.6087H19.9795Z" fill="#FFDA44"/>
<path d="M31.5216 29.5372L24.9998 32.8634L18.478 29.5372V25.1025H31.5216V29.5372Z" fill="#6DA544"/>
<path d="M31.1489 18.1196L28.8432 20.4715C29.8267 21.4747 30.4351 22.8605 30.4351 24.3913C30.4351 27.4529 28.0018 29.9348 25.0003 29.9348C21.9988 29.9348 19.5655 27.4528 19.5655 24.3913C19.5655 22.8605 20.1739 21.4747 21.1574 20.4715L18.8517 18.1196C17.2779 19.7245 16.3047 21.9419 16.3047 24.3913C16.3047 29.2899 20.1979 33.2609 25.0003 33.2609C29.8027 33.2609 33.6959 29.2898 33.6959 24.3913C33.6958 21.9419 32.7226 19.7245 31.1489 18.1196V18.1196Z" fill="#FFDA44"/>
</g>
<defs>
<clipPath id="clip0_105_1433">
<rect width="50" height="51" fill="white"/>
</clipPath>
</defs>
</svg>
