<svg width="50" height="51" viewBox="0 0 50 51" fill="none" xmlns="http://www.w3.org/2000/svg">
<g clip-path="url(#clip0_105_1602)">
<path d="M10.9094 46.5653C14.9215 49.3628 19.7731 51.0001 25 51.0001C30.2268 51.0001 35.0783 49.3628 39.0905 46.5653L25 44.3479L10.9094 46.5653Z" fill="#D80027"/>
<path d="M39.0905 4.43481C35.0783 1.63728 30.2268 0 25 0C19.7731 0 14.9215 1.63728 10.9094 4.43481L25 6.65221L39.0905 4.43481Z" fill="#D80027"/>
<path d="M50 25.5C50 17.0621 45.0473 8.58833 39.0905 4.43481H10.9095C4.32324 9.02721 0 16.7483 0 25.5C0 34.252 4.32324 41.9728 10.9095 46.5652H39.0905C45.6769 41.9728 50 34.252 50 25.5Z" fill="#0052B4"/>
<path d="M23.5852 41.5966C23.2436 41.2978 15.2173 34.1809 15.2173 25.5C15.2173 16.8192 23.2435 9.70218 23.5852 9.40345L24.9999 8.1665L26.4146 9.40335C26.7562 9.70218 34.7825 16.8191 34.7825 25.5C34.7825 34.181 26.7563 41.298 26.4146 41.5966L24.9999 42.8336L23.5852 41.5966Z" fill="#D80027"/>
<path d="M32.6087 25.5C32.6087 17.7391 25 11.0869 25 11.0869C25 11.0869 17.3914 17.7393 17.3914 25.5C17.3914 27.8742 18.104 30.1442 19.0924 32.1522H30.9077C31.8961 30.1442 32.6087 27.8742 32.6087 25.5Z" fill="#338AF3"/>
<path d="M32.6087 25.5C32.6087 27.8742 31.8961 30.1442 30.9077 32.1522L25 33.2609L19.0924 32.1522C18.104 30.1443 17.3914 27.8742 17.3914 25.5H32.6087Z" fill="#0052B4"/>
<path d="M24.9999 39.913C24.9999 39.913 28.6647 36.7078 30.9075 32.1521H19.0923C21.3351 36.7078 24.9999 39.913 24.9999 39.913Z" fill="#FFDA44"/>
<path d="M20.1086 21.0652H29.8913L25 26.0543L20.1086 21.0652Z" fill="#6DA544"/>
<path d="M23.3696 24.3914H26.6305V34.3696H23.3696V24.3914Z" fill="#A2001D"/>
</g>
<defs>
<clipPath id="clip0_105_1602">
<rect width="50" height="51" fill="white"/>
</clipPath>
</defs>
</svg>
