<svg width="50" height="51" viewBox="0 0 50 51" fill="none" xmlns="http://www.w3.org/2000/svg">
<g clip-path="url(#clip0_105_1350)">
<path d="M25 51C38.8071 51 50 39.5833 50 25.5C50 11.4167 38.8071 0 25 0C11.1929 0 0 11.4167 0 25.5C0 39.5833 11.1929 51 25 51Z" fill="#FCFCFC"/>
<path d="M39.1304 22.174C38.3695 22.174 37.4274 22.174 35.8695 22.174C35.8695 28.2971 31.0029 33.2609 25 33.2609C18.9968 33.2609 14.1305 28.2971 14.1305 22.174C13.0797 22.174 11.9202 22.174 10.8696 22.174C10.8696 28.7696 15.213 34.3305 21.1417 36.0431C20.4917 37.3025 20.5907 38.8882 21.5192 40.0701C22.7388 39.0731 24.0014 38.041 25.0725 37.1657C26.1436 38.0411 27.4062 39.0732 28.6257 40.0701C29.5634 38.8765 29.6557 37.2706 28.9841 36.0051C34.8479 34.2505 39.1304 28.7227 39.1304 22.174V22.174Z" fill="#6DA544"/>
<path d="M16.3042 21.0652C16.3042 21.0652 16.3042 26.6086 21.739 26.6086L22.8259 27.7173H24.9998C24.9998 27.7173 26.0867 24.3912 28.2606 24.3912C28.2606 24.3912 28.2606 22.1738 30.4346 22.1738C32.6085 22.1738 33.6954 22.1738 33.6954 22.1738C33.6954 22.1738 32.6085 17.739 38.0433 14.413L35.8693 13.3043C35.8693 13.3043 28.2606 18.8478 22.8259 17.7391V19.9565H20.652L19.565 18.8479L16.3042 21.0652Z" fill="#FFDA44"/>
</g>
<defs>
<clipPath id="clip0_105_1350">
<rect width="50" height="51" fill="white"/>
</clipPath>
</defs>
</svg>
