<svg width="50" height="51" viewBox="0 0 50 51" fill="none" xmlns="http://www.w3.org/2000/svg">
<g clip-path="url(#clip0_105_2813)">
<path d="M50 25.501C50 24.3737 49.9274 23.2637 49.7883 22.1749H21.7389C16.6314 16.9656 7.32191 7.47052 7.3223 7.46973C-2.44077 17.4281 -2.44077 33.5737 7.3223 43.5322L21.7392 28.8271H49.7883C49.9273 27.7383 50 26.6283 50 25.501V25.501Z" fill="black"/>
<path d="M49.9928 26.0811C49.9917 26.1303 49.9906 26.1797 49.9893 26.2289C49.9904 26.1795 49.9916 26.1303 49.9928 26.0811Z" fill="#F0F0F0"/>
<path d="M49.9688 26.7778C49.9666 26.8265 49.9632 26.875 49.9607 26.9237C49.9632 26.8751 49.9664 26.8265 49.9688 26.7778Z" fill="#F0F0F0"/>
<path d="M49.935 27.3335C49.93 27.4051 49.9251 27.4767 49.9194 27.5482C49.9251 27.4767 49.9299 27.4051 49.935 27.3335Z" fill="#F0F0F0"/>
<path d="M49.8516 22.7217C49.8607 22.8069 49.8699 22.8921 49.8782 22.9776C49.8699 22.892 49.8606 22.8069 49.8516 22.7217Z" fill="#F0F0F0"/>
<path d="M49.9604 24.0781C49.9631 24.1267 49.9663 24.1752 49.9686 24.224C49.9662 24.1752 49.9631 24.1266 49.9604 24.0781Z" fill="#F0F0F0"/>
<path d="M49.9893 24.7734C49.9906 24.8226 49.9916 24.872 49.9928 24.9213C49.9917 24.8719 49.9905 24.8226 49.9893 24.7734Z" fill="#F0F0F0"/>
<path d="M49.9194 23.4536C49.9251 23.525 49.93 23.5967 49.935 23.6683C49.9299 23.5967 49.9251 23.525 49.9194 23.4536Z" fill="#F0F0F0"/>
<path d="M49.7883 22.1748C49.7995 22.2621 49.8094 22.35 49.8197 22.4375C48.3359 9.79893 37.7904 0.000976562 24.9999 0.000976562C18.0962 0.000976562 11.8461 2.85528 7.32202 7.47007L21.7384 22.1749H49.7883V22.1748Z" fill="#D80027"/>
<path d="M49.7883 28.8272H21.7384L7.32202 43.532C11.8461 48.1467 18.0962 51.0011 24.9999 51.0011C37.7904 51.0011 48.336 41.2032 49.8197 28.5645C49.8094 28.652 49.7993 28.7399 49.7883 28.8272V28.8272Z" fill="#6DA544"/>
<path d="M49.8782 28.0244C49.8699 28.1099 49.8607 28.195 49.8516 28.2803C49.8607 28.195 49.87 28.11 49.8782 28.0244Z" fill="#F0F0F0"/>
<path d="M49.9351 23.6685C49.9445 23.8048 49.9531 23.9415 49.9605 24.0784C49.953 23.9415 49.9445 23.8048 49.9351 23.6685V23.6685Z" fill="black"/>
<path d="M49.8198 22.4375C49.8311 22.532 49.8417 22.6268 49.8517 22.7216C49.8415 22.6268 49.8309 22.5321 49.8198 22.4375Z" fill="black"/>
<path d="M49.8782 22.9775C49.8934 23.1358 49.9072 23.2945 49.9196 23.4538C49.9073 23.2945 49.8935 23.1357 49.8782 22.9775Z" fill="black"/>
<path d="M49.9998 25.501C49.9998 25.6949 49.9969 25.8881 49.9927 26.0808C49.9969 25.888 49.9998 25.6948 49.9998 25.501Z" fill="black"/>
<path d="M49.9604 26.9238C49.953 27.0608 49.9444 27.1975 49.9351 27.3338C49.9444 27.1975 49.9529 27.0608 49.9604 26.9238Z" fill="black"/>
<path d="M49.9196 27.5483C49.9072 27.7074 49.8934 27.8662 49.8782 28.0244C49.8935 27.8662 49.9073 27.7074 49.9196 27.5483Z" fill="black"/>
<path d="M49.8517 28.2803C49.8417 28.3751 49.8311 28.4697 49.8198 28.5644C49.8309 28.4698 49.8415 28.3751 49.8517 28.2803Z" fill="black"/>
<path d="M49.9927 24.9209C49.9969 25.1137 49.9998 25.307 49.9998 25.5007C49.9998 25.307 49.9969 25.1137 49.9927 24.9209Z" fill="black"/>
<path d="M49.9688 24.2241C49.9775 24.4066 49.9842 24.5898 49.9893 24.7733C49.9842 24.5897 49.9776 24.4066 49.9688 24.2241Z" fill="black"/>
<path d="M49.9893 26.229C49.9842 26.4125 49.9775 26.5957 49.9688 26.7781C49.9777 26.5956 49.9843 26.4125 49.9893 26.229Z" fill="black"/>
<path d="M49.976 24.3833H20.8203L5.84409 9.10986C5.36001 9.63062 4.8353 10.3578 4.51079 10.8756L18.8329 25.4919L4.49878 40.113C4.78257 40.628 5.40083 41.3902 5.83491 41.8862L20.8206 26.6007H49.9796C49.9951 26.233 50 25.8636 50 25.4921C49.9999 24.9942 49.9864 24.6272 49.976 24.3833Z" fill="#FFDA44"/>
<path d="M6.07289 30.937V28.8011C8.16254 28.8011 9.86244 27.067 9.86244 24.9357C9.86244 23.4277 8.65961 22.201 7.18129 22.201C6.17416 22.201 5.35473 23.0367 5.35473 24.0641C5.35473 24.7211 5.87866 25.2556 6.5228 25.2556C6.88686 25.2556 7.18305 24.9533 7.18305 24.5819H9.27699C9.27699 26.1311 8.04145 27.3914 6.52289 27.3914C4.72417 27.3915 3.26099 25.8987 3.26099 24.0643C3.26099 21.8593 5.01977 20.0654 7.18139 20.0654C9.81439 20.0654 11.9566 22.2505 11.9566 24.936C11.9565 28.2447 9.31713 30.937 6.07289 30.937V30.937Z" fill="#FFDA44"/>
</g>
<defs>
<clipPath id="clip0_105_2813">
<rect width="50" height="51" fill="white" transform="translate(0 0.000976562)"/>
</clipPath>
</defs>
</svg>
