<svg width="50" height="51" viewBox="0 0 50 51" fill="none" xmlns="http://www.w3.org/2000/svg">
<g clip-path="url(#clip0_105_934)">
<path d="M25 51C38.8071 51 50 39.5833 50 25.5C50 11.4167 38.8071 0 25 0C11.1929 0 0 11.4167 0 25.5C0 39.5833 11.1929 51 25 51Z" fill="#F0F0F0"/>
<path d="M0.211914 28.8259C0.793555 33.3794 2.55352 37.5545 5.16846 41.0245L18.4784 28.8259H0.211914Z" fill="#D80027"/>
<path d="M21.7392 50.784V32.1521L9.77979 45.7284C13.1818 48.3956 17.275 50.1909 21.7392 50.784V50.784Z" fill="#D80027"/>
<path d="M21.7392 0.21582C17.275 0.809094 13.1818 2.60425 9.77979 5.27149L21.7392 18.8479V0.21582Z" fill="#D80027"/>
<path d="M0.211914 22.1739H18.4784L5.16836 9.97534C2.55342 13.4453 0.793457 17.6205 0.211914 22.1739V22.1739Z" fill="#D80027"/>
<path d="M28.2612 0.21582V18.8478L40.2208 5.27149C36.8188 2.60445 32.7255 0.808994 28.2612 0.21582V0.21582Z" fill="#D80027"/>
<path d="M49.7886 22.174C49.2069 17.6206 47.447 13.4454 44.832 9.97534L31.522 22.174H49.7886Z" fill="#D80027"/>
<path d="M31.522 28.8259L44.8321 41.0246C47.447 37.5545 49.207 33.3794 49.7887 28.8259H31.522Z" fill="#D80027"/>
<path d="M28.2612 50.784C32.7254 50.1908 36.8187 48.3956 40.2207 45.7283L28.2612 32.1521V50.784Z" fill="#D80027"/>
<path d="M44.8336 41.0267L29.6115 25.5001L29.6114 25.5L44.8336 9.97329C44.1771 9.1031 43.459 8.26598 42.6775 7.46871C41.8961 6.67163 41.0753 5.93901 40.2221 5.26953L24.9999 20.7961H24.9998L9.77764 5.26953C8.92451 5.93911 8.10371 6.67153 7.32207 7.46871C6.54063 8.26598 5.82236 9.1031 5.16602 9.97339L20.3882 25.4999L20.3883 25.5L5.16611 41.0267C5.82256 41.8968 6.54072 42.734 7.32217 43.5313C8.10371 44.3284 8.92451 45.061 9.77773 45.7305L24.9998 30.2038L40.2221 45.7305C41.0751 45.0609 41.8959 44.3284 42.6775 43.5313C43.4591 42.734 44.1771 41.8968 44.8336 41.0267V41.0267Z" fill="#496E2D"/>
<path d="M28.2608 50.7841V28.8264V28.8262H49.7884C49.9275 27.7373 50 26.6273 50 25.5C50 24.3728 49.9274 23.2628 49.7884 22.174H28.261L28.2609 22.1739V0.215953C27.1936 0.074209 26.1054 0 25 0C23.8948 9.96094e-05 22.8065 0.074209 21.7392 0.215953L21.7393 22.1737V22.1739H0.211719C0.0726562 23.2627 0 24.3727 0 25.5C9.76563e-05 26.6275 0.0726562 27.7373 0.211719 28.8261H21.7391L21.7392 50.7841C22.8066 50.9259 23.8946 51 25 51C26.1054 51 27.1936 50.9259 28.2608 50.7841V50.7841Z" fill="#F0F0F0"/>
</g>
<defs>
<clipPath id="clip0_105_934">
<rect width="50" height="51" fill="white"/>
</clipPath>
</defs>
</svg>
