<svg width="50" height="51" viewBox="0 0 50 51" fill="none" xmlns="http://www.w3.org/2000/svg">
<g clip-path="url(#clip0_105_2196)">
<path d="M25 51C38.8071 51 50 39.5833 50 25.5C50 11.4167 38.8071 0 25 0C11.1929 0 0 11.4167 0 25.5C0 39.5833 11.1929 51 25 51Z" fill="#F0F0F0"/>
<path d="M0 25.5C0 39.5832 11.193 51 25 51C25 41.3025 25 25.5 25 25.5C25 25.5 8.69561 25.5 0 25.5Z" fill="#0052B4"/>
<path d="M25 0C38.807 0 50 11.4168 50 25.5C40.4927 25.5 25 25.5 25 25.5C25 25.5 25 8.86952 25 0Z" fill="#D80027"/>
<path d="M14.8818 8.86951L16.5007 13.9514H21.7393L17.5012 17.0921L19.1199 22.1739L14.8818 19.0331L10.6437 22.1739L12.2625 17.0921L8.02441 13.9514H13.263L14.8818 8.86951Z" fill="#0052B4"/>
<path d="M35.1182 28.826L36.737 33.9079H41.9756L37.7374 37.0486L39.3563 42.1305L35.1182 38.9897L30.8801 42.1305L32.4988 37.0486L28.2607 33.9079H33.4993L35.1182 28.826Z" fill="#D80027"/>
</g>
<defs>
<clipPath id="clip0_105_2196">
<rect width="50" height="51" fill="white"/>
</clipPath>
</defs>
</svg>
