<svg width="50" height="51" viewBox="0 0 50 51" fill="none" xmlns="http://www.w3.org/2000/svg">
<g clip-path="url(#clip0_105_857)">
<path d="M25 51C38.8071 51 50 39.5833 50 25.5C50 11.4167 38.8071 0 25 0C11.1929 0 0 11.4167 0 25.5C0 39.5833 11.1929 51 25 51Z" fill="#FFDA44"/>
<path d="M25.0001 50.9999C32.5773 50.9999 39.3667 47.561 43.9514 42.1304H6.04883C10.6335 47.561 17.4229 50.9999 25.0001 50.9999Z" fill="#338AF3"/>
<path d="M50 25.5C50 11.4168 38.807 0 25 0C11.193 0 0 11.4168 0 25.5C0 27.8017 0.300781 30.0311 0.86123 32.1522H49.1389C49.6992 30.0311 50 27.8017 50 25.5Z" fill="#338AF3"/>
<path d="M1.9873 35.4785C2.46924 36.6336 3.03262 37.7444 3.66943 38.8046H46.3308C46.9676 37.7443 47.531 36.6335 48.0131 35.4785H1.9873Z" fill="#338AF3"/>
<path d="M11.4566 16.0831L6.57227 13.8844L11.4566 11.6856L13.6122 6.70361L15.7678 11.6856L20.6521 13.8844L15.7678 16.0831L13.6122 21.0651L11.4566 16.0831Z" fill="#F0F0F0"/>
<path d="M13.6125 9.44971L14.9437 12.5265L17.9603 13.8845L14.9437 15.2424L13.6125 18.3192L12.2812 15.2424L9.26465 13.8845L12.2812 12.5265L13.6125 9.44971Z" fill="#D80027"/>
</g>
<defs>
<clipPath id="clip0_105_857">
<rect width="50" height="51" fill="white"/>
</clipPath>
</defs>
</svg>
