<svg width="50" height="51" viewBox="0 0 50 51" fill="none" xmlns="http://www.w3.org/2000/svg">
<g clip-path="url(#clip0_105_2324)">
<path d="M50 25.5C50 39.5832 38.807 51 25 51C11.193 51 0 39.5832 0 25.5C1.08691 25.5 25 22.174 25 22.174L50 25.5Z" fill="#338AF3"/>
<path d="M0 25.5C0 11.4168 11.193 0 25 0C38.807 0 50 11.4168 50 25.5" fill="#F0F0F0"/>
<path d="M34.9238 17.5954L25.0004 27.7174L15.077 17.5954C13.7937 19.5385 13.0439 21.8772 13.0439 24.3912V27.7173C13.0439 33.058 16.4272 37.6074 21.1223 39.2541C20.4956 40.5067 20.6013 42.0701 21.5195 43.239C22.7391 42.242 24.0017 41.21 25.0728 40.3346C26.1438 41.2101 27.4065 42.2421 28.626 43.239C29.555 42.0565 29.653 40.4697 29.0017 39.2096C33.6325 37.5272 36.9568 33.0111 36.9568 27.7173V24.3913C36.9569 21.8772 36.2071 19.5386 34.9238 17.5954V17.5954Z" fill="#6DA544"/>
<path d="M25.0003 36.5869C20.2055 36.5869 16.3047 32.608 16.3047 27.7174V24.3914C16.3047 19.5006 20.2056 15.5218 25.0003 15.5218C29.795 15.5218 33.6959 19.5007 33.6959 24.3914V27.7174C33.6959 32.608 29.7951 36.5869 25.0003 36.5869Z" fill="#FFDA44"/>
<path d="M30.435 27.7174V24.3913C30.435 21.3346 27.9969 18.8479 25.0002 18.8479C22.0035 18.8479 19.5654 21.3347 19.5654 24.3913V27.7174L25.0002 28.8261L30.435 27.7174Z" fill="#338AF3"/>
<path d="M19.5654 27.7174C19.5654 30.7741 22.0035 33.2609 25.0002 33.2609C27.9969 33.2609 30.435 30.774 30.435 27.7174H19.5654Z" fill="#6DA544"/>
<path d="M31.522 15.5217C31.522 13.6848 30.062 12.1957 28.2611 12.1957C27.4257 12.1957 26.6643 12.5164 26.0872 13.0432V11.0869H27.1741V8.86952H26.0872V7.76086H23.9133V8.86952H22.8264V11.0869H23.9133V13.0432C23.3362 12.5164 22.5747 12.1957 21.7394 12.1957C19.9385 12.1957 18.4785 13.6848 18.4785 15.5217C18.4785 16.5066 18.8985 17.3911 19.5654 18.0002V19.9565H30.435V18.0002C31.102 17.3911 31.522 16.5066 31.522 15.5217V15.5217Z" fill="#FFDA44"/>
</g>
<defs>
<clipPath id="clip0_105_2324">
<rect width="50" height="51" fill="white"/>
</clipPath>
</defs>
</svg>
