<svg width="50" height="51" viewBox="0 0 50 51" fill="none" xmlns="http://www.w3.org/2000/svg">
<g clip-path="url(#clip0_105_2629)">
<path d="M25 51C38.8071 51 50 39.5833 50 25.5C50 11.4167 38.8071 0 25 0C11.1929 0 0 11.4167 0 25.5C0 39.5833 11.1929 51 25 51Z" fill="#FFDA44"/>
<path d="M25 0C24.9818 0.000199219 23.9131 10.2 23.9131 10.2H45.0012C40.4401 4.00659 33.1789 0 25 0Z" fill="#496E2D"/>
<path d="M25.0001 51C33.179 51 40.4402 46.9935 45.0012 40.8H4.99902C9.55996 46.9935 16.8212 51 25.0001 51Z" fill="#496E2D"/>
<path d="M49.4994 20.3999H23.9131L25 30.5999H49.4994C49.8275 28.9521 50 27.2466 50 25.4999C50 23.7533 49.8273 22.0477 49.4994 20.3999V20.3999Z" fill="#496E2D"/>
<path d="M25 30.6C25 25.2783 25 5.98692 25 0C11.193 0 0 11.4168 0 25.5C0 27.2467 0.172656 28.9522 0.500586 30.6H25Z" fill="#D80027"/>
<path d="M13.7947 12.1956L15.4135 17.2771H20.6522L16.4143 20.4181L18.0328 25.4999L13.7947 22.3592L9.55664 25.4999L11.1755 20.4181L6.9375 17.2771H12.1761L13.7947 12.1956Z" fill="#F0F0F0"/>
</g>
<defs>
<clipPath id="clip0_105_2629">
<rect width="50" height="51" fill="white"/>
</clipPath>
</defs>
</svg>
