<svg width="50" height="51" viewBox="0 0 50 51" fill="none" xmlns="http://www.w3.org/2000/svg">
<g clip-path="url(#clip0_105_1942)">
<path d="M25 51C38.8071 51 50 39.5833 50 25.5C50 11.4167 38.8071 0 25 0C11.1929 0 0 11.4167 0 25.5C0 39.5833 11.1929 51 25 51Z" fill="#338AF3"/>
<path d="M11.9565 27.7173H38.0435V31.0433H11.9565V27.7173Z" fill="#818085"/>
<path d="M16.3042 17.7392L24.9998 18.8481L33.6954 17.7392V12.4175L30.2172 14.1915L24.9998 8.86963L19.7824 14.1915L16.3042 12.4175V17.7392Z" fill="#FFDA44"/>
<path d="M14.1306 34.3699H10.8696V28.272L11.9566 26.6088L10.8696 24.9458V21.0654H14.1306V34.3699Z" fill="#F0F0F0"/>
<path d="M39.1306 34.3699H35.8696V21.0654H39.1306V24.9457L38.0436 26.6367L39.1306 28.2722V34.3699Z" fill="#F0F0F0"/>
<path d="M10.8696 24.9458H39.1305V28.2719H10.8696V24.9458Z" fill="#ACABB1"/>
<path d="M24.9998 38.8044C20.205 38.8044 16.3042 34.8255 16.3042 29.9348V17.7393H33.6955V29.9348C33.6954 34.8255 29.7946 38.8044 24.9998 38.8044Z" fill="#F0F0F0"/>
<path d="M25.0002 35.4783C22.0034 35.4783 19.5654 32.9915 19.5654 29.9348V21.0654H30.435V29.9348C30.435 32.9915 27.997 35.4783 25.0002 35.4783V35.4783Z" fill="#0052B4"/>
<path d="M16.3042 17.7393H19.565V21.0653H16.3042V17.7393Z" fill="#D80027"/>
<path d="M30.4346 17.7393H33.6954V21.0653H30.4346V17.7393Z" fill="#D80027"/>
<path d="M30.4346 24.9458H33.6954V28.2719H30.4346V24.9458Z" fill="#D80027"/>
<path d="M16.3042 24.9458H19.565V28.2719H16.3042V24.9458Z" fill="#D80027"/>
<path d="M23.3691 17.7393H26.63V21.0653H23.3691V17.7393Z" fill="#D80027"/>
<path d="M24.9996 35.4783C24.4316 35.4783 23.8841 35.3887 23.3691 35.2231V38.6458C23.8977 38.7486 24.4422 38.8045 24.9996 38.8045C25.557 38.8045 26.1016 38.7486 26.6301 38.6458V35.2231C26.1151 35.3886 25.5676 35.4783 24.9996 35.4783Z" fill="#D80027"/>
<path d="M19.6375 30.835L17.0352 33.4894C17.4863 34.5371 18.1301 35.4793 18.9213 36.2692L21.226 33.9185C20.4035 33.1079 19.8306 32.0362 19.6375 30.835Z" fill="#D80027"/>
<path d="M32.9642 33.4893L30.3618 30.835C30.1687 32.0361 29.5958 33.1077 28.7734 33.9186L31.0781 36.2693C31.8691 35.4793 32.513 34.5371 32.9642 33.4893Z" fill="#D80027"/>
</g>
<defs>
<clipPath id="clip0_105_1942">
<rect width="50" height="51" fill="white"/>
</clipPath>
</defs>
</svg>
