<svg width="50" height="51" viewBox="0 0 50 51" fill="none" xmlns="http://www.w3.org/2000/svg">
<g clip-path="url(#clip0_105_1806)">
<path d="M47.5194 14.4131C43.4756 5.88343 34.9116 0 25 0C15.0885 0 6.52446 5.88343 2.48071 14.4131L25 16.6305L47.5194 14.4131Z" fill="#D80027"/>
<path d="M2.48071 36.587C6.52446 45.1167 15.0885 51.0001 25 51.0001C34.9116 51.0001 43.4756 45.1167 47.5194 36.587L25 34.3696L2.48071 36.587Z" fill="#D80027"/>
<path d="M47.5193 14.4131H2.48066C0.891406 17.7654 0 21.5265 0 25.5C0 29.4735 0.891406 33.2346 2.48066 36.5869H47.5192C49.1087 33.2346 50 29.4735 50 25.5C50 21.5265 49.1087 17.7654 47.5193 14.4131V14.4131Z" fill="#0052B4"/>
<path d="M25 34.3694C29.8025 34.3694 33.6957 30.3984 33.6957 25.4999C33.6957 20.6014 29.8025 16.6304 25 16.6304C20.1976 16.6304 16.3044 20.6014 16.3044 25.4999C16.3044 30.3984 20.1976 34.3694 25 34.3694Z" fill="#F0F0F0"/>
</g>
<defs>
<clipPath id="clip0_105_1806">
<rect width="50" height="51" fill="white"/>
</clipPath>
</defs>
</svg>
