<svg width="50" height="51" viewBox="0 0 50 51" fill="none" xmlns="http://www.w3.org/2000/svg">
<g clip-path="url(#clip0_105_1642)">
<path d="M50 25.5C50 39.5832 38.807 51 25 51C11.193 51 0 39.5832 0 25.5C0 11.4168 25 0 25 0C25 0 50 11.4168 50 25.5Z" fill="#A2001D"/>
<path d="M0 25.5C0 11.4168 11.193 0 25 0C38.807 0 50 11.4168 50 25.5" fill="#0052B4"/>
<path d="M33.6954 32.1523L24.9998 31.0436L16.3042 32.1523V18.8479H33.6954V32.1523Z" fill="#F0F0F0"/>
<path d="M25.0002 31.0434C27.4014 31.0434 29.348 29.0579 29.348 26.6086C29.348 24.1594 27.4014 22.1738 25.0002 22.1738C22.5989 22.1738 20.6523 24.1594 20.6523 26.6086C20.6523 29.0579 22.5989 31.0434 25.0002 31.0434Z" fill="#0052B4"/>
<path d="M25.0001 28.8262C26.2007 28.8262 27.174 27.8334 27.174 26.6088C27.174 25.3841 26.2007 24.3914 25.0001 24.3914C23.7995 24.3914 22.8262 25.3841 22.8262 26.6088C22.8262 27.8334 23.7995 28.8262 25.0001 28.8262Z" fill="#A2001D"/>
<path d="M21.7393 21.0652H28.2609L25.0001 24.3913L21.7393 21.0652Z" fill="#6DA544"/>
<path d="M23.9131 23.2827H26.087V29.9349H23.9131V23.2827Z" fill="#FFDA44"/>
<path d="M28.478 29.2695H21.5214L16.3042 32.1522H33.6954L28.478 29.2695Z" fill="#6DA544"/>
</g>
<defs>
<clipPath id="clip0_105_1642">
<rect width="50" height="51" fill="white"/>
</clipPath>
</defs>
</svg>
