<svg width="50" height="51" viewBox="0 0 50 51" fill="none" xmlns="http://www.w3.org/2000/svg">
<g clip-path="url(#clip0_105_1001)">
<path d="M25 51C38.8071 51 50 39.5833 50 25.5C50 11.4167 38.8071 0 25 0C11.1929 0 0 11.4167 0 25.5C0 39.5833 11.1929 51 25 51Z" fill="#F0F0F0"/>
<path d="M7.32207 7.46867C1.96416 12.9337 -0.452542 20.2624 0.0702122 27.409L26.8713 0.0718751C19.8648 -0.461434 12.68 2.0036 7.32207 7.46867V7.46867Z" fill="#FFDA44"/>
<path d="M8.92676 45.0304C18.7491 53.4596 33.4326 52.961 42.6777 43.5311C51.9228 34.1012 52.4116 19.1239 44.1477 9.10522L8.92676 45.0304Z" fill="#0052B4"/>
<path d="M24.9109 24.4729L27.0653 23.2825L24.9109 22.0922C24.4079 18.7592 21.8261 16.1256 18.5584 15.6126L17.3913 13.415L16.2243 15.6125C12.9567 16.1255 10.3749 18.7591 9.87178 22.0921L7.71729 23.2825L9.87168 24.4729C10.3747 27.8059 12.9565 30.4395 16.2242 30.9525L17.3913 33.15L18.5583 30.9526C21.8261 30.4395 24.4079 27.8059 24.9109 24.4729V24.4729ZM17.3914 27.7173C14.9901 27.7173 13.0436 25.7319 13.0436 23.2825C13.0436 20.8331 14.99 18.8477 17.3914 18.8477C19.7928 18.8477 21.7393 20.8331 21.7393 23.2825C21.7393 25.7319 19.7927 27.7173 17.3914 27.7173Z" fill="black"/>
<path d="M17.3913 19.9565L18.3326 21.6195H20.2153L19.2739 23.2826L20.2153 24.9457H18.3326L17.3913 26.6087L16.45 24.9457H14.5674L15.5087 23.2826L14.5674 21.6195H16.45L17.3913 19.9565Z" fill="#D80027"/>
</g>
<defs>
<clipPath id="clip0_105_1001">
<rect width="50" height="51" fill="white"/>
</clipPath>
</defs>
</svg>
