<svg width="50" height="51" viewBox="0 0 50 51" fill="none" xmlns="http://www.w3.org/2000/svg">
<g clip-path="url(#clip0_105_1758)">
<path d="M25 51C38.8071 51 50 39.5833 50 25.5C50 11.4167 38.8071 0 25 0C11.1929 0 0 11.4167 0 25.5C0 39.5833 11.1929 51 25 51Z" fill="#F0F0F0"/>
<path d="M24.9998 0C15.0883 0 6.52422 5.88343 2.48047 14.4131H47.519C43.4754 5.88343 34.9112 0 24.9998 0V0Z" fill="black"/>
<path d="M24.9998 51C15.0883 51 6.52422 45.1166 2.48047 36.5869H47.519C43.4754 45.1166 34.9112 51 24.9998 51V51Z" fill="#496E2D"/>
<path d="M48.8194 17.7393H1.18057C0.414746 20.1866 0 22.7938 0 25.5001C0 28.2064 0.414746 30.8137 1.18057 33.261H48.8193C49.5853 30.8137 50 28.2064 50 25.5001C50 22.7938 49.5853 20.1866 48.8194 17.7393Z" fill="#A2001D"/>
<path d="M32.7847 11.784L29.824 10.3901L25 21.5315L20.176 10.3901L17.2153 11.784L23.2044 25.5001L17.2153 39.2162L20.176 40.61L25 29.4686L29.824 40.61L32.7847 39.2162L26.7956 25.5001L32.7847 11.784Z" fill="#F0F0F0"/>
<path d="M27.0109 13.0975C25.8648 11.8208 25.0001 11.0869 25.0001 11.0869C25.0001 11.0869 24.1354 11.8207 22.9893 13.0975V37.9023C24.1354 39.1792 25.0001 39.9131 25.0001 39.9131C25.0001 39.9131 25.8648 39.1792 27.0109 37.9024V13.0975Z" fill="#F0F0F0"/>
<path d="M19.5654 17.8542V33.1454C20.7766 35.3343 22.2589 37.1285 23.3698 38.318V12.6816C22.2589 13.8711 20.7765 15.6653 19.5654 17.8542V17.8542Z" fill="#A2001D"/>
<path d="M30.4348 17.8542C29.2235 15.6652 27.7413 13.8711 26.6304 12.6816V38.318C27.7412 37.1285 29.2235 35.3343 30.4348 33.1454V17.8542Z" fill="#A2001D"/>
<path d="M30.4346 17.8545V33.1457C31.6606 30.9295 32.6085 28.3089 32.6085 25.5002C32.6085 22.6915 31.6606 20.0708 30.4346 17.8545Z" fill="black"/>
<path d="M19.565 17.8545V33.1457C18.339 30.9295 17.3911 28.3089 17.3911 25.5002C17.3911 22.6915 18.339 20.0708 19.565 17.8545Z" fill="black"/>
</g>
<defs>
<clipPath id="clip0_105_1758">
<rect width="50" height="51" fill="white"/>
</clipPath>
</defs>
</svg>
