<svg width="50" height="51" viewBox="0 0 50 51" fill="none" xmlns="http://www.w3.org/2000/svg">
<g clip-path="url(#clip0_105_1161)">
<path d="M25 51C38.8071 51 50 39.5833 50 25.5C50 11.4167 38.8071 0 25 0C11.1929 0 0 11.4167 0 25.5C0 39.5833 11.1929 51 25 51Z" fill="#F0F0F0"/>
<path d="M25.0001 51C32.5773 51 39.3667 47.5611 43.9514 42.1305H6.04883C10.6335 47.5611 17.4229 51 25.0001 51Z" fill="#0052B4"/>
<path d="M50 25.5C50 11.4168 38.807 0 25 0C11.193 0 0 11.4168 0 25.5C0 27.8017 0.300781 30.0311 0.86123 32.1522H49.1389C49.6992 30.0311 50 27.8017 50 25.5Z" fill="#0052B4"/>
<path d="M1.98706 35.4783C2.46899 36.6333 3.03237 37.7442 3.66938 38.8043H46.3307C46.9675 37.7441 47.5309 36.6332 48.013 35.4783H1.98706Z" fill="#D80027"/>
<path d="M17.87 27.1631L18.2747 28.4335H19.5844L18.5249 29.2187L18.9296 30.4891L17.87 29.7039L16.8104 30.4891L17.2152 29.2187L16.1558 28.4335H17.4654L17.87 27.1631Z" fill="#FFDA44"/>
<path d="M17.87 43.7935L18.2747 45.064H19.5844L18.5249 45.8491L18.9296 47.1195L17.87 46.3344L16.8104 47.1195L17.2152 45.8491L16.1558 45.064H17.4654L17.87 43.7935Z" fill="#FFDA44"/>
<path d="M10.2807 38.1692L10.6854 39.4395H11.995L10.9355 40.2246L11.3402 41.4952L10.2807 40.71L9.22109 41.4952L9.62598 40.2246L8.56641 39.4395H9.87598L10.2807 38.1692Z" fill="#FFDA44"/>
<path d="M13.1797 28.826L13.5844 30.0966H14.8939L13.8346 30.8817L14.2393 32.1522L13.1797 31.367L12.1201 32.1522L12.525 30.8817L11.4653 30.0966H12.775L13.1797 28.826Z" fill="#FFDA44"/>
<path d="M8.56641 34.058L9.87578 34.0581L10.2806 32.7874L10.6854 34.058L11.995 34.0579L10.9354 34.8431L11.3402 36.1136L10.2806 35.3284L9.22109 36.1133L9.62578 34.843L8.56641 34.058Z" fill="#FFDA44"/>
<path d="M12.1201 45.2138L12.5248 43.9436L11.4651 43.1585H12.7748L13.1795 41.8879L13.5843 43.1584H14.8939L13.8343 43.9435L14.239 45.2141L13.1794 44.4288L12.1201 45.2138Z" fill="#FFDA44"/>
<path d="M25.4567 38.1692L25.0521 39.4395H23.7424L24.8018 40.2246L24.3971 41.4952L25.4567 40.71L26.5163 41.4952L26.1115 40.2246L27.171 39.4395H25.8614L25.4567 38.1692Z" fill="#FFDA44"/>
<path d="M22.5578 28.826L22.1532 30.0966H20.8435L21.9029 30.8817L21.4982 32.1522L22.5578 31.367L23.6173 32.1522L23.2125 30.8817L24.2721 30.0966H22.9625L22.5578 28.826Z" fill="#FFDA44"/>
<path d="M27.171 34.058L25.8616 34.0581L25.4568 32.7874L25.0521 34.058L23.7424 34.0579L24.8019 34.8431L24.3971 36.1136L25.4568 35.3284L26.5163 36.1133L26.1116 34.843L27.171 34.058Z" fill="#FFDA44"/>
<path d="M23.6173 45.2138L23.2127 43.9436L24.2723 43.1585H22.9626L22.5579 41.8879L22.1532 43.1584H20.8435L21.9031 43.9435L21.4984 45.2141L22.558 44.4288L23.6173 45.2138Z" fill="#FFDA44"/>
</g>
<defs>
<clipPath id="clip0_105_1161">
<rect width="50" height="51" fill="white"/>
</clipPath>
</defs>
</svg>
