<svg width="51" height="51" viewBox="0 0 51 51" fill="none" xmlns="http://www.w3.org/2000/svg">
<g clip-path="url(#clip0_105_2088)">
<path d="M25.9883 51C39.7954 51 50.9883 39.5833 50.9883 25.5C50.9883 11.4167 39.7954 0 25.9883 0C12.1812 0 0.988281 11.4167 0.988281 25.5C0.988281 39.5833 12.1812 51 25.9883 51Z" fill="#F0F0F0"/>
<path d="M25.9881 0C16.0766 0 7.5125 5.88343 3.46875 14.4131H48.5073C44.4637 5.88343 35.8995 0 25.9881 0V0Z" fill="#338AF3"/>
<path d="M25.9881 51C35.8995 51 44.4637 45.1166 48.5074 36.5869H3.46875C7.5125 45.1166 16.0766 51 25.9881 51Z" fill="#338AF3"/>
<path d="M25.9881 17.7393C21.7859 17.7393 18.3794 21.2139 18.3794 25.5001C18.3794 29.7863 21.7859 33.261 25.9881 33.261C30.1902 33.261 33.5968 29.7863 33.5968 25.5001C33.5968 21.2139 30.1902 17.7393 25.9881 17.7393ZM25.9881 29.9349C23.5869 29.9349 21.6402 27.9495 21.6402 25.5001C21.6402 23.0507 23.5868 21.0653 25.9881 21.0653C28.3894 21.0653 30.3359 23.0507 30.3359 25.5001C30.3359 27.9495 28.3893 29.9349 25.9881 29.9349Z" fill="#FFDA44"/>
<path d="M29.7537 26.6087L25.9883 25.5L22.2229 26.6087L20.9678 28.8261H31.0087L29.7537 26.6087Z" fill="#0052B4"/>
<path d="M25.9883 19.9565L23.478 24.3914L25.9883 25.5L28.4985 24.3914L25.9883 19.9565Z" fill="#338AF3"/>
<path d="M22.2227 26.6087H29.7535L28.4983 24.3914H23.4778L22.2227 26.6087Z" fill="#6DA544"/>
</g>
<defs>
<clipPath id="clip0_105_2088">
<rect width="50" height="51" fill="white" transform="translate(0.988281)"/>
</clipPath>
</defs>
</svg>
