<svg width="50" height="51" viewBox="0 0 50 51" fill="none" xmlns="http://www.w3.org/2000/svg">
<g clip-path="url(#clip0_105_839)">
<path d="M0 25.4999C0 27.2465 0.172656 28.952 0.500684 30.5999L25 32.1521L49.4994 30.5999C49.8275 28.952 50 27.2465 50 25.4999C50 23.7532 49.8273 22.0477 49.4994 20.3999L25 18.8477L0.500684 20.3999C0.172656 22.0477 0 23.7532 0 25.4999H0Z" fill="#0052B4"/>
<path d="M49.4994 30.6001H0.500687C2.817 42.2395 12.9054 51.0001 25 51.0001C37.0946 51.0001 47.183 42.2395 49.4994 30.6001Z" fill="#F0F0F0"/>
<path d="M0.500687 20.4H49.4995C47.183 8.76064 37.0948 0 25 0C12.9052 0 2.817 8.76064 0.500687 20.4V20.4Z" fill="black"/>
<path d="M35.8695 20.4H14.1305L18.5719 18.2689L16.2067 13.8816L21.0295 14.8224L21.6408 9.85303L25 13.5081L28.3594 9.85303L28.9703 14.8224L33.7933 13.8816L31.4283 18.2691L35.8695 20.4Z" fill="#FFDA44"/>
<path d="M0 25.5001C0 39.5833 11.193 51.0001 25 51.0001L4.99961 10.1992C1.86055 14.4614 0 19.7589 0 25.5001Z" fill="#A2001D"/>
<path d="M25 51.0001C38.807 51.0001 50 39.5833 50 25.5001C50 19.7589 48.1395 14.4614 45.0004 10.1992L25 51.0001Z" fill="#A2001D"/>
</g>
<defs>
<clipPath id="clip0_105_839">
<rect width="50" height="51" fill="white"/>
</clipPath>
</defs>
</svg>
