<svg width="50" height="51" viewBox="0 0 50 51" fill="none" xmlns="http://www.w3.org/2000/svg">
<g clip-path="url(#clip0_105_2714)">
<path d="M50 25.5C50 39.5832 38.807 51 25.0001 51C11.193 51 0 39.5832 0 25.5C0 25.5061 25.0001 0.00278906 25.0001 0C38.807 0 50 11.4168 50 25.5Z" fill="#338AF3"/>
<path d="M11.9565 25.4999H20.3884L13.0435 16.6304L11.9565 19.9564V25.4999Z" fill="#0052B4"/>
<path d="M24.9999 20.7964L16.3042 12.1958H24.9998L24.9999 20.7964Z" fill="#0052B4"/>
<path d="M24.9331 25.4999H25C25 25.477 25 25.4547 25 25.4316C24.9777 25.4545 24.9555 25.4772 24.9331 25.4999Z" fill="#F0F0F0"/>
<path d="M25.0001 13.3043C25.0001 8.81742 25.0001 5.87735 25.0001 0H24.9959C11.1906 0.00239063 0 11.4181 0 25.5H13.0436V18.0083L20.3884 25.5H24.9333C24.9556 25.4773 24.9778 25.4546 25.0002 25.4318C25.0002 23.7138 25.0002 22.1809 25.0002 20.7962L17.6551 13.3043H25.0001Z" fill="#F0F0F0"/>
<path d="M12.6479 3.32617C8.73779 5.59717 5.48721 8.91276 3.26074 12.901V25.5001H9.78252V9.97858V9.97839H24.9999C24.9999 7.88031 24.9999 5.88155 24.9999 3.32617H12.6479Z" fill="#D80027"/>
<path d="M25 22.3645L16.1177 13.3047H13.0435V13.3049L24.9998 25.5003H25C25 25.5003 25 23.338 25 22.3645V22.3645Z" fill="#D80027"/>
<path d="M27.2857 42.1304L27.8254 43.8243H29.5716L28.159 44.8712L28.6986 46.5651L27.2857 45.5183L25.8731 46.5651L26.4128 44.8712L25 43.8243H26.7461L27.2857 42.1304Z" fill="#FFDA44"/>
<path d="M41.1926 31.0435L41.7321 32.7374H43.4783L42.0657 33.7844L42.6055 35.4783L41.1926 34.4315L39.78 35.4783L40.3196 33.7844L38.9067 32.7374H40.6529L41.1926 31.0435Z" fill="#FFDA44"/>
<path d="M44.6769 14.4131L45.2165 16.107H46.9627L45.5501 17.1539L46.0896 18.8478L44.6769 17.801L43.2643 18.8478L43.8039 17.1539L42.3911 16.107H44.1373L44.6769 14.4131Z" fill="#FFDA44"/>
<path d="M45.5402 26.6089L46.0798 28.3029H47.826L46.4134 29.3498L46.953 31.0437L45.5402 29.9969L44.1276 31.0437L44.6673 29.3498L43.2544 28.3029H45.0006L45.5402 26.6089Z" fill="#FFDA44"/>
<path d="M29.7895 38.1464L31.3456 38.9552L32.5803 37.6958L32.3072 39.4548L33.863 40.2634L32.1382 40.5421L31.865 42.3013L31.0725 40.7143L29.3477 40.9931L30.5823 39.7337L29.7895 38.1464Z" fill="#FFDA44"/>
<path d="M29.7895 31.4942L31.3456 32.3028L32.5803 31.0435L32.3072 32.8026L33.863 33.6111L32.1382 33.8898L31.865 35.649L31.0725 34.062L29.3477 34.3407L30.5823 33.0814L29.7895 31.4942Z" fill="#FFDA44"/>
<path d="M35.2245 35.7583L36.7807 36.567L38.0153 35.3076L37.7423 37.0666L39.298 37.8752L37.5732 38.154L37.3001 39.9132L36.5075 38.326L34.7827 38.6049L36.0174 37.3455L35.2245 35.7583Z" fill="#FFDA44"/>
<path d="M35.2245 21.5162L36.7807 22.3248L38.0153 21.0654L37.7423 22.8245L39.298 23.6331L37.5732 23.9118L37.3001 25.671L36.5075 24.084L34.7827 24.3627L36.0174 23.1033L35.2245 21.5162Z" fill="#FFDA44"/>
<path d="M40.4916 21.3453L42.0478 22.1539L43.2824 20.8945L43.0093 22.6536L44.5651 23.4622L42.8403 23.7409L42.5672 25.5001L41.7746 23.9131L40.0498 24.1918L41.2845 22.9324L40.4916 21.3453Z" fill="#FFDA44"/>
</g>
<defs>
<clipPath id="clip0_105_2714">
<rect width="50" height="51" fill="white"/>
</clipPath>
</defs>
</svg>
