<svg width="50" height="51" viewBox="0 0 50 51" fill="none" xmlns="http://www.w3.org/2000/svg">
<g clip-path="url(#clip0_105_2018)">
<path d="M25 51C38.8071 51 50 39.5833 50 25.5C50 11.4167 38.8071 0 25 0C11.1929 0 0 11.4167 0 25.5C0 39.5833 11.1929 51 25 51Z" fill="#D80027"/>
<path d="M39.774 20.9269H28.4875L24.9998 9.97827L21.5121 20.9269H10.2256L19.3565 27.6936L15.8688 38.6426L24.9998 31.8758L34.1309 38.6427L30.6431 27.6937L39.774 20.9269ZM21.9121 26.8466L23.0915 23.1442H26.908L28.0875 26.8466V26.8467L24.9998 29.1348L21.9122 26.8467L21.9121 26.8466ZM26.2018 20.9269H23.7979L24.9998 17.1537L26.2018 20.9269ZM29.9366 25.4763L29.1938 23.1443H33.0833L29.9366 25.4763ZM20.8058 23.1443L20.0629 25.4763L16.9161 23.1443H20.8058ZM20.0038 32.8373L21.2058 29.0642L23.1506 30.5054L20.0038 32.8373ZM26.849 30.5055L28.7938 29.0643L29.9958 32.8374L26.849 30.5055Z" fill="#FFDA44"/>
</g>
<defs>
<clipPath id="clip0_105_2018">
<rect width="50" height="51" fill="white"/>
</clipPath>
</defs>
</svg>
