<svg width="50" height="51" viewBox="0 0 50 51" fill="none" xmlns="http://www.w3.org/2000/svg">
<g clip-path="url(#clip0_105_2650)">
<path d="M49.1389 18.8478C46.2701 7.99076 36.5508 0 25.0001 0C13.4494 0 3.73008 7.99076 0.861328 18.8478L25.0001 19.9565L49.1389 18.8478Z" fill="#A2001D"/>
<path d="M0.861328 32.1522C3.73008 43.0091 13.4494 51 25.0001 51C36.5508 51 46.2701 43.0092 49.1389 32.1522L25.0001 31.0435L0.861328 32.1522Z" fill="#A2001D"/>
<path d="M49.1388 18.8479H0.86123C0.300781 20.9689 0 23.1984 0 25.5001C0 27.8018 0.300781 30.0313 0.86123 32.1523H49.1389C49.6992 30.0313 50 27.8018 50 25.5001C50 23.1984 49.6992 20.9689 49.1388 18.8479V18.8479Z" fill="#6DA544"/>
</g>
<defs>
<clipPath id="clip0_105_2650">
<rect width="50" height="51" fill="white"/>
</clipPath>
</defs>
</svg>
