<svg width="51" height="51" viewBox="0 0 51 51" fill="none" xmlns="http://www.w3.org/2000/svg">
<g clip-path="url(#clip0_105_2544)">
<path d="M25.5781 51C39.3852 51 50.5781 39.5833 50.5781 25.5C50.5781 11.4167 39.3852 0 25.5781 0C11.771 0 0.578125 11.4167 0.578125 25.5C0.578125 39.5833 11.771 51 25.5781 51Z" fill="#F0F0F0"/>
<path d="M49.023 16.6304H2.13301C1.12822 19.3929 0.578125 22.3807 0.578125 25.4999C0.578125 28.6191 1.12822 31.607 2.13301 34.3694H49.0231C50.0281 31.607 50.5781 28.6191 50.5781 25.4999C50.5781 22.3807 50.0281 19.3929 49.023 16.6304Z" fill="#A2001D"/>
<path d="M25.6504 51C34.2131 51 41.7693 46.608 46.275 39.9131H5.02588C9.53154 46.608 17.0876 51 25.6504 51Z" fill="#6DA544"/>
<path d="M25.6504 0.000244141C34.2131 0.000244141 41.7693 4.39222 46.275 11.0872H5.02588C9.53154 4.39222 17.0876 0.000244141 25.6504 0.000244141V0.000244141Z" fill="#6DA544"/>
<path d="M25.5782 16.6304L27.7365 23.4058H34.7214L29.0706 27.5938L31.2291 34.3694L25.5782 30.1819L19.9273 34.3694L22.0859 27.5938L16.4351 23.4058H23.4199L25.5782 16.6304Z" fill="#FFDA44"/>
</g>
<defs>
<clipPath id="clip0_105_2544">
<rect width="50" height="51" fill="white" transform="translate(0.578125)"/>
</clipPath>
</defs>
</svg>
