<svg width="50" height="51" viewBox="0 0 50 51" fill="none" xmlns="http://www.w3.org/2000/svg">
<g clip-path="url(#clip0_105_2180)">
<path d="M25 51C38.8071 51 50 39.5833 50 25.5C50 11.4167 38.8071 0 25 0C11.1929 0 0 11.4167 0 25.5C0 39.5833 11.1929 51 25 51Z" fill="#F0F0F0"/>
<path d="M0 25.5C0 35.1656 5.27236 43.5746 13.0435 47.8995V3.10059C5.27236 7.42553 0 15.8344 0 25.5Z" fill="#F0F0F0"/>
<path d="M25 0C20.6689 0 16.5953 1.12389 13.0435 3.10054V47.8994C16.5953 49.8761 20.6689 51 25 51C38.807 51 50 39.5832 50 25.5C50 11.4168 38.807 0 25 0Z" fill="#496E2D"/>
<path d="M35.6885 29.7172C32.5257 32.0482 28.1091 31.3226 25.824 28.0967C23.5386 24.8705 24.2501 20.3657 27.4129 18.0348C28.399 17.3081 29.507 16.8785 30.6342 16.7292C28.4656 16.3984 26.1731 16.8968 24.2554 18.3102C20.3629 21.1791 19.4872 26.7235 22.2998 30.6941C25.1124 34.6644 30.5481 35.5577 34.4409 32.6886C36.3588 31.2752 37.5424 29.212 37.9153 27.0078C37.4225 28.0523 36.6748 28.9904 35.6885 29.7172V29.7172Z" fill="#F0F0F0"/>
<path d="M35.5532 16.6307L37.3349 18.5892L39.7114 17.4664L38.4357 19.7996L40.2173 21.7582L37.6474 21.2418L36.3718 23.5752L36.0592 20.9226L33.4893 20.4061L35.8659 19.2833L35.5532 16.6307Z" fill="#F0F0F0"/>
</g>
<defs>
<clipPath id="clip0_105_2180">
<rect width="50" height="51" fill="white"/>
</clipPath>
</defs>
</svg>
