<svg width="50" height="51" viewBox="0 0 50 51" fill="none" xmlns="http://www.w3.org/2000/svg">
<g clip-path="url(#clip0_105_2307)">
<path d="M2.48066 14.4131C0.891406 17.7655 0 21.5265 0 25.5C0 29.4735 0.891406 33.2345 2.48066 36.5869L25 38.8043L47.5193 36.5869C49.1086 33.2345 50 29.4735 50 25.5C50 21.5265 49.1086 17.7655 47.5193 14.4131L25 12.1957L2.48066 14.4131Z" fill="#F0F0F0"/>
<path d="M2.48145 36.5869C6.525 45.1166 15.0885 51 24.9999 51C34.9113 51 43.4748 45.1166 47.5184 36.5869H2.48145Z" fill="#496E2D"/>
<path d="M2.48145 14.4131H47.5184C43.4748 5.88343 34.9114 0 24.9999 0C15.0884 0 6.525 5.88343 2.48145 14.4131Z" fill="black"/>
<path d="M7.32231 7.4687C-2.44077 17.4271 -2.44077 33.5728 7.32231 43.5313C11.3568 39.4161 15.237 35.4583 25 25.5L7.32231 7.4687Z" fill="#D80027"/>
<path d="M31.5217 25.5C31.5217 21.7848 34.0815 18.681 37.4999 17.9196C36.9745 17.8026 36.4294 17.7391 35.8694 17.7391C31.6672 17.7391 28.2607 21.2137 28.2607 25.5C28.2607 29.7863 31.6672 33.2609 35.8694 33.2609C36.4293 33.2609 36.9744 33.1974 37.4999 33.0804C34.0815 32.319 31.5217 29.2152 31.5217 25.5Z" fill="#D80027"/>
<path d="M37.8195 20.5109L38.8989 23.899H42.3912L39.5658 25.9926L40.6451 29.3805L37.8195 27.2867L34.9942 29.3805L36.0736 25.9926L33.248 23.899H36.7403L37.8195 20.5109Z" fill="#D80027"/>
</g>
<defs>
<clipPath id="clip0_105_2307">
<rect width="50" height="51" fill="white"/>
</clipPath>
</defs>
</svg>
