<svg width="50" height="51" viewBox="0 0 50 51" fill="none" xmlns="http://www.w3.org/2000/svg">
<g clip-path="url(#clip0_105_2315)">
<path d="M50 25.5C50 39.5832 38.807 51 25 51C11.193 51 0 39.5832 0 25.5C8.58691 16.7413 15.8695 9.31308 25 0C38.807 0 50 11.4168 50 25.5Z" fill="#D80027"/>
<path d="M25 25.5C25 11.4168 25 9.75654 25 0C11.193 0 0 11.4168 0 25.5H25Z" fill="#0052B4"/>
<path d="M20.0249 16.6305L20.4297 17.901H21.7393L20.6797 18.686L21.0845 19.9565L20.0249 19.1713L18.9653 19.9565L19.3701 18.686L18.3105 17.901H19.6201L20.0249 16.6305Z" fill="#F0F0F0"/>
<path d="M13.4471 6.65221L14.1216 8.7698H16.3044L14.5384 10.0782L15.2131 12.1957L13.4471 10.8869L11.6812 12.1957L12.3558 10.0782L10.5898 8.7698H12.7725L13.4471 6.65221Z" fill="#F0F0F0"/>
<path d="M19.9686 8.86951L20.6431 10.9872H22.8258L21.0599 12.2956L21.7344 14.4131L19.9686 13.1043L18.2026 14.4131L18.8772 12.2956L17.1113 10.9872H19.2939L19.9686 8.86951Z" fill="#F0F0F0"/>
<path d="M14.8143 17.7391L15.4889 19.8567H17.6715L15.9056 21.1651L16.5802 23.2826L14.8143 21.9739L13.0483 23.2826L13.7229 21.1651L11.957 19.8567H14.1397L14.8143 17.7391Z" fill="#F0F0F0"/>
<path d="M9.09932 12.1957L9.77393 14.3133H11.9566L10.1906 15.6216L10.8652 17.7391L9.09932 16.4305L7.3335 17.7391L8.00801 15.6216L6.24219 14.3133H8.4248L9.09932 12.1957Z" fill="#F0F0F0"/>
</g>
<defs>
<clipPath id="clip0_105_2315">
<rect width="50" height="51" fill="white"/>
</clipPath>
</defs>
</svg>
