<svg width="50" height="51" viewBox="0 0 50 51" fill="none" xmlns="http://www.w3.org/2000/svg">
<g clip-path="url(#clip0_105_2146)">
<path d="M25 51C38.8071 51 50 39.5833 50 25.5C50 11.4167 38.8071 0 25 0C11.1929 0 0 11.4167 0 25.5C0 39.5833 11.1929 51 25 51Z" fill="#338AF3"/>
<path d="M24.212 41.5561C23.538 41.5228 22.9804 41.076 22.762 40.4695C22.3761 40.9828 21.713 41.2412 21.0598 41.0694C20.4054 40.8975 19.9479 40.3454 19.8533 39.7045C19.3728 40.128 18.6728 40.2432 18.0674 39.9407C17.4609 39.6369 17.1218 39.0015 17.1566 38.3551C16.6034 38.6722 15.8947 38.6412 15.361 38.2198C14.8284 37.7985 14.6208 37.1078 14.7816 36.4814C14.1772 36.6787 13.4903 36.5036 13.05 35.9813C12.6098 35.4603 12.5423 34.7407 12.8229 34.1609C12.1924 34.2295 11.5534 33.9169 11.225 33.3161C10.8957 32.7151 10.9718 31.9956 11.362 31.4844C10.7304 31.4223 10.1652 30.9843 9.96304 30.328C9.75981 29.6717 9.9772 28.9821 10.4609 28.5618C9.85434 28.371 9.38911 27.8255 9.32065 27.1416C9.2522 26.4576 9.60005 25.8289 10.1554 25.5163C9.59995 25.2058 9.24995 24.5772 9.31626 23.8942H9.31733C9.38364 23.209 9.84888 22.6626 10.4542 22.4695C9.97056 22.0505 9.75102 21.362 9.9521 20.7055C10.1532 20.0481 10.7172 19.609 11.3489 19.5447C10.9586 19.0347 10.8804 18.315 11.2076 17.7132C11.5347 17.1122 12.1739 16.7984 12.8054 16.8661C12.5228 16.2863 12.5891 15.5667 13.0283 15.0434C13.4664 14.5213 14.1533 14.345 14.7587 14.5401C14.5957 13.9148 14.8022 13.223 15.3348 12.8006C15.8664 12.3781 16.575 12.3459 17.1283 12.6608C17.0924 12.0145 17.4304 11.3791 18.0359 11.0742C18.6403 10.7704 19.3414 10.8835 19.8228 11.307C19.9152 10.6663 20.3728 10.112 21.026 9.93885C21.6782 9.76593 22.3413 10.022 22.7282 10.5342C22.9466 9.92779 23.5032 9.47985 24.1771 9.44548C24.8499 9.41012 25.4477 9.79581 25.726 10.3758C26.0586 9.82589 26.6913 9.49997 27.3576 9.60306C28.0249 9.70506 28.537 10.2061 28.6957 10.8326C29.1304 10.3602 29.8152 10.1729 30.4478 10.4101C31.0815 10.6485 31.4836 11.2449 31.5141 11.8924C32.0326 11.5199 32.7413 11.4766 33.3141 11.8403C33.887 12.2029 34.162 12.8692 34.0641 13.5088C34.6457 13.2506 35.3478 13.3537 35.837 13.8259C36.3261 14.2993 36.4652 15.0078 36.2435 15.6142C36.8641 15.48 37.5316 15.724 37.9185 16.2882C38.3054 16.8514 38.3022 17.5743 37.9664 18.1232C38.6 18.1187 39.2055 18.4957 39.474 19.1265C39.7414 19.7584 39.5946 20.467 39.1566 20.9359C39.7794 21.0623 40.2979 21.5557 40.4348 22.2297C40.5707 22.9038 40.287 23.5657 39.7664 23.935C40.349 24.1868 40.7598 24.7754 40.7609 25.4628V25.485V25.4994C40.7609 26.1867 40.3522 26.7766 39.7696 27.0305C40.2914 27.3976 40.5772 28.0594 40.4414 28.7334C40.3066 29.4075 39.7892 29.9021 39.1664 30.0307C39.6055 30.4985 39.7544 31.2058 39.4881 31.839C39.2218 32.4709 38.6164 32.849 37.9816 32.8456C38.3185 33.3945 38.324 34.1173 37.9381 34.6816C37.5523 35.2461 36.886 35.4921 36.2653 35.3591C36.4881 35.9644 36.35 36.674 35.8621 37.1485C35.3729 37.6221 34.6718 37.7262 34.0903 37.4701C34.1892 38.1087 33.9153 38.7762 33.3435 39.1409C32.7717 39.5057 32.063 39.4635 31.5435 39.0921C31.5141 39.7396 31.1141 40.3372 30.4816 40.5767C29.8491 40.8162 30.4816 40.5767 30.4805 40.5767C29.8479 40.8151 29.1631 40.6289 28.7273 40.1577C28.5707 40.7853 28.0599 41.2874 27.3925 41.3917C26.7262 41.4948 26.0925 41.1711 25.7588 40.6211C25.4936 41.1788 24.9328 41.558 24.2936 41.558C24.2664 41.5583 24.2392 41.5573 24.212 41.5561V41.5561Z" fill="#F3F3F3"/>
<path d="M25 36.5869C31.0031 36.5869 35.8696 31.6231 35.8696 25.5C35.8696 19.3769 31.0031 14.4131 25 14.4131C18.9969 14.4131 14.1305 19.3769 14.1305 25.5C14.1305 31.6231 18.9969 36.5869 25 36.5869Z" fill="#338AF3"/>
<path d="M27.3792 21.7367C27.9132 21.3327 28.2608 20.6869 28.2608 19.9566V18.8479C28.2608 17.6232 27.2876 16.6305 26.0869 16.6305H23.9131C22.7124 16.6305 21.7391 17.6232 21.7391 18.8479V19.9566C21.7391 20.6869 22.0868 21.3327 22.6208 21.7367L20.6522 42.1304C20.6522 42.1304 21.7391 43.2392 25.0001 43.2392C28.261 43.2392 29.3479 42.1304 29.3479 42.1304L27.3792 21.7367Z" fill="#BDBCC1"/>
<path d="M25 16.6305L26.8884 22.559H33.0002L28.0559 26.2235L29.9443 32.1522L25 28.4881L20.0554 32.1522L21.9442 26.2235L16.9998 22.559H23.1114L25 16.6305Z" fill="#F0F0F0"/>
</g>
<defs>
<clipPath id="clip0_105_2146">
<rect width="50" height="51" fill="white"/>
</clipPath>
</defs>
</svg>
