<svg width="51" height="51" viewBox="0 0 51 51" fill="none" xmlns="http://www.w3.org/2000/svg">
<g clip-path="url(#clip0_105_2054)">
<path d="M25.9883 51C39.7954 51 50.9883 39.5833 50.9883 25.5C50.9883 11.4167 39.7954 0 25.9883 0C12.1812 0 0.988281 11.4167 0.988281 25.5C0.988281 39.5833 12.1812 51 25.9883 51Z" fill="#0052B4"/>
<path d="M25.9883 51C39.7954 51 50.9883 39.5833 50.9883 25.5C50.9883 11.4167 39.7954 0 25.9883 0C12.1812 0 0.988281 11.4167 0.988281 25.5C0.988281 39.5833 12.1812 51 25.9883 51Z" fill="#FFDA44"/>
<path d="M25.9883 0C12.9137 0 2.18535 10.238 1.0835 23.2826H50.8932C49.7912 10.238 39.0629 0 25.9883 0V0Z" fill="#0052B4"/>
<path d="M25.9883 50.9999C39.0629 50.9999 49.7912 40.7619 50.8932 27.7173H1.0835C2.18535 40.7619 12.9137 50.9999 25.9883 50.9999Z" fill="#0052B4"/>
<path d="M21.6406 34.3694L18.8392 35.7135L20.3309 38.4808L17.289 37.8872L16.9036 41.0216L14.7847 38.7164L12.666 41.0216L12.2805 37.8872L9.23853 38.4807L10.7303 35.7134L7.92896 34.3694L10.7304 33.0254L9.23853 30.2582L12.2804 30.8517L12.6661 27.7173L14.7847 30.0225L16.9037 27.7173L17.289 30.8517L20.331 30.2582L18.8393 33.0255L21.6406 34.3694Z" fill="#F0F0F0"/>
</g>
<defs>
<clipPath id="clip0_105_2054">
<rect width="50" height="51" fill="white" transform="translate(0.988281)"/>
</clipPath>
</defs>
</svg>
