<svg width="50" height="51" viewBox="0 0 50 51" fill="none" xmlns="http://www.w3.org/2000/svg">
<g clip-path="url(#clip0_105_2006)">
<path d="M50 25.5C50 39.5832 38.807 51 25 51C11.193 51 0 39.5832 0 25.5C0 25.5061 25 0.00278906 25 0C38.807 0 50 11.4168 50 25.5Z" fill="#0052B4"/>
<path d="M24.9331 25.5001H25C25 25.4772 25 25.4549 25 25.4319C24.9777 25.4547 24.9555 25.4774 24.9331 25.5001Z" fill="#F0F0F0"/>
<path d="M25 13.3043C25 8.81742 25 5.87745 25 0H24.9958C11.1905 0.00239063 0 11.4181 0 25.5H13.0435V18.0083L20.3883 25.5H24.9332C24.9555 25.4773 24.9777 25.4546 25.0001 25.4318C25.0001 23.7138 25.0001 22.1809 25.0001 20.7962L17.6551 13.3043H25Z" fill="#F0F0F0"/>
<path d="M12.6479 3.32617C8.73779 5.59717 5.48711 8.91276 3.26074 12.901V25.5001H9.78252V9.97858V9.97839H24.9999C24.9999 7.88031 24.9999 5.88155 24.9999 3.32617H12.6479Z" fill="#D80027"/>
<path d="M25 22.3642L16.1177 13.3044H13.0435V13.3046L24.9998 25.5H25C25 25.5 25 23.3378 25 22.3642V22.3642Z" fill="#D80027"/>
<path d="M28.2607 13.3044V25.5C28.2607 31.4407 35.8694 33.261 35.8694 33.261C35.8694 33.261 43.4781 31.4407 43.4781 25.5V13.3044H28.2607Z" fill="#338AF3"/>
<path d="M28.2607 25.5C28.2607 31.4407 35.8694 33.261 35.8694 33.261C35.8694 33.261 43.4781 31.4407 43.4781 25.5H28.2607Z" fill="#A2001D"/>
<path d="M39.1307 18.8479H36.9566V16.6304H34.7827V18.8479H32.6089V21.0652H34.7827V27.7173H36.9566V21.0652H39.1307V18.8479Z" fill="black"/>
</g>
<defs>
<clipPath id="clip0_105_2006">
<rect width="50" height="51" fill="white"/>
</clipPath>
</defs>
</svg>
