<svg width="50" height="51" viewBox="0 0 50 51" fill="none" xmlns="http://www.w3.org/2000/svg">
<g clip-path="url(#clip0_105_2792)">
<path d="M1.18047 17.7391C0.414648 20.1863 -9.7639e-05 22.7934 1.72417e-08 25.4997C-9.7639e-05 28.2061 0.414746 30.8134 1.18057 33.2606L25 34.3694L48.8194 33.2608C49.5852 30.8135 50.0001 28.2061 50.0001 25.4999C50 22.7935 49.5853 20.1863 48.8194 17.739L25 16.6304L1.18047 17.7391Z" fill="#F0F0F0"/>
<path d="M48.8193 17.739L24.9999 16.6304L1.18037 17.739C0.953418 18.4646 0.758008 19.2044 0.594238 19.9564H49.4052C49.2416 19.2043 49.0463 18.4644 48.8193 17.739Z" fill="#D80027"/>
<path d="M0.594482 31.043C0.758057 31.795 0.953467 32.5347 1.18042 33.2603L1.18276 33.2604L24.9998 34.369L48.8192 33.2604C49.0461 32.5348 49.2416 31.795 49.4052 31.043H0.594482Z" fill="#D80027"/>
<path d="M25 50.9999C36.1539 50.9999 45.6002 43.5488 48.8194 33.2607H1.18066C4.3999 43.5487 13.8464 50.9999 25 50.9999V50.9999Z" fill="#6DA544"/>
<path d="M24.9999 9.98692e-10C13.8461 9.96104e-05 4.39985 7.45118 1.18042 17.7391L48.8192 17.7392C45.6001 7.45108 36.1538 -9.96084e-05 24.9999 9.98692e-10V9.98692e-10Z" fill="#338AF3"/>
<path d="M11.4244 10.5325C11.4244 8.14416 13.07 6.14898 15.2676 5.6595C14.9299 5.5842 14.5794 5.54346 14.2194 5.54346C11.5181 5.54346 9.32812 7.7771 9.32812 10.5326C9.32812 13.2881 11.5179 15.5217 14.2194 15.5217C14.5794 15.5217 14.9298 15.4809 15.2676 15.4057C13.0701 14.916 11.4244 12.9208 11.4244 10.5325V10.5325Z" fill="#F0F0F0"/>
<path d="M18.1586 12.8003L18.4896 13.8397H19.5611L18.6943 14.4822L19.0254 15.5216L18.1586 14.8792L17.2916 15.5216L17.6228 14.4822L16.7559 13.8397H17.8273L18.1586 12.8003Z" fill="#F0F0F0"/>
<path d="M21.5786 12.8003L21.9097 13.8397H22.9812L22.1143 14.4822L22.4455 15.5216L21.5786 14.8792L20.7117 15.5216L21.0428 14.4822L20.176 13.8397H21.2474L21.5786 12.8003Z" fill="#F0F0F0"/>
<path d="M24.9984 12.8003L25.3295 13.8397H26.4011L25.5342 14.4822L25.8652 15.5216L24.9984 14.8792L24.1314 15.5216L24.4627 14.4822L23.5957 13.8397H24.6673L24.9984 12.8003Z" fill="#F0F0F0"/>
<path d="M28.4186 12.8003L28.7498 13.8397H29.8211L28.9543 14.4822L29.2855 15.5216L28.4186 14.8792L27.5516 15.5216L27.8829 14.4822L27.0159 13.8397H28.0874L28.4186 12.8003Z" fill="#F0F0F0"/>
<path d="M31.8386 12.8003L32.1697 13.8397H33.2412L32.3744 14.4822L32.7056 15.5216L31.8386 14.8792L30.9717 15.5216L31.3028 14.4822L30.436 13.8397H31.5074L31.8386 12.8003Z" fill="#F0F0F0"/>
<path d="M21.5786 9.17188L21.9097 10.2112H22.9812L22.1143 10.8538L22.4455 11.8931L21.5786 11.2507L20.7117 11.8931L21.0428 10.8538L20.176 10.2112H21.2474L21.5786 9.17188Z" fill="#F0F0F0"/>
<path d="M24.9984 9.17188L25.3295 10.2112H26.4011L25.5342 10.8538L25.8652 11.8931L24.9984 11.2507L24.1314 11.8931L24.4627 10.8538L23.5957 10.2112H24.6673L24.9984 9.17188Z" fill="#F0F0F0"/>
<path d="M28.4186 9.17188L28.7498 10.2112H29.8211L28.9543 10.8538L29.2855 11.8931L28.4186 11.2507L27.5516 11.8931L27.8829 10.8538L27.0159 10.2112H28.0874L28.4186 9.17188Z" fill="#F0F0F0"/>
<path d="M31.8386 9.17188L32.1697 10.2112H33.2412L32.3744 10.8538L32.7056 11.8931L31.8386 11.2507L30.9717 11.8931L31.3028 10.8538L30.436 10.2112H31.5074L31.8386 9.17188Z" fill="#F0F0F0"/>
<path d="M24.9984 5.54346L25.3295 6.58298H26.4011L25.5342 7.22536L25.8652 8.26488L24.9984 7.6225L24.1314 8.26488L24.4627 7.22536L23.5957 6.58298H24.6673L24.9984 5.54346Z" fill="#F0F0F0"/>
<path d="M28.4186 5.54346L28.7498 6.58298H29.8211L28.9543 7.22536L29.2855 8.26488L28.4186 7.6225L27.5516 8.26488L27.8829 7.22536L27.0159 6.58298H28.0874L28.4186 5.54346Z" fill="#F0F0F0"/>
<path d="M31.8386 5.54346L32.1697 6.58298H33.2412L32.3744 7.22536L32.7056 8.26488L31.8386 7.6225L30.9717 8.26488L31.3028 7.22536L30.436 6.58298H31.5074L31.8386 5.54346Z" fill="#F0F0F0"/>
</g>
<defs>
<clipPath id="clip0_105_2792">
<rect width="50" height="51" fill="white"/>
</clipPath>
</defs>
</svg>
