<svg width="50" height="51" viewBox="0 0 50 51" fill="none" xmlns="http://www.w3.org/2000/svg">
<g clip-path="url(#clip0_105_913)">
<path d="M25 51C38.8071 51 50 39.5833 50 25.5C50 11.4167 38.8071 0 25 0C11.1929 0 0 11.4167 0 25.5C0 39.5833 11.1929 51 25 51Z" fill="#F0F0F0"/>
<path d="M25 0C19.9828 0 15.3117 1.50858 11.3965 4.10371L17.826 8.49937L9.78259 12.7493L17.826 16.9992L9.78259 21.2492L17.826 25.4986L9.78259 29.7484L17.826 33.9983L9.78259 38.2486L17.826 42.4985L11.3957 46.8956C15.3111 49.4912 19.9825 51 25 51C38.807 51 50 39.5832 50 25.5C50 11.4168 38.807 0 25 0V0Z" fill="#D80027"/>
</g>
<defs>
<clipPath id="clip0_105_913">
<rect width="50" height="51" fill="white"/>
</clipPath>
</defs>
</svg>
