<svg width="50" height="51" viewBox="0 0 50 51" fill="none" xmlns="http://www.w3.org/2000/svg">
<g clip-path="url(#clip0_105_2839)">
<path d="M25.0001 0C38.8071 0 50.0001 11.4168 50.0001 25.5C50.0001 39.5832 38.8071 51 25.0001 51C25.0001 49.8913 21.7393 25.5 21.7393 25.5L25.0001 0Z" fill="#F0F0F0"/>
<path d="M25 51C11.193 51 0 39.5832 0 25.5C0 11.4168 11.193 0 25 0" fill="#FFDA44"/>
<path d="M34.5732 22.1893L39.2716 28.529C38.5313 29.6724 38.5353 31.2127 39.3914 32.3679C40.4773 33.8332 42.5224 34.1233 43.9591 33.0155C45.3957 31.9079 45.6801 29.822 44.5939 28.3566C43.738 27.2014 42.286 26.7775 41.0058 27.1921L33.6834 17.3115L31.9492 18.6487L29.3477 20.6542L31.9695 24.1918L34.5732 22.1893ZM41.3372 29.4777C41.8161 29.1084 42.4979 29.2052 42.8599 29.6935C43.2218 30.182 43.1271 30.8773 42.6482 31.2467C42.1694 31.6157 41.4877 31.5193 41.1258 31.0307C40.7636 30.5422 40.8584 29.8469 41.3372 29.4777V29.4777Z" fill="#ACABB1"/>
<path d="M42.6317 24.192L45.2536 20.6544L42.6522 18.6487L40.918 17.3115L33.5957 27.1921C32.3156 26.7775 30.8636 27.2015 30.0075 28.3566C28.9214 29.8221 29.2057 31.9079 30.6424 33.0155C32.0791 34.1232 34.124 33.8332 35.2099 32.3679C36.066 31.2127 36.0699 29.6723 35.3298 28.529L40.0281 22.1893L42.6317 24.192ZM33.4758 31.0309C33.1138 31.5195 32.4322 31.616 31.9533 31.2469C31.4744 30.8775 31.3797 30.1822 31.7417 29.6937C32.1036 29.2054 32.7853 29.1086 33.2643 29.4779C33.7431 29.8472 33.8378 30.5425 33.4758 31.0309V31.0309Z" fill="#FFDA44"/>
</g>
<defs>
<clipPath id="clip0_105_2839">
<rect width="50" height="51" fill="white"/>
</clipPath>
</defs>
</svg>
