<svg width="50" height="51" viewBox="0 0 50 51" fill="none" xmlns="http://www.w3.org/2000/svg">
<g clip-path="url(#clip0_105_958)">
<path d="M33.6955 1.58608C30.9872 0.5611 28.0579 0 24.9999 0C21.9419 0 19.0126 0.5611 16.3043 1.58608L14.1304 25.5L16.3043 49.4139C19.0126 50.439 21.9419 51 24.9999 51C28.0579 51 30.9872 50.439 33.6955 49.4139L35.8694 25.5L33.6955 1.58608Z" fill="#FFDA44"/>
<path d="M50.0002 25.5C50.0002 14.536 43.2158 5.18905 33.6958 1.58618V49.4141C43.2158 45.811 50.0002 36.4642 50.0002 25.5V25.5Z" fill="#D80027"/>
<path d="M0 25.5C0 36.4642 6.78437 45.811 16.3044 49.414V1.58618C6.78437 5.18905 0 14.536 0 25.5V25.5Z" fill="black"/>
</g>
<defs>
<clipPath id="clip0_105_958">
<rect width="50" height="51" fill="white"/>
</clipPath>
</defs>
</svg>
