<svg width="50" height="51" viewBox="0 0 50 51" fill="none" xmlns="http://www.w3.org/2000/svg">
<g clip-path="url(#clip0_105_1681)">
<path d="M25 51C38.8071 51 50 39.5833 50 25.5C50 11.4167 38.8071 0 25 0C11.1929 0 0 11.4167 0 25.5C0 39.5833 11.1929 51 25 51Z" fill="#F0F0F0"/>
<path d="M0.861328 32.1521C2.30781 37.6265 5.4958 42.3713 9.78272 45.7311V32.1521H0.861328Z" fill="#0052B4"/>
<path d="M22.8262 50.9029C23.5428 50.9658 24.2675 50.9999 25.0001 50.9999C36.5508 50.9999 46.2701 43.0091 49.1389 32.1521H22.8262V50.9029Z" fill="#0052B4"/>
<path d="M49.1389 18.8478C46.2701 7.99076 36.5508 0 25.0001 0C24.2675 0 23.5428 0.0340664 22.8262 0.0970195V18.8478H49.1389Z" fill="#0052B4"/>
<path d="M9.78272 5.2688C5.4958 8.62862 2.30781 13.3733 0.861328 18.8477H9.78272V5.2688Z" fill="#0052B4"/>
<path d="M49.7884 22.174H19.5653H19.5652V0.606201C17.2549 1.12875 15.0646 1.97573 13.0435 3.10062V22.1739H0.211621C0.0724609 23.2628 0 24.3728 0 25.5001C0 26.6274 0.0724609 27.7374 0.211621 28.8261H13.0434H13.0435V47.8994C15.0646 49.0242 17.2549 49.8714 19.5652 50.3939V28.8264V28.8262H49.7884C49.9273 27.7374 50 26.6274 50 25.5001C50 24.3728 49.9273 23.2628 49.7884 22.174V22.174Z" fill="#D80027"/>
</g>
<defs>
<clipPath id="clip0_105_1681">
<rect width="50" height="51" fill="white"/>
</clipPath>
</defs>
</svg>
