<svg width="50" height="52" viewBox="0 0 50 52" fill="none" xmlns="http://www.w3.org/2000/svg">
<g clip-path="url(#clip0_105_1689)">
<path d="M25 51.9893C38.8071 51.9893 50 40.5725 50 26.4893C50 12.406 38.8071 0.989258 25 0.989258C11.1929 0.989258 0 12.406 0 26.4893C0 40.5725 11.1929 51.9893 25 51.9893Z" fill="#F0F0F0"/>
<path d="M25 0.989258C15.0885 0.989258 6.52446 6.87269 2.48071 15.4023H47.5193C43.4756 6.87269 34.9115 0.989258 25 0.989258V0.989258Z" fill="#FF9811"/>
<path d="M25 51.9893C34.9115 51.9893 43.4756 46.1058 47.5194 37.5762H2.48071C6.52446 46.1058 15.0885 51.9893 25 51.9893Z" fill="#6DA544"/>
<path d="M25 35.3587C29.8025 35.3587 33.6957 31.3876 33.6957 26.4891C33.6957 21.5906 29.8025 17.6196 25 17.6196C20.1976 17.6196 16.3044 21.5906 16.3044 26.4891C16.3044 31.3876 20.1976 35.3587 25 35.3587Z" fill="#0052B4"/>
<path d="M25 32.0327C28.0015 32.0327 30.4347 29.5508 30.4347 26.4893C30.4347 23.4277 28.0015 20.9458 25 20.9458C21.9984 20.9458 19.5652 23.4277 19.5652 26.4893C19.5652 29.5508 21.9984 32.0327 25 32.0327Z" fill="#F0F0F0"/>
<path d="M25 19.6487L26.6767 23.5273L30.808 23.069L28.3533 26.4893L30.808 29.9095L26.6767 29.4512L25 33.3298L23.3234 29.4512L19.1921 29.9094L21.6468 26.4893L19.1921 23.069L23.3234 23.5273L25 19.6487Z" fill="#0052B4"/>
</g>
<defs>
<clipPath id="clip0_105_1689">
<rect width="50" height="51" fill="white" transform="translate(0 0.989258)"/>
</clipPath>
</defs>
</svg>
