<svg width="50" height="51" viewBox="0 0 50 51" fill="none" xmlns="http://www.w3.org/2000/svg">
<g clip-path="url(#clip0_105_1635)">
<path d="M25 51C38.8071 51 50 39.5833 50 25.5C50 11.4167 38.8071 0 25 0C11.1929 0 0 11.4167 0 25.5C0 39.5833 11.1929 51 25 51Z" fill="#F0F0F0"/>
<path d="M25.0001 0C20.5801 0 16.4289 1.17161 12.8262 3.22455V47.7754C16.429 49.8284 20.5801 51 25.0001 51C38.8071 51 50.0001 39.5832 50.0001 25.5C50.0001 11.4168 38.8071 0 25.0001 0Z" fill="#6DA544"/>
<path d="M12.8997 3.18262C11.327 4.07163 9.8584 5.12829 8.5167 6.32958C8.65234 6.20825 8.78936 6.08832 8.92744 5.96999L28.0744 25.5L8.92734 45.03C8.78916 44.9117 8.65225 44.7917 8.5166 44.6704C9.8583 45.8717 11.327 46.9283 12.8996 47.8174L50.0001 25.5L12.8997 3.18262Z" fill="#F0F0F0"/>
<path d="M10.7882 4.52051C10.0258 5.059 9.29355 5.63842 8.5958 6.2577L25.0001 25.5L8.5957 44.7424C9.29346 45.3616 10.0257 45.9412 10.7881 46.4796L45.7206 25.5L10.7882 4.52051Z" fill="#FFDA44"/>
<path d="M8.92725 5.96997C8.37148 6.4463 7.83516 6.94565 7.32227 7.46869L22.8261 25.5L7.32227 43.5313C7.83516 44.0544 8.37139 44.5539 8.92725 45.03L28.0743 25.5L8.92725 5.96997Z" fill="black"/>
<path d="M7.32231 7.46875C-2.44077 17.4271 -2.44077 33.5729 7.32231 43.5313C11.3568 39.4162 15.237 35.4584 25 25.5L7.32231 7.46875Z" fill="#D80027"/>
</g>
<defs>
<clipPath id="clip0_105_1635">
<rect width="50" height="51" fill="white"/>
</clipPath>
</defs>
</svg>
