<svg width="50" height="51" viewBox="0 0 50 51" fill="none" xmlns="http://www.w3.org/2000/svg">
<g clip-path="url(#clip0_105_1151)">
<path d="M25 51C38.8071 51 50 39.5833 50 25.5C50 11.4167 38.8071 0 25 0C11.1929 0 0 11.4167 0 25.5C0 39.5833 11.1929 51 25 51Z" fill="#F0F0F0"/>
<path d="M50.0001 25.5C50.0001 15.3902 44.232 6.6549 35.8696 2.53027V48.4696C44.232 44.3451 50.0001 35.6097 50.0001 25.5V25.5Z" fill="#D80027"/>
<path d="M0 25.5C0 35.6098 5.76807 44.3451 14.1305 48.4697V2.53027C5.76807 6.6549 0 15.3902 0 25.5Z" fill="#D80027"/>
<path d="M29.3477 28.8261L33.6954 26.6087L31.5216 25.5V23.2826L27.1737 25.5L29.3477 21.0652H27.1737L24.9998 17.7391L22.8259 21.0652H20.652L22.8259 25.5L18.478 23.2826V25.5L16.3042 26.6087L20.652 28.8261L19.565 31.0435H23.9129V34.3695H26.0867V31.0435H30.4346L29.3477 28.8261Z" fill="#D80027"/>
</g>
<defs>
<clipPath id="clip0_105_1151">
<rect width="50" height="51" fill="white"/>
</clipPath>
</defs>
</svg>
