<svg width="50" height="51" viewBox="0 0 50 51" fill="none" xmlns="http://www.w3.org/2000/svg">
<g clip-path="url(#clip0_105_2139)">
<path d="M25 51C38.8071 51 50 39.5833 50 25.5C50 11.4167 38.8071 0 25 0C11.1929 0 0 11.4167 0 25.5C0 39.5833 11.1929 51 25 51Z" fill="#F0F0F0"/>
<path d="M6.04868 8.86951C5.17144 9.90873 4.37505 11.0207 3.66919 12.1956H46.3305C45.6247 11.0207 44.8284 9.90863 43.951 8.86951H6.04868Z" fill="#D80027"/>
<path d="M6.04871 42.1305H43.9511C44.8284 41.0913 45.6248 39.9793 46.3306 38.8044H3.66931C4.37507 39.9792 5.17146 41.0913 6.04871 42.1305V42.1305Z" fill="#D80027"/>
<path d="M21.8008 20.8369L23.852 23.7201L27.1739 22.6214L25.1195 25.5021L27.1705 28.3852L23.8497 27.2823L21.7953 30.163L21.7974 26.6009L18.4766 25.498L21.7986 24.3993L21.8008 20.8369Z" fill="#D80027"/>
<path d="M16.2025 32.7065C12.3006 32.7065 9.1373 29.48 9.1373 25.5C9.1373 21.52 12.3006 18.2934 16.2025 18.2934C17.4191 18.2934 18.564 18.6072 19.5634 19.1597C17.9955 17.5957 15.8513 16.6304 13.4852 16.6304C8.68262 16.6304 4.78955 20.6014 4.78955 25.4999C4.78955 30.3984 8.68271 34.3694 13.4852 34.3694C15.8513 34.3694 17.9955 33.4041 19.5634 31.8401C18.564 32.3928 17.4192 32.7065 16.2025 32.7065Z" fill="#D80027"/>
</g>
<defs>
<clipPath id="clip0_105_2139">
<rect width="50" height="51" fill="white"/>
</clipPath>
</defs>
</svg>
