<svg width="50" height="51" viewBox="0 0 50 51" fill="none" xmlns="http://www.w3.org/2000/svg">
<g clip-path="url(#clip0_105_1742)">
<path d="M25 51C38.8071 51 50 39.5833 50 25.5C50 11.4167 38.8071 0 25 0C11.1929 0 0 11.4167 0 25.5C0 39.5833 11.1929 51 25 51Z" fill="#F0F0F0"/>
<path d="M44.8338 41.0266L29.6116 25.5001H29.6115L44.8338 9.97329C44.1772 9.1031 43.4591 8.26588 42.6777 7.46871C41.8962 6.67163 41.0755 5.93901 40.2223 5.26953L25.0001 20.7961L25 20.7962L9.77782 5.26953C8.92479 5.93911 8.10389 6.67153 7.32235 7.46871C6.54081 8.26588 5.82264 9.1031 5.1663 9.97329L20.3885 25.4998L20.3886 25.4999L5.1662 41.0267C5.82274 41.8969 6.54091 42.7341 7.32225 43.5313C8.1038 44.3284 8.9245 45.061 9.77772 45.7305L25 30.2038L25.0001 30.2037L40.2223 45.7304C41.0753 45.0608 41.8962 44.3283 42.6777 43.5312C43.4593 42.734 44.1773 41.8968 44.8338 41.0266V41.0266Z" fill="#D80027"/>
<path d="M20.6522 7.76075L25 8.8694L29.3479 7.76075V3.99123L27.6087 4.87815L25 2.21729L22.3913 4.87815L20.6522 3.99123V7.76075Z" fill="#FFDA44"/>
<path d="M20.6522 7.76074V10.5327C20.6522 13.9274 25 14.9675 25 14.9675C25 14.9675 29.3479 13.9273 29.3479 10.5327V7.76074H20.6522Z" fill="#D80027"/>
</g>
<defs>
<clipPath id="clip0_105_1742">
<rect width="50" height="51" fill="white"/>
</clipPath>
</defs>
</svg>
