<svg width="50" height="51" viewBox="0 0 50 51" fill="none" xmlns="http://www.w3.org/2000/svg">
<g clip-path="url(#clip0_105_824)">
<path d="M50 25.5C50 39.5832 38.807 51 25 51C11.193 51 0 39.5832 0 25.5C0 25.5061 25 0.00278906 25 0C38.807 0 50 11.4168 50 25.5Z" fill="#0052B4"/>
<path d="M24.9331 25.4999H25C25 25.477 25 25.4547 25 25.4316C24.9777 25.4545 24.9555 25.4772 24.9331 25.4999Z" fill="#F0F0F0"/>
<path d="M25 13.3043C25 8.81742 25 5.87745 25 0H24.9958C11.1905 0.00239063 0 11.4181 0 25.5H13.0435V18.0083L20.3883 25.5H24.9332C24.9555 25.4773 24.9777 25.4546 25.0001 25.4318C25.0001 23.7138 25.0001 22.1809 25.0001 20.7962L17.6551 13.3043H25Z" fill="#F0F0F0"/>
<path d="M12.648 3.32617C8.73791 5.59717 5.48723 8.91276 3.26086 12.901V25.5001H9.78264V9.97858V9.97839H25C25 7.88031 25 5.88155 25 3.32617H12.648Z" fill="#D80027"/>
<path d="M25 22.3645L16.1177 13.3047H13.0435V13.3049L24.9998 25.5003H25C25 25.5003 25 23.338 25 22.3645V22.3645Z" fill="#D80027"/>
<path d="M42.2792 29.2329C42.9981 28.2241 43.4782 26.9921 43.4782 25.5002V14.4132C42.5699 15.1093 41.4409 15.5219 40.2174 15.5219C38.4395 15.5219 36.8611 14.651 35.8696 13.3047C34.878 14.651 33.2995 15.5219 31.5217 15.5219C30.2981 15.5219 29.1692 15.1092 28.2609 14.4134V25.5002C28.2609 26.9921 28.741 28.2241 29.4599 29.2329H42.2792Z" fill="#F3F3F3"/>
<path d="M40.018 23.4434C40.3641 22.5822 40.6333 21.3234 40.6333 20.697C40.6333 19.6904 39.3467 18.8745 39.3467 18.8745C39.3467 18.8745 38.0602 19.6904 38.0602 20.697C38.0602 21.3235 38.3295 22.5823 38.6754 23.4434L37.9327 25.1538C38.3692 25.3349 38.8463 25.4355 39.3468 25.4355C39.8473 25.4355 40.3244 25.3348 40.761 25.1538L40.018 23.4434Z" fill="#FF9811"/>
<path d="M34.9896 17.9052C34.0857 18.0301 32.8823 18.4221 32.3505 18.7353C31.4959 19.2386 31.4463 20.7828 31.4463 20.7828C31.4463 20.7828 32.7824 21.5113 33.6369 21.008C34.1689 20.6948 35.1029 19.8278 35.6608 19.0915L37.4847 18.8922C37.4201 18.4163 37.2666 17.9445 37.0167 17.5025C36.7663 17.0605 36.4426 16.6892 36.0705 16.394L34.9896 17.9052Z" fill="#FF9811"/>
<path d="M32.8019 25.1165C33.3598 25.8524 34.2941 26.7193 34.8262 27.0327C35.6807 27.5359 37.0168 26.8076 37.0168 26.8076C37.0168 26.8076 36.967 25.2632 36.1126 24.7599C35.5805 24.4466 34.3772 24.055 33.4731 23.9303L32.3924 22.4189C32.0204 22.714 31.6966 23.0855 31.4463 23.5271C31.1962 23.9693 31.0431 24.4409 30.9782 24.9171L32.8019 25.1165Z" fill="#FF9811"/>
<path d="M29.191 28.8262C31.2211 32.1486 35.8697 33.2608 35.8697 33.2608C35.8697 33.2608 40.5181 32.1486 42.5483 28.8262H29.191Z" fill="#338AF3"/>
</g>
<defs>
<clipPath id="clip0_105_824">
<rect width="50" height="51" fill="white"/>
</clipPath>
</defs>
</svg>
