<svg width="50" height="51" viewBox="0 0 50 51" fill="none" xmlns="http://www.w3.org/2000/svg">
<g clip-path="url(#clip0_105_1416)">
<path d="M25 51.001C38.8071 51.001 50 39.5842 50 25.501C50 11.4177 38.8071 0.000976562 25 0.000976562C11.1929 0.000976562 0 11.4177 0 25.501C0 39.5842 11.1929 51.001 25 51.001Z" fill="#FFDA44"/>
<path d="M25 0.000976562C18.8792 0.000976562 13.2731 2.24587 8.92725 5.97096L35.8695 25.501L8.92725 45.031C13.2731 48.7561 18.8792 51.001 25 51.001C38.807 51.001 50 39.5841 50 25.501C50 11.4178 38.807 0.000976562 25 0.000976562Z" fill="#D80027"/>
<path d="M7.32227 7.46968C-2.44082 17.428 -2.44082 33.5738 7.32227 43.5323C11.3567 39.4171 15.2369 35.4593 25 25.501L7.32227 7.46968Z" fill="black"/>
<path d="M6.93154 19.6594L10.7362 23.3322L15.3366 20.7758L13.0881 25.6019L16.8929 29.2748L11.6981 28.5847L9.44932 33.4107L8.4877 28.158L3.29297 27.4678L7.89316 24.9117L6.93154 19.6594Z" fill="#F0F0F0"/>
</g>
<defs>
<clipPath id="clip0_105_1416">
<rect width="50" height="51" fill="white" transform="translate(0 0.000976562)"/>
</clipPath>
</defs>
</svg>
