<svg width="50" height="51" viewBox="0 0 50 51" fill="none" xmlns="http://www.w3.org/2000/svg">
<g clip-path="url(#clip0_105_2202)">
<path d="M42.6778 43.5312C32.9147 53.4895 17.0856 53.4895 7.3223 43.5312C-2.44078 33.5728 -2.44078 17.4271 7.3224 7.46861C17.0855 -2.48974 31.3774 -0.921789 41.1405 9.03666C50.9035 18.995 52.4408 33.5728 42.6778 43.5312V43.5312Z" fill="black"/>
<path d="M7.32239 7.46873C17.0855 -2.48961 32.9145 -2.48941 42.6778 7.46883C52.4408 17.4272 52.4408 33.5729 42.6778 43.5313" fill="#A2001D"/>
<path d="M19.1057 34.3696L19.5104 35.6401H20.8201L19.7605 36.4253L20.1653 37.6958L19.1057 36.9106L18.0461 37.6958L18.4508 36.4253L17.3914 35.6401H18.7009L19.1057 34.3696Z" fill="#F0F0F0"/>
<path d="M15.7609 22.174L16.4356 24.2914H18.6182L16.8523 25.6L17.5268 27.7175L15.7609 26.4087L13.9951 27.7175L14.6697 25.6L12.9037 24.2914H15.0865L15.7609 22.174Z" fill="#F0F0F0"/>
<path d="M15.7609 37.6958L16.4354 39.8133H18.6182L16.8521 41.1218L17.5268 43.2393L15.7609 41.9305L13.9951 43.2393L14.6695 41.1218L12.9037 39.8133H15.0862L15.7609 37.6958Z" fill="#F0F0F0"/>
<path d="M22.1428 27.7175L22.8175 29.835H25.0001L23.2342 31.1435L23.9087 33.261L22.1428 31.9522L20.377 33.261L21.0516 31.1435L19.2856 29.835H21.4684L22.1428 27.7175Z" fill="#F0F0F0"/>
<path d="M9.37896 27.7175L10.0537 29.835H12.2362L10.4704 31.1435L11.1448 33.261L9.37896 31.9522L7.61304 33.261L8.28774 31.1435L6.52173 29.835H8.70444L9.37896 27.7175Z" fill="#F0F0F0"/>
<path d="M41.8505 18.882C40.7332 17.7424 39.2814 17.0691 37.7214 16.9535L42.3913 13.2487C40.5314 11.3517 38.0387 10.4949 35.6063 10.6761C35.315 9.6087 34.7599 8.60046 33.9369 7.76105L32.0923 11.5241C31.9713 11.2992 31.8181 11.0875 31.6312 10.8969C30.5698 9.81449 28.8493 9.81449 27.7882 10.8969C26.727 11.9794 26.7269 13.7343 27.7882 14.8168C27.975 15.0073 28.1826 15.1636 28.4031 15.2871L24.7139 17.1687C25.537 18.0084 26.5262 18.575 27.5732 18.8719C27.395 21.3529 28.2341 23.8952 30.094 25.7923L34.1741 20.4415C34.4811 20.1332 34.8864 19.963 35.3177 19.963C35.7532 19.963 36.1626 20.1359 36.4705 20.4502C36.7785 20.7643 36.9481 21.1819 36.9481 21.6261C36.9481 22.0703 36.7785 22.4879 36.4705 22.8021L38.0078 24.3701C38.7263 23.6372 39.1221 22.6627 39.1221 21.6262C39.1221 20.7781 38.8568 19.9719 38.3672 19.3053C39.0807 19.4996 39.755 19.8803 40.3136 20.4502C42.0089 22.1793 42.0089 24.9929 40.3136 26.7219L41.8509 28.2899C43.0826 27.0335 43.761 25.363 43.761 23.5861C43.7607 21.809 43.0822 20.1385 41.8505 18.882V18.882Z" fill="#FFDA44"/>
</g>
<defs>
<clipPath id="clip0_105_2202">
<rect width="50" height="51" fill="white"/>
</clipPath>
</defs>
</svg>
