<svg width="50" height="51" viewBox="0 0 50 51" fill="none" xmlns="http://www.w3.org/2000/svg">
<g clip-path="url(#clip0_105_2289)">
<path d="M25 51C38.8071 51 50 39.5833 50 25.5C50 11.4167 38.8071 0 25 0C11.1929 0 0 11.4167 0 25.5C0 39.5833 11.1929 51 25 51Z" fill="#F0F0F0"/>
<path d="M48.445 34.3695C49.45 31.607 50 28.6192 50 25.5C50 22.3808 49.45 19.3929 48.445 16.6305H1.55498C0.550098 19.3929 0 22.3808 0 25.5C0 28.6192 0.550098 31.607 1.55498 34.3695L25 36.5869L48.445 34.3695Z" fill="#0052B4"/>
<path d="M25 51C35.7491 51 44.9126 44.0799 48.445 34.3695H1.55493C5.08726 44.0799 14.2508 51 25 51Z" fill="#D80027"/>
</g>
<defs>
<clipPath id="clip0_105_2289">
<rect width="50" height="51" fill="white"/>
</clipPath>
</defs>
</svg>
