<svg width="50" height="51" viewBox="0 0 50 51" fill="none" xmlns="http://www.w3.org/2000/svg">
<g clip-path="url(#clip0_105_1013)">
<path d="M1.18047 17.739C0.414648 20.1863 -9.7639e-05 22.7934 1.72417e-08 25.4999C-9.7639e-05 28.2062 0.414649 30.8133 1.18057 33.2608L25 34.3696L48.8193 33.2608C49.5851 30.8133 49.9999 28.2061 49.9999 25.5C49.9999 22.7936 49.5852 20.1863 48.8193 17.739L24.9999 16.6304L1.18047 17.739Z" fill="#F0F0F0"/>
<path d="M50 25.5001C50 23.9873 49.8701 22.5055 49.6224 21.0652H0.377734C0.129883 22.5055 0 23.9871 0 25.5C0 27.0129 0.12998 28.4945 0.377734 29.9348H49.6224C49.87 28.4944 50 27.0128 50 25.5001Z" fill="black"/>
<path d="M25.0001 50.9997C36.154 50.9997 45.6003 43.5487 48.8194 33.2605H1.18066C4.3999 43.5486 13.8463 50.9995 25.0001 50.9997V50.9997Z" fill="#338AF3"/>
<path d="M25.0002 3.99467e-09C13.8464 3.99467e-09 4.4001 7.45108 1.18066 17.7389L48.8193 17.739C45.6003 7.45108 36.1539 -0.000199215 25.0002 3.99467e-09V3.99467e-09Z" fill="#338AF3"/>
</g>
<defs>
<clipPath id="clip0_105_1013">
<rect width="50" height="51" fill="white"/>
</clipPath>
</defs>
</svg>
