<svg width="50" height="51" viewBox="0 0 50 51" fill="none" xmlns="http://www.w3.org/2000/svg">
<g clip-path="url(#clip0_105_1157)">
<path d="M24.9999 0C21.9419 0 19.0125 0.5611 16.3043 1.58608L15.2173 25.5L16.3042 49.4139C19.0125 50.439 21.9419 51 24.9999 51C28.0579 51 30.9873 50.439 33.6955 49.4139L34.7825 25.5L33.6956 1.58608C30.9873 0.5611 28.0579 0 24.9999 0V0Z" fill="#338AF3"/>
<path d="M50.0002 25.5C50.0002 14.5359 43.2158 5.18903 33.6958 1.58606V49.414C43.2158 45.8109 50.0002 36.4641 50.0002 25.5V25.5Z" fill="#FFDA44"/>
<path d="M16.3044 49.4139V1.58606C6.78437 5.18903 0 14.5359 0 25.5C0 36.4641 6.78437 45.8109 16.3044 49.4139Z" fill="#F0F0F0"/>
</g>
<defs>
<clipPath id="clip0_105_1157">
<rect width="50" height="51" fill="white"/>
</clipPath>
</defs>
</svg>
