<svg width="50" height="51" viewBox="0 0 50 51" fill="none" xmlns="http://www.w3.org/2000/svg">
<g clip-path="url(#clip0_105_817)">
<path d="M0 25.5C0 11.4168 11.193 0 25 0C38.807 0 50 11.4168 50 25.5C48.9131 25.5 25 28.8261 25 28.8261L0 25.5Z" fill="#D80027"/>
<path d="M50 25.5C50 39.5832 38.807 51 25 51C11.193 51 0 39.5832 0 25.5" fill="black"/>
<path d="M21.572 20.2818L23.6914 21.8506L22.8837 24.3915L25.0015 22.82L27.121 24.3889L26.3103 21.8488L28.4279 20.2776L25.8092 20.2792L24.9984 17.7393L24.1907 20.2801L21.572 20.2818Z" fill="#FFDA44"/>
<path d="M31.25 14.4583C29.28 13.2982 27.126 12.7506 25 12.7544V16.0798C26.5714 16.0769 28.1634 16.4813 29.6195 17.3389C34.0314 19.9371 35.5485 25.7121 33.0012 30.2123C30.454 34.7124 24.7924 36.2598 20.3804 33.6616C19.095 32.9047 18.0574 31.8769 17.2926 30.6909L14.5703 32.5241C15.6052 34.1287 17.011 35.5179 18.75 36.5419C24.7191 40.0571 32.379 37.9637 35.8252 31.8751C39.2715 25.7866 37.2191 17.9735 31.25 14.4583V14.4583Z" fill="#FFDA44"/>
<path d="M17.792 23.2827C16.9277 24.8943 17.508 26.9155 19.0879 27.797L29.6786 33.6999C28.9584 35.0427 29.3409 36.6772 30.6574 37.4118L33.5183 39.008C34.8348 39.7428 36.4862 39.2495 37.2064 37.9066L38.7714 34.9886L17.792 23.2827Z" fill="#FFDA44"/>
</g>
<defs>
<clipPath id="clip0_105_817">
<rect width="50" height="51" fill="white"/>
</clipPath>
</defs>
</svg>
