<svg width="50" height="51" viewBox="0 0 50 51" fill="none" xmlns="http://www.w3.org/2000/svg">
<g clip-path="url(#clip0_105_928)">
<path d="M35.8695 2.53028C32.5828 0.909234 28.8955 0 25 0C21.1045 0 17.4172 0.909234 14.1305 2.53028L11.9565 25.5L14.1305 48.4697C17.4172 50.0908 21.1045 51 25 51C28.8955 51 32.5828 50.0908 35.8695 48.4697L38.0435 25.5L35.8695 2.53028Z" fill="#FFDA44"/>
<path d="M14.1305 2.53125C5.76816 6.65568 0 15.3903 0 25.5001C0 35.6098 5.76816 44.3445 14.1305 48.4689V2.53125Z" fill="#0052B4"/>
<path d="M35.8696 2.53125V48.4689C44.2319 44.3445 50.0001 35.6097 50.0001 25.5001C50.0001 15.3904 44.2319 6.65568 35.8696 2.53125Z" fill="#0052B4"/>
<path d="M32.6088 15.5218L34.0671 16.2655L32.6088 15.5218L31.1504 14.7782C31.0625 14.9576 29.1583 18.9094 28.8473 24.9458H26.6306V15.5218L25.0001 13.3044L23.3696 15.5218V24.9458H21.1529C20.8418 18.9094 18.9377 14.9576 18.8497 14.7782L15.9331 16.2656C15.9532 16.3065 17.935 20.4208 17.935 26.6089V28.2719H23.3697V37.6959H26.6306V28.2719H32.0653V26.6088C32.0653 23.4095 32.608 20.7715 33.0634 19.1217C33.5598 17.3228 34.064 16.2722 34.0689 16.2617L32.6088 15.5218Z" fill="black"/>
</g>
<defs>
<clipPath id="clip0_105_928">
<rect width="50" height="51" fill="white"/>
</clipPath>
</defs>
</svg>
