<svg width="50" height="51" viewBox="0 0 50 51" fill="none" xmlns="http://www.w3.org/2000/svg">
<g clip-path="url(#clip0_105_1892)">
<path d="M25 51C38.8071 51 50 39.5833 50 25.5C50 11.4167 38.8071 0 25 0C11.1929 0 0 11.4167 0 25.5C0 39.5833 11.1929 51 25 51Z" fill="#F0F0F0"/>
<path d="M23.9131 25.4999H50C50 23.1982 49.6992 20.9687 49.1388 18.8477H23.9131V25.4999Z" fill="#D80027"/>
<path d="M23.9131 12.1957H46.3307C44.8003 9.64846 42.8438 7.39699 40.5622 5.54346H23.9131V12.1957Z" fill="#D80027"/>
<path d="M24.9997 51C30.8834 51 36.2913 48.9257 40.5619 45.4565H9.4375C13.7081 48.9257 19.116 51 24.9997 51V51Z" fill="#D80027"/>
<path d="M3.66943 38.8046H46.3308C47.5594 36.7598 48.5121 34.5244 49.1389 32.1523H0.861328C1.48799 34.5244 2.44082 36.7598 3.66943 38.8046V38.8046Z" fill="#D80027"/>
<path d="M25 25.5C25 11.4168 25 9.75654 25 0C11.193 0 0 11.4168 0 25.5H25Z" fill="#0052B4"/>
<path d="M16.6241 21.8272C13.2099 21.8272 10.4421 19.004 10.4421 15.5215C10.4421 12.0391 13.21 9.21584 16.6241 9.21584C17.6887 9.21584 18.6903 9.49046 19.5648 9.97376C18.193 8.60543 16.3168 7.76074 14.2464 7.76074C10.0443 7.76074 6.6377 11.2354 6.6377 15.5216C6.6377 19.8078 10.0443 23.2825 14.2464 23.2825C16.3168 23.2825 18.193 22.4378 19.5648 21.0695C18.6903 21.5526 17.6888 21.8272 16.6241 21.8272V21.8272Z" fill="#FFDA44"/>
<path d="M18.366 11.0869L19.4636 13.4279L21.9422 12.8438L20.8322 15.1786L22.8256 16.7909L20.3438 17.3616L20.3507 19.9565L18.366 18.3331L16.3812 19.9565L16.3881 17.3616L13.9062 16.7909L15.8996 15.1786L14.7896 12.8438L17.2684 13.4279L18.366 11.0869Z" fill="#FFDA44"/>
</g>
<defs>
<clipPath id="clip0_105_1892">
<rect width="50" height="51" fill="white"/>
</clipPath>
</defs>
</svg>
