<svg width="50" height="51" viewBox="0 0 50 51" fill="none" xmlns="http://www.w3.org/2000/svg">
<g clip-path="url(#clip0_105_792)">
<path d="M25 51C38.8071 51 50 39.5833 50 25.5C50 11.4167 38.8071 0 25 0C11.1929 0 0 11.4167 0 25.5C0 39.5833 11.1929 51 25 51Z" fill="#D80027"/>
<path d="M39.1305 18.9265H30.0752C30.6342 18.3294 30.9782 17.5211 30.9782 16.6303C30.9782 14.7934 29.5183 13.3042 27.7174 13.3042C26.5828 13.3042 25.5841 13.8955 25 14.7921C24.4159 13.8955 23.4171 13.3042 22.2826 13.3042C20.4817 13.3042 19.0218 14.7934 19.0218 16.6303C19.0218 17.5211 19.3658 18.3295 19.9248 18.9265H10.8696C10.8696 21.3757 12.9611 23.3612 15.3622 23.3612H15.2173C15.2173 25.8106 17.1639 27.7961 19.5652 27.7961C19.5652 28.5894 19.7702 29.333 20.128 29.9769L16.5216 33.6556L19.2886 36.4777L23.2136 32.4743C23.3673 32.5318 23.5264 32.5779 23.6906 32.6093L21.3188 38.0714L25 42.1303L28.6812 38.0712L26.3094 32.6091C26.4737 32.5777 26.6327 32.5317 26.7864 32.4741L30.7114 36.4775L33.4784 33.6553L29.8719 29.9766C30.2298 29.3328 30.4348 28.5891 30.4348 27.7958C32.836 27.7958 34.7826 25.8104 34.7826 23.3609H34.6378C37.0389 23.3611 39.1305 21.3757 39.1305 18.9265V18.9265Z" fill="black"/>
</g>
<defs>
<clipPath id="clip0_105_792">
<rect width="50" height="51" fill="white"/>
</clipPath>
</defs>
</svg>
