<svg width="50" height="51" viewBox="0 0 50 51" fill="none" xmlns="http://www.w3.org/2000/svg">
<g clip-path="url(#clip0_105_2700)">
<path d="M50 25.501C50 39.5841 38.807 51.001 25 51.001C11.193 51.001 0 39.5841 0 25.501C0 25.5071 25 0.00376563 25 0.000976562C38.807 0.000976562 50 11.4178 50 25.501Z" fill="#0052B4"/>
<path d="M24.9331 25.5008H25C25 25.4779 25 25.4556 25 25.4326C24.9777 25.4554 24.9555 25.4781 24.9331 25.5008Z" fill="#F0F0F0"/>
<path d="M25 13.3053C25 8.8184 25 5.87843 25 0.000976562H24.9958C11.1905 0.00336719 0 11.4191 0 25.501H13.0435V18.0093L20.3883 25.501H24.9332C24.9555 25.4783 24.9777 25.4556 25.0001 25.4327C25.0001 23.7148 25.0001 22.1819 25.0001 20.7972L17.6551 13.3053H25Z" fill="#F0F0F0"/>
<path d="M12.6479 3.32715C8.73779 5.59814 5.48711 8.91374 3.26074 12.902V25.5011H9.78252V9.97956V9.97936H24.9999C24.9999 7.88129 24.9999 5.88253 24.9999 3.32715H12.6479Z" fill="#D80027"/>
<path d="M25 22.3654L16.1177 13.3057H13.0435V13.3059L24.9998 25.5012H25C25 25.5012 25 23.339 25 22.3654V22.3654Z" fill="#D80027"/>
<path d="M28.2607 13.3052V25.5007C28.2607 31.4415 35.8694 33.2617 35.8694 33.2617C35.8694 33.2617 43.4781 31.4415 43.4781 25.5007V13.3052H28.2607Z" fill="#FFDA44"/>
<path d="M34.7827 17.7404C34.7827 18.9651 33.8094 22.1752 32.6087 22.1752C31.4081 22.1752 30.4348 18.9651 30.4348 17.7404C30.4348 16.5157 32.6087 15.5229 32.6087 15.5229C32.6087 15.5229 34.7827 16.5157 34.7827 17.7404Z" fill="#FF9811"/>
<path d="M40.5513 20.1554C40.9021 19.2823 41.175 18.0061 41.175 17.3708C41.175 16.3502 39.8706 15.5229 39.8706 15.5229C39.8706 15.5229 38.5662 16.3503 38.5662 17.3708C38.5662 18.0061 38.839 19.2823 39.1898 20.1554L38.4368 21.8896C38.8793 22.0731 39.3631 22.1751 39.8705 22.1751C40.3778 22.1751 40.8616 22.0731 41.3042 21.8896L40.5513 20.1554Z" fill="#A2001D"/>
<path d="M34.2393 25.5007C34.2393 25.5007 33.1523 27.7181 33.1523 29.9356H38.5871C38.587 27.7181 37.5001 25.5007 37.5001 25.5007L35.8696 24.3921L34.2393 25.5007Z" fill="#6DA544"/>
<path d="M37.5 25.5011V24.9468C37.5 24.0284 36.77 23.2837 35.8695 23.2837C34.9691 23.2837 34.239 24.0283 34.239 24.9468V25.5011H37.5Z" fill="#D80027"/>
</g>
<defs>
<clipPath id="clip0_105_2700">
<rect width="50" height="51" fill="white" transform="translate(0 0.000976562)"/>
</clipPath>
</defs>
</svg>
