<svg width="50" height="51" viewBox="0 0 50 51" fill="none" xmlns="http://www.w3.org/2000/svg">
<g clip-path="url(#clip0_105_1937)">
<path d="M3.03955 13.3043L24.9998 15.5217L46.9601 13.3043C42.7199 5.37781 34.4759 0 24.9998 0C15.5237 0 7.27969 5.37781 3.03955 13.3043V13.3043Z" fill="#D80027"/>
<path d="M3.03975 37.6958L25 39.9132L46.9603 37.6958C48.8981 34.0729 50 29.9178 50 25.5001L25 23.2827L0 25.5001C0 29.9178 1.10186 34.0729 3.03975 37.6958Z" fill="#FFDA44"/>
<path d="M3.03975 13.3042C1.10186 16.9271 0 21.0822 0 25.4999H50C50 21.0822 48.8981 16.9271 46.9603 13.3042H25H3.03975Z" fill="#0052B4"/>
<path d="M24.9998 51.0001C34.4759 51.0001 42.7199 45.6223 46.9601 37.6958H3.03955C7.27969 45.6223 15.5237 51.0001 24.9998 51.0001Z" fill="#6DA544"/>
</g>
<defs>
<clipPath id="clip0_105_1937">
<rect width="50" height="51" fill="white"/>
</clipPath>
</defs>
</svg>
