<svg width="50" height="51" viewBox="0 0 50 51" fill="none" xmlns="http://www.w3.org/2000/svg">
<g clip-path="url(#clip0_105_1729)">
<path d="M24.9999 51C28.0579 51 30.9873 50.439 33.6955 49.4139L34.7825 25.5L33.6956 1.58608C30.9873 0.5611 28.0579 0 24.9999 0C21.9419 0 19.0125 0.5611 16.3043 1.58608L15.2173 25.5L16.3042 49.4139C19.0125 50.439 21.9419 51 24.9999 51Z" fill="#F0F0F0"/>
<path d="M0 25.4999C0 36.464 6.78437 45.8108 16.3044 49.4138V1.58594C6.78437 5.18891 0 14.5358 0 25.4999Z" fill="#FF9811"/>
<path d="M33.6956 1.58594V49.4139C43.2156 45.8108 49.9999 36.464 49.9999 25.4999C49.9999 14.5358 43.2156 5.18891 33.6956 1.58594V1.58594Z" fill="#6DA544"/>
</g>
<defs>
<clipPath id="clip0_105_1729">
<rect width="50" height="51" fill="white"/>
</clipPath>
</defs>
</svg>
