<svg width="50" height="51" viewBox="0 0 50 51" fill="none" xmlns="http://www.w3.org/2000/svg">
<g clip-path="url(#clip0_105_2774)">
<path d="M25 50.999C38.8071 50.999 50 39.5823 50 25.499C50 11.4158 38.8071 -0.000976562 25 -0.000976562C11.1929 -0.000976562 0 11.4158 0 25.499C0 39.5823 11.1929 50.999 25 50.999Z" fill="#F0F0F0"/>
<path d="M23.9131 25.4989H50C50 23.1973 49.6992 20.9677 49.1388 18.8467H23.9131V25.4989Z" fill="#D80027"/>
<path d="M23.9131 12.1947H46.3307C44.8003 9.64748 42.8436 7.39601 40.5621 5.54248H23.9131V12.1947Z" fill="#D80027"/>
<path d="M25 50.999C30.8837 50.999 36.2916 48.9248 40.5621 45.4556H9.43787C13.7084 48.9248 19.1163 50.999 25 50.999Z" fill="#D80027"/>
<path d="M3.66931 38.8036H46.3306C47.5593 36.7587 48.5121 34.5235 49.1387 32.1514H0.861206C1.48787 34.5235 2.4407 36.7587 3.66931 38.8036V38.8036Z" fill="#D80027"/>
<path d="M11.5805 3.98121H13.8587L11.7396 5.55155L12.549 8.09248L10.43 6.52214L8.31094 8.09248L9.01016 5.89739C7.14434 7.48268 5.50898 9.33999 4.16133 11.4095H4.89131L3.54238 12.4091C3.33223 12.7667 3.13066 13.1299 2.9375 13.4986L3.58164 15.5208L2.37988 14.6301C2.08115 15.2757 1.80791 15.9358 1.5623 16.6097L2.27197 18.8377H4.89131L2.77217 20.4081L3.58164 22.949L1.4626 21.3787L0.193262 22.3194C0.0662109 23.3611 0 24.4221 0 25.499H25C25 11.4159 25 9.75556 25 -0.000976562C20.0613 -0.000976562 15.4575 1.46029 11.5805 3.98121V3.98121ZM12.549 22.949L10.43 21.3787L8.31094 22.949L9.12041 20.4081L7.00127 18.8377H9.62061L10.43 16.2968L11.2394 18.8377H13.8587L11.7396 20.4081L12.549 22.949ZM11.7396 12.9798L12.549 15.5208L10.43 13.9504L8.31094 15.5208L9.12041 12.9798L7.00127 11.4095H9.62061L10.43 8.86854L11.2394 11.4095H13.8587L11.7396 12.9798ZM21.5164 22.949L19.3974 21.3787L17.2783 22.949L18.0878 20.4081L15.9687 18.8377H18.588L19.3974 16.2968L20.2067 18.8377H22.8261L20.7069 20.4081L21.5164 22.949ZM20.7069 12.9798L21.5164 15.5208L19.3974 13.9504L17.2783 15.5208L18.0878 12.9798L15.9687 11.4095H18.588L19.3974 8.86854L20.2067 11.4095H22.8261L20.7069 12.9798ZM20.7069 5.55155L21.5164 8.09248L19.3974 6.52214L17.2783 8.09248L18.0878 5.55155L15.9687 3.98121H18.588L19.3974 1.44027L20.2067 3.98121H22.8261L20.7069 5.55155Z" fill="#0052B4"/>
</g>
<defs>
<clipPath id="clip0_105_2774">
<rect width="50" height="51" fill="white" transform="translate(0 -0.000976562)"/>
</clipPath>
</defs>
</svg>
