<svg width="50" height="51" viewBox="0 0 50 51" fill="none" xmlns="http://www.w3.org/2000/svg">
<g clip-path="url(#clip0_105_2602)">
<path d="M25 51C38.8071 51 50 39.5833 50 25.5C50 11.4167 38.8071 0 25 0C11.1929 0 0 11.4167 0 25.5C0 39.5833 11.1929 51 25 51Z" fill="#FFDA44"/>
<path d="M7.32236 43.5312C8.37109 44.6009 9.49004 45.5548 10.6638 46.3947L45.4851 10.8769C44.6618 9.67972 43.7265 8.5384 42.6777 7.4687C41.6289 6.39899 40.5101 5.44513 39.3363 4.60522L4.51514 40.123C5.33838 41.3199 6.27373 42.4614 7.32236 43.5312V43.5312Z" fill="black"/>
<path d="M7.32228 7.46882C-0.564638 15.5137 -2.0788 27.5954 2.77696 37.1921L36.4627 2.83271C27.0542 -2.12017 15.2093 -0.575629 7.32228 7.46882V7.46882Z" fill="#6DA544"/>
<path d="M42.6777 43.5313C50.5646 35.4867 52.0787 23.4048 47.2231 13.8081L13.5374 48.1676C22.9457 53.1204 34.7907 51.576 42.6777 43.5313Z" fill="#338AF3"/>
</g>
<defs>
<clipPath id="clip0_105_2602">
<rect width="50" height="51" fill="white"/>
</clipPath>
</defs>
</svg>
