<svg width="50" height="51" viewBox="0 0 50 51" fill="none" xmlns="http://www.w3.org/2000/svg">
<g clip-path="url(#clip0_105_865)">
<path d="M50 25.5C50 39.5832 38.807 51 25 51C11.193 51 0 39.5832 0 25.5C0 25.506 25 0.00288867 25 0C38.807 0 50 11.4168 50 25.5Z" fill="#0052B4"/>
<path d="M24.9998 0C24.9984 0 24.997 0.001 24.9956 0.001L24.9998 0Z" fill="#F0F0F0"/>
<path d="M24.9331 25.4999H25C25 25.4768 25 25.4547 25 25.4316C24.9777 25.4545 24.9555 25.4772 24.9331 25.4999Z" fill="#F0F0F0"/>
<path d="M25 13.3043C25 8.81742 25 5.87725 25 0H24.9958C11.1906 0.00229102 0 11.418 0 25.4999H13.0435V18.0081L20.3884 25.4999H24.9332C24.9556 25.4772 24.9778 25.4545 25.0001 25.4317C25.0001 23.7137 25.0001 22.1808 25.0001 20.7962L17.6551 13.3043H25Z" fill="#F0F0F0"/>
<path d="M12.6479 3.32617C8.73779 5.59717 5.48721 8.91276 3.26074 12.901V25.5001H9.78252V9.97848V9.97839H24.9999C24.9999 7.88031 24.9999 5.88155 24.9999 3.32617H12.6479Z" fill="#D80027"/>
<path d="M24.9999 22.3644L16.1178 13.3047H13.0435C13.0435 13.3046 13.0435 13.3047 13.0435 13.3047L24.9998 25.5002H24.9999C24.9999 25.5002 24.9999 23.3382 24.9999 22.3644Z" fill="#D80027"/>
<path d="M15.0774 29.9346L16.4495 32.8609L19.5479 32.1305L18.1604 35.0492L20.652 37.0646L17.5497 37.7778L17.5584 41.0215L15.0774 38.9922L12.5966 41.0215L12.6053 37.7778L9.50293 37.0646L11.9946 35.0492L10.6069 32.1305L13.7055 32.8609L15.0774 29.9346Z" fill="#F0F0F0"/>
<path d="M37.4298 35.478L38.1158 36.9412L39.665 36.5759L38.9712 38.0353L40.2171 39.043L38.6659 39.3996L38.6702 41.0215L37.4298 40.0068L36.1894 41.0215L36.1937 39.3996L34.6426 39.043L35.8884 38.0353L35.1946 36.5759L36.7437 36.9412L37.4298 35.478Z" fill="#F0F0F0"/>
<path d="M31.048 19.9565L31.734 21.4198L33.2832 21.0544L32.5895 22.5138L33.8353 23.5216L32.2842 23.8782L32.2884 25.5L31.048 24.4853L29.8076 25.5L29.8118 23.8782L28.2607 23.5216L29.5065 22.5138L28.8128 21.0544L30.362 21.4198L31.048 19.9565Z" fill="#F0F0F0"/>
<path d="M37.4298 11.0869L38.1158 12.5502L39.665 12.1849L38.9713 13.6443L40.217 14.6519L38.6659 15.0086L38.6702 16.6305L37.4298 15.6158L36.1894 16.6305L36.1937 15.0086L34.6426 14.6519L35.8883 13.6443L35.1946 12.1849L36.7437 12.5502L37.4298 11.0869Z" fill="#F0F0F0"/>
<path d="M43.0046 17.7393L43.6905 19.2025L45.2397 18.8372L44.546 20.2965L45.7918 21.3043L44.2406 21.661L44.2449 23.2827L43.0046 22.2681L41.7642 23.2827L41.7684 21.661L40.2173 21.3043L41.4631 20.2965L40.7693 18.8372L42.3185 19.2025L43.0046 17.7393Z" fill="#F0F0F0"/>
<path d="M39.0183 25.5L39.5578 27.194H41.3041L39.8913 28.241L40.4311 29.9348L39.0183 28.8879L37.6056 29.9348L38.1451 28.241L36.7324 27.194H38.4786L39.0183 25.5Z" fill="#F0F0F0"/>
</g>
<defs>
<clipPath id="clip0_105_865">
<rect width="50" height="51" fill="white"/>
</clipPath>
</defs>
</svg>
