<svg width="50" height="51" viewBox="0 0 50 51" fill="none" xmlns="http://www.w3.org/2000/svg">
<g clip-path="url(#clip0_105_2265)">
<path d="M25 51C38.8071 51 50 39.5833 50 25.5C50 11.4167 38.8071 0 25 0C11.1929 0 0 11.4167 0 25.5C0 39.5833 11.1929 51 25 51Z" fill="#FCFCFC"/>
<path d="M32.6083 21.0652V23.2826H35.5919C34.3468 25.0477 32.6883 26.4886 30.7613 27.4589C30.267 26.9351 29.5729 26.6086 28.8039 26.6086C27.5075 26.6086 26.4239 27.5349 26.1525 28.774C25.7727 28.808 25.3882 28.8261 24.9996 28.8261C24.611 28.8261 24.2266 28.8078 23.8467 28.774C23.5753 27.535 22.4917 26.6086 21.1953 26.6086C20.4263 26.6086 19.7324 26.9351 19.2379 27.4589C17.3109 26.4887 15.6525 25.0476 14.4074 23.2826H17.3909V21.0652H9.78223C9.78223 29.6375 16.5954 36.5869 24.9996 36.5869C33.404 36.5869 40.217 29.6375 40.217 21.0652H32.6083Z" fill="#D80027"/>
</g>
<defs>
<clipPath id="clip0_105_2265">
<rect width="50" height="51" fill="white"/>
</clipPath>
</defs>
</svg>
