<svg width="50" height="51" viewBox="0 0 50 51" fill="none" xmlns="http://www.w3.org/2000/svg">
<g clip-path="url(#clip0_105_1961)">
<path d="M25 51C38.8071 51 50 39.5833 50 25.5C50 11.4167 38.8071 0 25 0C11.1929 0 0 11.4167 0 25.5C0 39.5833 11.1929 51 25 51Z" fill="#F0F0F0"/>
<path d="M49.9996 25.5C49.9996 15.3902 44.2315 6.6549 35.8691 2.53027V48.4696C44.2315 44.3451 49.9996 35.6097 49.9996 25.5V25.5Z" fill="#D80027"/>
<path d="M0 25.5C0 35.6098 5.76807 44.3451 14.1305 48.4697V2.53027C5.76807 6.6549 0 15.3902 0 25.5Z" fill="#6DA544"/>
<path d="M18.4785 25.5001C18.4785 29.174 21.3984 32.1523 25.0003 32.1523C28.6021 32.1523 31.5221 29.174 31.5221 25.5001V23.2827H18.4785V25.5001Z" fill="#6DA544"/>
<path d="M33.6961 21.0651H27.1743C27.1743 19.8405 26.201 18.8477 25.0004 18.8477C23.7998 18.8477 22.8265 19.8405 22.8265 21.0651H16.3047C16.3047 22.2898 17.3505 23.2825 18.551 23.2825H18.4786C18.4786 24.5072 19.4519 25.4999 20.6525 25.4999C20.6525 26.7246 21.6258 27.7173 22.8265 27.7173H27.1743C28.375 27.7173 29.3482 26.7246 29.3482 25.4999C30.5489 25.4999 31.5222 24.5072 31.5222 23.2825H31.4497C32.6504 23.2825 33.6961 22.2898 33.6961 21.0651Z" fill="#FF9811"/>
</g>
<defs>
<clipPath id="clip0_105_1961">
<rect width="50" height="51" fill="white"/>
</clipPath>
</defs>
</svg>
