<svg width="50" height="51" viewBox="0 0 50 51" fill="none" xmlns="http://www.w3.org/2000/svg">
<g clip-path="url(#clip0_105_2672)">
<path d="M24.9999 0C23.1333 0 21.315 0.210475 19.5652 0.606123L18.4783 25.4999L19.5652 50.3938C21.3151 50.7894 23.1333 51 24.9999 51C38.807 51 49.9999 39.5832 49.9999 25.4999C49.9998 11.4167 38.807 0 24.9999 0V0Z" fill="#496E2D"/>
<path d="M6.52168 8.32422C2.47051 12.856 0 18.8834 0 25.4997C0 32.1159 2.47061 38.1433 6.52178 42.6753L7.60869 25.4997L6.52168 8.32422Z" fill="#496E2D"/>
<path d="M36.5645 19.2343C37.7945 15.7374 36.4127 11.9342 33.4472 10.04C33.9806 10.1109 34.5146 10.239 35.0415 10.4317C38.9969 11.8792 41.0529 16.323 39.6338 20.3574C38.2146 24.3921 33.858 26.489 29.9026 25.0415C29.3756 24.8487 28.8835 24.6011 28.4277 24.31C31.8975 24.7709 35.3346 22.7312 36.5645 19.2343V19.2343Z" fill="#F0F0F0"/>
<path d="M29.7425 9.08154L28.6737 10.4902L27.0302 9.88868L28.0132 11.3607L26.9446 12.7692L28.6209 12.2705L29.6041 13.7424L29.6568 11.9621L31.3332 11.4634L29.6897 10.8621L29.7425 9.08154Z" fill="#F0F0F0"/>
<path d="M32.6284 13.6714L31.5595 15.08L29.916 14.4784L30.8991 15.9504L29.8303 17.3589L31.5066 16.8601L32.4898 18.3322L32.5427 16.5519L34.219 16.053L32.5754 15.4516L32.6284 13.6714Z" fill="#F0F0F0"/>
<path d="M24.6542 10.7534L23.5853 12.1619L21.9418 11.5606L22.925 13.0325L21.8562 14.4411L23.5324 13.9423L24.5156 15.4142L24.5685 13.634L26.2448 13.1353L24.6013 12.5337L24.6542 10.7534Z" fill="#F0F0F0"/>
<path d="M24.5371 16.0107L23.4683 17.4193L21.8248 16.8179L22.808 18.2899L21.739 19.6984L23.4155 19.1997L24.3986 20.6716L24.4514 18.8913L26.1278 18.3926L24.4841 17.7911L24.5371 16.0107Z" fill="#F0F0F0"/>
<path d="M29.4418 17.8057L28.373 19.2141L26.7295 18.6127L27.7127 20.0847L26.6438 21.4931L28.3203 20.9945L29.3034 22.4665L29.3562 20.6861L31.0326 20.1874L29.3889 19.586L29.4418 17.8057Z" fill="#F0F0F0"/>
<path d="M6.52173 8.32429V42.6753C9.92798 46.4857 14.4524 49.2374 19.5652 50.3935V0.605957C14.4523 1.76202 9.92808 4.51373 6.52173 8.32429V8.32429Z" fill="#D80027"/>
<path d="M11.4994 13.4257L9.31567 11.7664V9.41994L11.4994 7.76074H14.5877L16.7714 9.41994V11.7664L14.5877 13.4257H11.4994Z" fill="#F0F0F0"/>
<path d="M13.0436 7.76074H11.4994L9.31567 9.41994V10.5671H13.0436V7.76074Z" fill="#FF9811"/>
<path d="M13.0437 13.4256H14.5878L16.7715 11.7663V10.5693H13.0437V13.4256Z" fill="#FF9811"/>
<path d="M11.4994 43.2387L9.31567 41.5794V39.233L11.4994 37.5737H14.5877L16.7714 39.233V41.5794L14.5877 43.2387H11.4994Z" fill="#F0F0F0"/>
<path d="M13.0436 37.5737H11.4994L9.31567 39.233V40.3802H13.0436V37.5737Z" fill="#FF9811"/>
<path d="M13.0437 43.2385H14.5878L16.7715 41.5792V40.3823H13.0437V43.2385Z" fill="#FF9811"/>
<path d="M11.4994 28.3325L9.31567 26.6732V24.3268L11.4994 22.6675H14.5877L16.7714 24.3268V26.6732L14.5877 28.3325H11.4994Z" fill="#496E2D"/>
<path d="M16.8479 31.9832H15.8967V31.0131H14.2253L13.0435 29.8076L11.8617 31.0131H10.1903V31.9832H9.23926V33.9234H10.1903V34.8935H11.8616L13.0436 36.099L14.2253 34.8935H15.8967V33.9234H16.8479V31.9832Z" fill="#496E2D"/>
<path d="M16.8479 17.0765H15.8967V16.1064H14.2253L13.0435 14.9009L11.8617 16.1064H10.1903V17.0765H9.23926V19.0167H10.1903V19.9868H11.8616L13.0436 21.1925L14.2253 19.9868H15.8967V19.0167H16.8479V17.0765Z" fill="#496E2D"/>
<path d="M11.9565 24.3911H14.1305V26.6085H11.9565V24.3911Z" fill="#D80027"/>
<path d="M13.0435 19.1548C13.6437 19.1548 14.1304 18.6584 14.1304 18.0462C14.1304 17.4339 13.6437 16.9375 13.0435 16.9375C12.4432 16.9375 11.9565 17.4339 11.9565 18.0462C11.9565 18.6584 12.4432 19.1548 13.0435 19.1548Z" fill="#D80027"/>
<path d="M13.0435 34.062C13.6437 34.062 14.1304 33.5657 14.1304 32.9534C14.1304 32.3411 13.6437 31.8447 13.0435 31.8447C12.4432 31.8447 11.9565 32.3411 11.9565 32.9534C11.9565 33.5657 12.4432 34.062 13.0435 34.062Z" fill="#D80027"/>
</g>
<defs>
<clipPath id="clip0_105_2672">
<rect width="50" height="51" fill="white"/>
</clipPath>
</defs>
</svg>
