<svg width="50" height="51" viewBox="0 0 50 51" fill="none" xmlns="http://www.w3.org/2000/svg">
<g clip-path="url(#clip0_105_1719)">
<path d="M25 51C38.8071 51 50 39.5833 50 25.5C50 11.4167 38.8071 0 25 0C11.1929 0 0 11.4167 0 25.5C0 39.5833 11.1929 51 25 51Z" fill="#F0F0F0"/>
<path d="M34.4137 19.9565H28.138L25.0003 14.4131L21.8627 19.9565H15.5869L18.725 25.5L15.5869 31.0435H21.8627L25.0003 36.5869L28.138 31.0435H34.4137L31.2756 25.5L34.4137 19.9565ZM28.8553 25.5L26.9279 28.9055H23.073L21.1453 25.5L23.0729 22.0946H26.9278L28.8553 25.5ZM25.0003 18.689L25.7177 19.9564H24.2831L25.0003 18.689ZM19.2177 22.0946H20.6524L19.9351 23.362L19.2177 22.0946ZM19.2177 28.9055L19.9352 27.638L20.6525 28.9055H19.2177ZM25.0003 32.3109L24.283 31.0435H25.7177L25.0003 32.3109ZM30.7829 28.9055H29.3481L30.0656 27.638L30.7829 28.9055ZM29.3481 22.0946H30.7829L30.0655 23.362L29.3481 22.0946Z" fill="#0052B4"/>
<path d="M40.5623 5.54346H9.43789C7.15635 7.39699 5.19971 9.64836 3.66943 12.1957H46.3308C44.8004 9.64846 42.8437 7.39699 40.5623 5.54346V5.54346Z" fill="#0052B4"/>
<path d="M9.43789 45.4564H40.5622C42.8437 43.6029 44.8004 41.3515 46.3307 38.8042H3.66943C5.1998 41.3514 7.15645 43.6029 9.43789 45.4564V45.4564Z" fill="#0052B4"/>
</g>
<defs>
<clipPath id="clip0_105_1719">
<rect width="50" height="51" fill="white"/>
</clipPath>
</defs>
</svg>
