<svg width="50" height="51" viewBox="0 0 50 51" fill="none" xmlns="http://www.w3.org/2000/svg">
<g clip-path="url(#clip0_105_1771)">
<path d="M0 25.5C0 11.4168 11.193 0 25 0C38.807 0 50 11.4168 50 25.5" fill="#D80027"/>
<path d="M33.6954 23.7152L30.1422 25.4199L32.0344 28.93L28.1761 28.177L27.6872 32.1527L24.9998 29.2286L22.3123 32.1527L21.8235 28.177L17.9652 28.9298L19.8573 25.4199L16.3042 23.7152L19.8573 22.0103L17.9652 18.5006L21.8234 19.2532L22.3124 15.2778L24.9998 18.2017L27.6873 15.2778L28.1761 19.2532L32.0345 18.5006L30.1425 22.0106L33.6954 23.7152Z" fill="#FFDA44"/>
<path d="M31.5216 8.31542H26.6303C26.6303 7.39712 25.9002 6.65234 24.9998 6.65234C24.0994 6.65234 23.3693 7.39702 23.3693 8.31542H18.478C18.478 9.23382 19.2624 9.9785 20.1628 9.9785H20.1084C20.1084 10.8969 20.8383 11.6416 21.7389 11.6416C21.7389 12.56 22.4688 13.3047 23.3693 13.3047H26.6302C27.5305 13.3047 28.2606 12.5601 28.2606 11.6416C29.1609 11.6416 29.8911 10.897 29.8911 9.9785H29.8367C30.7372 9.9785 31.5216 9.23392 31.5216 8.31542V8.31542Z" fill="#FFDA44"/>
<path d="M50 25.5C50 39.5832 38.807 51 25 51C11.193 51 0 39.5832 0 25.5H50Z" fill="#F0F0F0"/>
<path d="M25 50.9997C32.8146 50.9997 39.7906 47.3416 44.3752 41.6137C43.5506 41.0402 43.1054 40.1133 41.6663 40.1133C39.583 40.1133 39.583 42.0563 37.4998 42.0563C35.4166 42.0563 35.4165 40.1133 33.3333 40.1133C31.25 40.1133 31.25 42.0563 29.1666 42.0563C27.0832 42.0563 27.0831 40.1133 24.9996 40.1133C22.9163 40.1133 22.9163 42.0563 20.8331 42.0563C18.7501 42.0563 18.7501 40.1133 16.6668 40.1133C14.5833 40.1133 14.5833 42.0563 12.4998 42.0563C10.4163 42.0563 10.4163 40.1133 8.33281 40.1133C6.89395 40.1133 6.44873 41.04 5.62451 41.6135C10.2089 47.3416 17.1853 50.9997 25 50.9997V50.9997Z" fill="#0052B4"/>
<path d="M45.8332 28.7521C43.7499 28.7521 43.7499 26.8091 41.6665 26.8091C39.5832 26.8091 39.5832 28.7521 37.5 28.7521C35.4168 28.7521 35.4167 26.8091 33.3335 26.8091C31.2502 26.8091 31.2502 28.7521 29.1668 28.7521C27.0834 28.7521 27.0833 26.8091 24.9998 26.8091C22.9165 26.8091 22.9165 28.7521 20.8333 28.7521C18.7503 28.7521 18.7503 26.8091 16.667 26.8091C14.5835 26.8091 14.5835 28.7521 12.5 28.7521C10.4165 28.7521 10.4165 26.8091 8.33301 26.8091C6.25 26.8091 6.25 28.7521 4.1667 28.7521C2.09463 28.7521 2.08262 26.8305 0.0327148 26.81C0.0904297 27.9764 0.226953 29.1215 0.433398 30.2413C2.09395 30.4902 2.23936 32.152 4.1668 32.152C6.2501 32.152 6.2501 30.2092 8.33311 30.2092C10.4166 30.2092 10.4166 32.152 12.5001 32.152C14.5836 32.152 14.5836 30.2092 16.6671 30.2092C18.7504 30.2092 18.7504 32.152 20.8334 32.152C22.9167 32.152 22.9167 30.2092 24.9999 30.2092C27.0834 30.2092 27.0834 32.152 29.1669 32.152C31.2504 32.152 31.2504 30.2092 33.3336 30.2092C35.4169 30.2092 35.4169 32.152 37.5001 32.152C39.5833 32.152 39.5834 30.2092 41.6666 30.2092C43.7501 30.2092 43.7501 32.152 45.8333 32.152C47.7609 32.152 47.9063 30.4903 49.567 30.2414C49.7735 29.1215 49.9099 27.9765 49.9679 26.8101C47.9176 26.8307 47.9054 28.7521 45.8332 28.7521V28.7521Z" fill="#0052B4"/>
<path d="M41.6665 33.4614C39.5832 33.4614 39.5832 35.4044 37.5 35.4044C35.4168 35.4044 35.4167 33.4614 33.3335 33.4614C31.2502 33.4614 31.2502 35.4044 29.1668 35.4044C27.0833 35.4044 27.0833 33.4614 24.9998 33.4614C22.9165 33.4614 22.9165 35.4044 20.8333 35.4044C18.7503 35.4044 18.7503 33.4614 16.667 33.4614C14.5835 33.4614 14.5835 35.4044 12.5 35.4044C10.4165 35.4044 10.4165 33.4614 8.33301 33.4614C6.25 33.4614 6.25 35.4044 4.1667 35.4044C2.67813 35.4044 2.25293 34.4127 1.37158 33.8461C1.9583 35.5752 2.72158 37.2201 3.64082 38.7577C3.80068 38.7877 3.97471 38.8044 4.1667 38.8044C6.25 38.8044 6.25 36.8616 8.33301 36.8616C10.4165 36.8616 10.4165 38.8044 12.5 38.8044C14.5835 38.8044 14.5835 36.8616 16.667 36.8616C18.7503 36.8616 18.7503 38.8044 20.8333 38.8044C22.9166 38.8044 22.9166 36.8616 24.9998 36.8616C27.0833 36.8616 27.0833 38.8044 29.1668 38.8044C31.2503 38.8044 31.2503 36.8616 33.3335 36.8616C35.4168 36.8616 35.4168 38.8044 37.5 38.8044C39.5832 38.8044 39.5833 36.8616 41.6665 36.8616C43.75 36.8616 43.75 38.8044 45.8332 38.8044C46.0254 38.8044 46.1994 38.7877 46.3593 38.7576C47.2785 37.2201 48.0417 35.5752 48.6287 33.8462C47.7473 34.4125 47.322 35.4044 45.8332 35.4044C43.75 35.4044 43.75 33.4614 41.6665 33.4614Z" fill="#0052B4"/>
<path d="M49.9225 23.4856C47.9176 23.5339 47.8899 25.4264 45.833 25.4264C43.7497 25.4264 43.7497 23.4834 41.6663 23.4834C39.583 23.4834 39.583 25.4264 37.4998 25.4264C35.4166 25.4264 35.4165 23.4834 33.3333 23.4834C31.25 23.4834 31.25 25.4264 29.1666 25.4264C27.0832 25.4264 27.0831 23.4834 24.9996 23.4834C22.9163 23.4834 22.9163 25.4264 20.8331 25.4264C18.7501 25.4264 18.7501 23.4834 16.6668 23.4834C14.5833 23.4834 14.5833 25.4264 12.4998 25.4264C10.4163 25.4264 10.4163 23.4834 8.33281 23.4834C6.2498 23.4834 6.2498 25.4264 4.1665 25.4264C2.10996 25.4264 2.08213 23.5341 0.0774414 23.4856C0.0265625 24.1504 0 24.8221 0 25.5002C0 25.9647 0.0128906 26.4262 0.037207 26.8845C2.08242 26.9079 2.096 28.8262 4.1666 28.8262C6.2499 28.8262 6.2499 26.8835 8.33291 26.8835C10.4164 26.8835 10.4164 28.8262 12.4999 28.8262C14.5834 28.8262 14.5834 26.8835 16.6669 26.8835C18.7502 26.8835 18.7502 28.8262 20.8332 28.8262C22.9165 28.8262 22.9165 26.8835 24.9997 26.8835C27.0832 26.8835 27.0832 28.8262 29.1667 28.8262C31.2502 28.8262 31.2502 26.8835 33.3334 26.8835C35.4167 26.8835 35.4167 28.8262 37.4999 28.8262C39.5831 28.8262 39.5832 26.8835 41.6664 26.8835C43.7499 26.8835 43.7499 28.8262 45.8331 28.8262C47.9039 28.8262 47.9175 26.9079 49.9631 26.8845C49.9871 26.4261 50 25.9647 50 25.5002C50 24.8221 49.9734 24.1504 49.9225 23.4856V23.4856Z" fill="#F0F0F0"/>
</g>
<defs>
<clipPath id="clip0_105_1771">
<rect width="50" height="51" fill="white"/>
</clipPath>
</defs>
</svg>
