<svg width="51" height="51" viewBox="0 0 51 51" fill="none" xmlns="http://www.w3.org/2000/svg">
<g clip-path="url(#clip0_105_1119)">
<path d="M50.9893 25.5C50.9893 22.3808 50.4393 19.3928 49.4343 16.6305L25.9893 15.5217L2.54424 16.6304C1.53936 19.3928 0.989258 22.3808 0.989258 25.5C0.989258 28.6192 1.53936 31.6071 2.54424 34.3695L25.9893 35.4783L49.4343 34.3696C50.4393 31.6071 50.9893 28.6192 50.9893 25.5Z" fill="#496E2D"/>
<path d="M25.9893 51.0001C36.7384 51.0001 45.902 44.08 49.4343 34.3696H2.54425C6.07657 44.08 15.2401 51.0001 25.9893 51.0001Z" fill="#D80027"/>
<path d="M2.54425 16.6305H49.4344C45.902 6.92006 36.7384 0 25.9893 0C15.2401 0 6.07657 6.92006 2.54425 16.6305V16.6305Z" fill="#F0F0F0"/>
</g>
<defs>
<clipPath id="clip0_105_1119">
<rect width="50" height="51" fill="white" transform="translate(0.989258)"/>
</clipPath>
</defs>
</svg>
