<svg width="50" height="51" viewBox="0 0 50 51" fill="none" xmlns="http://www.w3.org/2000/svg">
<g clip-path="url(#clip0_105_1441)">
<path d="M25 51C38.8071 51 50 39.5833 50 25.5C50 11.4167 38.8071 0 25 0C11.1929 0 0 11.4167 0 25.5C0 39.5833 11.1929 51 25 51Z" fill="#F0F0F0"/>
<path d="M49.7884 22.1739H28.261H28.2609V0.215854C27.1935 0.0741094 26.1052 0 25 0C23.8948 0 22.8065 0.0741094 21.7392 0.215854V22.1737V22.1738H0.211621C0.0726563 23.2627 0 24.3725 0 25.5C0 26.6275 0.0726563 27.7373 0.211621 28.8261H21.739H21.7391V50.7841C22.8065 50.9259 23.8948 51 25 51C26.1052 51 27.1935 50.926 28.2608 50.7841V28.8263V28.8262H49.7884C49.9273 27.7373 50 26.6275 50 25.5C50 24.3725 49.9273 23.2627 49.7884 22.1739V22.1739Z" fill="#D80027"/>
</g>
<defs>
<clipPath id="clip0_105_1441">
<rect width="50" height="51" fill="white"/>
</clipPath>
</defs>
</svg>
