<svg width="50" height="51" viewBox="0 0 50 51" fill="none" xmlns="http://www.w3.org/2000/svg">
<g clip-path="url(#clip0_105_1864)">
<path d="M25 51C38.8071 51 50 39.5833 50 25.5C50 11.4167 38.8071 0 25 0C11.1929 0 0 11.4167 0 25.5C0 39.5833 11.1929 51 25 51Z" fill="#496E2D"/>
<path d="M29.348 24.4367C28.7344 24.4367 28.1518 24.5615 27.6107 24.7601C27.9071 24.0864 28.1059 23.3367 28.1059 22.5361C28.1059 19.3685 25.0003 16.9927 25.0003 16.9927C25.0003 16.9927 21.8947 19.3685 21.8947 22.5361C21.8947 23.3366 22.0935 24.0864 22.3898 24.7601C21.8487 24.5617 21.2661 24.4367 20.6525 24.4367C17.547 24.4367 15.2178 27.6044 15.2178 27.6044C15.2178 27.6044 17.547 30.7721 20.6525 30.7721C22.4733 30.7721 24.0263 29.6836 25.0004 28.7825C25.9745 29.6835 27.5274 30.7721 29.3482 30.7721C32.4538 30.7721 34.783 27.6044 34.783 27.6044C34.783 27.6044 32.4536 24.4367 29.348 24.4367V24.4367Z" fill="#F0F0F0"/>
<path d="M25.0001 9.97803L25.6416 11.9917H27.7175L26.0383 13.2364L26.6793 15.2502L25.0001 14.0054L23.3209 15.2502L23.9619 13.2364L22.2827 11.9917H24.3586L25.0001 9.97803Z" fill="#FFDA44"/>
<path d="M17.1061 13.5L18.3402 14.6334L19.7784 13.7865L19.103 15.3339L20.3371 16.4675L18.6855 16.2904L18.0102 17.8378L17.6646 16.181L16.0132 16.0039L17.4513 15.1568L17.1061 13.5Z" fill="#FFDA44"/>
<path d="M11.3276 19.3946L12.9521 19.7467L13.7824 18.2798L13.9561 19.9643L15.5803 20.3167L14.0633 21.0057L14.2369 22.6901L13.1255 21.4315L11.6085 22.1204L12.4389 20.6534L11.3276 19.3946Z" fill="#FFDA44"/>
<path d="M32.894 13.5L31.66 14.6334L30.2218 13.7865L30.8971 15.3339L29.6631 16.4675L31.3147 16.2904L31.99 17.8378L32.3355 16.181L33.987 16.0039L32.5489 15.1568L32.894 13.5Z" fill="#FFDA44"/>
<path d="M38.6726 19.3946L37.0481 19.7467L36.2179 18.2798L36.0441 19.9643L34.4199 20.3167L35.9369 21.0057L35.7633 22.6901L36.8747 21.4315L38.3917 22.1204L37.5613 20.6534L38.6726 19.3946Z" fill="#FFDA44"/>
<path d="M24.9997 39.6417C27.4666 39.6417 29.7404 38.8022 31.5645 37.3896H18.4351C20.2591 38.8021 22.5328 39.6417 24.9997 39.6417Z" fill="#F0F0F0"/>
<path d="M15.0356 32.9897C15.3807 33.7952 15.8182 34.5495 16.332 35.2418H33.6678C34.1816 34.5496 34.6191 33.7952 34.9642 32.9897H15.0356Z" fill="#F0F0F0"/>
</g>
<defs>
<clipPath id="clip0_105_1864">
<rect width="50" height="51" fill="white"/>
</clipPath>
</defs>
</svg>
