<svg width="50" height="51" viewBox="0 0 50 51" fill="none" xmlns="http://www.w3.org/2000/svg">
<g clip-path="url(#clip0_105_1797)">
<path d="M25 51C38.8071 51 50 39.5833 50 25.5C50 11.4167 38.8071 0 25 0C11.1929 0 0 11.4167 0 25.5C0 39.5833 11.1929 51 25 51Z" fill="#D80027"/>
<path d="M37.2262 25.4998L32.2306 27.8966L34.8909 32.8319L29.4658 31.7732L28.7787 37.3629L24.9999 33.252L21.2213 37.3629L20.5339 31.7732L15.1093 32.8317L17.7695 27.8964L12.7737 25.4998L17.7695 23.1031L15.1093 18.1677L20.5337 19.2265L21.2215 13.6367L24.9999 17.7477L28.7789 13.6367L29.4658 19.2265L34.8911 18.1677L32.2307 23.1034L37.2262 25.4998Z" fill="#FFDA44"/>
<path d="M25 33.261C29.2022 33.261 32.6087 29.7863 32.6087 25.5001C32.6087 21.2139 29.2022 17.7393 25 17.7393C20.7979 17.7393 17.3914 21.2139 17.3914 25.5001C17.3914 29.7863 20.7979 33.261 25 33.261Z" fill="#D80027"/>
<path d="M21.1957 25.5C21.0124 25.5 20.8314 25.5096 20.6528 25.5277C20.6594 26.6026 21.0406 27.5864 21.6703 28.3507C22.0063 27.4286 22.5078 26.5878 23.1403 25.8683C22.5362 25.6313 21.8809 25.5 21.1957 25.5Z" fill="#FFDA44"/>
<path d="M23.5376 29.6771C23.9946 29.8436 24.4867 29.935 25 29.935C25.5133 29.935 26.0054 29.8436 26.4624 29.6771C26.2133 28.6798 25.6989 27.7895 25 27.0898C24.3011 27.7894 23.7867 28.6798 23.5376 29.6771Z" fill="#FFDA44"/>
<path d="M28.7651 23.2835C28.0134 21.9581 26.6094 21.0654 25 21.0654C23.3906 21.0654 21.9866 21.958 21.2349 23.2835C22.6054 23.2906 23.8905 23.6707 25 24.327C26.1095 23.6707 27.3944 23.2906 28.7651 23.2835Z" fill="#FFDA44"/>
<path d="M26.8596 25.8687C27.4921 26.5882 27.9937 27.429 28.3296 28.3512C28.9593 27.5869 29.3406 26.6031 29.3471 25.5282C29.1684 25.5099 28.9875 25.5005 28.8042 25.5005C28.1193 25.5004 27.4639 25.6317 26.8596 25.8687V25.8687Z" fill="#FFDA44"/>
</g>
<defs>
<clipPath id="clip0_105_1797">
<rect width="50" height="51" fill="white"/>
</clipPath>
</defs>
</svg>
