<svg width="50" height="51" viewBox="0 0 50 51" fill="none" xmlns="http://www.w3.org/2000/svg">
<g clip-path="url(#clip0_105_1140)">
<path d="M0 25.5C0 29.9177 1.10186 34.0728 3.03975 37.6957L25 39.9131L46.9603 37.6957C48.8981 34.0728 50 29.9177 50 25.5C50 21.0823 48.8981 16.9272 46.9603 13.3043L25 11.0869L3.03975 13.3043C1.10186 16.9272 0 21.0823 0 25.5H0Z" fill="#D80027"/>
<path d="M3.03955 13.3043H46.96C42.7199 5.37781 34.4759 0 24.9998 0C15.5237 0 7.27969 5.37781 3.03955 13.3043V13.3043Z" fill="#0052B4"/>
<path d="M24.9998 51C34.4759 51 42.7199 45.6222 46.9601 37.6957H3.03955C7.27969 45.6222 15.5237 51 24.9998 51Z" fill="#0052B4"/>
<path d="M33.6955 30.4891V27.1631H31.5217V22.7283L29.3478 20.5109L27.1738 22.7283V18.2935L24.9999 16.076L22.826 18.2935V22.7283L20.6521 20.5109L18.4781 22.7283V27.1631H16.3043V30.4891H14.1304V33.8152H35.8694V30.4891H33.6955Z" fill="#F0F0F0"/>
</g>
<defs>
<clipPath id="clip0_105_1140">
<rect width="50" height="51" fill="white"/>
</clipPath>
</defs>
</svg>
