<svg width="50" height="51" viewBox="0 0 50 51" fill="none" xmlns="http://www.w3.org/2000/svg">
<g clip-path="url(#clip0_105_1268)">
<path d="M25 51C38.8071 51 50 39.5833 50 25.5C50 11.4167 38.8071 0 25 0C11.1929 0 0 11.4167 0 25.5C0 39.5833 11.1929 51 25 51Z" fill="#F0F0F0"/>
<path d="M49.999 25.4262H22.8984C17.5179 30.9145 14.2642 35.1516 10.9419 38.5403L25.0724 39.8392L46.9995 37.6218C48.9131 34.0164 49.9999 29.8877 49.9999 25.5C49.9999 25.4753 49.999 25.4509 49.999 25.4262V25.4262Z" fill="#D80027"/>
<path d="M10.9422 13.2305H46.9199C42.6682 5.34464 34.4465 0 25.0001 0C18.1148 0 11.8809 2.83996 7.35986 7.43325L10.9422 13.2305Z" fill="#FFDA44"/>
<path d="M12.029 37.6218C9.78149 39.9142 8.91294 41.8348 7.28687 43.4933C11.8137 48.1299 18.0779 51 25 51C34.5054 51 42.7714 45.5887 46.9997 37.6218H12.029Z" fill="#0052B4"/>
<path d="M7.32231 7.3949C-2.44077 17.3532 -2.44077 33.499 7.32231 43.4575C11.3568 39.3423 15.237 35.3845 25 25.4262L7.32231 7.3949Z" fill="#6DA544"/>
<path d="M6.59419 25.4262C6.59419 21.711 9.15405 18.6073 12.5724 17.8458C12.047 17.7288 11.5019 17.6653 10.9419 17.6653C6.7397 17.6653 3.33325 21.1399 3.33325 25.4262C3.33325 29.7125 6.7397 33.1871 10.9419 33.1871C11.5018 33.1871 12.0469 33.1236 12.5724 33.0066C9.15405 32.2451 6.59419 29.1414 6.59419 25.4262V25.4262Z" fill="#F0F0F0"/>
<path d="M12.4885 18.774L12.8933 20.0444H14.2029L13.1433 20.8296L13.5481 22.1L12.4885 21.3149L11.429 22.1L11.8337 20.8296L10.7742 20.0444H12.0837L12.4885 18.774Z" fill="#F0F0F0"/>
<path d="M12.4885 22.1L12.8933 23.3706H14.2029L13.1433 24.1557L13.5481 25.4262L12.4885 24.641L11.429 25.4262L11.8337 24.1557L10.7742 23.3706H12.0837L12.4885 22.1Z" fill="#F0F0F0"/>
<path d="M12.4885 25.4262L12.8933 26.6966H14.2029L13.1433 27.4818L13.5481 28.7523L12.4885 27.967L11.429 28.7523L11.8337 27.4818L10.7742 26.6966H12.0837L12.4885 25.4262Z" fill="#F0F0F0"/>
<path d="M12.4885 28.7523L12.8933 30.0227H14.2029L13.1433 30.8079L13.5481 32.0783L12.4885 31.2932L11.429 32.0783L11.8337 30.8079L10.7742 30.0227H12.0837L12.4885 28.7523Z" fill="#F0F0F0"/>
</g>
<defs>
<clipPath id="clip0_105_1268">
<rect width="50" height="51" fill="white"/>
</clipPath>
</defs>
</svg>
