<svg width="50" height="52" viewBox="0 0 50 52" fill="none" xmlns="http://www.w3.org/2000/svg">
<g clip-path="url(#clip0_105_2589)">
<path d="M2.48066 14.994C0.891406 18.3465 0 22.1075 0 26.0809C0 30.0544 0.891406 33.8154 2.48066 37.1679L25 39.3853L47.5193 37.1679C49.1086 33.8154 50 30.0544 50 26.0809C50 22.1075 49.1086 18.3465 47.5193 14.994L25 12.7766L2.48066 14.994Z" fill="#F0F0F0"/>
<path d="M2.48157 37.168C6.52522 45.6975 15.0886 51.581 25 51.581C34.9115 51.581 43.4749 45.6975 47.5185 37.168H2.48157Z" fill="#6DA544"/>
<path d="M2.48157 14.9941H47.5185C43.4749 6.46458 34.9115 0.581055 25 0.581055C15.0886 0.581055 6.52522 6.46458 2.48157 14.9941Z" fill="#D80027"/>
<path d="M20.6522 32.7333H29.3479V28.9636L27.6088 29.8506L25.0001 27.1897L22.3914 29.8506L20.6522 28.9636V32.7333Z" fill="#FFDA44"/>
<path d="M15.677 28.2986L16.0818 29.569H17.3914L16.3318 30.3542L16.7366 31.6246L15.677 30.8395L14.6174 31.6246L15.0222 30.3542L13.9626 29.569H15.2722L15.677 28.2986Z" fill="#FFDA44"/>
<path d="M16.9318 23.8638L17.3365 25.1342H18.6461L17.5865 25.9194L17.9912 27.1898L16.9318 26.4047L15.8722 27.1898L16.277 25.9194L15.2174 25.1342H16.527L16.9318 23.8638Z" fill="#FFDA44"/>
<path d="M20.5189 20.5376L20.9237 21.808H22.2332L21.1738 22.5932L21.5784 23.8637L20.5189 23.0785L19.4594 23.8637L19.8641 22.5932L18.8046 21.808H20.1142L20.5189 20.5376Z" fill="#FFDA44"/>
<path d="M34.3231 28.2986L33.9183 29.569H32.6088L33.6683 30.3542L33.2636 31.6246L34.3231 30.8395L35.3826 31.6246L34.9779 30.3542L36.0375 29.569H34.7279L34.3231 28.2986Z" fill="#FFDA44"/>
<path d="M33.0684 23.8638L32.6636 25.1342H31.354L32.4136 25.9194L32.0088 27.1898L33.0684 26.4047L34.1279 27.1898L33.7231 25.9194L34.7827 25.1342H33.4731L33.0684 23.8638Z" fill="#FFDA44"/>
<path d="M29.4812 20.5376L29.0764 21.808H27.767L28.8263 22.5932L28.4217 23.8637L29.4812 23.0785L30.5407 23.8637L30.136 22.5932L31.1955 21.808H29.8859L29.4812 20.5376Z" fill="#FFDA44"/>
<path d="M25 18.8745L25.4048 20.1449H26.7144L25.6548 20.9301L26.0596 22.2006L25 21.4154L23.9404 22.2006L24.3452 20.9301L23.2856 20.1449H24.5952L25 18.8745Z" fill="#FFDA44"/>
</g>
<defs>
<clipPath id="clip0_105_2589">
<rect width="50" height="51" fill="white" transform="translate(0 0.581055)"/>
</clipPath>
</defs>
</svg>
