<svg width="50" height="51" viewBox="0 0 50 51" fill="none" xmlns="http://www.w3.org/2000/svg">
<g clip-path="url(#clip0_105_1915)">
<path d="M25 51C38.807 51 50 39.5832 50 25.5C50 21.2205 48.9648 17.188 47.1385 13.6465L24.9706 25.5299L36.6211 2.91875C33.149 1.05586 29.1956 0 25 0C11.193 0 0 11.4168 0 25.5C0 32.5417 2.79824 38.9167 7.32227 43.5313C11.8464 48.1459 18.0964 51 25 51Z" fill="#0052B4"/>
<path d="M47.112 13.6742C45.9677 11.4525 44.4799 9.36662 42.6484 7.49855C40.8169 5.63047 38.7722 4.11292 36.5938 2.9458L7.29297 43.561L47.112 13.6742Z" fill="#F0F0F0"/>
<path d="M7.29297 43.561L47.112 13.6742C45.9677 11.4525 44.4799 9.36661 42.6484 7.49854L7.29297 43.561Z" fill="#FF9811"/>
<path d="M21.7097 14.9535L18.6566 16.4183L20.2825 19.4345L16.967 18.7876L16.5469 22.2038L14.2375 19.6911L11.9282 22.2038L11.5083 18.7876L8.19282 19.4343L9.81851 16.4182L6.76538 14.9535L9.8186 13.4885L8.19282 10.4726L11.5081 11.1193L11.9283 7.70312L14.2375 10.2158L16.5469 7.70312L16.967 11.1193L20.2826 10.4726L18.6567 13.4886L21.7097 14.9535Z" fill="#F0F0F0"/>
</g>
<defs>
<clipPath id="clip0_105_1915">
<rect width="50" height="51" fill="white"/>
</clipPath>
</defs>
</svg>
