<svg width="50" height="51" viewBox="0 0 50 51" fill="none" xmlns="http://www.w3.org/2000/svg">
<g clip-path="url(#clip0_105_2035)">
<path d="M25 51C38.8071 51 50 39.5833 50 25.5C50 11.4167 38.8071 0 25 0C11.1929 0 0 11.4167 0 25.5C0 39.5833 11.1929 51 25 51Z" fill="#F0F0F0"/>
<path d="M7.32197 43.5313C8.3707 44.601 9.48965 45.555 10.6634 46.3949L45.4846 10.8772C44.6612 9.67997 43.726 8.53864 42.6771 7.46894C41.6284 6.39923 40.5095 5.44538 39.3357 4.60547L4.51465 40.1232C5.33799 41.3202 6.27324 42.4616 7.32197 43.5313V43.5313Z" fill="#A2001D"/>
<path d="M7.32239 7.46882C-0.564715 15.5137 -2.07878 27.5955 2.77698 37.1921L36.4627 2.83271C27.0543 -2.12017 15.2093 -0.575629 7.32239 7.46882V7.46882Z" fill="#0052B4"/>
<path d="M42.6774 43.5313C50.5644 35.4867 52.0784 23.4048 47.2229 13.8081L13.5371 48.1676C22.9454 53.1204 34.7904 51.5761 42.6774 43.5313Z" fill="#496E2D"/>
<path d="M20.652 14.4132L17.8506 15.7572L19.3424 18.5246L16.3005 17.9311L15.9149 21.0653L13.7962 18.7601L11.6773 21.0653L11.292 17.9311L8.25 18.5245L9.7417 15.7571L6.94043 14.4132L9.7418 13.0691L8.25 10.3019L11.2919 10.8954L11.6774 7.76099L13.7962 10.0663L15.915 7.76099L16.3005 10.8954L19.3424 10.3019L17.8508 13.0692L20.652 14.4132Z" fill="#FFDA44"/>
</g>
<defs>
<clipPath id="clip0_105_2035">
<rect width="50" height="51" fill="white"/>
</clipPath>
</defs>
</svg>
