<svg width="50" height="51" viewBox="0 0 50 51" fill="none" xmlns="http://www.w3.org/2000/svg">
<g clip-path="url(#clip0_105_2445)">
<path d="M42.6784 43.5319C52.0545 33.9683 52.4247 18.6997 43.793 8.68311L25 25.4998L8.51294 44.6687C18.3331 53.4731 33.3022 53.0955 42.6784 43.5319V43.5319Z" fill="#496E2D"/>
<path d="M7.32162 7.4681C16.6977 -2.09548 31.6669 -2.47309 41.4871 6.33126L24.9999 25.5003L6.20717 42.3169C-2.42465 32.3003 -2.05434 17.0317 7.32162 7.4681V7.4681Z" fill="#0052B4"/>
<path d="M41.4869 6.33118L6.20703 42.3168C6.56367 42.7307 6.93398 43.1367 7.32158 43.5318C7.70908 43.9271 8.10722 44.3048 8.51308 44.6688L43.7928 8.68315C43.4362 8.26917 43.0658 7.86317 42.6782 7.46782C42.2909 7.07277 41.8927 6.69495 41.4869 6.33118V6.33118Z" fill="#FFDA44"/>
<path d="M10.5334 8.86877L11.0731 10.5628H12.8193L11.4066 11.6096L11.9462 13.3037L10.5334 12.2567L9.1206 13.3037L9.66035 11.6096L8.24756 10.5628H9.99384L10.5334 8.86877Z" fill="#F0F0F0"/>
<path d="M19.4533 8.86877L19.9931 10.5628H21.7392L20.3265 11.6096L20.8661 13.3037L19.4533 12.2567L18.0405 13.3037L18.5803 11.6096L17.1675 10.5628H18.9137L19.4533 8.86877Z" fill="#F0F0F0"/>
<path d="M10.5334 17.7386L11.0731 19.4327H12.8193L11.4066 20.4796L11.9462 22.1736L10.5334 21.1267L9.1206 22.1736L9.66035 20.4796L8.24756 19.4327H9.99384L10.5334 17.7386Z" fill="#F0F0F0"/>
<path d="M19.4533 17.7386L19.9931 19.4327H21.7392L20.3265 20.4796L20.8661 22.1736L19.4533 21.1267L18.0405 22.1736L18.5803 20.4796L17.1675 19.4327H18.9137L19.4533 17.7386Z" fill="#F0F0F0"/>
<path d="M14.9935 13.3037L15.5332 14.9978H17.2793L15.8666 16.0447L16.4062 17.7387L14.9935 16.6917L13.5807 17.7387L14.1203 16.0447L12.7075 14.9978H14.4538L14.9935 13.3037Z" fill="#F0F0F0"/>
</g>
<defs>
<clipPath id="clip0_105_2445">
<rect width="50" height="51" fill="white"/>
</clipPath>
</defs>
</svg>
