<svg width="50" height="52" viewBox="0 0 50 52" fill="none" xmlns="http://www.w3.org/2000/svg">
<g clip-path="url(#clip0_105_1812)">
<path d="M25 51.9893C38.8071 51.9893 50 40.5725 50 26.4893C50 12.406 38.8071 0.989258 25 0.989258C11.1929 0.989258 0 12.406 0 26.4893C0 40.5725 11.1929 51.9893 25 51.9893Z" fill="#F0F0F0"/>
<path d="M25 0.989258C13.4493 0.989258 3.72996 8.98002 0.861206 19.837H49.1388C46.27 8.98002 36.5507 0.989258 25 0.989258Z" fill="#A2001D"/>
<path d="M25 51.9894C36.5507 51.9894 46.27 43.9986 49.1387 33.1416H0.861206C3.72996 43.9985 13.4493 51.9894 25 51.9894Z" fill="#A2001D"/>
</g>
<defs>
<clipPath id="clip0_105_1812">
<rect width="50" height="51" fill="white" transform="translate(0 0.989258)"/>
</clipPath>
</defs>
</svg>
