<svg width="50" height="51" viewBox="0 0 50 51" fill="none" xmlns="http://www.w3.org/2000/svg">
<g clip-path="url(#clip0_105_801)">
<path d="M25 51C38.8071 51 50 39.5833 50 25.5C50 11.4167 38.8071 0 25 0C11.1929 0 0 11.4167 0 25.5C0 39.5833 11.1929 51 25 51Z" fill="#F0F0F0"/>
<path d="M37.1285 3.19866C33.5363 1.16184 29.4014 0 25 0C11.1939 0 0.00175781 11.415 0 25.497L17.3913 16.6305L37.1285 3.19866Z" fill="#0052B4"/>
<path d="M0 25.5029C0.00175781 39.5849 11.1939 50.9999 25 50.9999C29.4014 50.9999 33.5363 49.8383 37.1285 47.8013L17.3913 34.3695L0 25.5029Z" fill="#0052B4"/>
<path d="M39.2119 4.52064C38.5404 4.0466 37.8446 3.60572 37.1276 3.19922L0 25.4972V25.5002C0 25.5002 0 25.5023 0 25.5032L37.1277 47.801C37.8447 47.3944 38.5404 46.9536 39.212 46.4796L4.27949 25.5002L39.2119 4.52064Z" fill="#D80027"/>
<path d="M43.4783 24.5488H40.5004C41.2747 23.6005 41.227 22.1898 40.3546 21.3002C41.2786 20.3577 41.2786 18.8296 40.3546 17.887L40.2989 17.944C41.2229 17.0016 41.2786 15.4165 40.3546 14.4741L26.9702 28.1262C27.8942 29.0688 29.3661 29.0575 30.29 28.115L30.5477 27.8749L36.9566 27.2806V30.0922H39.1306V27.079L42.3914 26.7767L43.4783 24.5488Z" fill="#A2001D"/>
<path d="M27.1747 31.0436L25 29.9349L27.1747 28.8262H41.3051V31.0436H27.1747Z" fill="#FFDA44"/>
</g>
<defs>
<clipPath id="clip0_105_801">
<rect width="50" height="51" fill="white"/>
</clipPath>
</defs>
</svg>
