<svg width="50" height="51" viewBox="0 0 50 51" fill="none" xmlns="http://www.w3.org/2000/svg">
<g clip-path="url(#clip0_105_1007)">
<path d="M25 51C38.8071 51 50 39.5833 50 25.5C50 11.4167 38.8071 0 25 0C11.1929 0 0 11.4167 0 25.5C0 39.5833 11.1929 51 25 51Z" fill="#F0F0F0"/>
<path d="M25.0001 0C16.1358 0 8.34971 4.70585 3.91064 11.8016L37.8129 47.399C45.112 42.9463 50.0001 34.8058 50.0001 25.5C50.0001 11.4168 38.8071 0 25.0001 0Z" fill="#FFDA44"/>
<path d="M49.9998 25.4999C49.9998 18.8837 47.5293 12.8565 43.478 8.32446V42.6755C47.5293 38.1433 49.9998 32.1162 49.9998 25.4999Z" fill="#0052B4"/>
<path d="M31.2294 47.999L33.848 47.9973L34.6559 45.4564L35.4666 47.9963L36.7801 47.9955C37.5854 47.5558 38.3645 47.0725 39.1141 46.5483L4.36416 11.1035C3.7915 11.9558 3.26924 12.8457 2.79961 13.7681L3.1084 14.7355L5.72705 14.7338L3.60947 16.3051L4.42021 18.8451L2.30068 17.2764L1.03652 18.2143C0.362598 20.5229 0 22.9682 0 25.5C0 39.5831 11.193 51 25 51C27.9191 51 30.721 50.4888 33.3252 49.5504L31.2294 47.999ZM5.57607 24.3913L6.38369 21.8505L4.26436 20.2816L6.88301 20.2799L7.69072 17.739L8.50146 20.2789L11.1201 20.2772L9.00244 21.8486L9.81318 24.3885L7.69365 22.8199L5.57607 24.3913ZM10.9691 29.9348L11.7768 27.3939L9.65742 25.8251L12.2761 25.8234L13.0838 23.2825L13.8945 25.8224L16.5132 25.8207L14.3956 27.392L15.2063 29.932L13.0868 28.3633L10.9691 29.9348ZM16.3621 35.4782L17.1697 32.9374L15.0504 31.3685L17.669 31.3668L18.4768 28.8259L19.2875 31.3659L21.9062 31.3642L19.7886 32.9355L20.5993 35.4754L18.4798 33.9066L16.3621 35.4782ZM23.8728 39.4504L21.7551 41.0217L22.5627 38.4809L20.4434 36.912L23.062 36.9103L23.8698 34.3694L24.6806 36.9093L27.2992 36.9076L25.1816 38.479L25.9924 41.0189L23.8728 39.4504ZM27.1481 46.5651L27.9558 44.0243L25.8364 42.4555L28.4551 42.4538L29.2628 39.9128L30.0735 42.4528L32.6922 42.4511L30.5746 44.0224L31.3854 46.5624L29.2658 44.9935L27.1481 46.5651Z" fill="#0052B4"/>
</g>
<defs>
<clipPath id="clip0_105_1007">
<rect width="50" height="51" fill="white"/>
</clipPath>
</defs>
</svg>
