<svg width="50" height="51" viewBox="0 0 50 51" fill="none" xmlns="http://www.w3.org/2000/svg">
<g clip-path="url(#clip0_105_1333)">
<path d="M0.001 4.43481H0V46.5652H0.001V25.5001V4.43481Z" fill="#FF9811"/>
<path d="M24.9999 50.9999C38.807 50.9999 49.9998 39.5832 49.9998 25.5C49.9998 11.4168 38.807 0.000106812 24.9999 0.000106812C11.1928 0.000106812 0 11.4168 0 25.5C0 39.5832 11.1928 50.9999 24.9999 50.9999Z" fill="#F0F0F0"/>
<path d="M25.0001 0.000198364C16.8212 0.000198364 9.56006 4.00679 4.99902 10.2002H45.0011C40.4401 4.00669 33.1789 0.000198364 25.0001 0.000198364V0.000198364Z" fill="#0052B4"/>
<path d="M25.0001 50.9999C33.179 50.9999 40.4401 46.9933 45.0012 40.7999H4.99902C9.55996 46.9934 16.8212 50.9999 25.0001 50.9999Z" fill="#0052B4"/>
<path d="M0 25.5001C0 27.2468 0.172656 28.9523 0.500684 30.6001H49.4994C49.8274 28.9523 50 27.2468 50 25.5001C50 23.7535 49.8273 22.0479 49.4994 20.4001H0.500684C0.172656 22.0479 0 23.7535 0 25.5001V25.5001Z" fill="#0052B4"/>
<path d="M7.32224 7.4689C-2.44075 17.4271 -2.44075 33.5729 7.32224 43.5314C11.3567 39.4162 15.2368 35.4584 24.9999 25.5002L7.32224 7.4689Z" fill="#D80027"/>
<path d="M10.1181 18.848L11.7366 23.9296H16.9755L12.7375 27.0704L14.3561 32.1521L10.1181 29.0114L5.87988 32.1521L7.49883 27.0704L3.26074 23.9296H8.49922L10.1181 18.848Z" fill="#F0F0F0"/>
</g>
<defs>
<clipPath id="clip0_105_1333">
<rect width="50" height="51" fill="white"/>
</clipPath>
</defs>
</svg>
