<svg width="50" height="52" viewBox="0 0 50 52" fill="none" xmlns="http://www.w3.org/2000/svg">
<g clip-path="url(#clip0_105_1620)">
<path d="M25 51.9893C38.8071 51.9893 50 40.5725 50 26.4893C50 12.406 38.8071 0.989258 25 0.989258C11.1929 0.989258 0 12.406 0 26.4893C0 40.5725 11.1929 51.9893 25 51.9893Z" fill="#F0F0F0"/>
<path d="M49.7884 23.1632H28.261H28.2609V1.20511C27.1935 1.06337 26.1052 0.989258 25 0.989258C23.8948 0.989258 22.8065 1.06337 21.7392 1.20511V23.1632H0.211621C0.0726563 24.2519 0 25.362 0 26.4893C0 27.6165 0.0726563 28.7266 0.211621 29.8153H21.739H21.7391V51.7734C22.8065 51.9151 23.8948 51.9893 25 51.9893C26.1052 51.9893 27.1935 51.9152 28.2608 51.7734V29.8156V29.8154H49.7884C49.9273 28.7266 50 27.6165 50 26.4893C50 25.362 49.9273 24.2519 49.7884 23.1632V23.1632Z" fill="#D80027"/>
<path d="M32.0653 27.5978L33.6957 28.7065V24.2717L32.0653 25.3805H26.087V19.2826L27.174 17.6196H22.8261L23.9131 19.2826V25.3805H17.9348L16.3044 24.2717V28.7065L17.9348 27.5978H23.9131V33.6957L22.8261 35.3587H27.174L26.087 33.6957V27.5978H32.0653Z" fill="#FFDA44"/>
</g>
<defs>
<clipPath id="clip0_105_1620">
<rect width="50" height="51" fill="white" transform="translate(0 0.989258)"/>
</clipPath>
</defs>
</svg>
