<svg width="50" height="51" viewBox="0 0 50 51" fill="none" xmlns="http://www.w3.org/2000/svg">
<g clip-path="url(#clip0_105_2432)">
<path d="M25 51.001C38.8071 51.001 50 39.5842 50 25.501C50 11.4177 38.8071 0.000976562 25 0.000976562C11.1929 0.000976562 0 11.4177 0 25.501C0 39.5842 11.1929 51.001 25 51.001Z" fill="#F0F0F0"/>
<path d="M25 51.001C38.807 51.001 50 39.5842 50 25.501C50 22.3818 49.45 19.3938 48.445 16.6315H1.55498C0.550098 19.3938 0 22.3818 0 25.501C0 39.5842 11.193 51.001 25 51.001Z" fill="#0052B4"/>
<path d="M25 51.0011C35.7491 51.0011 44.9126 44.081 48.445 34.3706H1.55493C5.08726 44.081 14.2508 51.0011 25 51.0011Z" fill="#D80027"/>
<path d="M6.4646 14.4141V27.1348C6.4646 34.3708 15.7323 36.588 15.7323 36.588C15.7323 36.588 24.9999 34.3708 24.9999 27.1348V14.4141H6.4646Z" fill="#F0F0F0"/>
<path d="M8.63855 14.4141V27.1348C8.63855 27.9842 8.82351 28.7865 9.18992 29.5387H22.2746C22.641 28.7866 22.826 27.9842 22.826 27.1348V14.4141H8.63855Z" fill="#D80027"/>
<path d="M20.0801 23.2836H16.8194V21.0662H18.9933V18.8488H16.8194V16.6315H14.6455V18.8488H12.4716V21.0662H14.6455V23.2836H11.3845V25.501H14.6455V27.7184H16.8194V25.501H20.0801V23.2836Z" fill="#F0F0F0"/>
<path d="M12.1553 32.6339C13.5562 33.5319 14.9955 34.0532 15.7323 34.2851C16.4691 34.0533 17.9083 33.5319 19.3092 32.6339C20.7219 31.7282 21.7123 30.6925 22.2746 29.5385C21.6543 29.091 20.8976 28.827 20.0801 28.827C19.7825 28.827 19.4933 28.863 19.2153 28.929C18.6261 27.5636 17.2887 26.6096 15.7324 26.6096C14.176 26.6096 12.8385 27.5636 12.2495 28.929C11.9714 28.863 11.6822 28.827 11.3846 28.827C10.5671 28.827 9.8104 29.091 9.19019 29.5385C9.7522 30.6924 10.7425 31.7281 12.1553 32.6339Z" fill="#0052B4"/>
</g>
<defs>
<clipPath id="clip0_105_2432">
<rect width="50" height="51" fill="white" transform="translate(0 0.000976562)"/>
</clipPath>
</defs>
</svg>
