<svg width="50" height="51" viewBox="0 0 50 51" fill="none" xmlns="http://www.w3.org/2000/svg">
<g clip-path="url(#clip0_105_1699)">
<path d="M25 51.001C38.8071 51.001 50 39.5842 50 25.501C50 11.4177 38.8071 0.000976562 25 0.000976562C11.1929 0.000976562 0 11.4177 0 25.501C0 39.5842 11.1929 51.001 25 51.001Z" fill="#F0F0F0"/>
<path d="M33.1198 18.8487H29.8489C29.876 19.2154 29.8913 19.5853 29.8913 19.9574C29.8913 22.4241 29.2868 24.815 28.233 26.517C27.9079 27.0419 27.3616 27.7832 26.6304 28.2832V18.8486H23.3695V28.2832C22.6384 27.7832 22.092 27.042 21.7669 26.517C20.713 24.815 20.1086 22.4241 20.1086 19.9574C20.1086 19.5853 20.124 19.2153 20.151 18.8487H16.8801C16.8591 19.2136 16.8477 19.5832 16.8477 19.9574C16.8477 26.7962 20.4285 32.1531 24.9998 32.1531C29.5711 32.1531 33.152 26.7962 33.152 19.9574C33.1521 19.5832 33.1407 19.2136 33.1198 18.8487V18.8487Z" fill="#D80027"/>
<path d="M10.3261 12.1967H13.5869V14.4141H16.8478V12.1967H20.1086V14.4141H23.3694V12.1967H26.6303V14.4141H29.8911V12.1967H33.152V14.4141H36.4128V12.1967H39.6736V14.4141H47.519C43.4756 5.8844 34.9114 0.000976562 25 0.000976562C15.0886 0.000976562 6.52442 5.8844 2.48067 14.4141H10.3261V12.1967Z" fill="#6DA544"/>
<path d="M39.6739 36.5879V38.8053H36.4131V36.5879H33.1522V38.8053H29.8914V36.5879H26.6306V38.8053H23.3697V36.5879H20.1089V38.8053H16.8481V36.5879H13.5869V38.8053H10.3261V36.5879H2.48067C6.52442 45.1175 15.0885 51.001 25 51.001C34.9115 51.001 43.4756 45.1175 47.5193 36.5879H39.6739Z" fill="#D80027"/>
</g>
<defs>
<clipPath id="clip0_105_1699">
<rect width="50" height="51" fill="white" transform="translate(0 0.000976562)"/>
</clipPath>
</defs>
</svg>
