<svg width="50" height="51" viewBox="0 0 50 51" fill="none" xmlns="http://www.w3.org/2000/svg">
<g clip-path="url(#clip0_105_1613)">
<path d="M25 51C38.8071 51 50 39.5833 50 25.5C50 11.4167 38.8071 0 25 0C11.1929 0 0 11.4167 0 25.5C0 39.5833 11.1929 51 25 51Z" fill="#F0F0F0"/>
<path d="M50.0001 25.5C50.0001 15.3902 44.232 6.6549 35.8696 2.53027V48.4696C44.232 44.3451 50.0001 35.6096 50.0001 25.5V25.5Z" fill="#338AF3"/>
<path d="M0 25.5C0 35.6097 5.76807 44.3451 14.1305 48.4697V2.53027C5.76807 6.6549 0 15.3902 0 25.5Z" fill="#338AF3"/>
<path d="M31.5329 29.812L27.3058 25.5003L31.3295 21.3959L31.1472 19.2282L29.9952 18.053L24.9999 23.1482L20.0046 18.053L18.8526 19.2282L18.6703 21.3959L22.694 25.5003L18.4668 29.812L20.7727 32.1637L24.9999 27.8522L29.2271 32.1637L31.5329 29.812Z" fill="#ACABB1"/>
<path d="M31.1488 19.2283L28.843 21.5801C29.8265 22.5833 30.4349 23.9692 30.4349 25.5C30.4349 28.5616 28.0016 31.0434 25.0001 31.0434C21.9987 31.0434 19.5653 28.5616 19.5653 25.5C19.5653 23.9692 20.1737 22.5833 21.1572 21.5801L18.8514 19.2283C17.2777 20.8332 16.3044 23.0506 16.3044 25.5C16.3044 30.3986 20.1976 34.3695 25 34.3695C29.8025 34.3695 33.6957 30.3985 33.6957 25.5C33.6957 23.0507 32.7224 20.8333 31.1488 19.2283V19.2283Z" fill="#6DA544"/>
</g>
<defs>
<clipPath id="clip0_105_1613">
<rect width="50" height="51" fill="white"/>
</clipPath>
</defs>
</svg>
