<svg width="50" height="51" viewBox="0 0 50 51" fill="none" xmlns="http://www.w3.org/2000/svg">
<g clip-path="url(#clip0_105_1631)">
<path d="M33.6959 1.58716C30.9875 0.562076 28.0581 0.000976562 25 0.000976562C21.9421 0.000976562 19.0128 0.562076 16.3046 1.58696L15.2176 25.501L16.3045 49.415C19.0128 50.44 21.9421 51.001 25 51.001C28.0582 51.001 30.9875 50.44 33.6959 49.4148L34.7828 25.501L33.6959 1.58716Z" fill="#FFDA44"/>
<path d="M0 25.5009C0 36.4649 6.78437 45.8119 16.3044 49.4148V1.58691C6.78437 5.18998 0 14.5367 0 25.5009Z" fill="#D80027"/>
<path d="M50 25.5009C50 14.5367 43.2156 5.18998 33.6956 1.58691V49.4149C43.2156 45.8119 50 36.4649 50 25.5009Z" fill="#6DA544"/>
</g>
<defs>
<clipPath id="clip0_105_1631">
<rect width="50" height="51" fill="white" transform="translate(0 0.000976562)"/>
</clipPath>
</defs>
</svg>
