<svg width="50" height="51" viewBox="0 0 50 51" fill="none" xmlns="http://www.w3.org/2000/svg">
<g clip-path="url(#clip0_105_1084)">
<path d="M50 25.5C50 39.5832 38.807 51 25 51C11.193 51 0 39.5832 0 25.5C0 25.5061 25 0.00278906 25 0C38.807 0 50 11.4168 50 25.5Z" fill="#0052B4"/>
<path d="M24.9331 25.5001H25C25 25.4772 25 25.4549 25 25.4319C24.9777 25.4547 24.9555 25.4774 24.9331 25.5001Z" fill="#F0F0F0"/>
<path d="M25 13.3043C25 8.81742 25 5.87745 25 0H24.9958C11.1905 0.00239063 0 11.4181 0 25.5H13.0435V18.0083L20.3883 25.5H24.9332C24.9555 25.4773 24.9777 25.4546 25.0001 25.4318C25.0001 23.7138 25.0001 22.1809 25.0001 20.7962L17.6551 13.3043H25Z" fill="#F0F0F0"/>
<path d="M12.6479 3.32617C8.73779 5.59717 5.48711 8.91276 3.26074 12.901V25.5001H9.78252V9.97858V9.97839H24.9999C24.9999 7.88031 24.9999 5.88155 24.9999 3.32617H12.6479Z" fill="#D80027"/>
<path d="M35.8694 25.5L29.1123 32.3923C30.3787 34.8836 32.9283 36.5869 35.8694 36.5869C38.8105 36.5869 41.3602 34.8836 42.6266 32.3923L35.8694 25.5Z" fill="#FFDA44"/>
<path d="M25 22.3642L16.1177 13.3044H13.0435V13.3046L24.9998 25.5H25C25 25.5 25 23.3378 25 22.3642V22.3642Z" fill="#D80027"/>
<path d="M28.2607 13.3044V25.5V25.5001C28.2608 31.4407 35.8694 33.261 35.8694 33.261C35.8694 33.261 43.478 31.4407 43.4781 25.5001V25.5V13.3044H28.2607Z" fill="#6DA544"/>
<path d="M34.2393 18.8479H37.5001V27.7174H34.2393V18.8479Z" fill="#F0F0F0"/>
<path d="M35.8695 20.511C36.77 20.511 37.5 19.7664 37.5 18.8479C37.5 17.9294 36.77 17.1848 35.8695 17.1848C34.969 17.1848 34.239 17.9294 34.239 18.8479C34.239 19.7664 34.969 20.511 35.8695 20.511Z" fill="#A2001D"/>
<path d="M30.4348 15.5217H32.6087V17.7391H30.4348V15.5217Z" fill="#FFDA44"/>
<path d="M30.4348 20.5107H32.6087V22.7281H30.4348V20.5107Z" fill="#FFDA44"/>
<path d="M30.4348 25.5H32.6087V27.7174H30.4348V25.5Z" fill="#FFDA44"/>
<path d="M39.1306 15.5217H41.3045V17.7391H39.1306V15.5217Z" fill="#FFDA44"/>
<path d="M39.1306 20.5107H41.3045V22.7281H39.1306V20.5107Z" fill="#FFDA44"/>
<path d="M39.1306 25.5H41.3045V27.7174H39.1306V25.5Z" fill="#FFDA44"/>
</g>
<defs>
<clipPath id="clip0_105_1084">
<rect width="50" height="51" fill="white"/>
</clipPath>
</defs>
</svg>
