<svg width="50" height="51" viewBox="0 0 50 51" fill="none" xmlns="http://www.w3.org/2000/svg">
<g clip-path="url(#clip0_105_2152)">
<path d="M25 51C38.8071 51 50 39.5833 50 25.5C50 11.4167 38.8071 0 25 0C11.1929 0 0 11.4167 0 25.5C0 39.5833 11.1929 51 25 51Z" fill="#F0F0F0"/>
<path d="M0.861328 32.1522C2.30781 37.6267 5.4958 42.3714 9.78272 45.7312V32.1522H0.861328Z" fill="#D80027"/>
<path d="M22.8262 50.903C23.5428 50.9659 24.2675 51 25.0001 51C36.5508 51 46.2701 43.0092 49.1389 32.1522H22.8262V50.903Z" fill="#D80027"/>
<path d="M49.1389 18.8478C46.2701 7.99076 36.5508 0 25.0001 0C24.2675 0 23.5428 0.0340664 22.8262 0.0970195V18.8478H49.1389Z" fill="#D80027"/>
<path d="M9.78272 5.2688C5.4958 8.62862 2.30781 13.3733 0.861328 18.8477H9.78272V5.2688Z" fill="#D80027"/>
<path d="M49.7884 22.1739H19.5653H19.5652V0.606079C17.2549 1.12863 15.0646 1.97561 13.0435 3.1005V22.1737V22.1738H0.211621C0.0724609 23.2626 0 24.3727 0 25.5C0 26.6272 0.0724609 27.7373 0.211621 28.826H13.0434H13.0435V47.8993C15.0646 49.0241 17.2549 49.8713 19.5652 50.3937V28.8263V28.8261H49.7884C49.9273 27.7373 50 26.6272 50 25.5C50 24.3727 49.9273 23.2626 49.7884 22.1739V22.1739Z" fill="#0052B4"/>
</g>
<defs>
<clipPath id="clip0_105_2152">
<rect width="50" height="51" fill="white"/>
</clipPath>
</defs>
</svg>
