<svg width="50" height="51" viewBox="0 0 50 51" fill="none" xmlns="http://www.w3.org/2000/svg">
<g clip-path="url(#clip0_105_1998)">
<path d="M25 51C38.8071 51 50 39.5833 50 25.5C50 11.4167 38.8071 0 25 0C11.1929 0 0 11.4167 0 25.5C0 39.5833 11.1929 51 25 51Z" fill="#FFDA44"/>
<path d="M50 25.5C50 16.7482 45.6769 9.02711 39.0905 4.43481H10.9095C4.32324 9.02711 0 16.7482 0 25.5C0 34.252 4.32324 41.9729 10.9095 46.5652H39.0905C45.6769 41.9729 50 34.252 50 25.5Z" fill="#A2001D"/>
<path d="M19.5654 18.8477H30.435V14.413L28.261 15.5216L25.0002 12.1956L21.7394 15.5216L19.5654 14.413V18.8477Z" fill="#FFDA44"/>
<path d="M34.7827 25.4999H29.35C29.5631 25.124 29.6869 24.689 29.6869 24.2236C29.6869 22.8104 28.5638 21.665 27.1785 21.665C26.2214 21.665 25.3901 22.2121 24.9672 23.0159C24.5442 22.212 23.713 21.665 22.7559 21.665C21.3706 21.665 20.2475 22.8104 20.2475 24.2236C20.2475 24.6891 20.3715 25.1241 20.5844 25.4999H15.2173C15.2173 27.1956 16.6652 28.5701 18.3275 28.5701H18.2273C18.2273 29.9609 19.1343 31.1353 20.3777 31.5125L17.9347 34.0046L20.2404 36.3565L23.5112 33.0203C23.6394 33.0682 23.7719 33.1065 23.9089 33.1328L21.9325 37.6844C22.8796 38.0773 23.9146 38.2953 25.0001 38.2953C26.0854 38.2953 27.1205 38.0773 28.0677 37.6844L26.0913 33.1328C26.2282 33.1066 26.3607 33.0682 26.4888 33.0203L29.7596 36.3565L32.0652 34.0046L29.6221 31.5126C30.8654 31.1352 31.7725 29.961 31.7725 28.5702H31.6722C33.3347 28.5701 34.7827 27.1956 34.7827 25.4999V25.4999Z" fill="#FFDA44"/>
<path d="M24.9999 27.1631L21.4673 28.8261V32.1522L24.9999 34.3695L28.5325 32.1522V28.8261L24.9999 27.1631Z" fill="#6DA544"/>
<path d="M21.4673 25.5H28.5325V29.9348H21.4673V25.5Z" fill="#0052B4"/>
</g>
<defs>
<clipPath id="clip0_105_1998">
<rect width="50" height="51" fill="white"/>
</clipPath>
</defs>
</svg>
