<svg width="50" height="51" viewBox="0 0 50 51" fill="none" xmlns="http://www.w3.org/2000/svg">
<g clip-path="url(#clip0_105_1372)">
<path d="M22.8261 27.7174C22.8261 27.7174 7.33691 7.46522 7.32227 7.46881C11.8463 2.85421 18.0964 0 25 0C38.807 0 50 11.4168 50 25.5L22.8261 27.7174Z" fill="#338AF3"/>
<path d="M22.8261 25.5C22.8261 25.5 7.33691 43.5348 7.32227 43.5312C11.8463 48.1458 18.0964 51 25 51C38.807 51 50 39.5832 50 25.5H22.8261Z" fill="#6DA544"/>
<path d="M7.32231 7.4687C-2.44077 17.4271 -2.44077 33.5728 7.32231 43.5313C11.3568 39.4161 15.237 35.4583 25 25.5L7.32231 7.4687Z" fill="#F0F0F0"/>
<path d="M10.1181 18.8478L11.7367 23.9295H16.9756L12.7375 27.0703L14.3561 32.1522L10.1181 29.0114L5.87988 32.1522L7.49883 27.0703L3.26074 23.9295H8.49922L10.1181 18.8478Z" fill="#D80027"/>
</g>
<defs>
<clipPath id="clip0_105_1372">
<rect width="50" height="51" fill="white"/>
</clipPath>
</defs>
</svg>
