<svg width="51" height="51" viewBox="0 0 51 51" fill="none" xmlns="http://www.w3.org/2000/svg">
<g clip-path="url(#clip0_105_2125)">
<path d="M36.8583 2.53028C33.5716 0.909234 29.8844 0 25.9888 0C22.0932 0 18.406 0.909234 15.1192 2.53028L12.9453 25.5L15.1192 48.4697C18.406 50.0908 22.0932 51 25.9888 51C29.8844 51 33.5716 50.0908 36.8583 48.4697L39.0322 25.5L36.8583 2.53028Z" fill="#F0F0F0"/>
<path d="M15.1187 2.53125C6.75635 6.65568 0.988281 15.3903 0.988281 25.5001C0.988281 35.6098 6.75635 44.3445 15.1187 48.4689V2.53125Z" fill="#6DA544"/>
<path d="M36.8574 2.53125V48.4689C45.2198 44.3445 50.9879 35.6097 50.9879 25.5001C50.9879 15.3904 45.2198 6.65568 36.8574 2.53125Z" fill="#6DA544"/>
<path d="M32.5104 33.261L25.9886 12.1958L19.4668 33.261H24.3581V38.8045H27.619V33.261H32.5104Z" fill="#6DA544"/>
</g>
<defs>
<clipPath id="clip0_105_2125">
<rect width="50" height="51" fill="white" transform="translate(0.988281)"/>
</clipPath>
</defs>
</svg>
