<svg width="50" height="51" viewBox="0 0 50 51" fill="none" xmlns="http://www.w3.org/2000/svg">
<g clip-path="url(#clip0_105_2505)">
<path d="M0 25.5C0 28.6192 0.550098 31.6071 1.55498 34.3695L25 36.5869L48.445 34.3695C49.4499 31.6071 50 28.6192 50 25.5C50 22.3808 49.4499 19.393 48.445 16.6305L25 14.4131L1.55498 16.6305C0.550098 19.393 0 22.3808 0 25.5H0Z" fill="#FFDA44"/>
<path d="M48.4447 16.6305C44.9124 6.92016 35.7488 0 24.9997 0C14.2506 0 5.08701 6.92016 1.55469 16.6305H48.4447Z" fill="#D80027"/>
<path d="M1.55469 34.3696C5.08701 44.0799 14.2506 51.0001 24.9997 51.0001C35.7488 51.0001 44.9124 44.0799 48.4447 34.3696H1.55469Z" fill="#D80027"/>
</g>
<defs>
<clipPath id="clip0_105_2505">
<rect width="50" height="51" fill="white"/>
</clipPath>
</defs>
</svg>
