<svg width="50" height="51" viewBox="0 0 50 51" fill="none" xmlns="http://www.w3.org/2000/svg">
<g clip-path="url(#clip0_105_784)">
<path d="M49.1388 32.1524C49.6992 30.0313 50 27.8018 50 25.5001C50 23.1985 49.6992 20.969 49.1388 18.8479L22.8261 0.097168C17.9412 0.526484 13.4585 2.38818 9.78262 5.26899L0.86123 18.8479C0.300781 20.969 0 23.1985 0 25.5001C0 27.7884 0.297168 30.0056 0.851367 32.1155L9.78252 45.7313C13.4584 48.6121 17.9411 50.4739 22.826 50.9031L49.1388 32.1524Z" fill="#FFDA44"/>
<path d="M0.861328 32.1523C2.30781 37.6268 5.4958 42.3716 9.78272 45.7313V32.1523H0.861328Z" fill="#0052B4"/>
<path d="M22.8262 50.9031C23.5428 50.9661 24.2675 51.0001 25.0001 51.0001C36.5508 51.0001 46.2701 43.0094 49.1389 32.1523H22.8262V50.9031Z" fill="#0052B4"/>
<path d="M49.1389 18.8478C46.2701 7.99076 36.5508 0 25.0001 0C24.2675 0 23.5428 0.0340664 22.8262 0.0970195V18.8478H49.1389Z" fill="#0052B4"/>
<path d="M9.78272 5.26904C5.4958 8.62887 2.30781 13.3736 0.861328 18.848H9.78272V5.26904Z" fill="#0052B4"/>
<path d="M49.7884 22.1738H19.5653H19.5652V0.605957C17.2549 1.12851 15.0646 1.97549 13.0435 3.10037V22.1737H0.211621C0.0724609 23.2625 0 24.3726 0 25.4998C0 26.6271 0.0724609 27.7372 0.211621 28.8259H13.0434H13.0435V47.8992C15.0646 49.024 17.2549 49.8712 19.5652 50.3936V28.8262V28.826H49.7884C49.9273 27.7372 50 26.6271 50 25.4998C50 24.3726 49.9273 23.2625 49.7884 22.1738V22.1738Z" fill="#D80027"/>
</g>
<defs>
<clipPath id="clip0_105_784">
<rect width="50" height="51" fill="white"/>
</clipPath>
</defs>
</svg>
