<svg width="50" height="51" viewBox="0 0 50 51" fill="none" xmlns="http://www.w3.org/2000/svg">
<g clip-path="url(#clip0_105_1342)">
<path d="M25 51C38.8071 51 50 39.5833 50 25.5C50 11.4167 38.8071 0 25 0C11.1929 0 0 11.4167 0 25.5C0 39.5833 11.1929 51 25 51Z" fill="#FFDA44"/>
<path d="M24.9999 51C33.203 51 40.4832 46.97 45.0418 40.7453H4.95801C9.5166 46.97 16.7968 51 24.9999 51Z" fill="#0052B4"/>
<path d="M50 25.5C50 11.4168 38.807 0 25 0C11.193 0 0 11.4168 0 25.5C0 28.5155 0.514551 31.408 1.45664 34.0932H48.5433C49.4854 31.408 50 28.5155 50 25.5V25.5Z" fill="#0052B4"/>
<path d="M17.1113 16.3541L18.4603 20.5887H22.8259L19.2941 23.2062L20.6431 27.441L17.1113 24.8237L13.5796 27.441L14.9287 23.2062L11.397 20.5887H15.7624L17.1113 16.3541Z" fill="#F0F0F0"/>
<path d="M9.61455 11.9193L10.4239 14.4601H13.0434L10.9243 16.0305L11.7337 18.5715L9.61455 17.001L7.49551 18.5715L8.30498 16.0305L6.18604 14.4601H8.80537L9.61455 11.9193Z" fill="#F0F0F0"/>
</g>
<defs>
<clipPath id="clip0_105_1342">
<rect width="50" height="51" fill="white"/>
</clipPath>
</defs>
</svg>
