<svg width="50" height="51" viewBox="0 0 50 51" fill="none" xmlns="http://www.w3.org/2000/svg">
<g clip-path="url(#clip0_105_1428)">
<path d="M25 51C38.8071 51 50 39.5833 50 25.5C50 11.4167 38.8071 0 25 0C11.1929 0 0 11.4167 0 25.5C0 39.5833 11.1929 51 25 51Z" fill="#F0F0F0"/>
<path d="M25.0002 0C14.2511 0 5.0875 6.92006 1.55518 16.6305H48.4453C44.9129 6.92006 35.7493 0 25.0002 0V0Z" fill="#D80027"/>
<path d="M25.0002 51C35.7493 51 44.9129 44.0799 48.4452 34.3695H1.55518C5.0875 44.0799 14.2511 51 25.0002 51Z" fill="black"/>
<path d="M33.6956 22.7283H27.1738C27.1738 21.5037 26.2005 20.5109 24.9999 20.5109C23.7993 20.5109 22.826 21.5037 22.826 22.7283H16.3042C16.3042 23.953 17.35 24.9457 18.5506 24.9457H18.4781C18.4781 26.1704 19.4514 27.1631 20.6521 27.1631C20.6521 28.3878 21.6253 29.3805 22.826 29.3805H27.1738C28.3745 29.3805 29.3478 28.3878 29.3478 27.1631C30.5484 27.1631 31.5217 26.1704 31.5217 24.9457H31.4493C32.6499 24.9457 33.6956 23.953 33.6956 22.7283V22.7283Z" fill="#FF9811"/>
</g>
<defs>
<clipPath id="clip0_105_1428">
<rect width="50" height="51" fill="white"/>
</clipPath>
</defs>
</svg>
