<svg width="50" height="51" viewBox="0 0 50 51" fill="none" xmlns="http://www.w3.org/2000/svg">
<g clip-path="url(#clip0_105_916)">
<path d="M25 0C38.807 0 50 11.4168 50 25.5C50 39.5831 38.807 50.9999 25 50.9999C11.193 50.9999 9.15527e-05 39.5831 9.15527e-05 25.5" fill="#FFDA44"/>
<path d="M24.4566 11.3337H45.789C44.3843 9.19336 42.6701 7.28285 40.7121 5.66699H24.4566V11.3337Z" fill="#D80027"/>
<path d="M24.4566 22.6671H49.8457C49.6326 20.7022 49.2009 18.8049 48.5756 17.0005H24.4566V22.6671Z" fill="#D80027"/>
<path d="M1.42461 34.0003H48.5754C49.2007 32.1958 49.6325 30.2984 49.8456 28.3335H0.154495C0.367385 30.2985 0.799221 32.1959 1.42461 34.0003V34.0003Z" fill="#D80027"/>
<path d="M9.28788 45.3337H40.712C42.6699 43.7179 44.3842 41.8072 45.7889 39.667H4.21123C5.61591 41.8072 7.32997 43.7178 9.28788 45.3337V45.3337Z" fill="#D80027"/>
<path d="M25.0001 0C11.1929 0 -9.76554e-05 11.4168 6.39011e-10 25.5001C5.70565 25.4999 11.1929 25.5001 25 25.5001L25.0001 0Z" fill="#4A1F63"/>
<path d="M20.6522 13.3043V15.5217H19.5653V13.3043H17.3914V15.5217H16.3045V11.0869H11.9566V15.5217H10.8696V13.3043H8.69578V15.5217H7.60877V13.3043H5.43475V19.9564H22.8261V13.3043H20.6522Z" fill="#F0F0F0"/>
</g>
<defs>
<clipPath id="clip0_105_916">
<rect width="50" height="51" fill="white"/>
</clipPath>
</defs>
</svg>
