<svg width="50" height="51" viewBox="0 0 50 51" fill="none" xmlns="http://www.w3.org/2000/svg">
<g clip-path="url(#clip0_105_1823)">
<path d="M0 25.5008C0 29.4743 0.891309 33.2353 2.48066 36.5878L25 37.6965L47.5193 36.5879C49.1087 33.2353 50 29.4743 50 25.5008C50 21.5274 49.1087 17.7664 47.5193 14.4139L25 13.3052L2.48066 14.4138C0.891309 17.7664 0 21.5274 0 25.5008H0Z" fill="#F0F0F0"/>
<path d="M25 51.001C34.9114 51.001 43.4756 45.1175 47.5193 36.5879H2.48067C6.52442 45.1175 15.0885 51.001 25 51.001Z" fill="#6DA544"/>
<path d="M25 0.000976562C15.0885 0.000976562 6.52442 5.8844 2.48067 14.4141H47.5192C43.4756 5.8844 34.9114 0.000976562 25 0.000976562V0.000976562Z" fill="#0052B4"/>
<path d="M26.6305 24.9464V18.8486H23.3696V24.9464L19.4312 28.9638C20.5766 30.8763 22.6421 32.153 25.0001 32.153C27.3581 32.153 29.4235 30.8763 30.569 28.9638L26.6305 24.9464Z" fill="black"/>
</g>
<defs>
<clipPath id="clip0_105_1823">
<rect width="50" height="51" fill="white" transform="translate(0 0.000976562)"/>
</clipPath>
</defs>
</svg>
