<svg width="50" height="51" viewBox="0 0 50 51" fill="none" xmlns="http://www.w3.org/2000/svg">
<g clip-path="url(#clip0_105_2510)">
<path d="M0.001 4.43481H0V46.5652H0.001V25.5001V4.43481Z" fill="#FF9811"/>
<path d="M25 50.9999C38.807 50.9999 49.9999 39.5832 49.9999 25.5C49.9999 11.4167 38.807 0 25 0C11.1929 0 0 11.4167 0 25.5C0 39.5832 11.1929 50.9999 25 50.9999Z" fill="#FFDA44"/>
<path d="M19.5653 4.43481H10.9096C10.526 4.70227 10.1506 4.98068 9.78269 5.26885L7.60876 25.4999L9.78269 45.731C10.1506 46.0193 10.526 46.2977 10.9096 46.5651H19.5653V4.43481Z" fill="#FF9811"/>
<path d="M0.00012207 25.5002C0.00012207 33.7424 3.8349 41.0699 9.78276 45.7314V5.26904C3.8349 9.93057 0.00012207 17.2581 0.00012207 25.5002V25.5002Z" fill="#6DA544"/>
<path d="M40.2174 15.5454V16.1834L40.2407 16.187L40.2174 15.5454Z" fill="#FFDA44"/>
<path d="M48.0074 32.1522H43.2971L41.3044 34.3696V38.8044H36.9566V36.587H39.1305V32.1522H29.3479V34.9239H27.1739V29.6415C26.5069 29.0325 26.087 28.1479 26.087 27.163V12.75C26.087 10.9131 27.547 9.42396 29.3479 9.42396V29.9349H33.6957L35.1875 28.6667C34.927 28.0337 34.7826 27.3385 34.7826 26.6088V23.2827H31.5218V16.6306H38.0435C38.0435 15.522 39.674 14.4132 39.674 14.4132C39.674 14.4132 41.3044 15.5219 41.3044 16.6306V18.2937V23.2828C42.5137 23.2975 44.435 23.2655 46.5107 23.2828C45.9654 22.3106 45.6522 21.1571 45.6522 19.9568C45.6522 18.0003 46.4803 16.2414 47.7985 15.0242C45.8985 10.7295 42.8666 7.06769 39.0906 4.43481H22.8262V46.5653H39.0907C43.6824 43.3637 47.1735 38.6411 48.8672 33.109L48.0074 32.1522Z" fill="#A2001D"/>
</g>
<defs>
<clipPath id="clip0_105_2510">
<rect width="50" height="51" fill="white"/>
</clipPath>
</defs>
</svg>
