<svg width="50" height="51" viewBox="0 0 50 51" fill="none" xmlns="http://www.w3.org/2000/svg">
<g clip-path="url(#clip0_105_2877)">
<path d="M25 51C38.8071 51 50 39.5833 50 25.5C50 11.4167 38.8071 0 25 0C11.1929 0 0 11.4167 0 25.5C0 39.5833 11.1929 51 25 51Z" fill="#F0F0F0"/>
<path d="M24.9997 51.0001C35.7488 51.0001 44.9124 44.08 48.4447 34.3696H1.55469C5.08701 44.08 14.2506 51.0001 24.9997 51.0001Z" fill="black"/>
<path d="M24.9997 0C14.2506 0 5.08701 6.92006 1.55469 16.6305H48.4448C44.9124 6.92006 35.7488 0 24.9997 0V0Z" fill="#D80027"/>
</g>
<defs>
<clipPath id="clip0_105_2877">
<rect width="50" height="51" fill="white"/>
</clipPath>
</defs>
</svg>
