<svg width="50" height="51" viewBox="0 0 50 51" fill="none" xmlns="http://www.w3.org/2000/svg">
<g clip-path="url(#clip0_105_2298)">
<path d="M25 51C38.8071 51 50 39.5833 50 25.5C50 11.4167 38.8071 0 25 0C11.1929 0 0 11.4167 0 25.5C0 39.5833 11.1929 51 25 51Z" fill="#F0F0F0"/>
<path d="M25 -8.21062e-05C24.9767 -0.0180118 -0.0066393 25.4932 1.32359e-06 25.4999C1.32359e-06 11.4167 11.193 -8.21062e-05 25 -8.21062e-05Z" fill="#D80027"/>
<path d="M25 -8.21062e-05C25.0233 -0.0180118 50.0066 25.4931 50 25.4999C50 11.4167 38.807 -8.21062e-05 25 -8.21062e-05Z" fill="#D80027"/>
<path d="M25 51C24.9767 51.0179 -0.0066393 25.5068 1.32359e-06 25.5C1.32359e-06 39.5832 11.193 51 25 51Z" fill="#0052B4"/>
<path d="M25 51C25.0233 51.0179 50.0066 25.5068 50 25.5C50 39.5832 38.807 51 25 51Z" fill="#0052B4"/>
<path d="M25.0002 13.3043L27.6982 21.774H36.4292L29.3656 27.0085L32.0637 35.4783L25.0002 30.2437L17.9367 35.4783L20.6348 27.0085L13.5713 21.774H22.3021L25.0002 13.3043Z" fill="#FFDA44"/>
</g>
<defs>
<clipPath id="clip0_105_2298">
<rect width="50" height="51" fill="white"/>
</clipPath>
</defs>
</svg>
