<svg width="50" height="51" viewBox="0 0 50 51" fill="none" xmlns="http://www.w3.org/2000/svg">
<g clip-path="url(#clip0_105_1968)">
<path d="M25 51C38.8071 51 50 39.5833 50 25.5C50 11.4167 38.8071 0 25 0C11.1929 0 0 11.4167 0 25.5C0 39.5833 11.1929 51 25 51Z" fill="#338AF3"/>
<path d="M24.9993 11.0869L26.0784 14.4748H29.571L26.7456 16.5687L27.8247 19.9565L24.9993 17.8627L22.1738 19.9565L23.2532 16.5687L20.4277 14.4748H23.9202L24.9993 11.0869Z" fill="#F0F0F0"/>
<path d="M10.8691 25.5002L14.1906 24.3993V20.8369L16.2435 23.719L19.5648 22.6182L17.5121 25.5002L19.5648 28.3819L16.2435 27.281L14.1906 30.163V26.6008L10.8691 25.5002Z" fill="#F0F0F0"/>
<path d="M24.9995 39.9131L23.9203 36.5252H20.4277L23.2533 34.4313L22.1741 31.0435L24.9995 33.1372L27.8248 31.0435L26.7455 34.4313L29.571 36.5252H26.0786L24.9995 39.9131Z" fill="#F0F0F0"/>
<path d="M39.1303 25.4999L35.8088 26.6007V30.163L33.756 27.281L30.4346 28.3818L32.4873 25.4999L30.4346 22.6181L33.756 23.719L35.8088 20.8369V24.3992L39.1303 25.4999Z" fill="#F0F0F0"/>
</g>
<defs>
<clipPath id="clip0_105_1968">
<rect width="50" height="51" fill="white"/>
</clipPath>
</defs>
</svg>
