<svg width="51" height="51" viewBox="0 0 51 51" fill="none" xmlns="http://www.w3.org/2000/svg">
<g clip-path="url(#clip0_105_2071)">
<path d="M25.9883 51C39.7954 51 50.9883 39.5833 50.9883 25.5C50.9883 11.4167 39.7954 0 25.9883 0C12.1812 0 0.988281 11.4167 0.988281 25.5C0.988281 39.5833 12.1812 51 25.9883 51Z" fill="#F0F0F0"/>
<path d="M25.9882 0C15.2391 0 6.07554 6.92006 2.54321 16.6305H49.4333C45.9009 6.92006 36.7374 0 25.9882 0V0Z" fill="#A2001D"/>
<path d="M25.9882 51.0001C36.7374 51.0001 45.9009 44.08 49.4333 34.3696H2.54321C6.07554 44.08 15.2391 51.0001 25.9882 51.0001Z" fill="#0052B4"/>
</g>
<defs>
<clipPath id="clip0_105_2071">
<rect width="50" height="51" fill="white" transform="translate(0.988281)"/>
</clipPath>
</defs>
</svg>
