<svg width="50" height="51" viewBox="0 0 50 51" fill="none" xmlns="http://www.w3.org/2000/svg">
<g clip-path="url(#clip0_105_1498)">
<path d="M50 25.5C50 39.5832 38.807 51 25 51C11.193 51 0 39.5832 0 25.5C0 25.5061 25 0.00278906 25 0C38.807 0 50 11.4168 50 25.5Z" fill="#338AF3"/>
<path d="M24.9998 12.1957V20.7963L16.3042 12.1957H24.9998Z" fill="#0052B4"/>
<path d="M13.0435 25.5H20.3884L13.0435 15.5217L11.9565 23.2826L13.0435 25.5Z" fill="#0052B4"/>
<path d="M24.9331 25.5001H25C25 25.4772 25 25.4549 25 25.4319C24.9777 25.4547 24.9555 25.4774 24.9331 25.5001Z" fill="#F0F0F0"/>
<path d="M25 13.3043C25 8.81742 25 5.87745 25 0H24.9958C11.1906 0.00239063 0 11.4181 0 25.5H13.0435V18.0083L20.3884 25.5H24.9333C24.9556 25.4773 24.9778 25.4546 25.0002 25.4318C25.0002 23.7138 25.0002 22.1809 25.0002 20.7962L17.6551 13.3043H25Z" fill="#F0F0F0"/>
<path d="M12.6479 3.32605C8.73779 5.59704 5.48721 8.91264 3.26074 12.9009V25.5H9.78252V9.97846V9.97826H24.9999C24.9999 7.88019 24.9999 5.88143 24.9999 3.32605H12.6479Z" fill="#D80027"/>
<path d="M24.9999 22.3642L16.1178 13.3044H13.0435V13.3046L24.9997 25.5H24.9999C24.9999 25.5 24.9999 23.3378 24.9999 22.3642Z" fill="#D80027"/>
<path d="M28.2607 16.6305V25.4999C28.2607 31.4406 35.8694 33.2609 35.8694 33.2609C35.8694 33.2609 43.4781 31.4406 43.4781 25.4999V16.6305L35.8694 14.4131L28.2607 16.6305Z" fill="#F3F3F3"/>
<path d="M43.4781 16.6305V13.3044H28.2607V16.6305H34.7823V23.2828H28.2607V25.5V25.5002L34.7823 25.5003V32.9209C35.4384 33.1576 35.8694 33.261 35.8694 33.261C35.8694 33.261 36.3003 33.1578 36.9563 32.9209V25.5002H43.4781V25.5V23.2827H36.9563V16.6304H43.4781V16.6305Z" fill="#D80027"/>
</g>
<defs>
<clipPath id="clip0_105_1498">
<rect width="50" height="51" fill="white"/>
</clipPath>
</defs>
</svg>
