<svg width="50" height="51" viewBox="0 0 50 51" fill="none" xmlns="http://www.w3.org/2000/svg">
<g clip-path="url(#clip0_105_1860)">
<path d="M25 51C38.8071 51 50 39.5833 50 25.5C50 11.4167 38.8071 0 25 0C11.1929 0 0 11.4167 0 25.5C0 39.5833 11.1929 51 25 51Z" fill="#F0F0F0"/>
<path d="M25.0002 0C14.2511 0 5.0875 6.92006 1.55518 16.6305H48.4453C44.9129 6.92006 35.7493 0 25.0002 0V0Z" fill="#D80027"/>
<path d="M25.0002 51.0001C35.7493 51.0001 44.9129 44.08 48.4452 34.3696H1.55518C5.0875 44.08 14.2511 51.0001 25.0002 51.0001Z" fill="#338AF3"/>
</g>
<defs>
<clipPath id="clip0_105_1860">
<rect width="50" height="51" fill="white"/>
</clipPath>
</defs>
</svg>
