<svg width="50" height="51" viewBox="0 0 50 51" fill="none" xmlns="http://www.w3.org/2000/svg">
<g clip-path="url(#clip0_105_1975)">
<path d="M35.8695 2.53028C32.5828 0.909234 28.8955 0 25 0C21.1045 0 17.4172 0.909234 14.1305 2.53028L11.9565 25.5L14.1305 48.4697C17.4172 50.0908 21.1045 51 25 51C28.8955 51 32.5828 50.0908 35.8695 48.4697L38.0435 25.5L35.8695 2.53028Z" fill="#FFDA44"/>
<path d="M14.1305 2.53125C5.76816 6.65578 0 15.3904 0 25.5001C0 35.6097 5.76816 44.3444 14.1305 48.4689V2.53125Z" fill="#0052B4"/>
<path d="M35.8695 2.53125V48.4689C44.2318 44.3444 50 35.6097 50 25.5001C50 15.3904 44.2318 6.65578 35.8695 2.53125Z" fill="#D80027"/>
<path d="M33.6957 20.0632H27.7174C27.7174 18.5324 26.5008 17.2915 25 17.2915C23.4993 17.2915 22.2827 18.5324 22.2827 20.0632H16.3044C16.3044 21.5704 17.5917 22.7921 19.0691 22.7921H18.98C18.98 24.2994 20.1779 25.5213 21.6556 25.5213C21.6556 26.8558 22.5953 27.9646 23.8363 28.2017L21.7279 33.0569C22.7381 33.4757 23.8422 33.7085 25 33.7085C26.1578 33.7085 27.262 33.4757 28.2721 33.0569L26.1638 28.2017C27.4048 27.9646 28.3445 26.8558 28.3445 25.5213C29.8222 25.5213 31.0201 24.2994 31.0201 22.7921H30.9309C32.4085 22.7921 33.6957 21.5703 33.6957 20.0632V20.0632Z" fill="#FF9811"/>
<path d="M25 23.8369L21.4674 25.5V28.826L25 31.0435L28.5326 28.826V25.5L25 23.8369Z" fill="#0052B4"/>
<path d="M21.4674 22.1738H28.5326V25.4999H21.4674V22.1738Z" fill="#D80027"/>
</g>
<defs>
<clipPath id="clip0_105_1975">
<rect width="50" height="51" fill="white"/>
</clipPath>
</defs>
</svg>
