<svg width="50" height="51" viewBox="0 0 50 51" fill="none" xmlns="http://www.w3.org/2000/svg">
<g clip-path="url(#clip0_105_2458)">
<path d="M48.445 34.3695C49.4499 31.6071 50 28.6192 50 25.5C50 22.3808 49.4499 19.393 48.445 16.6305L25 14.4131L1.55498 16.6305C0.550098 19.393 0 22.3808 0 25.5C0 28.6192 0.550098 31.6071 1.55498 34.3695L25 36.5869L48.445 34.3695Z" fill="#F0F0F0"/>
<path d="M24.9998 51.0001C35.7488 51.0001 44.9125 44.08 48.4447 34.3696H1.55469C5.08711 44.08 14.2506 51.0001 24.9998 51.0001Z" fill="#D80027"/>
<path d="M24.9998 0C14.2506 0 5.08711 6.92006 1.55469 16.6305H48.4448C44.9125 6.92006 35.7488 0 24.9998 0Z" fill="#496E2D"/>
<path d="M25.0001 19.9565L26.349 24.1912H30.7146L27.1828 26.8087L28.5319 31.0435L25.0001 28.4264L21.4683 31.0435L22.8174 26.8087L19.2856 24.1912H23.6512L25.0001 19.9565Z" fill="black"/>
<path d="M32.4272 4.98914V10.1629C32.4272 10.9782 31.7771 11.6412 30.978 11.6412V13.8587C32.9759 13.8587 34.6012 12.2009 34.6012 10.1629V4.98914H32.4272Z" fill="#F0F0F0"/>
<path d="M16.8478 10.1629C16.8478 10.9782 16.1977 11.6412 15.3984 11.6412V13.8587C17.3964 13.8587 19.0217 12.2009 19.0217 10.1629V4.98914H16.8478V10.1629Z" fill="#F0F0F0"/>
<path d="M29.166 4.98914H31.3399V10.1629H29.166V4.98914Z" fill="#F0F0F0"/>
<path d="M25.9056 7.94554C25.9056 8.14934 25.743 8.31519 25.5433 8.31519C25.3435 8.31519 25.1809 8.14934 25.1809 7.94554V4.98914H23.0069V7.94554C23.0069 8.14934 22.8444 8.31519 22.6446 8.31519C22.4448 8.31519 22.2823 8.14934 22.2823 7.94554V4.98914H20.1084V7.94554C20.1084 9.37215 21.2461 10.5326 22.6446 10.5326C23.1832 10.5326 23.6828 10.36 24.0938 10.0668C24.5051 10.36 25.0046 10.5326 25.5432 10.5326C25.6517 10.5326 25.7583 10.5248 25.8632 10.5112C25.7091 11.1585 25.1375 11.6412 24.4563 11.6412V13.8587C26.4541 13.8587 28.0794 12.2009 28.0794 10.1629V7.94554V4.98914H25.9055L25.9056 7.94554Z" fill="#F0F0F0"/>
<path d="M20.1084 11.6414H23.3692V13.8588H20.1084V11.6414Z" fill="#F0F0F0"/>
</g>
<defs>
<clipPath id="clip0_105_2458">
<rect width="50" height="51" fill="white"/>
</clipPath>
</defs>
</svg>
