<svg width="50" height="51" viewBox="0 0 50 51" fill="none" xmlns="http://www.w3.org/2000/svg">
<g clip-path="url(#clip0_105_2583)">
<path d="M50 25.499C50 39.5822 38.807 50.999 25 50.999C11.193 50.999 0 39.5822 0 25.499C8.58691 16.7404 15.8695 9.3121 25 -0.000976562C38.807 -0.000976562 50 11.4159 50 25.499Z" fill="#D80027"/>
<path d="M25 25.499C25 11.4159 25 9.75556 25 -0.000976562C11.193 -0.000976562 0 11.4159 0 25.499H25Z" fill="#0052B4"/>
<path d="M21.7391 14.9225L18.6859 16.3876L20.3117 19.4037L16.9964 18.7566L16.5761 22.1729L14.267 19.6604L11.9576 22.1729L11.5376 18.7566L8.22214 19.4035L9.84792 16.3874L6.7948 14.9225L9.84802 13.4578L8.22214 10.4416L11.5375 11.0886L11.9577 7.67236L14.267 10.1849L16.5762 7.67236L16.9964 11.0886L20.3118 10.4416L18.6859 13.4579L21.7391 14.9225Z" fill="#F0F0F0"/>
<path d="M14.2674 19.6689C16.8375 19.6689 18.921 17.5437 18.921 14.9222C18.921 12.3007 16.8375 10.1755 14.2674 10.1755C11.6973 10.1755 9.61377 12.3007 9.61377 14.9222C9.61377 17.5437 11.6973 19.6689 14.2674 19.6689Z" fill="#0052B4"/>
<path d="M14.2669 17.4519C12.8997 17.4519 11.7874 16.3172 11.7874 14.9226C11.7874 13.528 12.8998 12.3933 14.2669 12.3933C15.6342 12.3933 16.7466 13.528 16.7466 14.9226C16.7465 16.3172 15.634 17.4519 14.2669 17.4519Z" fill="#F0F0F0"/>
</g>
<defs>
<clipPath id="clip0_105_2583">
<rect width="50" height="51" fill="white" transform="translate(0 -0.000976562)"/>
</clipPath>
</defs>
</svg>
