<svg width="50" height="51" viewBox="0 0 50 51" fill="none" xmlns="http://www.w3.org/2000/svg">
<g clip-path="url(#clip0_105_1146)">
<path d="M35.8695 2.53028C32.5828 0.909234 28.8955 0 25 0C21.1045 0 17.4172 0.909234 14.1305 2.53028L11.9565 25.5L14.1305 48.4697C17.4172 50.0908 21.1045 51 25 51C28.8955 51 32.5828 50.0908 35.8695 48.4697L38.0435 25.5L35.8695 2.53028Z" fill="#D80027"/>
<path d="M24.9999 16.6305L27.1581 23.4058H34.1433L28.4925 27.5938L30.6508 34.3695L24.9999 30.1819L19.349 34.3695L21.5077 27.5938L15.8569 23.4058H22.8416L24.9999 16.6305Z" fill="#FFDA44"/>
<path d="M14.1305 2.53113C5.76816 6.65555 0 15.3902 0 25.5C0 35.6097 5.76816 44.3444 14.1305 48.4688V2.53113Z" fill="#496E2D"/>
<path d="M35.8696 2.53113V48.4688C44.2319 44.3444 50.0001 35.6096 50.0001 25.5C50.0001 15.3903 44.2319 6.65555 35.8696 2.53113Z" fill="#FFDA44"/>
</g>
<defs>
<clipPath id="clip0_105_1146">
<rect width="50" height="51" fill="white"/>
</clipPath>
</defs>
</svg>
