<svg width="50" height="51" viewBox="0 0 50 51" fill="none" xmlns="http://www.w3.org/2000/svg">
<g clip-path="url(#clip0_105_1421)">
<path d="M0 25.5C0 11.4168 11.193 0 25 0C38.807 0 50 11.4168 50 25.5L25 27.7174L0 25.5Z" fill="#FFDA44"/>
<path d="M3.34521 38.25C7.66797 45.8717 15.7465 51 24.9999 51C34.2533 51 42.3318 45.8717 46.6546 38.25L24.9999 36.5869L3.34521 38.25Z" fill="#D80027"/>
<path d="M46.6547 38.25C48.7818 34.4993 50 30.1449 50 25.5H0C0 30.1449 1.21816 34.4993 3.34531 38.25H46.6547Z" fill="#0052B4"/>
<path d="M24.9998 34.3695C29.8023 34.3695 33.6954 30.3985 33.6954 25.5C33.6954 20.6015 29.8023 16.6305 24.9998 16.6305C20.1974 16.6305 16.3042 20.6015 16.3042 25.5C16.3042 30.3985 20.1974 34.3695 24.9998 34.3695Z" fill="#FFDA44"/>
<path d="M25.0002 31.0435C22.0034 31.0435 19.5654 28.5566 19.5654 25.5V22.174C19.5654 19.1172 22.0035 16.6305 25.0002 16.6305C27.9969 16.6305 30.435 19.1173 30.435 22.174V25.5C30.435 28.5567 27.997 31.0435 25.0002 31.0435Z" fill="#338AF3"/>
<path d="M33.6956 12.1957H27.1738C27.1738 10.9711 26.2005 9.97827 24.9999 9.97827C23.7993 9.97827 22.826 10.9711 22.826 12.1957H16.3042C16.3042 13.4204 17.35 14.4131 18.5505 14.4131H18.4781C18.4781 15.6378 19.4514 16.6305 20.6521 16.6305C20.6521 17.8552 21.6253 18.8479 22.826 18.8479H27.1738C28.3745 18.8479 29.3478 17.8552 29.3478 16.6305C30.5484 16.6305 31.5217 15.6378 31.5217 14.4131H31.4493C32.6499 14.4131 33.6956 13.4203 33.6956 12.1957V12.1957Z" fill="black"/>
</g>
<defs>
<clipPath id="clip0_105_1421">
<rect width="50" height="51" fill="white"/>
</clipPath>
</defs>
</svg>
