<svg width="50" height="51" viewBox="0 0 50 51" fill="none" xmlns="http://www.w3.org/2000/svg">
<g clip-path="url(#clip0_105_2655)">
<path d="M13.537 2.83154C11.2989 4.00982 9.19805 5.55427 7.32188 7.46796C5.44561 9.38176 3.93145 11.5247 2.77637 13.8075L18.8513 31.772L36.4635 48.1684C38.7017 46.9901 40.8025 45.4456 42.6787 43.532C44.555 41.6182 46.069 39.4753 47.2242 37.1925L31.1493 19.2279L13.537 2.83154Z" fill="#F0F0F0"/>
<path d="M42.6779 43.5319C43.7267 42.4622 44.662 41.3208 45.4854 40.1236L10.6627 4.60425C9.48896 5.44405 8.36992 6.39811 7.32119 7.46782C6.27246 8.53752 5.33711 9.67895 4.51367 10.8763L39.3364 46.3954C40.5101 45.5556 41.6292 44.6016 42.6779 43.5319Z" fill="black"/>
<path d="M7.32148 43.5319C15.2089 51.5771 27.0543 53.1214 36.4631 48.1682L2.77607 13.8074C-2.07989 23.4043 -0.565535 35.4868 7.32148 43.5319V43.5319Z" fill="#D80027"/>
<path d="M42.6787 7.46779C34.7913 -0.577261 22.9459 -2.1216 13.5371 2.83127L47.2241 37.1923C52.0802 27.5954 50.5661 15.5128 42.6787 7.46779V7.46779Z" fill="#D80027"/>
</g>
<defs>
<clipPath id="clip0_105_2655">
<rect width="50" height="51" fill="white"/>
</clipPath>
</defs>
</svg>
