<svg width="50" height="51" viewBox="0 0 50 51" fill="none" xmlns="http://www.w3.org/2000/svg">
<g clip-path="url(#clip0_105_1733)">
<path d="M25 51C38.8071 51 50 39.5833 50 25.5C50 11.4167 38.8071 0 25 0C11.1929 0 0 11.4167 0 25.5C0 39.5833 11.1929 51 25 51Z" fill="#FFDA44"/>
<path d="M40.2203 5.27133C36.0047 1.96619 30.7279 0 25 0C19.272 0 13.9951 1.96629 9.77954 5.27133L25 20.796L40.2203 5.27133Z" fill="#6DA544"/>
<path d="M5.16787 9.9751C1.92773 14.2749 0 19.6573 0 25.4998C0 31.3423 1.92773 36.7248 5.16797 41.0247L20.3884 25.4998L5.16787 9.9751Z" fill="black"/>
<path d="M9.77954 45.7288C13.9952 49.034 19.272 51.0001 25 51.0001C30.7279 51.0001 36.0047 49.0339 40.2204 45.7288L25 30.2041L9.77954 45.7288Z" fill="#6DA544"/>
<path d="M44.8321 41.0245C48.0725 36.7247 50.0001 31.3423 50.0001 25.4998C50.0001 19.6573 48.0725 14.2749 44.8321 9.9751L29.6118 25.4998L44.8321 41.0245Z" fill="black"/>
</g>
<defs>
<clipPath id="clip0_105_1733">
<rect width="50" height="51" fill="white"/>
</clipPath>
</defs>
</svg>
