<svg width="50" height="51" viewBox="0 0 50 51" fill="none" xmlns="http://www.w3.org/2000/svg">
<g clip-path="url(#clip0_105_1907)">
<path d="M33.6956 1.58608C30.9873 0.5611 28.058 0 25 0C21.942 0 19.0127 0.5611 16.3044 1.58608L14.1305 25.5L16.3044 49.4139C19.0127 50.439 21.942 51 25 51C28.058 51 30.9873 50.439 33.6956 49.4139L35.8696 25.5L33.6956 1.58608Z" fill="#FFDA44"/>
<path d="M49.9999 25.4998C49.9999 14.5358 43.2156 5.18881 33.6956 1.58594V49.4139C43.2156 45.8107 49.9999 36.464 49.9999 25.4998V25.4998Z" fill="#D80027"/>
<path d="M0 25.4998C0 36.464 6.78437 45.8107 16.3044 49.4138V1.58594C6.78437 5.18881 0 14.5358 0 25.4998V25.4998Z" fill="#6DA544"/>
</g>
<defs>
<clipPath id="clip0_105_1907">
<rect width="50" height="51" fill="white"/>
</clipPath>
</defs>
</svg>
