<svg width="50" height="51" viewBox="0 0 50 51" fill="none" xmlns="http://www.w3.org/2000/svg">
<g clip-path="url(#clip0_105_1560)">
<path d="M25 51C38.8071 51 50 39.5833 50 25.5C50 11.4167 38.8071 0 25 0C11.1929 0 0 11.4167 0 25.5C0 39.5833 11.1929 51 25 51Z" fill="#F9F9F9"/>
<path d="M24.9998 50.9999C35.7488 50.9999 44.9125 44.0798 48.4447 34.3694H1.55469C5.08711 44.0798 14.2506 50.9999 24.9998 50.9999Z" fill="#D80027"/>
<path d="M34.7826 21.0651V17.7391H35.8695V15.5217H33.6956V16.6304H31.5218V15.5217H29.3479V17.7391H30.4348V21.0651H28.2608V13.3045H29.3479V11.0872H27.1739V12.1956H26.0869V11.0872H23.9131V12.1956H22.8261V11.0872H20.6521V13.3045H21.7392V21.0651H19.5652V17.7391H20.6521V15.5217H18.4782V16.6304H16.3044V15.5217H14.1305V17.7391H15.2174V21.0651H13.0435V29.9347H36.9565V21.0651H34.7826Z" fill="#D80027"/>
<path d="M25.0001 28.8262C23.1992 28.8262 21.7393 30.3153 21.7393 32.1522C21.7393 33.6002 22.6469 34.8317 23.9132 35.2883V39.9132H20.6523V44.348H26.0871V35.2884C27.3534 34.8318 28.261 33.6003 28.261 32.1523C28.2609 30.3154 26.801 28.8262 25.0001 28.8262V28.8262ZM25.0001 33.261C24.3998 33.261 23.9132 32.7645 23.9132 32.1523C23.9132 31.54 24.3998 31.0437 25.0001 31.0437C25.6004 31.0437 26.087 31.54 26.087 32.1523C26.087 32.7645 25.6004 33.261 25.0001 33.261Z" fill="#FFDA44"/>
</g>
<defs>
<clipPath id="clip0_105_1560">
<rect width="50" height="51" fill="white"/>
</clipPath>
</defs>
</svg>
