<svg width="50" height="51" viewBox="0 0 50 51" fill="none" xmlns="http://www.w3.org/2000/svg">
<g clip-path="url(#clip0_105_992)">
<path d="M42.6776 43.5314C32.9145 53.4897 17.0854 53.4897 7.32225 43.5314C-2.44083 33.573 -2.44083 17.4273 7.32225 7.46881C7.32577 7.46881 29.7889 0.698657 39.552 10.657C49.3152 20.6154 42.6844 43.5244 42.6776 43.5314Z" fill="#FFDA44"/>
<path d="M42.6776 43.5314C52.4407 33.573 52.4407 17.4272 42.6776 7.4688C32.9146 -2.48965 17.0854 -2.48955 7.32227 7.4688L42.6776 43.5314Z" fill="#D80027"/>
<path d="M31.5348 32.168C30.5078 32.5794 29.3145 32.5358 28.2793 31.9432C26.4502 30.8961 25.7973 28.526 26.8241 26.66L26.5124 26.4817C29.6443 25.7114 31.9614 22.8118 31.9208 19.39C31.8956 17.2627 30.9637 15.3594 29.5059 14.0571L27.2234 16.4424C28.0863 17.1438 28.6458 18.2198 28.6601 19.4304C28.6855 21.57 26.9998 23.3318 24.9022 23.3576L24.9066 23.7218C22.6866 21.3406 19.0663 20.7436 16.1814 22.4904C14.3879 23.5765 13.2381 25.3511 12.861 27.29L16.0274 28.1138C16.1916 27.0008 16.8253 25.9686 17.8459 25.3505C19.6497 24.2583 21.9884 24.8667 23.0592 26.7065L23.3666 26.5206C22.4547 29.672 23.7579 33.1686 26.6836 34.8436C28.5025 35.8849 30.5842 36.0133 32.4189 35.3769L31.5348 32.168ZM24.9285 25.5745L24.9283 25.5746L24.9285 25.5745Z" fill="#FF9811"/>
<path d="M34.2564 17.2704L32.4894 23.7023L27.1877 22.7037L23.775 15.5283L14.5555 18.8653L13.8285 16.7755L11.4164 16.4724L13.2339 21.6968L19.5785 20.0417L21.3815 25.2243L16.9956 31.8265L24.4386 38.3017L23.0278 39.9888L23.9765 42.2713L27.5037 38.0535L22.9261 33.2765L26.4249 29.0926L34.2235 29.6658L35.9998 19.8533L38.1376 20.256L39.6013 18.2767L34.2564 17.2704ZM24.9981 25.6735V25.6737V25.6735Z" fill="#FFEACF"/>
</g>
<defs>
<clipPath id="clip0_105_992">
<rect width="50" height="51" fill="white"/>
</clipPath>
</defs>
</svg>
