<svg width="50" height="51" viewBox="0 0 50 51" fill="none" xmlns="http://www.w3.org/2000/svg">
<g clip-path="url(#clip0_105_2223)">
<path d="M25 51C38.8071 51 50 39.5833 50 25.5C50 11.4167 38.8071 0 25 0C11.1929 0 0 11.4167 0 25.5C0 39.5833 11.1929 51 25 51Z" fill="#F0F0F0"/>
<path d="M25 0V25.5L7.32227 43.5313C11.8464 48.1458 18.0964 51 25 51C38.807 51 50 39.5832 50 25.5C50 11.4168 25 0 25 0Z" fill="#D80027"/>
<path d="M25 0C18.0964 0 11.8464 2.85421 7.32227 7.46871C13.4561 13.7252 15.6335 15.9463 25 25.5H50C50 11.4168 38.807 0 25 0Z" fill="#0052B4"/>
<path d="M17.1182 25.5L14.065 24.0352L15.6909 21.0191L12.3755 21.6661L11.9554 18.2498L9.646 20.7623L7.33672 18.2498L6.9165 21.6661L3.60117 21.019L5.22705 24.0352L2.17383 25.5L5.22705 26.9649L3.60117 29.9809L6.9168 29.3341L7.33662 32.7503L9.646 30.2377L11.9554 32.7503L12.3755 29.3341L15.6907 29.9811L14.0649 26.965L17.1182 25.5Z" fill="#FFDA44"/>
<path d="M6.66724 9.97827L7.68325 11.4269L9.3478 10.8891L8.31089 12.3223L9.32691 13.7709L7.67007 13.208L6.63325 14.6411L6.64624 12.8601L4.9895 12.2971L6.65435 11.7593L6.66724 9.97827Z" fill="#FFDA44"/>
<path d="M6.66724 36.3589L7.68325 37.8076L9.3478 37.2697L8.31089 38.703L9.32691 40.1516L7.67007 39.5887L6.63325 41.0218L6.64624 39.2407L4.9895 38.6778L6.65435 38.14L6.66724 36.3589Z" fill="#FFDA44"/>
<path d="M21.1586 23.1686L20.1427 24.6173L18.478 24.0793L19.5149 25.5125L18.4989 26.9613L20.1558 26.3983L21.1927 27.8314L21.1796 26.0504L22.8363 25.4874L21.1716 24.9497L21.1586 23.1686Z" fill="#FFDA44"/>
</g>
<defs>
<clipPath id="clip0_105_2223">
<rect width="50" height="51" fill="white"/>
</clipPath>
</defs>
</svg>
