<svg width="50" height="51" viewBox="0 0 50 51" fill="none" xmlns="http://www.w3.org/2000/svg">
<g clip-path="url(#clip0_105_2873)">
<path d="M25 51C38.8071 51 50 39.5833 50 25.5C50 11.4167 38.8071 0 25 0C11.1929 0 0 11.4167 0 25.5C0 39.5833 11.1929 51 25 51Z" fill="#F0F0F0"/>
<path d="M50 25.5C50 39.5832 38.807 51 25 51C11.193 51 0 39.5832 0 25.5" fill="#496E2D"/>
<path d="M43.2628 17.7445C42.3688 15.1583 39.953 13.3042 37.1117 13.3042H31.5215C27.9196 13.3042 24.9997 16.2825 24.9997 19.9564C24.9997 21.1567 25.313 22.3103 25.8582 23.2825C23.7823 23.2651 21.8611 23.2971 20.6519 23.2825C20.6519 20.7169 20.6519 17.4487 20.6519 16.7649L20.9087 16.503C22.0616 15.327 21.6771 13.3671 21.6771 13.3671C21.6771 13.3671 19.7559 12.9751 18.6029 14.1511L17.2593 15.5216H15.7605C12.4588 15.5216 9.78232 18.2517 9.78232 21.6194H14.1302V26.6085C14.1302 27.3383 14.2744 28.0334 14.5351 28.6666L13.0432 29.9346H10.8692V27.7172H8.69531V32.152H18.4779V36.5868H16.304V38.8042H20.6519V34.3694L22.6445 31.9303H27.3548L29.3475 34.3694V36.5868H27.1735V38.8042H35.8691V26.6084C35.8691 24.7715 37.3291 23.2824 39.13 23.2824C39.1763 23.2824 39.2222 23.2841 39.2681 23.286C39.178 22.9305 39.13 22.5579 39.13 22.1737C39.1302 19.7981 40.9615 17.8589 43.2628 17.7445V17.7445ZM31.5215 36.5867V31.9302H31.7026L33.6953 34.3693V36.5867H31.5215Z" fill="#D80027"/>
</g>
<defs>
<clipPath id="clip0_105_2873">
<rect width="50" height="51" fill="white"/>
</clipPath>
</defs>
</svg>
