<svg width="50" height="51" viewBox="0 0 50 51" fill="none" xmlns="http://www.w3.org/2000/svg">
<g clip-path="url(#clip0_105_1252)">
<path d="M25 51C38.8071 51 50 39.5833 50 25.5C50 11.4167 38.8071 0 25 0C11.1929 0 0 11.4167 0 25.5C0 39.5833 11.1929 51 25 51Z" fill="#6DA544"/>
<path d="M38.3775 36.5869L39.0636 38.0501L40.6128 37.6849L39.919 39.1443L41.1648 40.1519L39.6137 40.5085L39.6181 42.1305L38.3775 41.1158L37.1371 42.1305L37.1414 40.5085L35.5903 40.1519L36.8361 39.1443L36.1424 37.6849L37.6915 38.0501L38.3775 36.5869Z" fill="#FFDA44"/>
<path d="M31.9952 21.0652L32.6813 22.5283L34.2306 22.1631L33.5367 23.6226L34.7825 24.6302L33.2314 24.9868L33.2357 26.6086L31.9952 25.594L30.7548 26.6086L30.759 24.9868L29.208 24.6302L30.4538 23.6226L29.76 22.1631L31.3093 22.5283L31.9952 21.0652Z" fill="#FFDA44"/>
<path d="M38.3774 12.1957L39.0635 13.6588L40.6127 13.2935L39.919 14.753L41.1647 15.7607L39.6136 16.1172L39.6178 17.7391L38.3774 16.7244L37.137 17.7391L37.1413 16.1172L35.5903 15.7607L36.836 14.753L36.1423 13.2935L37.6914 13.6588L38.3774 12.1957Z" fill="#FFDA44"/>
<path d="M43.9518 18.8478L44.6378 20.3109L46.1871 19.9457L45.4933 21.4052L46.7391 22.4128L45.188 22.7694L45.1923 24.3913L43.9518 23.3766L42.7113 24.3913L42.7155 22.7694L41.1646 22.4128L42.4104 21.4052L41.7165 19.9457L43.2657 20.3109L43.9518 18.8478Z" fill="#FFDA44"/>
<path d="M39.9659 26.6086L40.5057 28.3027H42.2519L40.8391 29.3496L41.3788 31.0435L39.9659 29.9967L38.5533 31.0435L39.0929 29.3496L37.6802 28.3027H39.4264L39.9659 26.6086Z" fill="#FFDA44"/>
<path d="M27.7173 32.7065C23.8152 32.7065 20.652 29.48 20.652 25.5C20.652 21.52 23.8151 18.2934 27.7173 18.2934C28.9339 18.2934 30.0787 18.6073 31.0781 19.1597C29.5103 17.5956 27.3662 16.6304 24.9997 16.6304C20.1974 16.6304 16.3042 20.6014 16.3042 25.4999C16.3042 30.3984 20.1974 34.3694 24.9997 34.3694C27.3661 34.3694 29.5103 33.4042 31.078 31.8401C30.0787 32.3927 28.9339 32.7065 27.7173 32.7065V32.7065Z" fill="#FFDA44"/>
<path d="M15.7214 9.97827C14.9694 8.65307 13.5656 7.76086 11.9566 7.76086C10.3477 7.76086 8.94385 8.65307 8.19189 9.97827H15.7214Z" fill="#FFDA44"/>
<path d="M15.7358 10.0038L11.9566 13.8586L8.17744 10.0038C7.81621 10.6504 7.60889 11.3982 7.60889 12.1956C7.60889 14.6449 9.55547 16.6305 11.9567 16.6305C14.358 16.6305 16.3046 14.645 16.3046 12.1956C16.3045 11.3982 16.0971 10.6504 15.7358 10.0038V10.0038Z" fill="#FFDA44"/>
<path d="M10.8696 12.75V16.4907C11.217 16.5819 11.5812 16.6304 11.9565 16.6304C12.3318 16.6304 12.6961 16.5818 13.0435 16.4907V12.75H10.8696Z" fill="#A2001D"/>
</g>
<defs>
<clipPath id="clip0_105_1252">
<rect width="50" height="51" fill="white"/>
</clipPath>
</defs>
</svg>
