<svg width="50" height="51" viewBox="0 0 50 51" fill="none" xmlns="http://www.w3.org/2000/svg">
<g clip-path="url(#clip0_105_886)">
<path d="M50 25.5002C50 22.3811 49.45 19.3931 48.445 16.6307L25 15.522L1.55498 16.6306C0.550098 19.3931 0 22.3811 0 25.5002C0 28.6194 0.550098 31.6074 1.55498 34.3698L25 35.4785L48.445 34.3699C49.45 31.6074 50 28.6194 50 25.5002Z" fill="#D80027"/>
<path d="M25 51.0001C35.7491 51.0001 44.9126 44.08 48.445 34.3696H1.55493C5.08726 44.08 14.2508 51.0001 25 51.0001Z" fill="#6DA544"/>
<path d="M1.55493 16.6305H48.4451C44.9126 6.92006 35.7491 0 25 0C14.2508 0 5.08726 6.92006 1.55493 16.6305V16.6305Z" fill="#338AF3"/>
<path d="M25.5434 32.7065C21.6414 32.7065 18.4781 29.48 18.4781 25.5C18.4781 21.52 21.6414 18.2934 25.5434 18.2934C26.76 18.2934 27.9048 18.6072 28.9042 19.1597C27.3362 17.5957 25.1921 16.6304 22.826 16.6304C18.0234 16.6304 14.1304 20.6014 14.1304 25.4999C14.1304 30.3984 18.0235 34.3694 22.826 34.3694C25.1922 34.3694 27.3363 33.4041 28.9042 31.8401C27.9048 32.3928 26.76 32.7065 25.5434 32.7065Z" fill="#F0F0F0"/>
<path d="M30.9782 20.5107L31.9141 23.1953L34.4369 21.9719L33.2376 24.5452L35.8695 25.4999L33.2376 26.4545L34.4369 29.0278L31.9141 27.8044L30.9782 30.489L30.0425 27.8044L27.5195 29.0278L28.7189 26.4545L26.0869 25.4999L28.7189 24.5452L27.5195 21.9719L30.0425 23.1953L30.9782 20.5107Z" fill="#F0F0F0"/>
</g>
<defs>
<clipPath id="clip0_105_886">
<rect width="50" height="51" fill="white"/>
</clipPath>
</defs>
</svg>
