<svg width="50" height="51" viewBox="0 0 50 51" fill="none" xmlns="http://www.w3.org/2000/svg">
<g clip-path="url(#clip0_105_1212)">
<path d="M25 51C38.8071 51 50 39.5833 50 25.5C50 11.4167 38.8071 0 25 0C11.1929 0 0 11.4167 0 25.5C0 39.5833 11.1929 51 25 51Z" fill="#F0F0F0"/>
<path d="M25 0C18.0964 0 11.8464 2.85421 7.32227 7.46871L25 25.5V0Z" fill="black"/>
<path d="M0 25.5C0 32.5417 2.79824 38.9167 7.32227 43.5313L25 25.5H0Z" fill="black"/>
<path d="M25 51C31.9036 51 38.1536 48.1458 42.6777 43.5313L25 25.5V51Z" fill="black"/>
<path d="M50 25.5C50 18.4584 47.2018 12.0834 42.6777 7.46875L25 25.5H50Z" fill="black"/>
<path d="M16.3044 17.7391L25 18.8481L33.6956 17.7391V12.4174L30.2174 14.1913L25 8.86951L19.7826 14.1913L16.3044 12.4174V17.7391Z" fill="#FFDA44"/>
<path d="M25 38.8044C20.2052 38.8044 16.3044 34.8255 16.3044 29.9349V21.0657L19.5652 17.7394H30.4348L33.6956 21.0657V29.9349C33.6956 34.8255 29.7948 38.8044 25 38.8044Z" fill="#D80027"/>
<path d="M25 35.4783C22.0032 35.4783 19.5652 32.9915 19.5652 29.9348V21.0654H30.4348V29.9347C30.4348 32.9915 27.9968 35.4783 25 35.4783V35.4783Z" fill="#F0F0F0"/>
<path d="M16.3044 17.7391H19.5652V21.0652H16.3044V17.7391Z" fill="#FFDA44"/>
<path d="M30.4348 17.7391H33.6956V21.0652H30.4348V17.7391Z" fill="#FFDA44"/>
<path d="M30.4348 24.9457H33.6956V28.2717H30.4348V24.9457Z" fill="#FFDA44"/>
<path d="M16.3044 24.9457H19.5652V28.2717H16.3044V24.9457Z" fill="#FFDA44"/>
<path d="M25 35.4782C24.432 35.4782 23.8844 35.3886 23.3695 35.223V38.6457C23.898 38.7485 24.4426 38.8044 25 38.8044C25.5574 38.8044 26.1019 38.7485 26.6304 38.6457V35.223C26.1155 35.3885 25.5679 35.4782 25 35.4782Z" fill="#FFDA44"/>
<path d="M19.6379 30.8347L17.0355 33.4891C17.4867 34.5369 18.1304 35.4791 18.9217 36.269L21.2263 33.9182C20.4039 33.1077 19.8309 32.0359 19.6379 30.8347Z" fill="#FFDA44"/>
<path d="M32.9645 33.4892L30.3621 30.8348C30.169 32.0359 29.5961 33.1076 28.7737 33.9184L31.0784 36.2692C31.8694 35.4792 32.5133 34.537 32.9645 33.4892Z" fill="#FFDA44"/>
<path d="M23.9131 22.9131V24.7608C23.9131 25.373 24.3997 25.8695 25 25.8695C25.6003 25.8695 26.0869 25.373 26.0869 24.7608V22.9131H23.9131Z" fill="#0052B4"/>
<path d="M23.9131 30.3044V32.1522C23.9131 32.7644 24.3997 33.2608 25 33.2608C25.6003 33.2608 26.0869 32.7644 26.0869 32.1522V30.3044H23.9131Z" fill="#0052B4"/>
<path d="M27.174 26.6086V28.4566C27.174 29.0688 27.6606 29.5652 28.2609 29.5652C28.8612 29.5652 29.3478 29.0688 29.3478 28.4566V26.6086H27.174Z" fill="#0052B4"/>
<path d="M23.9131 26.6086V28.4566C23.9131 29.0688 24.3997 29.5652 25 29.5652C25.6003 29.5652 26.0869 29.0688 26.0869 28.4566V26.6086H23.9131Z" fill="#0052B4"/>
<path d="M20.6522 26.6086V28.4566C20.6522 29.0688 21.1388 29.5652 21.7391 29.5652C22.3394 29.5652 22.826 29.0688 22.826 28.4566V26.6086H20.6522Z" fill="#0052B4"/>
</g>
<defs>
<clipPath id="clip0_105_1212">
<rect width="50" height="51" fill="white"/>
</clipPath>
</defs>
</svg>
