<svg width="50" height="51" viewBox="0 0 50 51" fill="none" xmlns="http://www.w3.org/2000/svg">
<g clip-path="url(#clip0_105_847)">
<path d="M25 51C38.8071 51 50 39.5833 50 25.5C50 11.4167 38.8071 0 25 0C11.1929 0 0 11.4167 0 25.5C0 39.5833 11.1929 51 25 51Z" fill="#F0F0F0"/>
<path d="M24.9998 0C15.0883 0 6.52422 5.88343 2.48047 14.4131H47.519C43.4754 5.88343 34.9112 0 24.9998 0V0Z" fill="#338AF3"/>
<path d="M24.9998 51C34.9112 51 43.4754 45.1166 47.5191 36.5869H2.48047C6.52422 45.1166 15.0883 51 24.9998 51Z" fill="#338AF3"/>
<path d="M32.4722 25.4998L29.4189 26.9647L31.0448 29.9808L27.7294 29.3338L27.3093 32.75L25 30.2375L22.6906 32.75L22.2706 29.3338L18.9552 29.9807L20.581 26.9646L17.5278 25.4998L20.5811 24.0348L18.9552 21.0189L22.2705 21.6657L22.6907 18.2495L25 20.7621L27.3094 18.2495L27.7294 21.6657L31.0449 21.0189L29.419 24.0349L32.4722 25.4998Z" fill="#FFDA44"/>
</g>
<defs>
<clipPath id="clip0_105_847">
<rect width="50" height="51" fill="white"/>
</clipPath>
</defs>
</svg>
