<svg width="50" height="51" viewBox="0 0 50 51" fill="none" xmlns="http://www.w3.org/2000/svg">
<g clip-path="url(#clip0_105_1469)">
<path d="M25 51C38.8071 51 50 39.5833 50 25.5C50 11.4167 38.8071 0 25 0C11.1929 0 0 11.4167 0 25.5C0 39.5833 11.1929 51 25 51Z" fill="#0052B4"/>
<path d="M25.0001 9.97827L25.8096 12.5192H28.4287L26.3097 14.0895L27.1192 16.6305L25.0001 15.06L22.881 16.6305L23.6905 14.0895L21.5714 12.5192H24.1906L25.0001 9.97827Z" fill="#FFDA44"/>
<path d="M14.2396 14.5244L16.5736 15.7373L18.4257 13.8483L18.0158 16.4869L20.3497 17.6999L17.7627 18.1178L17.3529 20.7567L16.1638 18.3761L13.5768 18.7942L15.4289 16.9051L14.2396 14.5244Z" fill="#FFDA44"/>
<path d="M9.78271 25.5L12.2738 24.6743V22.0027L13.8133 24.1642L16.3045 23.3385L14.7647 25.5L16.3045 27.6614L13.8133 26.8358L12.2738 28.9973V26.3256L9.78271 25.5Z" fill="#FFDA44"/>
<path d="M14.2396 36.4756L15.4288 34.0949L13.5768 32.2058L16.1639 32.624L17.3528 30.2434L17.7627 32.8822L20.3496 33.3001L18.016 34.5131L18.4257 37.1517L16.5736 35.2626L14.2396 36.4756Z" fill="#FFDA44"/>
<path d="M25.0001 41.0218L24.1906 38.4808H21.5714L23.6906 36.9105L22.881 34.3698L25.0001 35.94L27.1192 34.3698L26.3097 36.9105L28.4287 38.4808H25.8095L25.0001 41.0218Z" fill="#FFDA44"/>
<path d="M35.7604 36.4756L33.4265 35.2627L31.5744 37.1518L31.9843 34.513L29.6506 33.3001L32.2375 32.8822L32.6473 30.2434L33.8363 32.624L36.4232 32.2058L34.5712 34.0951L35.7604 36.4756Z" fill="#FFDA44"/>
<path d="M40.2174 25.5L37.7263 26.3256V28.9973L36.1867 26.8357L33.6958 27.6614L35.2354 25.5L33.6958 23.3385L36.1868 24.1642L37.7263 22.0027V24.6744L40.2174 25.5Z" fill="#FFDA44"/>
<path d="M35.7604 14.5244L34.5713 16.9051L36.4233 18.7942L33.8362 18.376L32.6473 20.7566L32.2375 18.1178L29.6506 17.6998L31.9843 16.4869L31.5744 13.8484L33.4266 15.7374L35.7604 14.5244Z" fill="#FFDA44"/>
</g>
<defs>
<clipPath id="clip0_105_1469">
<rect width="50" height="51" fill="white"/>
</clipPath>
</defs>
</svg>
