<svg width="50" height="51" viewBox="0 0 50 51" fill="none" xmlns="http://www.w3.org/2000/svg">
<g clip-path="url(#clip0_105_1515)">
<path d="M25 51C38.8071 51 50 39.5833 50 25.5C50 11.4167 38.8071 0 25 0C11.1929 0 0 11.4167 0 25.5C0 39.5833 11.1929 51 25 51Z" fill="#F0F0F0"/>
<path d="M50.0002 25.5C50.0002 14.5359 43.2158 5.18903 33.6958 1.58606V49.414C43.2158 45.8109 50.0002 36.4641 50.0002 25.5V25.5Z" fill="#D80027"/>
<path d="M0 25.5C0 36.4641 6.78447 45.8109 16.3044 49.4139V1.58606C6.78447 5.18903 0 14.5359 0 25.5Z" fill="#0052B4"/>
</g>
<defs>
<clipPath id="clip0_105_1515">
<rect width="50" height="51" fill="white"/>
</clipPath>
</defs>
</svg>
