<svg width="50" height="51" viewBox="0 0 50 51" fill="none" xmlns="http://www.w3.org/2000/svg">
<g clip-path="url(#clip0_105_1444)">
<path d="M25 51C38.8071 51 50 39.5833 50 25.5C50 11.4167 38.8071 0 25 0C11.1929 0 0 11.4167 0 25.5C0 39.5833 11.1929 51 25 51Z" fill="#F0F0F0"/>
<path d="M15.2175 16.6305H48.445C44.9128 6.92006 35.7491 0 25.0001 0C18.0964 0 11.8471 2.8547 7.32324 7.46961L15.2175 16.6305Z" fill="#6DA544"/>
<path d="M15.2175 34.3695H48.445C44.9128 44.0799 35.7491 51 25.0001 51C18.0964 51 11.8471 48.1453 7.32324 43.5304L15.2175 34.3695Z" fill="#D80027"/>
<path d="M7.32231 7.46875C-2.44077 17.4271 -2.44077 33.5729 7.32231 43.5313C11.3568 39.4162 15.237 35.4584 25 25.5L7.32231 7.46875Z" fill="#0052B4"/>
<path d="M29.3477 21.0652V26.6086C29.3477 30.0033 33.6955 31.0436 33.6955 31.0436C33.6955 31.0436 38.0434 30.0033 38.0434 26.6086V21.0652H29.3477Z" fill="#DEDDE0"/>
<path d="M32.6089 25.6108H34.7828V28.826H32.6089V25.6108Z" fill="#786145"/>
<path d="M35.8693 24.3914C35.8693 23.1667 34.8961 22.174 33.6954 22.174C32.4947 22.174 31.5215 23.1667 31.5215 24.3914C30.9212 24.3914 30.4346 24.8877 30.4346 25.5C30.4346 26.1123 30.9212 26.6087 31.5215 26.6087H35.8693C36.4696 26.6087 36.9562 26.1123 36.9562 25.5C36.9562 24.8877 36.4697 24.3914 35.8693 24.3914V24.3914Z" fill="#6DA544"/>
</g>
<defs>
<clipPath id="clip0_105_1444">
<rect width="50" height="51" fill="white"/>
</clipPath>
</defs>
</svg>
