<svg width="51" height="51" viewBox="0 0 51 51" fill="none" xmlns="http://www.w3.org/2000/svg">
<g clip-path="url(#clip0_105_2551)">
<path d="M48.0975 36.587C49.6867 33.2347 50.5781 29.4735 50.5781 25.5001C50.5781 21.5267 49.6867 17.7655 48.0975 14.4132L25.5781 13.3044L3.05879 14.4131C1.46953 17.7655 0.578125 21.5267 0.578125 25.5001C0.578125 29.4735 1.46953 33.2347 3.05879 36.587L25.5781 37.6958L48.0975 36.587Z" fill="#FFDA44"/>
<path d="M25.5779 0C15.6664 0 7.10234 5.88343 3.05859 14.4131H48.0972C44.0535 5.88343 35.4894 0 25.5779 0V0Z" fill="black"/>
<path d="M25.5779 51C15.6664 51 7.10234 45.1166 3.05859 36.5869H48.0972C44.0535 45.1166 35.4894 51 25.5779 51V51Z" fill="#0052B4"/>
<path d="M49.3976 17.7393H1.75869C0.992871 20.1866 0.578125 22.7938 0.578125 25.5001C0.578125 28.2064 0.992871 30.8137 1.75869 33.261H49.3975C50.1634 30.8137 50.5781 28.2064 50.5781 25.5001C50.5781 22.7938 50.1634 20.1866 49.3976 17.7393Z" fill="#A2001D"/>
<path d="M9.27393 24.3914H41.8826V26.6088H9.27393V24.3914Z" fill="#FFDA44"/>
<path d="M13.6216 19.9565H37.5347V22.1739H13.6216V19.9565Z" fill="#FFDA44"/>
<path d="M37.6897 25.5001C37.6897 25.5001 32.0996 32.1523 25.5779 32.1523C19.0563 32.1523 19.0562 25.5001 19.0562 25.5001C19.0562 25.5001 19.0562 18.8479 25.5779 18.8479C32.0997 18.8479 37.6897 25.5001 37.6897 25.5001Z" fill="#F0F0F0"/>
<path d="M25.5781 32.1523C19.0563 32.1523 13.4663 25.5001 13.4663 25.5001C13.4663 25.5001 19.0563 18.8479 25.5781 18.8479" fill="black"/>
<path d="M21.2305 23.2827H23.4044V27.7175H21.2305V23.2827Z" fill="#F0F0F0"/>
<path d="M27.752 23.2827H29.9259V27.7175H27.752V23.2827Z" fill="black"/>
<path d="M9.27354 27.7175C10.4742 27.7175 11.4475 26.7248 11.4475 25.5001C11.4475 24.2755 10.4742 23.2827 9.27354 23.2827C8.07291 23.2827 7.09961 24.2755 7.09961 25.5001C7.09961 26.7248 8.07291 27.7175 9.27354 27.7175Z" fill="#0052B4"/>
<path d="M41.8824 27.7175C43.083 27.7175 44.0563 26.7248 44.0563 25.5001C44.0563 24.2755 43.083 23.2827 41.8824 23.2827C40.6818 23.2827 39.7085 24.2755 39.7085 25.5001C39.7085 26.7248 40.6818 27.7175 41.8824 27.7175Z" fill="#0052B4"/>
</g>
<defs>
<clipPath id="clip0_105_2551">
<rect width="50" height="51" fill="white" transform="translate(0.578125)"/>
</clipPath>
</defs>
</svg>
