<svg width="50" height="51" viewBox="0 0 50 51" fill="none" xmlns="http://www.w3.org/2000/svg">
<g clip-path="url(#clip0_105_2232)">
<path d="M50 25.5C50 39.5832 38.807 51 25 51C11.193 51 0 39.5832 0 25.5C0 25.5061 25 0.00278906 25 0C38.807 0 50 11.4168 50 25.5Z" fill="#0052B4"/>
<path d="M24.9331 25.5H25C25 25.4771 25 25.4548 25 25.4318C24.9777 25.4546 24.9555 25.4773 24.9331 25.5Z" fill="#F0F0F0"/>
<path d="M25 13.3043C25 8.81742 25 5.87745 25 0H24.9958C11.1905 0.00239063 0 11.4181 0 25.5H13.0435V18.0083L20.3883 25.5H24.9332C24.9555 25.4773 24.9777 25.4546 25.0001 25.4318C25.0001 23.7138 25.0001 22.1809 25.0001 20.7962L17.6551 13.3043H25Z" fill="#F0F0F0"/>
<path d="M12.6479 3.32605C8.73779 5.59704 5.48711 8.91264 3.26074 12.9009V25.5H9.78252V9.97846V9.97826H24.9999C24.9999 7.88019 24.9999 5.88143 24.9999 3.32605H12.6479Z" fill="#D80027"/>
<path d="M25 22.3642L16.1177 13.3044H13.0435V13.3046L24.9998 25.5H25C25 25.5 25 23.3378 25 22.3642V22.3642Z" fill="#D80027"/>
<path d="M39.1307 15.5217L35.8697 16.6305L32.6089 15.5217L31.522 12.75L32.6089 9.97827H39.1307L38.0437 12.75L39.1307 15.5217Z" fill="#ACABB1"/>
<path d="M28.2607 15.5217V27.7173C28.2607 33.658 35.8694 35.4783 35.8694 35.4783C35.8694 35.4783 43.4781 33.658 43.4781 27.7173V15.5217H28.2607Z" fill="#338AF3"/>
<path d="M28.9468 30.6066C30.8171 34.2691 35.8696 35.4783 35.8696 35.4783C35.8696 35.4783 40.9222 34.2691 42.7925 30.6066L35.8696 18.8479L28.9468 30.6066Z" fill="#6DA544"/>
<path d="M43.4781 27.5941L35.8694 15.5217L28.2607 27.5942V27.7173C28.2607 28.8168 28.5219 29.7748 28.9466 30.6066L35.8694 19.6221L42.7923 30.6065C43.217 29.7746 43.4781 28.8167 43.4781 27.7172V27.5941Z" fill="#FFDA44"/>
</g>
<defs>
<clipPath id="clip0_105_2232">
<rect width="50" height="51" fill="white"/>
</clipPath>
</defs>
</svg>
