<svg width="50" height="51" viewBox="0 0 50 51" fill="none" xmlns="http://www.w3.org/2000/svg">
<g clip-path="url(#clip0_105_2440)">
<path d="M25 51C38.8071 51 50 39.5833 50 25.5C50 11.4167 38.8071 0 25 0C11.1929 0 0 11.4167 0 25.5C0 39.5833 11.1929 51 25 51Z" fill="#F0F0F0"/>
<path d="M48.445 16.6305H21.7392V9.97827H8.69561V16.6305H1.55498C0.550098 19.3929 0 22.3808 0 25.5C0 28.6192 0.550098 31.6071 1.55498 34.3695L25 36.5869L48.445 34.3695C49.4499 31.6071 50 28.6192 50 25.5C50 22.3808 49.4499 19.3929 48.445 16.6305Z" fill="#0052B4"/>
<path d="M25 51.0001C35.7491 51.0001 44.9126 44.08 48.445 34.3696H1.55493C5.08726 44.08 14.2508 51.0001 25 51.0001Z" fill="#D80027"/>
<path d="M8.69556 16.6305V18.8478C8.69556 23.9399 15.2173 25.5001 15.2173 25.5001C15.2173 25.5001 21.7391 23.9399 21.7391 18.8478V16.6305L19.5652 18.8479L15.2173 15.5219L10.8695 18.8479L8.69556 16.6305Z" fill="#F0F0F0"/>
</g>
<defs>
<clipPath id="clip0_105_2440">
<rect width="50" height="51" fill="white"/>
</clipPath>
</defs>
</svg>
