<svg width="50" height="51" viewBox="0 0 50 51" fill="none" xmlns="http://www.w3.org/2000/svg">
<g clip-path="url(#clip0_105_1876)">
<path d="M25 51C38.8071 51 50 39.5833 50 25.5C50 11.4167 38.8071 0 25 0C11.1929 0 0 11.4167 0 25.5C0 39.5833 11.1929 51 25 51Z" fill="#F0F0F0"/>
<path d="M16.3042 25.4999V49.4138C19.0124 50.4389 21.9418 50.9999 24.9998 50.9999C38.8068 50.9999 49.9998 39.5831 49.9998 25.4999C49.9998 11.4167 16.3042 25.4999 16.3042 25.4999Z" fill="#6DA544"/>
<path d="M24.9998 0C21.9418 0 19.0124 0.5611 16.3042 1.58608V25.5H49.9998C49.9998 11.4168 38.8068 0 24.9998 0Z" fill="#D80027"/>
</g>
<defs>
<clipPath id="clip0_105_1876">
<rect width="50" height="51" fill="white"/>
</clipPath>
</defs>
</svg>
