<svg width="50" height="51" viewBox="0 0 50 51" fill="none" xmlns="http://www.w3.org/2000/svg">
<g clip-path="url(#clip0_105_1494)">
<path d="M25 51C38.8071 51 50 39.5833 50 25.5C50 11.4167 38.8071 0 25 0C11.1929 0 0 11.4167 0 25.5C0 39.5833 11.1929 51 25 51Z" fill="#F0F0F0"/>
<path d="M48.913 25.5L49.7879 22.174C49.6426 21.0403 49.4246 19.9299 49.1388 18.8479H22.826V0.0970459C21.7166 0.194464 20.6282 0.366688 19.5651 0.607145L15.2173 3.32608L13.0434 3.10226C11.8993 3.73896 10.8094 4.46412 9.78252 5.26886V18.8478H0.861133C0.575293 19.9298 0.357324 21.0402 0.212012 22.1739L1.08682 25.5L0.211914 28.8261C0.357227 29.9597 0.575195 31.0702 0.861035 32.1521H9.78242V45.7311C10.8093 46.5359 11.8993 47.261 13.0433 47.8977L16.3041 47.6739L19.5649 50.3928C20.6281 50.6332 21.7165 50.8054 22.8258 50.9029V32.1522H49.1385C49.4243 31.0703 49.6423 29.9598 49.7876 28.8262L48.913 25.5Z" fill="#0052B4"/>
<path d="M49.7884 22.1739H19.5653H19.5652V0.606079C17.2549 1.12863 15.0646 1.97561 13.0435 3.1005V22.1738H0.211621C0.0726563 23.2626 0 24.3727 0 25.5C0 26.6272 0.0726563 27.7373 0.211621 28.826H13.0434H13.0435V47.8993C15.0646 49.0241 17.2549 49.8713 19.5652 50.3937V28.8263V28.8261H49.7884C49.9273 27.7373 50 26.6272 50 25.5C50 24.3727 49.9273 23.2626 49.7884 22.1739V22.1739Z" fill="#D80027"/>
</g>
<defs>
<clipPath id="clip0_105_1494">
<rect width="50" height="51" fill="white"/>
</clipPath>
</defs>
</svg>
