<svg width="50" height="51" viewBox="0 0 50 51" fill="none" xmlns="http://www.w3.org/2000/svg">
<g clip-path="url(#clip0_105_2613)">
<path d="M25 51C38.8071 51 50 39.5833 50 25.5C50 11.4167 38.8071 0 25 0C11.1929 0 0 11.4167 0 25.5C0 39.5833 11.1929 51 25 51Z" fill="#F0F0F0"/>
<path d="M10.9097 4.43481C14.9219 1.63718 19.7732 0 25.0002 0C30.2271 0 35.0785 1.63718 39.0907 4.43481L25.0002 5.54346L10.9097 4.43481Z" fill="#FFDA44"/>
<path d="M7.32363 43.5299L18.8512 31.772L25 21.0652L31.1481 31.7713L42.6764 43.5299C47.2008 38.9156 50 32.5417 50 25.5C50 16.7482 45.6769 9.02711 39.0905 4.43481H10.9095C4.32314 9.02711 0 16.7482 0 25.5C0 32.5417 2.79922 38.9156 7.32363 43.5299V43.5299Z" fill="#D80027"/>
<path d="M48.1006 35.2638L29.8223 27.5383L31.1471 31.7701L42.6762 43.5298C44.9781 41.1821 46.8334 38.3789 48.1006 35.2638Z" fill="#0052B4"/>
<path d="M50 25.4999C50 22.041 49.3241 18.7434 48.1008 15.7361L25 25.4999H50Z" fill="#0052B4"/>
<path d="M42.6764 7.47011C41.5775 6.34951 40.3774 5.3322 39.0905 4.43481H33.5578L25 25.5L42.6764 7.47011Z" fill="#0052B4"/>
<path d="M25.0001 4.43481H16.4424L25.0001 25.5V4.43481Z" fill="#0052B4"/>
<path d="M7.32373 7.47021C5.02178 9.81801 3.1666 12.6211 1.89941 15.7362L25.0001 25.5001L7.32373 7.47021Z" fill="#0052B4"/>
<path d="M0 25.5C0 28.9589 0.675879 32.2565 1.89922 35.2638L25 25.5H0Z" fill="#0052B4"/>
<path d="M10.9097 46.5652C14.9218 49.3628 19.7732 51 25.0002 51C30.2271 51 35.0785 49.3628 39.0907 46.5652H10.9097Z" fill="#FFDA44"/>
<path d="M25.0003 25.4999L31.149 31.7716C32.7228 30.1665 33.696 27.9492 33.696 25.4999C33.696 20.6013 29.8028 16.6304 25.0004 16.6304C20.198 16.6304 16.3047 20.6013 16.3047 25.4999C16.3047 27.9491 17.2779 30.1665 18.8517 31.7716L25.0003 25.4999Z" fill="#FFDA44"/>
<path d="M28.8046 38.2499C28.8046 40.393 27.1012 41.0216 25.0002 41.0216C22.8992 41.0216 21.1958 40.393 21.1958 38.2499C21.1958 36.1068 22.8992 34.3694 25.0002 34.3694C27.1012 34.3694 28.8046 36.1068 28.8046 38.2499Z" fill="#FFDA44"/>
<path d="M28.8046 38.25C28.8046 40.3931 27.1012 42.1305 25.0002 42.1305C22.8992 42.1305 21.1958 40.3931 21.1958 38.25" fill="#0052B4"/>
</g>
<defs>
<clipPath id="clip0_105_2613">
<rect width="50" height="51" fill="white"/>
</clipPath>
</defs>
</svg>
