<svg width="50" height="51" viewBox="0 0 50 51" fill="none" xmlns="http://www.w3.org/2000/svg">
<g clip-path="url(#clip0_105_2517)">
<path d="M25 51.001C38.8071 51.001 50 39.5842 50 25.501C50 11.4177 38.8071 0.000976562 25 0.000976562C11.1929 0.000976562 0 11.4177 0 25.501C0 39.5842 11.1929 51.001 25 51.001Z" fill="#F0F0F0"/>
<path d="M44.6375 20.5119H36.4129C36.4129 18.9812 35.1963 17.7402 33.6956 17.7402L31.5216 22.175C31.5216 22.175 33.8405 28.8272 33.768 28.8272H36.4853C37.9862 28.8272 39.2027 27.5863 39.2027 26.0555C40.7036 26.0555 41.9201 24.8146 41.9201 23.2838H41.8296C43.3303 23.2837 44.6375 22.0428 44.6375 20.5119Z" fill="#ACABB1"/>
<path d="M5.3623 20.5119H13.5869C13.5869 18.9812 14.8035 17.7402 16.3043 17.7402L18.4782 22.175C18.4782 22.175 16.1593 28.8272 16.2319 28.8272H13.5145C12.0137 28.8272 10.7971 27.5863 10.7971 26.0555C9.29629 26.0555 8.07977 24.8146 8.07977 23.2838H8.17027C6.66943 23.2837 5.3623 22.0428 5.3623 20.5119V20.5119Z" fill="#ACABB1"/>
<path d="M33.6957 35.4792V36.5879H16.3043V35.4792H11.9565V39.914H16.3043V41.0227H33.6957V39.914H38.0435V35.4792H33.6957Z" fill="#FFDA44"/>
<path d="M16.3043 17.74V28.8269C16.3043 35.6161 24.9999 37.6965 24.9999 37.6965C24.9999 37.6965 33.6955 35.6161 33.6955 28.8269V17.74L24.9999 16.6313L16.3043 17.74Z" fill="#0052B4"/>
<path d="M16.3044 22.1753H33.6957V28.8275H16.3044V22.1753Z" fill="#D80027"/>
<path d="M29.3477 12.1967V13.8597L28.2608 14.4141L27.1739 13.3053V9.97925H22.8261V13.3053L21.7392 14.4141L20.6521 13.8597V12.1967H16.3043V17.7401H33.6956V12.1967H29.3477Z" fill="#FFDA44"/>
</g>
<defs>
<clipPath id="clip0_105_2517">
<rect width="50" height="51" fill="white" transform="translate(0 0.000976562)"/>
</clipPath>
</defs>
</svg>
