<svg width="50" height="51" viewBox="0 0 50 51" fill="none" xmlns="http://www.w3.org/2000/svg">
<g clip-path="url(#clip0_105_1127)">
<path d="M25 51C38.8071 51 50 39.5833 50 25.5C50 11.4167 38.8071 0 25 0C11.1929 0 0 11.4167 0 25.5C0 39.5833 11.1929 51 25 51Z" fill="#F0F0F0"/>
<path d="M40.2224 5.26953C31.272 -1.75552 18.7282 -1.75552 9.77783 5.26943L25.0001 20.7961L40.2224 5.26953Z" fill="#D80027"/>
<path d="M24.9999 30.2039L9.77783 45.7304C18.7282 52.7555 31.272 52.7555 40.2224 45.7304L25.0001 30.2037L24.9999 30.2039Z" fill="#D80027"/>
<path d="M20.3881 25.5L5.16597 9.97327C-1.72134 19.1027 -1.72134 31.8973 5.16597 41.0267L20.3881 25.5Z" fill="#6DA544"/>
<path d="M29.6113 25.5L44.8334 41.0267C51.7207 31.8973 51.7207 19.1027 44.8334 9.97327L29.6113 25.5Z" fill="#6DA544"/>
<path d="M24.9999 36.5869C31.003 36.5869 35.8694 31.6231 35.8694 25.5C35.8694 19.3769 31.003 14.4131 24.9999 14.4131C18.9968 14.4131 14.1304 19.3769 14.1304 25.5C14.1304 31.6231 18.9968 36.5869 24.9999 36.5869Z" fill="#F0F0F0"/>
<path d="M24.9997 17.7391L25.941 19.4022H27.8237L26.8823 21.0652L27.8237 22.7283H25.941L24.9997 24.3913L24.0584 22.7283H22.1758L23.1171 21.0652L22.1758 19.4022H24.0584L24.9997 17.7391Z" fill="#D80027"/>
<path d="M20.2151 25.5L21.1564 27.1631H23.0391L22.0978 28.8261L23.0391 30.4891H21.1564L20.2151 32.1522L19.2737 30.4891H17.3911L18.3324 28.8261L17.3911 27.1631H19.2737L20.2151 25.5Z" fill="#D80027"/>
<path d="M29.7845 25.5L30.7258 27.1631H32.6084L31.6671 28.8261L32.6084 30.4891H30.7258L29.7845 32.1522L28.8431 30.4891H26.9604L27.9018 28.8261L26.9604 27.1631H28.8431L29.7845 25.5Z" fill="#D80027"/>
</g>
<defs>
<clipPath id="clip0_105_1127">
<rect width="50" height="51" fill="white"/>
</clipPath>
</defs>
</svg>
