<svg width="50" height="51" viewBox="0 0 50 51" fill="none" xmlns="http://www.w3.org/2000/svg">
<g clip-path="url(#clip0_105_962)">
<path d="M50 25.5001C50 16.7483 45.6769 9.02731 39.0905 4.43492L25 3.32617L10.9095 4.43482C4.32324 9.02731 0 16.7484 0 25.5001C0 34.2521 4.32324 41.9729 10.9095 46.5653L25 47.6741L39.0905 46.5654C45.6769 41.9729 50 34.2521 50 25.5001Z" fill="#0052B4"/>
<path d="M39.0905 4.43481C35.0783 1.63718 30.2269 0 25 0C19.7731 0 14.9216 1.63718 10.9094 4.43481H39.0905Z" fill="#A2001D"/>
<path d="M10.9094 46.5652C14.9215 49.3628 19.7731 51 25 51C30.2269 51 35.0783 49.3628 39.0905 46.5652H10.9094Z" fill="#A2001D"/>
<path d="M25 37.6958C31.6034 37.6958 36.9565 32.2356 36.9565 25.5001C36.9565 18.7646 31.6034 13.3044 25 13.3044C18.3966 13.3044 13.0435 18.7646 13.0435 25.5001C13.0435 32.2356 18.3966 37.6958 25 37.6958Z" fill="#F0F0F0"/>
<path d="M24.9999 35.4783C30.4027 35.4783 34.7825 31.0108 34.7825 25.5C34.7825 19.9892 30.4027 15.5217 24.9999 15.5217C19.5971 15.5217 15.2173 19.9892 15.2173 25.5C15.2173 31.0108 19.5971 35.4783 24.9999 35.4783Z" fill="#6DA544"/>
<path d="M25 32.1523C28.6019 32.1523 31.5218 29.174 31.5218 25.5001C31.5218 21.8262 28.6019 18.8479 25 18.8479C21.3982 18.8479 18.4783 21.8262 18.4783 25.5001C18.4783 29.174 21.3982 32.1523 25 32.1523Z" fill="#F0F0F0"/>
<path d="M24.9999 23.8369L21.4673 25.5V28.2717L24.9999 30.4891L28.5325 28.2717V25.5L24.9999 23.8369Z" fill="#0052B4"/>
<path d="M21.4673 22.1738H28.5325V25.4999H21.4673V22.1738Z" fill="#FFDA44"/>
</g>
<defs>
<clipPath id="clip0_105_962">
<rect width="50" height="51" fill="white"/>
</clipPath>
</defs>
</svg>
