<svg width="50" height="51" viewBox="0 0 50 51" fill="none" xmlns="http://www.w3.org/2000/svg">
<g clip-path="url(#clip0_105_2293)">
<path d="M0 25.5C0 29.9177 1.10186 34.0728 3.03975 37.6957L25 39.9131L46.9603 37.6957C48.8981 34.0728 50 29.9177 50 25.5L25 23.2826L0 25.5Z" fill="#FFDA44"/>
<path d="M46.9603 13.3043C42.7201 5.37781 34.4761 0 25 0C15.5239 0 7.27988 5.37781 3.03975 13.3043C1.10186 16.9272 0 21.0823 0 25.5H50C50 21.0823 48.8981 16.9272 46.9603 13.3043Z" fill="#338AF3"/>
<path d="M24.9998 51C34.4759 51 42.7199 45.6222 46.9601 37.6957H3.03955C7.27969 45.6222 15.5237 51 24.9998 51Z" fill="#496E2D"/>
<path d="M28.2607 14.9236L31.3141 16.3885L29.6882 19.4047L33.0036 18.7578L33.4237 22.1739L35.7329 19.6614L38.0423 22.1739L38.4623 18.7578L41.7777 19.4045L40.152 16.3884L43.2051 14.9236L40.1519 13.4588L41.7777 10.4426L38.4624 11.0895L38.0422 7.6734L35.7329 10.1859L33.4236 7.6734L33.0036 11.0895L29.6881 10.4426L31.314 13.4589L28.2607 14.9236Z" fill="#FFDA44"/>
</g>
<defs>
<clipPath id="clip0_105_2293">
<rect width="50" height="51" fill="white"/>
</clipPath>
</defs>
</svg>
