<svg width="50" height="51" viewBox="0 0 50 51" fill="none" xmlns="http://www.w3.org/2000/svg">
<g clip-path="url(#clip0_105_1716)">
<path d="M25 51C38.8071 51 50 39.5833 50 25.5C50 11.4167 38.8071 0 25 0C11.1929 0 0 11.4167 0 25.5C0 39.5833 11.1929 51 25 51Z" fill="#D80027"/>
<path d="M34.2565 17.0941L32.4896 23.526L27.1878 22.5274L23.7751 15.3521L14.5557 18.6891L13.8286 16.5993L11.4165 16.2961L13.234 21.5206L19.5786 19.8656L21.3816 25.0481L16.9957 31.6504L24.4388 38.1256L23.028 39.8127L23.9767 42.0952L27.5038 37.8773L22.9263 33.1003L26.425 28.9165L34.2236 29.4896L35.9999 19.6771L38.1377 20.0798L39.6015 18.1006L34.2565 17.0941Z" fill="#F0F0F0"/>
</g>
<defs>
<clipPath id="clip0_105_1716">
<rect width="50" height="51" fill="white"/>
</clipPath>
</defs>
</svg>
